<?xml version="1.0" encoding="UTF-8" standalone="no"?>
<svg
   xmlns:dc="http://purl.org/dc/elements/1.1/"
   xmlns:cc="http://creativecommons.org/ns#"
   xmlns:rdf="http://www.w3.org/1999/02/22-rdf-syntax-ns#"
   xmlns:svg="http://www.w3.org/2000/svg"
   xmlns="http://www.w3.org/2000/svg"
   xmlns:sodipodi="http://sodipodi.sourceforge.net/DTD/sodipodi-0.dtd"
   xmlns:inkscape="http://www.inkscape.org/namespaces/inkscape"
   width="128"
   height="128"
   id="svg2"
   version="1.1"
   inkscape:version="0.48.4 r9939"
   sodipodi:docname="transformador_bifasico_rural.svg">
  <metadata
     id="metadata649">
    <rdf:RDF>
      <cc:Work
         rdf:about="">
        <dc:format>image/svg+xml</dc:format>
        <dc:type
           rdf:resource="http://purl.org/dc/dcmitype/StillImage" />
        <dc:title />
      </cc:Work>
    </rdf:RDF>
  </metadata>
  <sodipodi:namedview
     pagecolor="#ffffff"
     bordercolor="#666666"
     borderopacity="1"
     objecttolerance="10"
     gridtolerance="10"
     guidetolerance="10"
     inkscape:pageopacity="0"
     inkscape:pageshadow="2"
     inkscape:window-width="1364"
     inkscape:window-height="718"
     id="namedview647"
     showgrid="true"
     fit-margin-top="0"
     fit-margin-left="0"
     fit-margin-right="0"
     fit-margin-bottom="0"
     inkscape:zoom="5.0743656"
     inkscape:cx="32.519494"
     inkscape:cy="101.22464"
     inkscape:window-x="0"
     inkscape:window-y="0"
     inkscape:window-maximized="1"
     inkscape:current-layer="layer3"
     showguides="true"
     inkscape:guide-bbox="true">
    <inkscape:grid
       type="xygrid"
       id="grid3626"
       empspacing="5"
       visible="true"
       enabled="true"
       snapvisiblegridlinesonly="true" />
    <sodipodi:guide
       orientation="1,0"
       position="64,109"
       id="guide3319" />
    <sodipodi:guide
       orientation="0,1"
       position="62,64"
       id="guide3321" />
  </sodipodi:namedview>
  <desc
     id="desc4">/home/snappler/Escritorio/Simbolos-C DXF_2000.dxf - scale = 0.536199</desc>
  <defs
     id="defs6">
    <marker
       id="DistanceX"
       orient="auto"
       refX="0"
       refY="0"
       style="overflow:visible">
      <path
         d="M 3,-3 -3,3 M 0,-5 0,5"
         style="stroke:#000000;stroke-width:0.5"
         id="path9"
         inkscape:connector-curvature="0" />
    </marker>
    <pattern
       height="8"
       id="Hatch"
       patternUnits="userSpaceOnUse"
       width="8"
       x="0"
       y="0">
      <path
         d="M8 4 l-4,4"
         linecap="square"
         stroke="#000000"
         stroke-width="0.25"
         id="path12" />
      <path
         d="M6 2 l-4,4"
         linecap="square"
         stroke="#000000"
         stroke-width="0.25"
         id="path14" />
      <path
         d="M4 0 l-4,4"
         linecap="square"
         stroke="#000000"
         stroke-width="0.25"
         id="path16" />
    </pattern>
    <symbol
       id="*MODEL_SPACE" />
    <symbol
       id="*PAPER_SPACE" />
    <symbol
       id="POSTE-RD">
      <path
         d="m -10769658,11642373 7,0"
         style="fill:none;stroke:#000000"
         id="path21"
         inkscape:connector-curvature="0" />
      <path
         d="m -10769666,11642377 6,-8"
         style="fill:none;stroke:#000000"
         id="path23"
         inkscape:connector-curvature="0" />
      <path
         d="m -10769658,11642373 a 5,5 0 1 0 -10,0 5,5 0 1 0 10,0 z"
         style="fill:none;stroke:#000000"
         id="path25"
         inkscape:connector-curvature="0" />
      <path
         d="m -10769659,11642376 -8,-6"
         style="fill:none;stroke:#000000"
         id="path27"
         inkscape:connector-curvature="0" />
      <path
         d="m -10769645,11642373 -6,-2 0,4 z"
         style="fill:#000000"
         id="path29"
         inkscape:connector-curvature="0" />
    </symbol>
    <symbol
       id="POSTE-CP">
      <path
         d="m -10769658,11642373 a 5,5 0 1 0 -10,0 5,5 0 1 0 10,0 z"
         style="fill:none;stroke:#000000"
         id="path32"
         inkscape:connector-curvature="0" />
      <path
         d="m -10769666,11642377 6,-8"
         style="fill:none;stroke:#000000"
         id="path34"
         inkscape:connector-curvature="0" />
      <path
         d="m -10769648,11642370 0,6"
         style="fill:none;stroke:#000000"
         id="path36"
         inkscape:connector-curvature="0" />
      <path
         d="m -10769659,11642375 11,1"
         style="fill:none;stroke:#000000"
         id="path38"
         inkscape:connector-curvature="0" />
      <path
         d="m -10769659,11642371 11,-1"
         style="fill:none;stroke:#000000"
         id="path40"
         inkscape:connector-curvature="0" />
      <path
         d="m -10769659,11642376 -8,-6"
         style="fill:none;stroke:#000000"
         id="path42"
         inkscape:connector-curvature="0" />
    </symbol>
    <symbol
       id="POSTE-MA">
      <path
         d="m -10769658,11642373 a 5,5 0 1 0 -10,0 5,5 0 1 0 10,0 z"
         style="fill:none;stroke:#000000"
         id="path45"
         inkscape:connector-curvature="0" />
      <path
         d="m -10769659,11642376 -8,-6"
         style="fill:none;stroke:#000000"
         id="path47"
         inkscape:connector-curvature="0" />
      <path
         d="m -10769666,11642377 6,-8"
         style="fill:none;stroke:#000000"
         id="path49"
         inkscape:connector-curvature="0" />
    </symbol>
    <symbol
       id="POSTE-HA">
      <path
         d="m -10769656,11642373 a 7.21976,7.21976 0 1 0 -14,0 7.21976,7.21976 0 1 0 14,0 z"
         style="fill:none;stroke:#000000"
         id="path52"
         inkscape:connector-curvature="0" />
      <path
         d="m -10769663,11642366 0,14"
         style="fill:none;stroke:#000000"
         id="path54"
         inkscape:connector-curvature="0" />
      <path
         d="m -10769656,11642373 -7,-7 0,14 z"
         style="fill:#000000"
         id="path56"
         inkscape:connector-curvature="0" />
    </symbol>
    <symbol
       id="PAT">
      <path
         d="m -10769663,11642373 0,8"
         style="fill:none;stroke:#000000"
         id="path59"
         inkscape:connector-curvature="0" />
      <path
         d="m -10769663,11642381 5,0"
         style="fill:none;stroke:#000000"
         id="path61"
         inkscape:connector-curvature="0" />
      <path
         d="m -10769663,11642383 4,0"
         style="fill:none;stroke:#000000"
         id="path63"
         inkscape:connector-curvature="0" />
      <path
         d="m -10769663,11642384 3,0"
         style="fill:none;stroke:#000000"
         id="path65"
         inkscape:connector-curvature="0" />
      <path
         d="m -10769663,11642386 2,0"
         style="fill:none;stroke:#000000"
         id="path67"
         inkscape:connector-curvature="0" />
      <path
         d="m -10769663,11642381 -5,0"
         style="fill:none;stroke:#000000"
         id="path69"
         inkscape:connector-curvature="0" />
      <path
         d="m -10769663,11642386 -2,0"
         style="fill:none;stroke:#000000"
         id="path71"
         inkscape:connector-curvature="0" />
      <path
         d="m -10769663,11642384 -3,0"
         style="fill:none;stroke:#000000"
         id="path73"
         inkscape:connector-curvature="0" />
      <path
         d="m -10769663,11642383 -4,0"
         style="fill:none;stroke:#000000"
         id="path75"
         inkscape:connector-curvature="0" />
    </symbol>
  </defs>
  <g
     inkscape:groupmode="layer"
     inkscape:label="0"
     id="g77"
     transform="translate(0.5,-924.86237)" />
  <g
     inkscape:groupmode="layer"
     id="layer3"
     inkscape:label="Capa"
     style="display:inline">
    <g
       id="g3337"
       transform="translate(-0.78827588,0)">
      <path
         inkscape:connector-curvature="0"
         id="path349"
         style="fill:none;stroke:#000000;stroke-width:2.5;stroke-miterlimit:4;stroke-dasharray:none"
         d="M 64.325611,927.47503 6.11263,1028.3029 l 116.42596,0 -58.212979,-100.82787 z"
         transform="translate(0.5,-924.86237)" />
      <g
         id="g3323">
        <g
           id="g3307">
          <g
             transform="matrix(0.76672728,0,0,0.76672728,-10.656248,68.060557)"
             id="g5299">
            <path
               sodipodi:type="arc"
               style="fill:none;stroke:#000000;stroke-width:3.59049511;stroke-linecap:round;stroke-linejoin:round;stroke-miterlimit:4;stroke-dasharray:none;stroke-dashoffset:0"
               id="path4483"
               sodipodi:cx="65"
               sodipodi:cy="63"
               sodipodi:rx="15"
               sodipodi:ry="15"
               d="m 80,63 c 0,8.284271 -6.715729,15 -15,15 -8.284271,0 -15,-6.715729 -15,-15 0,-8.284271 6.715729,-15 15,-15 8.284271,0 15,6.715729 15,15 z"
               transform="matrix(0.93051237,0,0,0.93051235,39.680605,4.3777223)" />
            <rect
               style="fill:#000000;fill-opacity:1;stroke:#000000;stroke-width:1.73365366;stroke-linecap:round;stroke-linejoin:round;stroke-miterlimit:4;stroke-dasharray:none;stroke-dashoffset:0"
               id="rect5261"
               width="24.33135"
               height="1.9366164"
               x="4.088397"
               y="-118.74342"
               transform="matrix(0.64079202,-0.76771452,-0.76771452,-0.64079202,0,0)" />
            <rect
               style="fill:#000000;fill-opacity:1;stroke:#000000;stroke-width:1.7449249;stroke-linecap:round;stroke-linejoin:round;stroke-miterlimit:4;stroke-dasharray:none;stroke-dashoffset:0"
               id="rect5261-3"
               width="24.48954"
               height="1.9492072"
               x="100.89651"
               y="33.856586"
               transform="matrix(0.65259432,0.7577075,0.7577075,-0.65259432,0,0)" />
          </g>
          <path
             inkscape:connector-curvature="0"
             id="path3301"
             d="m 10.243964,99.812569 c 0.721193,-1.24543 8.101329,-14.035463 16.400304,-28.422295 l 15.089045,-26.157876 23.075041,-0.0049 23.07504,-0.0049 16.146446,27.974273 c 8.88055,15.38585 16.26473,28.178069 16.40928,28.427149 l 0.26282,0.45289 -55.884617,0 -55.8846174,0 1.3112584,-2.264417 0,0 z"
             style="fill:#ffffff;fill-opacity:1;stroke:#ffffff;stroke-width:0.1393488" />
          <path
             inkscape:connector-curvature="0"
             id="path3303"
             d="m 64.238145,111.80608 c -1.187948,-1.38161 -2.334956,-2.72258 -2.548907,-2.97993 l -0.389,-0.4679 0.694269,-0.35182 c 1.13561,-0.57545 2.682261,-0.93506 4.040126,-0.93936 1.602773,-0.005 2.62002,0.21542 4.039011,0.87547 1.065447,0.49561 1.15057,0.56431 0.975441,0.78727 -0.337439,0.42961 -4.338056,5.25512 -4.497543,5.4249 -0.114638,0.12204 -0.70022,-0.47246 -2.313397,-2.34863 z"
             style="fill:#ffffff;fill-opacity:1;stroke:#ffffff;stroke-width:0.1393488" />
          <path
             inkscape:connector-curvature="0"
             id="path3305"
             d="m 70.857213,119.49413 c -1.302911,-1.52479 -2.368929,-2.82836 -2.368929,-2.89682 0,-0.0685 1.119327,-1.45649 2.487393,-3.08452 l 2.487394,-2.96004 0.462886,0.68734 c 1.711185,2.54097 2.006213,5.98308 0.761672,8.88648 -0.306831,0.71581 -1.228631,2.1605 -1.370524,2.14795 -0.05003,-0.004 -1.15698,-1.2556 -2.459892,-2.78039 z"
             style="fill:#ffffff;fill-opacity:1;stroke:#ffffff;stroke-width:0.1393488" />
          <path
             inkscape:connector-curvature="0"
             id="path3307"
             d="m 64.956667,125.61634 c -0.883289,-0.11463 -2.327796,-0.54534 -2.90608,-0.8665 -0.295109,-0.16389 -0.220266,-0.27345 2.039961,-2.98616 l 2.346311,-2.81602 2.302575,2.6731 c 2.587083,3.00338 2.505733,2.71139 0.933315,3.34997 -1.594269,0.64747 -3.106594,0.8545 -4.716082,0.64561 z"
             style="fill:#ffffff;fill-opacity:1;stroke:#ffffff;stroke-width:0.1393488" />
          <path
             inkscape:connector-curvature="0"
             id="path3309"
             d="m 58.904491,122.2569 c -2.187403,-2.68399 -2.685512,-6.62313 -1.234485,-9.76254 0.221663,-0.47959 0.614419,-1.16241 0.872791,-1.51738 l 0.469768,-0.64539 2.730136,3.16411 2.730135,3.16412 -2.287402,2.70686 c -1.258071,1.48877 -2.400669,2.88343 -2.539106,3.09924 l -0.251704,0.39238 -0.490133,-0.6014 0,0 z"
             style="fill:#ffffff;fill-opacity:1;stroke:#ffffff;stroke-width:0.1393488" />
          <path
             inkscape:connector-curvature="0"
             id="path3306"
             d="M 9.1697529,101.6241 C 9.3214506,101.37502 16.685463,88.629827 25.534223,73.301458 34.382985,57.97309 46.781931,36.495955 53.087438,25.574492 59.392944,14.65303 64.624389,5.639223 64.712873,5.5438106 c 0.12423,-0.1339592 2.824365,4.4371135 11.853134,20.0662284 28.894063,50.016638 44.108403,76.376151 44.108403,76.419751 0,0.026 -25.150605,0.0472 -55.890235,0.0472 l -55.8902361,0 0.275814,-0.45289 0,0 z"
             style="fill:#ffffff;fill-opacity:1;stroke:#ffffff;stroke-width:0.1393488" />
        </g>
      </g>
    </g>
  </g>
</svg>
