<?xml version="1.0" encoding="UTF-8" standalone="no"?>
<svg
   xmlns:dc="http://purl.org/dc/elements/1.1/"
   xmlns:cc="http://creativecommons.org/ns#"
   xmlns:rdf="http://www.w3.org/1999/02/22-rdf-syntax-ns#"
   xmlns:svg="http://www.w3.org/2000/svg"
   xmlns="http://www.w3.org/2000/svg"
   xmlns:sodipodi="http://sodipodi.sourceforge.net/DTD/sodipodi-0.dtd"
   xmlns:inkscape="http://www.inkscape.org/namespaces/inkscape"
   width="128"
   height="128"
   id="svg2"
   version="1.1"
   inkscape:version="0.48.4 r9939"
   sodipodi:docname="transformador_bifasico.svg">
  <metadata
     id="metadata649">
    <rdf:RDF>
      <cc:Work
         rdf:about="">
        <dc:format>image/svg+xml</dc:format>
        <dc:type
           rdf:resource="http://purl.org/dc/dcmitype/StillImage" />
        <dc:title></dc:title>
      </cc:Work>
    </rdf:RDF>
  </metadata>
  <sodipodi:namedview
     pagecolor="#ffffff"
     bordercolor="#666666"
     borderopacity="1"
     objecttolerance="10"
     gridtolerance="10"
     guidetolerance="10"
     inkscape:pageopacity="0"
     inkscape:pageshadow="2"
     inkscape:window-width="1364"
     inkscape:window-height="718"
     id="namedview647"
     showgrid="true"
     fit-margin-top="0"
     fit-margin-left="0"
     fit-margin-right="0"
     fit-margin-bottom="0"
     inkscape:zoom="3.5881183"
     inkscape:cx="13.411395"
     inkscape:cy="72.19205"
     inkscape:window-x="0"
     inkscape:window-y="0"
     inkscape:window-maximized="1"
     inkscape:current-layer="layer3"
     showguides="true"
     inkscape:guide-bbox="true">
    <inkscape:grid
       type="xygrid"
       id="grid3626"
       empspacing="5"
       visible="true"
       enabled="true"
       snapvisiblegridlinesonly="true" />
    <sodipodi:guide
       orientation="1,0"
       position="64,64"
       id="guide3325" />
    <sodipodi:guide
       orientation="0,1"
       position="64,64"
       id="guide3327" />
  </sodipodi:namedview>
  <desc
     id="desc4">/home/snappler/Escritorio/Simbolos-C DXF_2000.dxf - scale = 0.536199</desc>
  <defs
     id="defs6">
    <marker
       id="DistanceX"
       orient="auto"
       refX="0"
       refY="0"
       style="overflow:visible">
      <path
         d="M 3,-3 -3,3 M 0,-5 0,5"
         style="stroke:#000000;stroke-width:0.5"
         id="path9"
         inkscape:connector-curvature="0" />
    </marker>
    <pattern
       height="8"
       id="Hatch"
       patternUnits="userSpaceOnUse"
       width="8"
       x="0"
       y="0">
      <path
         d="M8 4 l-4,4"
         linecap="square"
         stroke="#000000"
         stroke-width="0.25"
         id="path12" />
      <path
         d="M6 2 l-4,4"
         linecap="square"
         stroke="#000000"
         stroke-width="0.25"
         id="path14" />
      <path
         d="M4 0 l-4,4"
         linecap="square"
         stroke="#000000"
         stroke-width="0.25"
         id="path16" />
    </pattern>
    <symbol
       id="*MODEL_SPACE" />
    <symbol
       id="*PAPER_SPACE" />
    <symbol
       id="POSTE-RD">
      <path
         d="m -10769658,11642373 7,0"
         style="fill:none;stroke:#000000"
         id="path21"
         inkscape:connector-curvature="0" />
      <path
         d="m -10769666,11642377 6,-8"
         style="fill:none;stroke:#000000"
         id="path23"
         inkscape:connector-curvature="0" />
      <path
         d="m -10769658,11642373 a 5,5 0 1 0 -10,0 5,5 0 1 0 10,0 z"
         style="fill:none;stroke:#000000"
         id="path25"
         inkscape:connector-curvature="0" />
      <path
         d="m -10769659,11642376 -8,-6"
         style="fill:none;stroke:#000000"
         id="path27"
         inkscape:connector-curvature="0" />
      <path
         d="m -10769645,11642373 -6,-2 0,4 z"
         style="fill:#000000"
         id="path29"
         inkscape:connector-curvature="0" />
    </symbol>
    <symbol
       id="POSTE-CP">
      <path
         d="m -10769658,11642373 a 5,5 0 1 0 -10,0 5,5 0 1 0 10,0 z"
         style="fill:none;stroke:#000000"
         id="path32"
         inkscape:connector-curvature="0" />
      <path
         d="m -10769666,11642377 6,-8"
         style="fill:none;stroke:#000000"
         id="path34"
         inkscape:connector-curvature="0" />
      <path
         d="m -10769648,11642370 0,6"
         style="fill:none;stroke:#000000"
         id="path36"
         inkscape:connector-curvature="0" />
      <path
         d="m -10769659,11642375 11,1"
         style="fill:none;stroke:#000000"
         id="path38"
         inkscape:connector-curvature="0" />
      <path
         d="m -10769659,11642371 11,-1"
         style="fill:none;stroke:#000000"
         id="path40"
         inkscape:connector-curvature="0" />
      <path
         d="m -10769659,11642376 -8,-6"
         style="fill:none;stroke:#000000"
         id="path42"
         inkscape:connector-curvature="0" />
    </symbol>
    <symbol
       id="POSTE-MA">
      <path
         d="m -10769658,11642373 a 5,5 0 1 0 -10,0 5,5 0 1 0 10,0 z"
         style="fill:none;stroke:#000000"
         id="path45"
         inkscape:connector-curvature="0" />
      <path
         d="m -10769659,11642376 -8,-6"
         style="fill:none;stroke:#000000"
         id="path47"
         inkscape:connector-curvature="0" />
      <path
         d="m -10769666,11642377 6,-8"
         style="fill:none;stroke:#000000"
         id="path49"
         inkscape:connector-curvature="0" />
    </symbol>
    <symbol
       id="POSTE-HA">
      <path
         d="m -10769656,11642373 a 7.21976,7.21976 0 1 0 -14,0 7.21976,7.21976 0 1 0 14,0 z"
         style="fill:none;stroke:#000000"
         id="path52"
         inkscape:connector-curvature="0" />
      <path
         d="m -10769663,11642366 0,14"
         style="fill:none;stroke:#000000"
         id="path54"
         inkscape:connector-curvature="0" />
      <path
         d="m -10769656,11642373 -7,-7 0,14 z"
         style="fill:#000000"
         id="path56"
         inkscape:connector-curvature="0" />
    </symbol>
    <symbol
       id="PAT">
      <path
         d="m -10769663,11642373 0,8"
         style="fill:none;stroke:#000000"
         id="path59"
         inkscape:connector-curvature="0" />
      <path
         d="m -10769663,11642381 5,0"
         style="fill:none;stroke:#000000"
         id="path61"
         inkscape:connector-curvature="0" />
      <path
         d="m -10769663,11642383 4,0"
         style="fill:none;stroke:#000000"
         id="path63"
         inkscape:connector-curvature="0" />
      <path
         d="m -10769663,11642384 3,0"
         style="fill:none;stroke:#000000"
         id="path65"
         inkscape:connector-curvature="0" />
      <path
         d="m -10769663,11642386 2,0"
         style="fill:none;stroke:#000000"
         id="path67"
         inkscape:connector-curvature="0" />
      <path
         d="m -10769663,11642381 -5,0"
         style="fill:none;stroke:#000000"
         id="path69"
         inkscape:connector-curvature="0" />
      <path
         d="m -10769663,11642386 -2,0"
         style="fill:none;stroke:#000000"
         id="path71"
         inkscape:connector-curvature="0" />
      <path
         d="m -10769663,11642384 -3,0"
         style="fill:none;stroke:#000000"
         id="path73"
         inkscape:connector-curvature="0" />
      <path
         d="m -10769663,11642383 -4,0"
         style="fill:none;stroke:#000000"
         id="path75"
         inkscape:connector-curvature="0" />
    </symbol>
  </defs>
  <g
     inkscape:groupmode="layer"
     inkscape:label="0"
     id="g77"
     transform="translate(0.5,-924.86237)"
     style="display:none" />
  <g
     inkscape:groupmode="layer"
     id="layer1"
     inkscape:label="Capa#1"
     style="display:none" />
  <g
     inkscape:groupmode="layer"
     id="layer2"
     inkscape:label="Capa"
     style="display:none">
    <g
       id="g3263"
       transform="matrix(0.9099797,0,0,0.9099797,5.619671,-3.7043663)">
      <path
         inkscape:connector-curvature="0"
         id="path341"
         style="fill:none;stroke:#000000;stroke-width:2.5;stroke-linecap:butt;stroke-linejoin:round;stroke-miterlimit:4;stroke-dasharray:none;display:inline"
         d="m 29.732076,990.9869 -29.56543797,51.2089 59.13087897,0 -29.565441,-51.2089 z"
         transform="translate(0.5,-924.86237)" />
      <path
         inkscape:connector-curvature="0"
         id="path343"
         style="fill:none;stroke:#000000;stroke-width:2.5;stroke-linecap:butt;stroke-linejoin:round;stroke-miterlimit:4;stroke-dasharray:none;display:inline"
         d="m 67.702489,1042.1824 59.130871,0 -29.565435,-51.209 -29.565436,51.209 z"
         transform="translate(0.5,-924.86237)" />
      <path
         inkscape:connector-curvature="0"
         id="path345"
         style="fill:none;stroke:#000000;stroke-width:2.5;stroke-linecap:butt;stroke-linejoin:round;stroke-miterlimit:4;stroke-dasharray:none;display:inline"
         d="m 93.05388,983.70121 -29.565437,-51.20882 -29.565439,51.20882 59.130876,0 z"
         transform="translate(0.5,-924.86237)" />
      <g
         transform="translate(0,0.788276)"
         id="g3313">
        <g
           id="g3120"
           transform="matrix(1.3121909,0,0,1.3121909,-14.760841,4.1192448)">
          <path
             id="path5334"
             d="m 60,43 c -8.284271,0 -15,6.715729 -15,15 0,8.284271 6.715729,15 15,15 l 0,-30 z"
             style="fill:none;stroke:#000000;stroke-width:2.08599997;stroke-linecap:round;stroke-linejoin:round;stroke-miterlimit:4;stroke-dasharray:none;stroke-dashoffset:0"
             inkscape:connector-curvature="0" />
          <path
             id="path5307"
             d="m 60,43 0,30 C 68.284271,73 75,66.284271 75,58 75,49.715729 68.284271,43 60,43 z"
             style="fill:none;stroke:#000000;stroke-width:2.08599997;stroke-linecap:round;stroke-linejoin:round;stroke-miterlimit:4;stroke-dasharray:none;stroke-dashoffset:0"
             inkscape:connector-curvature="0" />
          <path
             inkscape:connector-curvature="0"
             id="path5336"
             d="m 61.102106,58.010413 0,-13.878273 0.59375,0.07684 c 2.139069,0.27684 4.897958,1.39634 6.568562,2.665387 2.606397,1.979907 4.319319,4.535531 5.185238,7.736205 0.29279,1.082233 0.325808,1.425976 0.325808,3.391782 0,1.965806 -0.03302,2.309548 -0.325808,3.391781 -1.049507,3.87927 -3.490083,6.999325 -6.879645,8.795005 -1.672924,0.886261 -2.725238,1.227012 -4.999155,1.618781 l -0.46875,0.08076 0,-13.878273 z"
             style="fill:#000000;fill-opacity:1;stroke:#000000;stroke-width:0.26075;stroke-linecap:round;stroke-linejoin:round;stroke-miterlimit:4;stroke-dasharray:none;stroke-dashoffset:0" />
          <path
             inkscape:connector-curvature="0"
             id="path5340"
             d="m 58.244249,73.859808 c -6.060152,-0.633814 -11.372662,-4.922049 -13.373398,-10.79495 -1.075525,-3.157065 -1.075525,-6.967935 0,-10.125 1.913617,-5.617175 6.766555,-9.725059 12.659183,-10.715665 1.433522,-0.240989 4.17098,-0.171778 5.682037,0.143659 3.160815,0.659826 6.009903,2.242585 8.277517,4.598423 2.157176,2.241103 3.524918,4.86 4.19691,8.036083 0.310746,1.468695 0.310746,4.531305 0,6 -0.278609,1.316805 -0.868989,3.071838 -1.366594,4.0625 -1.65541,3.295686 -4.654973,6.152617 -7.905298,7.529393 -1.798268,0.761712 -3.059223,1.097074 -4.8125,1.279928 -1.355338,0.14135 -1.890849,0.139059 -3.357857,-0.01437 l 0,0 z m 0.732857,-15.861755 0,-14.004306 -0.65625,0.08302 c -7.567159,0.957287 -13.068064,7.848942 -12.237845,15.331842 0.376159,3.39039 1.67565,6.133675 4.01434,8.474461 2.083581,2.085449 4.579699,3.386546 7.531683,3.925879 0.500814,0.0915 1.009009,0.172448 1.129322,0.179886 0.207112,0.0128 0.21875,-0.73153 0.21875,-13.990781 l 0,0 z m 3.28125,13.79652 c -0.08594,-0.03468 -0.226563,-0.03468 -0.3125,0 -0.08594,0.03468 -0.01563,0.06305 0.15625,0.06305 0.171875,0 0.242187,-0.02837 0.15625,-0.06305 z m 0.625,-0.125 c -0.08594,-0.03468 -0.226563,-0.03468 -0.3125,0 -0.08594,0.03468 -0.01563,0.06305 0.15625,0.06305 0.171875,0 0.242187,-0.02837 0.15625,-0.06305 z m 0.559896,-0.117737 c -0.04154,-0.04154 -0.14935,-0.04598 -0.239584,-0.0099 -0.09972,0.0399 -0.0701,0.06952 0.07552,0.07552 0.13177,0.0054 0.205599,-0.02412 0.164063,-0.06565 l 0,-5e-6 z m 0.5,-0.125 c -0.04154,-0.04154 -0.14935,-0.04598 -0.239584,-0.0099 -0.09972,0.0399 -0.0701,0.06952 0.07552,0.07552 0.13177,0.0054 0.205599,-0.02412 0.164063,-0.06565 l 0,-5e-6 z m 2.020709,-0.749533 c 2.691393,-1.251479 5.090811,-3.566025 6.470893,-6.242007 0.282358,-0.547491 0.548455,-1.136063 0.591329,-1.307938 0.04287,-0.171875 -0.11655,0.09641 -0.354275,0.596187 -1.040106,2.186651 -2.653987,4.17133 -4.431817,5.450048 -0.934044,0.671817 -2.520723,1.555476 -3.450485,1.921656 -0.285072,0.112274 -0.30006,0.131406 -0.0625,0.07978 0.171875,-0.03735 0.72846,-0.261327 1.236855,-0.497727 l 0,0 z m 7.497997,-8.799945 c -0.0021,-0.103125 -0.07969,0.0094 -0.172352,0.25 -0.21978,0.570712 -0.216537,0.795257 0.0045,0.3125 0.09444,-0.20625 0.169968,-0.459375 0.167839,-0.5625 l 10e-7,0 z m 0.100536,-0.523438 c -0.0399,-0.09972 -0.06952,-0.0701 -0.07552,0.07552 -0.0054,0.13177 0.02411,0.205599 0.06565,0.164063 0.04154,-0.04154 0.04598,-0.14935 0.0099,-0.239584 l 5e-6,0 z m 0.125,-0.5 c -0.0399,-0.09972 -0.06952,-0.0701 -0.07552,0.07552 -0.0054,0.13177 0.02411,0.205599 0.06565,0.164063 0.04154,-0.04154 0.04598,-0.14935 0.0099,-0.239584 l 5e-6,0 z m 0.122397,-0.757812 c -0.03468,-0.08594 -0.06305,-0.01563 -0.06305,0.15625 0,0.171875 0.02837,0.242187 0.06305,0.15625 0.03468,-0.08594 0.03468,-0.226563 0,-0.3125 z m 0.134908,-2.9375 c -0.02405,-0.464063 -0.04373,-0.08438 -0.04373,0.84375 0,0.928125 0.01968,1.307812 0.04373,0.84375 0.02405,-0.464063 0.02405,-1.223438 0,-1.6875 z m -0.134908,-1.5625 c -0.03468,-0.08594 -0.06305,-0.01563 -0.06305,0.15625 0,0.171875 0.02837,0.242187 0.06305,0.15625 0.03468,-0.08594 0.03468,-0.226563 0,-0.3125 z M 73.687494,54.97892 c -0.0399,-0.09972 -0.06952,-0.0701 -0.07552,0.07552 -0.0054,0.13177 0.02411,0.205599 0.06565,0.164063 0.04154,-0.04154 0.04598,-0.14935 0.0099,-0.239584 l 5e-6,0 z m -0.125,-0.5 c -0.0399,-0.09972 -0.06952,-0.0701 -0.07552,0.07552 -0.0054,0.13177 0.02411,0.205599 0.06565,0.164063 0.04154,-0.04154 0.04598,-0.14935 0.0099,-0.239584 l 5e-6,0 z m -0.210388,-0.789062 c -0.195452,-0.592223 -0.284974,-0.5027 -0.1,0.1 0.07803,0.254257 0.166187,0.437978 0.195897,0.408268 0.02971,-0.02971 -0.01344,-0.258431 -0.0959,-0.508268 z m -0.673819,-1.63839 c -1.591099,-3.350401 -4.615686,-6.102136 -7.955955,-7.238234 -1.236404,-0.420528 -1.410854,-0.38393 -0.245226,0.05145 1.285228,0.48005 2.905836,1.311722 3.741373,1.920017 1.721048,1.252972 3.534279,3.481103 4.401883,5.409113 0.227351,0.505225 0.436004,0.895953 0.463672,0.868285 0.02767,-0.02767 -0.154917,-0.482451 -0.405747,-1.010628 z m -9.235035,-7.624631 c -0.04154,-0.04154 -0.14935,-0.04598 -0.239584,-0.0099 -0.09972,0.0399 -0.0701,0.06952 0.07552,0.07552 0.13177,0.0054 0.205599,-0.02412 0.164063,-0.06565 l 0,1e-6 z m -0.5,-0.125 c -0.04154,-0.04154 -0.14935,-0.04598 -0.239584,-0.0099 -0.09972,0.0399 -0.0701,0.06952 0.07552,0.07552 0.13177,0.0054 0.205599,-0.02412 0.164063,-0.06565 l 0,1e-6 z m -0.625,-0.125 c -0.04154,-0.04154 -0.14935,-0.04598 -0.239584,-0.0099 -0.09972,0.0399 -0.0701,0.06952 0.07552,0.07552 0.13177,0.0054 0.205599,-0.02412 0.164063,-0.06565 l 0,1e-6 z m -0.934896,-0.132265 c -0.08594,-0.03468 -0.226563,-0.03468 -0.3125,0 -0.08594,0.03468 -0.01563,0.06305 0.15625,0.06305 0.171875,0 0.242187,-0.02837 0.15625,-0.06305 z"
             style="fill:#000000;fill-opacity:1;stroke:#000000;stroke-width:0.26075;stroke-linecap:round;stroke-linejoin:round;stroke-miterlimit:4;stroke-dasharray:none;stroke-dashoffset:0" />
        </g>
        <path
           style="fill:#ffffff;fill-opacity:1;stroke:#ffffff;stroke-width:0.27869761"
           d="m 70.849783,115.61538 c 0.468571,-1.19501 26.892354,-46.510067 27.034437,-46.362296 0.103685,0.107835 5.54286,9.476694 12.08705,20.819686 6.5442,11.34299 12.568,21.7837 13.38623,23.20158 l 1.48769,2.57795 -27.044154,0 c -14.874283,0 -27.002347,-0.10662 -26.951253,-0.23692 z"
           id="path3308"
           inkscape:connector-curvature="0" />
        <path
           style="fill:#ffffff;fill-opacity:1;stroke:#ffffff;stroke-width:0.27869761"
           d="m 37.080923,57.190889 c 0,-0.114918 26.698286,-46.42598 26.872627,-46.613476 0.07618,-0.08193 26.916012,46.381201 26.916012,46.59501 0,0.08436 -12.102444,0.153378 -26.89432,0.153378 -14.791876,0 -26.894319,-0.06071 -26.894319,-0.134912 z"
           id="path3310"
           inkscape:connector-curvature="0" />
        <path
           style="fill:#ffffff;fill-opacity:1;stroke:#ffffff;stroke-width:0.27869761"
           d="m 70.803334,115.69827 c 0,-0.0847 0.770494,-1.49563 1.712209,-3.13535 2.894285,-5.03956 23.103936,-39.938369 24.212336,-41.810801 l 1.043444,-1.762702 0.975476,1.623353 c 0.536512,0.892844 6.399131,11.029398 13.028031,22.525674 6.62891,11.496276 12.29753,21.309916 12.59693,21.808086 l 0.54437,0.90577 -27.056398,0 c -14.881019,0 -27.056398,-0.0693 -27.056398,-0.15403 z"
           id="path3312"
           inkscape:connector-curvature="0" />
        <path
           style="fill:#ffffff;fill-opacity:1;stroke:#ffffff;stroke-width:0.27869761"
           d="m 59.817066,97.741146 c -3.661595,-0.986634 -6.093143,-2.374336 -8.613833,-4.91598 -3.433727,-3.462271 -5.203987,-7.811567 -5.203987,-12.78551 0,-2.889888 0.41884,-4.630771 1.810405,-7.524835 1.479098,-3.076108 3.673233,-5.580422 6.514053,-7.43493 2.078051,-1.356566 5.759069,-2.737533 7.296995,-2.737533 l 0.821706,0 -5.01e-4,9.824091 c -6.14e-4,11.54681 -0.297891,26.135064 -0.532107,26.111132 -0.09027,-0.0092 -1.031992,-0.250619 -2.092719,-0.536435 l -1.2e-5,0 z"
           id="path3314"
           inkscape:connector-curvature="0" />
        <path
           style="fill:#ffffff;fill-opacity:1;stroke:#ffffff;stroke-width:0.27869761"
           d="m 3.3585115,115.67472 c 0,-0.0977 6.0416576,-10.63738 13.4259055,-23.421598 l 13.425906,-23.244028 0.481914,0.777422 c 1.066871,1.721074 26.454914,45.793814 26.454914,45.924784 0,0.0776 -12.102444,0.141 -26.89432,0.141 -14.791876,0 -26.8943195,-0.0799 -26.8943195,-0.17758 z"
           id="path3316"
           inkscape:connector-curvature="0" />
      </g>
    </g>
  </g>
  <g
     inkscape:groupmode="layer"
     id="layer3"
     inkscape:label="Capa#2" />
  <g
     inkscape:groupmode="layer"
     id="layer4"
     inkscape:label="Capa#3"
     style="display:inline">
    <g
       transform="matrix(1.7125042,0,0,1.7125042,-46.551733,-0.36231899)"
       id="g4958">
      <g
         transform="matrix(2.1392915,0,0,-2.1392915,63.990034,1.0935413)"
         id="g12"
         style="fill:#ffffff;fill-opacity:1;display:inline">
        <path
           id="path14-6"
           style="fill:#ffffff;fill-opacity:1;stroke:#000000;stroke-width:0.72000003;stroke-linecap:round;stroke-linejoin:round;stroke-miterlimit:10;stroke-opacity:1;stroke-dasharray:none"
           d="m 0,0 -14.16,-24.6 28.38,0 L 0,0 z"
           inkscape:connector-curvature="0" />
        <g
           style="fill:#ffffff;fill-opacity:1"
           transform="translate(-2.46,-29.46)"
           id="g16">
          <path
             id="path18"
             style="fill:#ffffff;fill-opacity:1;stroke:#000000;stroke-width:0.72000003;stroke-linecap:round;stroke-linejoin:round;stroke-miterlimit:10;stroke-opacity:1;stroke-dasharray:none"
             d="M 0,0 -0.12,1.08 -0.48,2.1 -1.02,3.06 -1.8,3.84 -2.76,4.38 -3.78,4.74 -4.86,4.86 -6,4.74 -7.02,4.38 -7.92,3.84 -8.7,3.06 -9.3,2.1 -9.66,1.08 -9.78,0 l 0.12,-1.14 0.36,-1.02 0.6,-0.9 0.78,-0.78 0.9,-0.6 1.02,-0.36 1.14,-0.12 1.08,0.12 1.02,0.36 0.96,0.6 0.78,0.78 0.54,0.9 0.36,1.02 L 0,0 z"
             inkscape:connector-curvature="0" />
          <g
             style="fill:#ffffff;fill-opacity:1"
             transform="translate(-4.86,4.86)"
             id="g20">
            <path
               id="path22"
               style="fill:#ffffff;fill-opacity:1;stroke:#000000;stroke-width:0.72000003;stroke-linecap:round;stroke-linejoin:round;stroke-miterlimit:10;stroke-opacity:1;stroke-dasharray:none"
               d="M 0,0 0,-9.78"
               inkscape:connector-curvature="0" />
          </g>
        </g>
      </g>
      <g
         transform="matrix(2.1392915,0,0,-2.1392915,48.330421,53.720112)"
         id="g24"
         style="display:inline">
        <path
           id="path26"
           style="fill:#000000;fill-opacity:1;fill-rule:evenodd;stroke:none"
           d="m 0,0 0,-0.12 1.08,0"
           inkscape:connector-curvature="0" />
      </g>
      <g
         transform="matrix(2.1392915,0,0,-2.1392915,48.330421,53.976827)"
         id="g28"
         style="display:inline">
        <path
           id="path30"
           style="fill:#000000;fill-opacity:1;fill-rule:evenodd;stroke:none"
           d="m 0,0 0,-0.36 2.1,0"
           inkscape:connector-curvature="0" />
      </g>
      <g
         transform="matrix(2.1392915,0,0,-2.1392915,48.330421,53.976827)"
         id="g32"
         style="display:inline">
        <path
           id="path34-3"
           style="fill:#000000;fill-opacity:1;fill-rule:evenodd;stroke:none"
           d="M 0,0 1.08,0 2.1,-0.36"
           inkscape:connector-curvature="0" />
      </g>
      <g
         transform="matrix(2.1392915,0,0,-2.1392915,48.330421,54.746971)"
         id="g36"
         style="display:inline">
        <path
           id="path38-4"
           style="fill:#000000;fill-opacity:1;fill-rule:evenodd;stroke:none"
           d="m 0,0 0,-0.54 3.06,0"
           inkscape:connector-curvature="0" />
      </g>
      <g
         transform="matrix(2.1392915,0,0,-2.1392915,48.330421,54.746971)"
         id="g40"
         style="display:inline">
        <path
           id="path42-7"
           style="fill:#000000;fill-opacity:1;fill-rule:evenodd;stroke:none"
           d="M 0,0 2.1,0 3.06,-0.54"
           inkscape:connector-curvature="0" />
      </g>
      <g
         transform="matrix(2.1392915,0,0,-2.1392915,48.330421,55.902188)"
         id="g44"
         style="display:inline">
        <path
           id="path46"
           style="fill:#000000;fill-opacity:1;fill-rule:evenodd;stroke:none"
           d="m 0,0 0,-0.78 3.84,0"
           inkscape:connector-curvature="0" />
      </g>
      <g
         transform="matrix(2.1392915,0,0,-2.1392915,48.330421,55.902188)"
         id="g48"
         style="display:inline">
        <path
           id="path50"
           style="fill:#000000;fill-opacity:1;fill-rule:evenodd;stroke:none"
           d="M 0,0 3.06,0 3.84,-0.78"
           inkscape:connector-curvature="0" />
      </g>
      <g
         transform="matrix(2.1392915,0,0,-2.1392915,48.330421,57.570837)"
         id="g52"
         style="display:inline">
        <path
           id="path54-5"
           style="fill:#000000;fill-opacity:1;fill-rule:evenodd;stroke:none"
           d="m 0,0 0,-0.96 4.38,0"
           inkscape:connector-curvature="0" />
      </g>
      <g
         transform="matrix(2.1392915,0,0,-2.1392915,48.330421,57.570837)"
         id="g56"
         style="display:inline">
        <path
           id="path58"
           style="fill:#000000;fill-opacity:1;fill-rule:evenodd;stroke:none"
           d="M 0,0 3.84,0 4.38,-0.96"
           inkscape:connector-curvature="0" />
      </g>
      <g
         transform="matrix(2.1392915,0,0,-2.1392915,48.330421,59.624556)"
         id="g60"
         style="display:inline">
        <path
           id="path62"
           style="fill:#000000;fill-opacity:1;fill-rule:evenodd;stroke:none"
           d="m 0,0 0,-1.02 4.74,0"
           inkscape:connector-curvature="0" />
      </g>
      <g
         transform="matrix(2.1392915,0,0,-2.1392915,48.330421,59.624556)"
         id="g64"
         style="display:inline">
        <path
           id="path66"
           style="fill:#000000;fill-opacity:1;fill-rule:evenodd;stroke:none"
           d="M 0,0 4.38,0 4.74,-1.02"
           inkscape:connector-curvature="0" />
      </g>
      <g
         transform="matrix(2.1392915,0,0,-2.1392915,48.330421,61.806634)"
         id="g68"
         style="display:inline">
        <path
           id="path70"
           style="fill:#000000;fill-opacity:1;fill-rule:evenodd;stroke:none"
           d="m 0,0 0,-1.08 4.86,0"
           inkscape:connector-curvature="0" />
      </g>
      <g
         transform="matrix(2.1392915,0,0,-2.1392915,48.330421,61.806634)"
         id="g72"
         style="display:inline">
        <path
           id="path74"
           style="fill:#000000;fill-opacity:1;fill-rule:evenodd;stroke:none"
           d="M 0,0 4.74,0 4.86,-1.08"
           inkscape:connector-curvature="0" />
      </g>
      <g
         transform="matrix(2.1392915,0,0,-2.1392915,48.330421,64.117068)"
         id="g76"
         style="display:inline">
        <path
           id="path78"
           style="fill:#000000;fill-opacity:1;fill-rule:evenodd;stroke:none"
           d="m 0,0 0,-1.14 4.74,0"
           inkscape:connector-curvature="0" />
      </g>
      <g
         transform="matrix(2.1392915,0,0,-2.1392915,48.330421,64.117068)"
         id="g80"
         style="display:inline">
        <path
           id="path82"
           style="fill:#000000;fill-opacity:1;fill-rule:evenodd;stroke:none"
           d="M 0,0 4.86,0 4.74,-1.14"
           inkscape:connector-curvature="0" />
      </g>
      <g
         transform="matrix(2.1392915,0,0,-2.1392915,48.330421,66.555861)"
         id="g84"
         style="display:inline">
        <path
           id="path86"
           style="fill:#000000;fill-opacity:1;fill-rule:evenodd;stroke:none"
           d="m 0,0 0,-1.02 4.38,0"
           inkscape:connector-curvature="0" />
      </g>
      <g
         transform="matrix(2.1392915,0,0,-2.1392915,48.330421,66.555861)"
         id="g88"
         style="display:inline">
        <path
           id="path90"
           style="fill:#000000;fill-opacity:1;fill-rule:evenodd;stroke:none"
           d="M 0,0 4.74,0 4.38,-1.02"
           inkscape:connector-curvature="0" />
      </g>
      <g
         transform="matrix(2.1392915,0,0,-2.1392915,48.330421,68.737937)"
         id="g92"
         style="display:inline">
        <path
           id="path94"
           style="fill:#000000;fill-opacity:1;fill-rule:evenodd;stroke:none"
           d="m 0,0 0,-0.9 3.84,0"
           inkscape:connector-curvature="0" />
      </g>
      <g
         transform="matrix(2.1392915,0,0,-2.1392915,48.330421,68.737937)"
         id="g96"
         style="display:inline">
        <path
           id="path98"
           style="fill:#000000;fill-opacity:1;fill-rule:evenodd;stroke:none"
           d="M 0,0 4.38,0 3.84,-0.9"
           inkscape:connector-curvature="0" />
      </g>
      <g
         transform="matrix(2.1392915,0,0,-2.1392915,48.330421,70.663301)"
         id="g100"
         style="display:inline">
        <path
           id="path102"
           style="fill:#000000;fill-opacity:1;fill-rule:evenodd;stroke:none"
           d="m 0,0 0,-0.78 3.06,0"
           inkscape:connector-curvature="0" />
      </g>
      <g
         transform="matrix(2.1392915,0,0,-2.1392915,48.330421,70.663301)"
         id="g104"
         style="display:inline">
        <path
           id="path106"
           style="fill:#000000;fill-opacity:1;fill-rule:evenodd;stroke:none"
           d="M 0,0 3.84,0 3.06,-0.78"
           inkscape:connector-curvature="0" />
      </g>
      <g
         transform="matrix(2.1392915,0,0,-2.1392915,48.330421,72.331947)"
         id="g108"
         style="display:inline">
        <path
           id="path110"
           style="fill:#000000;fill-opacity:1;fill-rule:evenodd;stroke:none"
           d="m 0,0 0,-0.6 2.1,0"
           inkscape:connector-curvature="0" />
      </g>
      <g
         transform="matrix(2.1392915,0,0,-2.1392915,48.330421,72.331947)"
         id="g112"
         style="display:inline">
        <path
           id="path114"
           style="fill:#000000;fill-opacity:1;fill-rule:evenodd;stroke:none"
           d="M 0,0 3.06,0 2.1,-0.6"
           inkscape:connector-curvature="0" />
      </g>
      <g
         transform="matrix(2.1392915,0,0,-2.1392915,48.330421,74.385667)"
         id="g116"
         style="display:inline">
        <path
           id="path118"
           style="fill:#000000;fill-opacity:1;fill-rule:evenodd;stroke:none"
           d="M 0,0 1.08,0 0,-0.12"
           inkscape:connector-curvature="0" />
      </g>
      <g
         transform="matrix(2.1392915,0,0,-2.1392915,48.330421,73.615522)"
         id="g120"
         style="display:inline">
        <path
           id="path122"
           style="fill:#000000;fill-opacity:1;fill-rule:evenodd;stroke:none"
           d="m 0,0 0,-0.36 1.08,0"
           inkscape:connector-curvature="0" />
      </g>
      <g
         transform="matrix(2.1392915,0,0,-2.1392915,48.330421,73.615522)"
         id="g124"
         style="display:inline">
        <path
           id="path126"
           style="fill:#000000;fill-opacity:1;fill-rule:evenodd;stroke:none"
           d="M 0,0 2.1,0 1.08,-0.36"
           inkscape:connector-curvature="0" />
      </g>
      <g
         transform="matrix(2.1392915,0,0,-2.1392915,61.166169,763.79373)"
         id="g128"
         style="fill:#ffffff;fill-opacity:1;display:inline">
        <g
           style="fill:#ffffff;fill-opacity:1"
           transform="translate(12.54,0)"
           id="g132">
          <g
             style="fill:#ffffff;fill-opacity:1"
             transform="translate(-6.3,213.66)"
             id="g136">
            <g
               style="fill:#ffffff;fill-opacity:1"
               id="g144"
               transform="translate(-8.28,-3.6)">
              <g
                 style="fill:#ffffff;fill-opacity:1"
                 id="g148"
                 transform="translate(82.74,-368.94)">
                <g
                   style="fill:#ffffff;fill-opacity:1"
                   id="g152"
                   transform="translate(0,-14.4)">
                  <g
                     style="fill:#ffffff;fill-opacity:1"
                     id="g156"
                     transform="translate(0,-2.82)">
                    <g
                       style="fill:#ffffff;fill-opacity:1"
                       id="g160"
                       transform="translate(0,-2.88)">
                      <g
                         style="fill:#ffffff;fill-opacity:1"
                         id="g164"
                         transform="translate(0,8.58)">
                        <g
                           style="fill:#ffffff;fill-opacity:1"
                           id="g168"
                           transform="translate(0,-8.58)">
                          <g
                             style="fill:#ffffff;fill-opacity:1"
                             id="g172"
                             transform="translate(0,2.88)">
                            <g
                               style="fill:#ffffff;fill-opacity:1"
                               id="g176"
                               transform="translate(0,2.82)">
                              <g
                                 style="fill:#ffffff;fill-opacity:1"
                                 id="g180"
                                 transform="translate(-67.08,500.34)">
                                <path
                                   d="M 0,0 -0.12,1.08 -0.48,2.1 -1.08,3.06 -1.86,3.84 -2.76,4.38 -3.84,4.74 -4.92,4.86 -6,4.74 -7.02,4.38 -7.98,3.84 -8.76,3.06 -9.3,2.1 -9.66,1.08 -9.84,0 l 0.18,-1.14 0.36,-1.02 0.54,-0.9 0.78,-0.78 0.96,-0.6 1.02,-0.36 1.08,-0.12 1.08,0.12 1.08,0.36 0.9,0.6 0.78,0.78 0.6,0.9 0.36,1.02 L 0,0 z"
                                   style="fill:#ffffff;fill-opacity:1;stroke:#000000;stroke-width:0.72000003;stroke-linecap:round;stroke-linejoin:round;stroke-miterlimit:10;stroke-opacity:1;stroke-dasharray:none"
                                   id="path182"
                                   inkscape:connector-curvature="0" />
                                <g
                                   style="fill:#ffffff;fill-opacity:1"
                                   id="g184"
                                   transform="translate(-4.92,4.86)">
                                <path
                                   d="M 0,0 0,-9.78"
                                   style="fill:#ffffff;fill-opacity:1;stroke:#000000;stroke-width:0.72000003;stroke-linecap:round;stroke-linejoin:round;stroke-miterlimit:10;stroke-opacity:1;stroke-dasharray:none"
                                   id="path186"
                                   inkscape:connector-curvature="0" />
                                </g>
                              </g>
                            </g>
                          </g>
                        </g>
                      </g>
                    </g>
                  </g>
                </g>
              </g>
            </g>
          </g>
        </g>
      </g>
      <g
         transform="matrix(2.1392915,0,0,-2.1392915,79.778006,53.720112)"
         id="g188"
         style="display:inline">
        <path
           id="path190"
           style="fill:#000000;fill-opacity:1;fill-rule:evenodd;stroke:none"
           d="m 0,0 0,-0.12 1.08,0"
           inkscape:connector-curvature="0" />
      </g>
      <g
         transform="matrix(2.1392915,0,0,-2.1392915,79.778006,53.976827)"
         id="g192"
         style="display:inline">
        <path
           id="path194"
           style="fill:#000000;fill-opacity:1;fill-rule:evenodd;stroke:none"
           d="m 0,0 0,-0.36 2.16,0"
           inkscape:connector-curvature="0" />
      </g>
      <g
         transform="matrix(2.1392915,0,0,-2.1392915,79.778006,53.976827)"
         id="g196"
         style="display:inline">
        <path
           id="path198"
           style="fill:#000000;fill-opacity:1;fill-rule:evenodd;stroke:none"
           d="M 0,0 1.08,0 2.16,-0.36"
           inkscape:connector-curvature="0" />
      </g>
      <g
         transform="matrix(2.1392915,0,0,-2.1392915,79.778006,54.746971)"
         id="g200"
         style="display:inline">
        <path
           id="path202"
           style="fill:#000000;fill-opacity:1;fill-rule:evenodd;stroke:none"
           d="m 0,0 0,-0.54 3.06,0"
           inkscape:connector-curvature="0" />
      </g>
      <g
         transform="matrix(2.1392915,0,0,-2.1392915,79.778006,54.746971)"
         id="g204"
         style="display:inline">
        <path
           id="path206"
           style="fill:#000000;fill-opacity:1;fill-rule:evenodd;stroke:none"
           d="m 0,0 2.16,0 0.9,-0.54"
           inkscape:connector-curvature="0" />
      </g>
      <g
         transform="matrix(2.1392915,0,0,-2.1392915,79.778006,55.902188)"
         id="g208"
         style="display:inline">
        <path
           id="path210"
           style="fill:#000000;fill-opacity:1;fill-rule:evenodd;stroke:none"
           d="m 0,0 0,-0.78 3.84,0"
           inkscape:connector-curvature="0" />
      </g>
      <g
         transform="matrix(2.1392915,0,0,-2.1392915,79.778006,55.902188)"
         id="g212"
         style="display:inline">
        <path
           id="path214"
           style="fill:#000000;fill-opacity:1;fill-rule:evenodd;stroke:none"
           d="M 0,0 3.06,0 3.84,-0.78"
           inkscape:connector-curvature="0" />
      </g>
      <g
         transform="matrix(2.1392915,0,0,-2.1392915,79.778006,57.570837)"
         id="g216"
         style="display:inline">
        <path
           id="path218"
           style="fill:#000000;fill-opacity:1;fill-rule:evenodd;stroke:none"
           d="m 0,0 0,-0.96 4.44,0"
           inkscape:connector-curvature="0" />
      </g>
      <g
         transform="matrix(2.1392915,0,0,-2.1392915,79.778006,57.570837)"
         id="g220"
         style="display:inline">
        <path
           id="path222"
           style="fill:#000000;fill-opacity:1;fill-rule:evenodd;stroke:none"
           d="m 0,0 3.84,0 0.6,-0.96"
           inkscape:connector-curvature="0" />
      </g>
      <g
         transform="matrix(2.1392915,0,0,-2.1392915,79.778006,59.624556)"
         id="g224"
         style="display:inline">
        <path
           id="path226"
           style="fill:#000000;fill-opacity:1;fill-rule:evenodd;stroke:none"
           d="m 0,0 0,-1.02 4.8,0"
           inkscape:connector-curvature="0" />
      </g>
      <g
         transform="matrix(2.1392915,0,0,-2.1392915,79.778006,59.624556)"
         id="g228"
         style="display:inline">
        <path
           id="path230"
           style="fill:#000000;fill-opacity:1;fill-rule:evenodd;stroke:none"
           d="M 0,0 4.44,0 4.8,-1.02"
           inkscape:connector-curvature="0" />
      </g>
      <g
         transform="matrix(2.1392915,0,0,-2.1392915,79.778006,61.806634)"
         id="g232"
         style="display:inline">
        <path
           id="path234"
           style="fill:#000000;fill-opacity:1;fill-rule:evenodd;stroke:none"
           d="m 0,0 0,-1.08 4.92,0"
           inkscape:connector-curvature="0" />
      </g>
      <g
         transform="matrix(2.1392915,0,0,-2.1392915,79.778006,61.806634)"
         id="g236"
         style="display:inline">
        <path
           id="path238"
           style="fill:#000000;fill-opacity:1;fill-rule:evenodd;stroke:none"
           d="M 0,0 4.8,0 4.92,-1.08"
           inkscape:connector-curvature="0" />
      </g>
      <g
         transform="matrix(2.1392915,0,0,-2.1392915,79.778006,64.117068)"
         id="g240"
         style="display:inline">
        <path
           id="path242"
           style="fill:#000000;fill-opacity:1;fill-rule:evenodd;stroke:none"
           d="m 0,0 0,-1.14 4.8,0"
           inkscape:connector-curvature="0" />
      </g>
      <g
         transform="matrix(2.1392915,0,0,-2.1392915,79.778006,64.117068)"
         id="g244"
         style="display:inline">
        <path
           id="path246"
           style="fill:#000000;fill-opacity:1;fill-rule:evenodd;stroke:none"
           d="M 0,0 4.92,0 4.8,-1.14"
           inkscape:connector-curvature="0" />
      </g>
      <g
         transform="matrix(2.1392915,0,0,-2.1392915,79.778006,66.555861)"
         id="g248"
         style="display:inline">
        <path
           id="path250"
           style="fill:#000000;fill-opacity:1;fill-rule:evenodd;stroke:none"
           d="m 0,0 0,-1.02 4.44,0"
           inkscape:connector-curvature="0" />
      </g>
      <g
         transform="matrix(2.1392915,0,0,-2.1392915,79.778006,66.555861)"
         id="g252"
         style="display:inline">
        <path
           id="path254"
           style="fill:#000000;fill-opacity:1;fill-rule:evenodd;stroke:none"
           d="M 0,0 4.8,0 4.44,-1.02"
           inkscape:connector-curvature="0" />
      </g>
      <g
         transform="matrix(2.1392915,0,0,-2.1392915,79.778006,68.737937)"
         id="g256"
         style="display:inline">
        <path
           id="path258"
           style="fill:#000000;fill-opacity:1;fill-rule:evenodd;stroke:none"
           d="m 0,0 0,-0.9 3.84,0"
           inkscape:connector-curvature="0" />
      </g>
      <g
         transform="matrix(2.1392915,0,0,-2.1392915,79.778006,68.737937)"
         id="g260"
         style="display:inline">
        <path
           id="path262"
           style="fill:#000000;fill-opacity:1;fill-rule:evenodd;stroke:none"
           d="M 0,0 4.44,0 3.84,-0.9"
           inkscape:connector-curvature="0" />
      </g>
      <g
         transform="matrix(2.1392915,0,0,-2.1392915,79.778006,70.663301)"
         id="g264"
         style="display:inline">
        <path
           id="path266"
           style="fill:#000000;fill-opacity:1;fill-rule:evenodd;stroke:none"
           d="m 0,0 0,-0.78 3.06,0"
           inkscape:connector-curvature="0" />
      </g>
      <g
         transform="matrix(2.1392915,0,0,-2.1392915,79.778006,70.663301)"
         id="g268"
         style="display:inline">
        <path
           id="path270"
           style="fill:#000000;fill-opacity:1;fill-rule:evenodd;stroke:none"
           d="M 0,0 3.84,0 3.06,-0.78"
           inkscape:connector-curvature="0" />
      </g>
      <g
         transform="matrix(2.1392915,0,0,-2.1392915,79.778006,72.331947)"
         id="g272"
         style="display:inline">
        <path
           id="path274"
           style="fill:#000000;fill-opacity:1;fill-rule:evenodd;stroke:none"
           d="m 0,0 0,-0.6 2.16,0"
           inkscape:connector-curvature="0" />
      </g>
      <g
         transform="matrix(2.1392915,0,0,-2.1392915,79.778006,72.331947)"
         id="g276"
         style="display:inline">
        <path
           id="path278"
           style="fill:#000000;fill-opacity:1;fill-rule:evenodd;stroke:none"
           d="M 0,0 3.06,0 2.16,-0.6"
           inkscape:connector-curvature="0" />
      </g>
      <g
         transform="matrix(2.1392915,0,0,-2.1392915,79.778006,74.385667)"
         id="g280"
         style="display:inline">
        <path
           id="path282"
           style="fill:#000000;fill-opacity:1;fill-rule:evenodd;stroke:none"
           d="M 0,0 1.08,0 0,-0.12"
           inkscape:connector-curvature="0" />
      </g>
      <g
         transform="matrix(2.1392915,0,0,-2.1392915,79.778006,73.615522)"
         id="g284"
         style="display:inline">
        <path
           id="path286"
           style="fill:#000000;fill-opacity:1;fill-rule:evenodd;stroke:none"
           d="m 0,0 0,-0.36 1.08,0"
           inkscape:connector-curvature="0" />
      </g>
      <g
         transform="matrix(2.1392915,0,0,-2.1392915,79.778006,73.615522)"
         id="g288"
         style="display:inline">
        <path
           id="path290"
           style="fill:#000000;fill-opacity:1;fill-rule:evenodd;stroke:none"
           d="M 0,0 2.16,0 1.08,-0.36"
           inkscape:connector-curvature="0" />
      </g>
    </g>
  </g>
</svg>
