<?xml version="1.0" encoding="UTF-8" standalone="no"?>
<svg
   xmlns:dc="http://purl.org/dc/elements/1.1/"
   xmlns:cc="http://creativecommons.org/ns#"
   xmlns:rdf="http://www.w3.org/1999/02/22-rdf-syntax-ns#"
   xmlns:svg="http://www.w3.org/2000/svg"
   xmlns="http://www.w3.org/2000/svg"
   xmlns:sodipodi="http://sodipodi.sourceforge.net/DTD/sodipodi-0.dtd"
   xmlns:inkscape="http://www.inkscape.org/namespaces/inkscape"
   width="128"
   height="128"
   id="svg2"
   version="1.1"
   inkscape:version="0.48.4 r9939"
   sodipodi:docname="transformador_trifasico_menu.svg">
  <metadata
     id="metadata649">
    <rdf:RDF>
      <cc:Work
         rdf:about="">
        <dc:format>image/svg+xml</dc:format>
        <dc:type
           rdf:resource="http://purl.org/dc/dcmitype/StillImage" />
        <dc:title></dc:title>
      </cc:Work>
    </rdf:RDF>
  </metadata>
  <sodipodi:namedview
     pagecolor="#ffffff"
     bordercolor="#666666"
     borderopacity="1"
     objecttolerance="10"
     gridtolerance="10"
     guidetolerance="10"
     inkscape:pageopacity="0"
     inkscape:pageshadow="2"
     inkscape:window-width="1364"
     inkscape:window-height="718"
     id="namedview647"
     showgrid="true"
     fit-margin-top="0"
     fit-margin-left="0"
     fit-margin-right="0"
     fit-margin-bottom="0"
     inkscape:zoom="5.0743656"
     inkscape:cx="19.763929"
     inkscape:cy="70.595896"
     inkscape:window-x="0"
     inkscape:window-y="0"
     inkscape:window-maximized="1"
     inkscape:current-layer="layer2"
     showguides="true"
     inkscape:guide-bbox="true">
    <inkscape:grid
       type="xygrid"
       id="grid3626"
       empspacing="5"
       visible="true"
       enabled="true"
       snapvisiblegridlinesonly="true" />
    <sodipodi:guide
       orientation="1,0"
       position="64,69.639565"
       id="guide3071" />
    <sodipodi:guide
       orientation="0,1"
       position="50.374593,64"
       id="guide3073" />
  </sodipodi:namedview>
  <desc
     id="desc4">/home/snappler/Escritorio/Simbolos-C DXF_2000.dxf - scale = 0.536199</desc>
  <defs
     id="defs6">
    <marker
       id="DistanceX"
       orient="auto"
       refX="0"
       refY="0"
       style="overflow:visible">
      <path
         d="M 3,-3 -3,3 M 0,-5 0,5"
         style="stroke:#000000;stroke-width:0.5"
         id="path9"
         inkscape:connector-curvature="0" />
    </marker>
    <pattern
       height="8"
       id="Hatch"
       patternUnits="userSpaceOnUse"
       width="8"
       x="0"
       y="0">
      <path
         d="M8 4 l-4,4"
         linecap="square"
         stroke="#000000"
         stroke-width="0.25"
         id="path12" />
      <path
         d="M6 2 l-4,4"
         linecap="square"
         stroke="#000000"
         stroke-width="0.25"
         id="path14" />
      <path
         d="M4 0 l-4,4"
         linecap="square"
         stroke="#000000"
         stroke-width="0.25"
         id="path16" />
    </pattern>
    <symbol
       id="*MODEL_SPACE" />
    <symbol
       id="*PAPER_SPACE" />
    <symbol
       id="POSTE-RD">
      <path
         d="m -10769658,11642373 7,0"
         style="fill:none;stroke:#000000"
         id="path21"
         inkscape:connector-curvature="0" />
      <path
         d="m -10769666,11642377 6,-8"
         style="fill:none;stroke:#000000"
         id="path23"
         inkscape:connector-curvature="0" />
      <path
         d="m -10769658,11642373 a 5,5 0 1 0 -10,0 5,5 0 1 0 10,0 z"
         style="fill:none;stroke:#000000"
         id="path25"
         inkscape:connector-curvature="0" />
      <path
         d="m -10769659,11642376 -8,-6"
         style="fill:none;stroke:#000000"
         id="path27"
         inkscape:connector-curvature="0" />
      <path
         d="m -10769645,11642373 -6,-2 0,4 z"
         style="fill:#000000"
         id="path29"
         inkscape:connector-curvature="0" />
    </symbol>
    <symbol
       id="POSTE-CP">
      <path
         d="m -10769658,11642373 a 5,5 0 1 0 -10,0 5,5 0 1 0 10,0 z"
         style="fill:none;stroke:#000000"
         id="path32"
         inkscape:connector-curvature="0" />
      <path
         d="m -10769666,11642377 6,-8"
         style="fill:none;stroke:#000000"
         id="path34"
         inkscape:connector-curvature="0" />
      <path
         d="m -10769648,11642370 0,6"
         style="fill:none;stroke:#000000"
         id="path36"
         inkscape:connector-curvature="0" />
      <path
         d="m -10769659,11642375 11,1"
         style="fill:none;stroke:#000000"
         id="path38"
         inkscape:connector-curvature="0" />
      <path
         d="m -10769659,11642371 11,-1"
         style="fill:none;stroke:#000000"
         id="path40"
         inkscape:connector-curvature="0" />
      <path
         d="m -10769659,11642376 -8,-6"
         style="fill:none;stroke:#000000"
         id="path42"
         inkscape:connector-curvature="0" />
    </symbol>
    <symbol
       id="POSTE-MA">
      <path
         d="m -10769658,11642373 a 5,5 0 1 0 -10,0 5,5 0 1 0 10,0 z"
         style="fill:none;stroke:#000000"
         id="path45"
         inkscape:connector-curvature="0" />
      <path
         d="m -10769659,11642376 -8,-6"
         style="fill:none;stroke:#000000"
         id="path47"
         inkscape:connector-curvature="0" />
      <path
         d="m -10769666,11642377 6,-8"
         style="fill:none;stroke:#000000"
         id="path49"
         inkscape:connector-curvature="0" />
    </symbol>
    <symbol
       id="POSTE-HA">
      <path
         d="m -10769656,11642373 a 7.21976,7.21976 0 1 0 -14,0 7.21976,7.21976 0 1 0 14,0 z"
         style="fill:none;stroke:#000000"
         id="path52"
         inkscape:connector-curvature="0" />
      <path
         d="m -10769663,11642366 0,14"
         style="fill:none;stroke:#000000"
         id="path54"
         inkscape:connector-curvature="0" />
      <path
         d="m -10769656,11642373 -7,-7 0,14 z"
         style="fill:#000000"
         id="path56"
         inkscape:connector-curvature="0" />
    </symbol>
    <symbol
       id="PAT">
      <path
         d="m -10769663,11642373 0,8"
         style="fill:none;stroke:#000000"
         id="path59"
         inkscape:connector-curvature="0" />
      <path
         d="m -10769663,11642381 5,0"
         style="fill:none;stroke:#000000"
         id="path61"
         inkscape:connector-curvature="0" />
      <path
         d="m -10769663,11642383 4,0"
         style="fill:none;stroke:#000000"
         id="path63"
         inkscape:connector-curvature="0" />
      <path
         d="m -10769663,11642384 3,0"
         style="fill:none;stroke:#000000"
         id="path65"
         inkscape:connector-curvature="0" />
      <path
         d="m -10769663,11642386 2,0"
         style="fill:none;stroke:#000000"
         id="path67"
         inkscape:connector-curvature="0" />
      <path
         d="m -10769663,11642381 -5,0"
         style="fill:none;stroke:#000000"
         id="path69"
         inkscape:connector-curvature="0" />
      <path
         d="m -10769663,11642386 -2,0"
         style="fill:none;stroke:#000000"
         id="path71"
         inkscape:connector-curvature="0" />
      <path
         d="m -10769663,11642384 -3,0"
         style="fill:none;stroke:#000000"
         id="path73"
         inkscape:connector-curvature="0" />
      <path
         d="m -10769663,11642383 -4,0"
         style="fill:none;stroke:#000000"
         id="path75"
         inkscape:connector-curvature="0" />
    </symbol>
  </defs>
  <g
     inkscape:groupmode="layer"
     inkscape:label="0"
     id="g77"
     transform="translate(0.5,-924.86237)" />
  <g
     inkscape:groupmode="layer"
     id="layer1"
     inkscape:label="Capa"
     style="display:inline" />
  <g
     inkscape:groupmode="layer"
     id="layer2"
     inkscape:label="Capa#1">
    <g
       style="display:inline;fill:#ffffff;fill-opacity:1"
       id="g12"
       transform="matrix(2.1392915,0,0,-2.1392915,63.990034,1.0935413)">
      <path
         inkscape:connector-curvature="0"
         d="m 0,0 -14.16,-24.6 28.38,0 L 0,0 z"
         style="fill:#ffffff;stroke:#000000;stroke-width:0.72000003000000001;stroke-linecap:round;stroke-linejoin:round;stroke-miterlimit:10;stroke-opacity:1;stroke-dasharray:none;fill-opacity:1"
         id="path14-6" />
      <g
         id="g16"
         transform="translate(-2.46,-29.46)"
         style="fill:#ffffff;fill-opacity:1">
        <path
           inkscape:connector-curvature="0"
           d="M 0,0 -0.12,1.08 -0.48,2.1 -1.02,3.06 -1.8,3.84 -2.76,4.38 -3.78,4.74 -4.86,4.86 -6,4.74 -7.02,4.38 -7.92,3.84 -8.7,3.06 -9.3,2.1 -9.66,1.08 -9.78,0 l 0.12,-1.14 0.36,-1.02 0.6,-0.9 0.78,-0.78 0.9,-0.6 1.02,-0.36 1.14,-0.12 1.08,0.12 1.02,0.36 0.96,0.6 0.78,0.78 0.54,0.9 0.36,1.02 L 0,0 z"
           style="fill:#ffffff;stroke:#000000;stroke-width:0.72000003000000001;stroke-linecap:round;stroke-linejoin:round;stroke-miterlimit:10;stroke-opacity:1;stroke-dasharray:none;fill-opacity:1"
           id="path18" />
        <g
           id="g20"
           transform="translate(-4.86,4.86)"
           style="fill:#ffffff;fill-opacity:1">
          <path
             inkscape:connector-curvature="0"
             d="M 0,0 0,-9.78"
             style="fill:#ffffff;stroke:#000000;stroke-width:0.72000003000000001;stroke-linecap:round;stroke-linejoin:round;stroke-miterlimit:10;stroke-opacity:1;stroke-dasharray:none;fill-opacity:1"
             id="path22" />
        </g>
      </g>
    </g>
    <g
       style="display:inline"
       id="g24"
       transform="matrix(2.1392915,0,0,-2.1392915,48.330421,53.720112)">
      <path
         inkscape:connector-curvature="0"
         d="m 0,0 0,-0.12 1.08,0"
         style="fill:#000000;fill-opacity:1;fill-rule:evenodd;stroke:none"
         id="path26" />
    </g>
    <g
       style="display:inline"
       id="g28"
       transform="matrix(2.1392915,0,0,-2.1392915,48.330421,53.976827)">
      <path
         inkscape:connector-curvature="0"
         d="m 0,0 0,-0.36 2.1,0"
         style="fill:#000000;fill-opacity:1;fill-rule:evenodd;stroke:none"
         id="path30" />
    </g>
    <g
       style="display:inline"
       id="g32"
       transform="matrix(2.1392915,0,0,-2.1392915,48.330421,53.976827)">
      <path
         inkscape:connector-curvature="0"
         d="M 0,0 1.08,0 2.1,-0.36"
         style="fill:#000000;fill-opacity:1;fill-rule:evenodd;stroke:none"
         id="path34-3" />
    </g>
    <g
       style="display:inline"
       id="g36"
       transform="matrix(2.1392915,0,0,-2.1392915,48.330421,54.746971)">
      <path
         inkscape:connector-curvature="0"
         d="m 0,0 0,-0.54 3.06,0"
         style="fill:#000000;fill-opacity:1;fill-rule:evenodd;stroke:none"
         id="path38-4" />
    </g>
    <g
       style="display:inline"
       id="g40"
       transform="matrix(2.1392915,0,0,-2.1392915,48.330421,54.746971)">
      <path
         inkscape:connector-curvature="0"
         d="M 0,0 2.1,0 3.06,-0.54"
         style="fill:#000000;fill-opacity:1;fill-rule:evenodd;stroke:none"
         id="path42-7" />
    </g>
    <g
       style="display:inline"
       id="g44"
       transform="matrix(2.1392915,0,0,-2.1392915,48.330421,55.902188)">
      <path
         inkscape:connector-curvature="0"
         d="m 0,0 0,-0.78 3.84,0"
         style="fill:#000000;fill-opacity:1;fill-rule:evenodd;stroke:none"
         id="path46" />
    </g>
    <g
       style="display:inline"
       id="g48"
       transform="matrix(2.1392915,0,0,-2.1392915,48.330421,55.902188)">
      <path
         inkscape:connector-curvature="0"
         d="M 0,0 3.06,0 3.84,-0.78"
         style="fill:#000000;fill-opacity:1;fill-rule:evenodd;stroke:none"
         id="path50" />
    </g>
    <g
       style="display:inline"
       id="g52"
       transform="matrix(2.1392915,0,0,-2.1392915,48.330421,57.570837)">
      <path
         inkscape:connector-curvature="0"
         d="m 0,0 0,-0.96 4.38,0"
         style="fill:#000000;fill-opacity:1;fill-rule:evenodd;stroke:none"
         id="path54-5" />
    </g>
    <g
       style="display:inline"
       id="g56"
       transform="matrix(2.1392915,0,0,-2.1392915,48.330421,57.570837)">
      <path
         inkscape:connector-curvature="0"
         d="M 0,0 3.84,0 4.38,-0.96"
         style="fill:#000000;fill-opacity:1;fill-rule:evenodd;stroke:none"
         id="path58" />
    </g>
    <g
       style="display:inline"
       id="g60"
       transform="matrix(2.1392915,0,0,-2.1392915,48.330421,59.624556)">
      <path
         inkscape:connector-curvature="0"
         d="m 0,0 0,-1.02 4.74,0"
         style="fill:#000000;fill-opacity:1;fill-rule:evenodd;stroke:none"
         id="path62" />
    </g>
    <g
       style="display:inline"
       id="g64"
       transform="matrix(2.1392915,0,0,-2.1392915,48.330421,59.624556)">
      <path
         inkscape:connector-curvature="0"
         d="M 0,0 4.38,0 4.74,-1.02"
         style="fill:#000000;fill-opacity:1;fill-rule:evenodd;stroke:none"
         id="path66" />
    </g>
    <g
       style="display:inline"
       id="g68"
       transform="matrix(2.1392915,0,0,-2.1392915,48.330421,61.806634)">
      <path
         inkscape:connector-curvature="0"
         d="m 0,0 0,-1.08 4.86,0"
         style="fill:#000000;fill-opacity:1;fill-rule:evenodd;stroke:none"
         id="path70" />
    </g>
    <g
       style="display:inline"
       id="g72"
       transform="matrix(2.1392915,0,0,-2.1392915,48.330421,61.806634)">
      <path
         inkscape:connector-curvature="0"
         d="M 0,0 4.74,0 4.86,-1.08"
         style="fill:#000000;fill-opacity:1;fill-rule:evenodd;stroke:none"
         id="path74" />
    </g>
    <g
       style="display:inline"
       id="g76"
       transform="matrix(2.1392915,0,0,-2.1392915,48.330421,64.117068)">
      <path
         inkscape:connector-curvature="0"
         d="m 0,0 0,-1.14 4.74,0"
         style="fill:#000000;fill-opacity:1;fill-rule:evenodd;stroke:none"
         id="path78" />
    </g>
    <g
       style="display:inline"
       id="g80"
       transform="matrix(2.1392915,0,0,-2.1392915,48.330421,64.117068)">
      <path
         inkscape:connector-curvature="0"
         d="M 0,0 4.86,0 4.74,-1.14"
         style="fill:#000000;fill-opacity:1;fill-rule:evenodd;stroke:none"
         id="path82" />
    </g>
    <g
       style="display:inline"
       id="g84"
       transform="matrix(2.1392915,0,0,-2.1392915,48.330421,66.555861)">
      <path
         inkscape:connector-curvature="0"
         d="m 0,0 0,-1.02 4.38,0"
         style="fill:#000000;fill-opacity:1;fill-rule:evenodd;stroke:none"
         id="path86" />
    </g>
    <g
       style="display:inline"
       id="g88"
       transform="matrix(2.1392915,0,0,-2.1392915,48.330421,66.555861)">
      <path
         inkscape:connector-curvature="0"
         d="M 0,0 4.74,0 4.38,-1.02"
         style="fill:#000000;fill-opacity:1;fill-rule:evenodd;stroke:none"
         id="path90" />
    </g>
    <g
       style="display:inline"
       id="g92"
       transform="matrix(2.1392915,0,0,-2.1392915,48.330421,68.737937)">
      <path
         inkscape:connector-curvature="0"
         d="m 0,0 0,-0.9 3.84,0"
         style="fill:#000000;fill-opacity:1;fill-rule:evenodd;stroke:none"
         id="path94" />
    </g>
    <g
       style="display:inline"
       id="g96"
       transform="matrix(2.1392915,0,0,-2.1392915,48.330421,68.737937)">
      <path
         inkscape:connector-curvature="0"
         d="M 0,0 4.38,0 3.84,-0.9"
         style="fill:#000000;fill-opacity:1;fill-rule:evenodd;stroke:none"
         id="path98" />
    </g>
    <g
       style="display:inline"
       id="g100"
       transform="matrix(2.1392915,0,0,-2.1392915,48.330421,70.663301)">
      <path
         inkscape:connector-curvature="0"
         d="m 0,0 0,-0.78 3.06,0"
         style="fill:#000000;fill-opacity:1;fill-rule:evenodd;stroke:none"
         id="path102" />
    </g>
    <g
       style="display:inline"
       id="g104"
       transform="matrix(2.1392915,0,0,-2.1392915,48.330421,70.663301)">
      <path
         inkscape:connector-curvature="0"
         d="M 0,0 3.84,0 3.06,-0.78"
         style="fill:#000000;fill-opacity:1;fill-rule:evenodd;stroke:none"
         id="path106" />
    </g>
    <g
       style="display:inline"
       id="g108"
       transform="matrix(2.1392915,0,0,-2.1392915,48.330421,72.331947)">
      <path
         inkscape:connector-curvature="0"
         d="m 0,0 0,-0.6 2.1,0"
         style="fill:#000000;fill-opacity:1;fill-rule:evenodd;stroke:none"
         id="path110" />
    </g>
    <g
       style="display:inline"
       id="g112"
       transform="matrix(2.1392915,0,0,-2.1392915,48.330421,72.331947)">
      <path
         inkscape:connector-curvature="0"
         d="M 0,0 3.06,0 2.1,-0.6"
         style="fill:#000000;fill-opacity:1;fill-rule:evenodd;stroke:none"
         id="path114" />
    </g>
    <g
       style="display:inline"
       id="g116"
       transform="matrix(2.1392915,0,0,-2.1392915,48.330421,74.385667)">
      <path
         inkscape:connector-curvature="0"
         d="M 0,0 1.08,0 0,-0.12"
         style="fill:#000000;fill-opacity:1;fill-rule:evenodd;stroke:none"
         id="path118" />
    </g>
    <g
       style="display:inline"
       id="g120"
       transform="matrix(2.1392915,0,0,-2.1392915,48.330421,73.615522)">
      <path
         inkscape:connector-curvature="0"
         d="m 0,0 0,-0.36 1.08,0"
         style="fill:#000000;fill-opacity:1;fill-rule:evenodd;stroke:none"
         id="path122" />
    </g>
    <g
       style="display:inline"
       id="g124"
       transform="matrix(2.1392915,0,0,-2.1392915,48.330421,73.615522)">
      <path
         inkscape:connector-curvature="0"
         d="M 0,0 2.1,0 1.08,-0.36"
         style="fill:#000000;fill-opacity:1;fill-rule:evenodd;stroke:none"
         id="path126" />
    </g>
    <g
       style="display:inline;fill-opacity:1;fill:#ffffff"
       id="g128"
       transform="matrix(2.1392915,0,0,-2.1392915,61.166169,763.79373)">
      <g
         id="g132"
         transform="translate(12.54,0)"
         style="fill-opacity:1;fill:#ffffff">
        <g
           id="g136"
           transform="translate(-6.3,213.66)"
           style="fill-opacity:1;fill:#ffffff">
          <g
             transform="translate(-8.28,-3.6)"
             id="g144"
             style="fill-opacity:1;fill:#ffffff">
            <g
               transform="translate(82.74,-368.94)"
               id="g148"
               style="fill-opacity:1;fill:#ffffff">
              <g
                 transform="translate(0,-14.4)"
                 id="g152"
                 style="fill-opacity:1;fill:#ffffff">
                <g
                   transform="translate(0,-2.82)"
                   id="g156"
                   style="fill-opacity:1;fill:#ffffff">
                  <g
                     transform="translate(0,-2.88)"
                     id="g160"
                     style="fill-opacity:1;fill:#ffffff">
                    <g
                       transform="translate(0,8.58)"
                       id="g164"
                       style="fill-opacity:1;fill:#ffffff">
                      <g
                         transform="translate(0,-8.58)"
                         id="g168"
                         style="fill-opacity:1;fill:#ffffff">
                        <g
                           transform="translate(0,2.88)"
                           id="g172"
                           style="fill-opacity:1;fill:#ffffff">
                          <g
                             transform="translate(0,2.82)"
                             id="g176"
                             style="fill-opacity:1;fill:#ffffff">
                            <g
                               transform="translate(-67.08,500.34)"
                               id="g180"
                               style="fill-opacity:1;fill:#ffffff">
                              <path
                                 inkscape:connector-curvature="0"
                                 id="path182"
                                 style="fill:#ffffff;stroke:#000000;stroke-width:0.72000003000000001;stroke-linecap:round;stroke-linejoin:round;stroke-miterlimit:10;stroke-opacity:1;stroke-dasharray:none;fill-opacity:1"
                                 d="M 0,0 -0.12,1.08 -0.48,2.1 -1.08,3.06 -1.86,3.84 -2.76,4.38 -3.84,4.74 -4.92,4.86 -6,4.74 -7.02,4.38 -7.98,3.84 -8.76,3.06 -9.3,2.1 -9.66,1.08 -9.84,0 l 0.18,-1.14 0.36,-1.02 0.54,-0.9 0.78,-0.78 0.96,-0.6 1.02,-0.36 1.08,-0.12 1.08,0.12 1.08,0.36 0.9,0.6 0.78,0.78 0.6,0.9 0.36,1.02 L 0,0 z" />
                              <g
                                 transform="translate(-4.92,4.86)"
                                 id="g184"
                                 style="fill-opacity:1;fill:#ffffff">
                                <path
                                   inkscape:connector-curvature="0"
                                   id="path186"
                                   style="fill:#ffffff;stroke:#000000;stroke-width:0.72000003000000001;stroke-linecap:round;stroke-linejoin:round;stroke-miterlimit:10;stroke-opacity:1;stroke-dasharray:none;fill-opacity:1"
                                   d="M 0,0 0,-9.78" />
                              </g>
                            </g>
                          </g>
                        </g>
                      </g>
                    </g>
                  </g>
                </g>
              </g>
            </g>
          </g>
        </g>
      </g>
    </g>
    <g
       style="display:inline"
       id="g188"
       transform="matrix(2.1392915,0,0,-2.1392915,79.778006,53.720112)">
      <path
         inkscape:connector-curvature="0"
         d="m 0,0 0,-0.12 1.08,0"
         style="fill:#000000;fill-opacity:1;fill-rule:evenodd;stroke:none"
         id="path190" />
    </g>
    <g
       style="display:inline"
       id="g192"
       transform="matrix(2.1392915,0,0,-2.1392915,79.778006,53.976827)">
      <path
         inkscape:connector-curvature="0"
         d="m 0,0 0,-0.36 2.16,0"
         style="fill:#000000;fill-opacity:1;fill-rule:evenodd;stroke:none"
         id="path194" />
    </g>
    <g
       style="display:inline"
       id="g196"
       transform="matrix(2.1392915,0,0,-2.1392915,79.778006,53.976827)">
      <path
         inkscape:connector-curvature="0"
         d="M 0,0 1.08,0 2.16,-0.36"
         style="fill:#000000;fill-opacity:1;fill-rule:evenodd;stroke:none"
         id="path198" />
    </g>
    <g
       style="display:inline"
       id="g200"
       transform="matrix(2.1392915,0,0,-2.1392915,79.778006,54.746971)">
      <path
         inkscape:connector-curvature="0"
         d="m 0,0 0,-0.54 3.06,0"
         style="fill:#000000;fill-opacity:1;fill-rule:evenodd;stroke:none"
         id="path202" />
    </g>
    <g
       style="display:inline"
       id="g204"
       transform="matrix(2.1392915,0,0,-2.1392915,79.778006,54.746971)">
      <path
         inkscape:connector-curvature="0"
         d="m 0,0 2.16,0 0.9,-0.54"
         style="fill:#000000;fill-opacity:1;fill-rule:evenodd;stroke:none"
         id="path206" />
    </g>
    <g
       style="display:inline"
       id="g208"
       transform="matrix(2.1392915,0,0,-2.1392915,79.778006,55.902188)">
      <path
         inkscape:connector-curvature="0"
         d="m 0,0 0,-0.78 3.84,0"
         style="fill:#000000;fill-opacity:1;fill-rule:evenodd;stroke:none"
         id="path210" />
    </g>
    <g
       style="display:inline"
       id="g212"
       transform="matrix(2.1392915,0,0,-2.1392915,79.778006,55.902188)">
      <path
         inkscape:connector-curvature="0"
         d="M 0,0 3.06,0 3.84,-0.78"
         style="fill:#000000;fill-opacity:1;fill-rule:evenodd;stroke:none"
         id="path214" />
    </g>
    <g
       style="display:inline"
       id="g216"
       transform="matrix(2.1392915,0,0,-2.1392915,79.778006,57.570837)">
      <path
         inkscape:connector-curvature="0"
         d="m 0,0 0,-0.96 4.44,0"
         style="fill:#000000;fill-opacity:1;fill-rule:evenodd;stroke:none"
         id="path218" />
    </g>
    <g
       style="display:inline"
       id="g220"
       transform="matrix(2.1392915,0,0,-2.1392915,79.778006,57.570837)">
      <path
         inkscape:connector-curvature="0"
         d="m 0,0 3.84,0 0.6,-0.96"
         style="fill:#000000;fill-opacity:1;fill-rule:evenodd;stroke:none"
         id="path222" />
    </g>
    <g
       style="display:inline"
       id="g224"
       transform="matrix(2.1392915,0,0,-2.1392915,79.778006,59.624556)">
      <path
         inkscape:connector-curvature="0"
         d="m 0,0 0,-1.02 4.8,0"
         style="fill:#000000;fill-opacity:1;fill-rule:evenodd;stroke:none"
         id="path226" />
    </g>
    <g
       style="display:inline"
       id="g228"
       transform="matrix(2.1392915,0,0,-2.1392915,79.778006,59.624556)">
      <path
         inkscape:connector-curvature="0"
         d="M 0,0 4.44,0 4.8,-1.02"
         style="fill:#000000;fill-opacity:1;fill-rule:evenodd;stroke:none"
         id="path230" />
    </g>
    <g
       style="display:inline"
       id="g232"
       transform="matrix(2.1392915,0,0,-2.1392915,79.778006,61.806634)">
      <path
         inkscape:connector-curvature="0"
         d="m 0,0 0,-1.08 4.92,0"
         style="fill:#000000;fill-opacity:1;fill-rule:evenodd;stroke:none"
         id="path234" />
    </g>
    <g
       style="display:inline"
       id="g236"
       transform="matrix(2.1392915,0,0,-2.1392915,79.778006,61.806634)">
      <path
         inkscape:connector-curvature="0"
         d="M 0,0 4.8,0 4.92,-1.08"
         style="fill:#000000;fill-opacity:1;fill-rule:evenodd;stroke:none"
         id="path238" />
    </g>
    <g
       style="display:inline"
       id="g240"
       transform="matrix(2.1392915,0,0,-2.1392915,79.778006,64.117068)">
      <path
         inkscape:connector-curvature="0"
         d="m 0,0 0,-1.14 4.8,0"
         style="fill:#000000;fill-opacity:1;fill-rule:evenodd;stroke:none"
         id="path242" />
    </g>
    <g
       style="display:inline"
       id="g244"
       transform="matrix(2.1392915,0,0,-2.1392915,79.778006,64.117068)">
      <path
         inkscape:connector-curvature="0"
         d="M 0,0 4.92,0 4.8,-1.14"
         style="fill:#000000;fill-opacity:1;fill-rule:evenodd;stroke:none"
         id="path246" />
    </g>
    <g
       style="display:inline"
       id="g248"
       transform="matrix(2.1392915,0,0,-2.1392915,79.778006,66.555861)">
      <path
         inkscape:connector-curvature="0"
         d="m 0,0 0,-1.02 4.44,0"
         style="fill:#000000;fill-opacity:1;fill-rule:evenodd;stroke:none"
         id="path250" />
    </g>
    <g
       style="display:inline"
       id="g252"
       transform="matrix(2.1392915,0,0,-2.1392915,79.778006,66.555861)">
      <path
         inkscape:connector-curvature="0"
         d="M 0,0 4.8,0 4.44,-1.02"
         style="fill:#000000;fill-opacity:1;fill-rule:evenodd;stroke:none"
         id="path254" />
    </g>
    <g
       style="display:inline"
       id="g256"
       transform="matrix(2.1392915,0,0,-2.1392915,79.778006,68.737937)">
      <path
         inkscape:connector-curvature="0"
         d="m 0,0 0,-0.9 3.84,0"
         style="fill:#000000;fill-opacity:1;fill-rule:evenodd;stroke:none"
         id="path258" />
    </g>
    <g
       style="display:inline"
       id="g260"
       transform="matrix(2.1392915,0,0,-2.1392915,79.778006,68.737937)">
      <path
         inkscape:connector-curvature="0"
         d="M 0,0 4.44,0 3.84,-0.9"
         style="fill:#000000;fill-opacity:1;fill-rule:evenodd;stroke:none"
         id="path262" />
    </g>
    <g
       style="display:inline"
       id="g264"
       transform="matrix(2.1392915,0,0,-2.1392915,79.778006,70.663301)">
      <path
         inkscape:connector-curvature="0"
         d="m 0,0 0,-0.78 3.06,0"
         style="fill:#000000;fill-opacity:1;fill-rule:evenodd;stroke:none"
         id="path266" />
    </g>
    <g
       style="display:inline"
       id="g268"
       transform="matrix(2.1392915,0,0,-2.1392915,79.778006,70.663301)">
      <path
         inkscape:connector-curvature="0"
         d="M 0,0 3.84,0 3.06,-0.78"
         style="fill:#000000;fill-opacity:1;fill-rule:evenodd;stroke:none"
         id="path270" />
    </g>
    <g
       style="display:inline"
       id="g272"
       transform="matrix(2.1392915,0,0,-2.1392915,79.778006,72.331947)">
      <path
         inkscape:connector-curvature="0"
         d="m 0,0 0,-0.6 2.16,0"
         style="fill:#000000;fill-opacity:1;fill-rule:evenodd;stroke:none"
         id="path274" />
    </g>
    <g
       style="display:inline"
       id="g276"
       transform="matrix(2.1392915,0,0,-2.1392915,79.778006,72.331947)">
      <path
         inkscape:connector-curvature="0"
         d="M 0,0 3.06,0 2.16,-0.6"
         style="fill:#000000;fill-opacity:1;fill-rule:evenodd;stroke:none"
         id="path278" />
    </g>
    <g
       style="display:inline"
       id="g280"
       transform="matrix(2.1392915,0,0,-2.1392915,79.778006,74.385667)">
      <path
         inkscape:connector-curvature="0"
         d="M 0,0 1.08,0 0,-0.12"
         style="fill:#000000;fill-opacity:1;fill-rule:evenodd;stroke:none"
         id="path282" />
    </g>
    <g
       style="display:inline"
       id="g284"
       transform="matrix(2.1392915,0,0,-2.1392915,79.778006,73.615522)">
      <path
         inkscape:connector-curvature="0"
         d="m 0,0 0,-0.36 1.08,0"
         style="fill:#000000;fill-opacity:1;fill-rule:evenodd;stroke:none"
         id="path286" />
    </g>
    <g
       style="display:inline"
       id="g288"
       transform="matrix(2.1392915,0,0,-2.1392915,79.778006,73.615522)">
      <path
         inkscape:connector-curvature="0"
         d="M 0,0 2.16,0 1.08,-0.36"
         style="fill:#000000;fill-opacity:1;fill-rule:evenodd;stroke:none"
         id="path290" />
    </g>
  </g>
</svg>
