<?xml version="1.0" encoding="utf-8"?>
<!-- Generator: Adobe Illustrator 16.0.0, SVG Export Plug-In . SVG Version: 6.00 Build 0)  -->
<!DOCTYPE svg PUBLIC "-//W3C//DTD SVG 1.1//EN" "http://www.w3.org/Graphics/SVG/1.1/DTD/svg11.dtd">
<svg version="1.1" id="Capa_1" xmlns="http://www.w3.org/2000/svg" xmlns:xlink="http://www.w3.org/1999/xlink" x="0px" y="0px"
	 width="595.28px" height="841.89px" viewBox="0 0 595.28 841.89" enable-background="new 0 0 595.28 841.89" xml:space="preserve">
<g>
	<path fill="#04214A" d="M311.705,363.897c-4.884-5.504-12.335-8.26-22.351-8.26c-3.966,0-8.139,0.29-12.53,0.867
		c-4.381,0.581-8.525,1.369-12.412,2.362c-1.41,0.416-2.324,0.854-2.731,1.305c-0.413,0.454-0.619,1.134-0.619,2.049v40.545l0,0
		v2.428c0,0.664,0.241,1.266,0.736,1.804c0.502,0.536,1.083,0.804,1.747,0.804l11.558,0.586c0.658,0,1.219-0.266,1.674-0.803
		c0.453-0.54,0.679-1.133,0.679-1.803v-25.79h-0.013v-9.958c1.158-0.25,2.873-0.45,5.149-0.619c2.28-0.161,4.531-0.248,6.761-0.248
		c2.651,0,4.845,0.451,6.583,1.356c1.738,0.907,3.104,2.142,4.095,3.705c0.998,1.561,1.674,3.416,2.052,5.55
		c0.368,2.149,0.559,4.49,0.559,7.043v9.5c0,2.553-0.19,4.897-0.559,7.037c-0.378,2.143-1.054,3.993-2.052,5.558
		c-0.991,1.565-2.356,2.804-4.095,3.705c-1.738,0.902-3.932,1.361-6.583,1.361c-1.166,0-18.056-0.745-25.174-1.058
		c-3.197-0.1-3.118,3.225-3.118,3.225v32.458c0,0.655,0.241,1.24,0.74,1.732c0.498,0.505,1.079,0.747,1.743,0.747h11.418
		c0.66,0,1.241-0.242,1.734-0.747c0.499-0.492,0.747-1.077,0.747-1.732v-21.969c2.318,0.324,4.507,0.554,6.575,0.684
		c2.066,0.122,3.852,0.183,5.335,0.183c10.016,0,17.467-2.749,22.351-8.25c4.878-5.502,7.319-13.143,7.319-22.903v-9.561
		C319.024,377.03,316.583,369.402,311.705,363.897z"/>
	<path fill="#04214A" d="M378.793,363.897c-4.888-5.504-12.344-8.26-22.355-8.26c-3.971,0-8.141,0.29-12.528,0.867
		c-4.389,0.581-8.525,1.369-12.416,2.362c-1.407,0.416-2.317,0.854-2.729,1.305c-0.417,0.454-0.625,1.134-0.625,2.049v40.55l0,0
		v2.428c0,0.662,0.252,1.261,0.747,1.8c0.497,0.536,1.074,0.804,1.746,0.804l11.546,0.581c0.673,0,1.231-0.261,1.677-0.798
		c0.45-0.54,0.686-1.133,0.686-1.803v-25.79h-0.014v-9.958c1.156-0.25,2.878-0.45,5.153-0.619c2.271-0.161,4.529-0.248,6.757-0.248
		c2.657,0,4.85,0.451,6.583,1.356c1.737,0.907,3.108,2.142,4.097,3.705c0.997,1.561,1.674,3.416,2.051,5.55
		c0.371,2.149,0.553,4.49,0.553,7.043v9.5c0,2.553-0.182,4.897-0.553,7.037c-0.377,2.143-1.054,3.993-2.051,5.558
		c-0.988,1.565-2.359,2.804-4.097,3.705c-1.733,0.902-3.926,1.361-6.583,1.361c-1.164,0-18.057-0.745-25.173-1.058
		c-3.204-0.1-3.125,3.225-3.125,3.225v32.458c0,0.655,0.252,1.24,0.75,1.732c0.494,0.505,1.075,0.747,1.743,0.747h11.415
		c0.664,0,1.239-0.242,1.734-0.747c0.499-0.492,0.745-1.077,0.745-1.732v-21.969c2.318,0.324,4.513,0.554,6.579,0.684
		c2.068,0.122,3.846,0.183,5.331,0.183c10.012,0,17.468-2.749,22.355-8.25c4.876-5.502,7.318-13.143,7.318-22.903v-9.561
		C386.111,377.03,383.669,369.402,378.793,363.897z"/>
	<path fill="#04214A" d="M476.484,397.783h-41.077v0.381c0,1.835,0.225,3.7,0.694,5.591c0.46,1.883,1.257,3.597,2.385,5.148
		c1.125,1.556,2.66,2.81,4.584,3.772c1.925,0.962,4.402,1.438,7.412,1.438c4.602,0,8.937-0.139,13.01-0.438
		c4.058-0.289,7.43-0.558,10.116-0.809h0.372c0.676,0,1.216,0.146,1.638,0.438c0.418,0.299,0.626,0.774,0.626,1.442v8.299
		c0,1.001-0.148,1.756-0.442,2.255c-0.294,0.502-1.022,0.842-2.193,1.01c-2.011,0.333-3.893,0.648-5.652,0.939
		c-1.759,0.295-3.545,0.525-5.348,0.69c-1.803,0.174-3.771,0.294-5.902,0.38c-2.134,0.08-4.629,0.122-7.472,0.122
		c-3.104,0-6.434-0.486-9.986-1.439c-3.555-0.962-6.83-2.643-9.83-5.027c-2.991-2.393-5.487-5.617-7.481-9.673
		c-1.994-4.069-2.99-9.197-2.99-15.398v-9.297c0-4.941,0.668-9.379,2.013-13.319c1.334-3.935,3.274-7.29,5.849-10.056
		c2.541-2.768,5.713-4.875,9.476-6.339c3.771-1.466,8.046-2.202,12.821-2.202c4.853,0,9.146,0.771,12.88,2.323
		c3.727,1.55,6.848,3.748,9.362,6.601c2.513,2.846,4.412,6.218,5.713,10.111c1.309,3.893,1.949,8.192,1.949,12.882v7.037
		C479.009,396.738,478.169,397.783,476.484,397.783z M462.427,385.463c0-4.936-1.23-8.748-3.686-11.432
		c-2.451-2.68-5.659-4.019-9.629-4.019c-3.986,0-7.238,1.323-9.778,3.958c-2.529,2.643-3.797,6.475-3.797,11.493v0.512h26.89
		V385.463z"/>
	<path fill="#04214A" d="M119.378,401.561c0,3.148-0.537,6.269-1.608,9.371c-1.079,3.113-2.878,5.878-5.401,8.323
		c-2.524,2.442-5.877,4.429-10.06,5.954c-4.177,1.534-9.365,2.297-15.575,2.297c-4.717,0-8.807-0.204-12.289-0.614
		c-3.476-0.422-6.695-0.962-9.676-1.622c-0.66-0.164-1.223-0.45-1.679-0.857c-0.451-0.417-0.674-0.959-0.674-1.622v-8.937
		c0-0.662,0.223-1.221,0.674-1.68c0.456-0.452,1.02-0.678,1.679-0.678h0.25c1.236,0.171,2.868,0.314,4.899,0.434
		c2.022,0.122,4.12,0.244,6.271,0.374c2.144,0.12,4.192,0.23,6.138,0.311c1.943,0.078,3.494,0.123,4.656,0.123
		c5.545,0,9.331-0.95,11.351-2.857c2.038-1.902,3.047-4.667,3.047-8.317c0-1.237-0.164-2.33-0.498-3.285
		c-0.333-0.954-0.886-1.88-1.677-2.796c-0.781-0.904-1.861-1.838-3.227-2.787c-1.359-0.953-3.082-2.054-5.153-3.294l-16.383-9.807
		c-2.9-1.738-5.275-3.48-7.129-5.214c-1.863-1.738-3.354-3.527-4.472-5.396c-1.118-1.859-1.908-3.809-2.358-5.828
		c-0.456-2.039-0.684-4.123-0.684-6.272c0-3.394,0.537-6.538,1.615-9.437c1.071-2.899,2.831-5.395,5.272-7.515
		c2.449-2.097,5.629-3.735,9.559-4.897c3.927-1.162,8.789-1.737,14.58-1.737c2.071,0,4.261,0.064,6.579,0.19
		c2.324,0.116,4.595,0.307,6.836,0.559c2.231,0.242,4.258,0.493,6.077,0.744c1.818,0.244,3.265,0.495,4.351,0.737
		c0.654,0.174,1.191,0.443,1.604,0.806c0.416,0.377,0.624,0.898,0.624,1.553v9.188c0,0.664-0.19,1.195-0.561,1.611
		c-0.372,0.416-0.883,0.625-1.55,0.625h-0.248c-4.14-0.416-8.234-0.724-12.292-0.927c-4.057-0.208-8.109-0.312-12.161-0.312
		c-4.633,0-7.966,0.763-9.995,2.296c-2.026,1.531-3.038,3.702-3.038,6.515c0,0.992,0.143,1.919,0.434,2.795
		c0.292,0.867,0.826,1.734,1.616,2.6c0.779,0.877,1.837,1.744,3.164,2.604c1.322,0.873,2.977,1.886,4.967,3.042l14.892,8.319
		c3.388,1.902,6.206,3.827,8.441,5.776c2.232,1.943,4.01,3.949,5.333,6.012c1.33,2.072,2.235,4.222,2.741,6.463
		C119.136,396.719,119.378,399.082,119.378,401.561z"/>
	<path fill="#04214A" d="M410.001,425.703c-0.46,0.546-1.023,0.806-1.674,0.806h-11.555c-0.657,0-1.238-0.26-1.733-0.806
		c-0.494-0.539-0.745-1.133-0.745-1.794v-89.372c0-0.667,0.251-1.242,0.745-1.737c0.495-0.499,1.076-0.746,1.733-0.746h11.555
		c0.65,0,1.214,0.247,1.674,0.746c0.451,0.495,0.676,1.07,0.676,1.737v89.372C410.677,424.57,410.452,425.164,410.001,425.703z"/>
	<path fill="#04214A" d="M184.478,373.212c-0.581-3.384-1.635-6.332-3.163-8.811c-1.537-2.483-3.706-4.43-6.521-5.839
		c-2.712-1.356-12.003-3.099-18.684-2.852c-3.938,0.152-8.091,0.291-12.452,0.863c-4.355,0.575-8.463,1.352-12.331,2.332
		c-1.395,0.416-2.302,0.841-2.708,1.286c-0.416,0.456-0.616,1.123-0.616,2.029v7.629v4.849v50.022c0,0.66,0.248,1.269,0.746,1.805
		c0.494,0.539,1.072,0.806,1.734,0.806h11.424c0.664,0,1.235-0.267,1.734-0.806c0.498-0.536,0.749-1.145,0.749-1.805l0.02-54.762
		c0.161-0.054,0.351-0.096,0.527-0.13c1.111-0.197,2.584-0.356,4.458-0.495c2.136-0.156,4.251-0.23,6.352-0.242
		c0.266,0.003,0.535,0.008,0.795,0.017c2.429,0.043,4.474,0.477,6.106,1.318c0.553,0.289,1.051,0.625,1.531,0.978
		c1.809,1.492,4.223,4.327,4.725,9.684c0.091,0.972,0.059,2.029,0.059,3.172v40.461c0,0.66,0.249,1.269,0.748,1.805
		c0.491,0.539,1.075,0.806,1.734,0.806h11.417c0.663,0,1.248-0.267,1.737-0.806c0.495-0.536,0.75-1.145,0.75-1.805v-40.461
		C185.348,380.29,185.057,376.604,184.478,373.212z"/>
	<path fill="#04214A" d="M514.772,355.663c-3.944,0.146-8.094,0.289-12.454,0.857c-4.353,0.572-8.462,1.353-12.318,2.333
		c-1.405,0.41-2.305,0.839-2.722,1.29c-0.397,0.451-0.607,1.118-0.607,2.02v7.63v4.857v50.024c0,0.663,0.244,1.254,0.737,1.794
		c0.495,0.538,1.076,0.813,1.743,0.813h11.425c0.65,0,1.231-0.274,1.733-0.813c0.493-0.54,0.746-1.131,0.746-1.794l0.018-54.771
		c0.163-0.051,0.354-0.095,0.528-0.134c1.108-0.187,2.581-0.355,4.455-0.49c2.131-0.155,4.256-0.234,6.354-0.238
		c0.268,0,4.056,0.373,4.62,0.49c3.623,0.719,3.598-3.043,3.598-3.043s-0.034-6.805,0.035-8.369
		c0.077-1.898-1.424-2.207-1.424-2.207C519.012,355.694,516.776,355.589,514.772,355.663z"/>
	<path fill="#04214A" d="M248.228,410.212l-0.025,0.009v-30.676c0-8.127-2.368-14.155-7.104-18.095
		c-4.733-3.936-11.582-5.907-20.543-5.907c-4.353,0-8.31,0.207-11.873,0.623c-3.562,0.413-6.602,0.872-9.106,1.371
		c-1.594,0.337-2.392,1.205-2.392,2.608v7.976c0,0.909,0.207,1.5,0.632,1.75c0.416,0.248,0.958,0.374,1.625,0.374h0.632
		c2.09-0.25,5.029-0.476,8.798-0.688c3.762-0.213,7.663-0.317,11.682-0.317c3.774,0,6.558,0.675,8.355,2.028
		c1.803,1.353,2.701,4.09,2.701,8.234v5.575h-7.91c-10.896,0-18.724,1.819-23.5,5.459c-4.775,3.651-7.16,9.072-7.16,16.272v0.51
		c0,4.273,0.647,7.749,1.942,10.428c1.3,2.678,2.904,4.913,5.032,6.409c6.34,4.46,16.734,4.807,19.915,4.807
		c3.97,0,8.157-0.294,12.535-0.866c3.228-0.425,9.694-2.29,13.054-3.415c1.205-0.408,2.766-1.266,2.734-2.886L248.228,410.212z
		 M209.623,406.807c0-1.752,0.191-3.305,0.572-4.647c0.377-1.34,1.092-2.448,2.149-3.329c1.051-0.876,2.485-1.547,4.293-2.011
		c1.81-0.459,4.15-0.694,7.017-0.694h7.957l-0.075,17.381c-1.848,1.004-10.54,1.604-12.815,1.604c-3.194,0-5.513-0.53-6.947-1.579
		c-1.439-1.045-2.15-3.121-2.15-6.215V406.807z"/>
</g>
<g>
	<path fill="#5B5B5F" d="M154.929,488.891c0,0.676-0.104,1.348-0.31,2.015c-0.208,0.668-0.569,1.268-1.085,1.803
		c-0.517,0.537-1.226,0.974-2.128,1.311c-0.901,0.339-2.047,0.509-3.438,0.509c-0.996,0-1.87-0.043-2.621-0.128
		c-0.751-0.084-1.437-0.173-2.057-0.268c-0.245-0.037-0.395-0.094-0.451-0.168c-0.057-0.075-0.085-0.188-0.085-0.339v-1.127
		c0-0.151,0.047-0.263,0.141-0.339c0.094-0.075,0.207-0.113,0.338-0.113h0.084c0.319,0.02,0.681,0.043,1.084,0.071
		c0.404,0.027,0.818,0.047,1.241,0.056c0.422,0.01,0.835,0.02,1.24,0.028c0.404,0.01,0.765,0.015,1.085,0.015
		c0.845,0,1.545-0.079,2.099-0.239c0.554-0.159,0.991-0.385,1.31-0.676c0.319-0.292,0.545-0.645,0.676-1.058
		c0.132-0.413,0.198-0.864,0.198-1.353c0-0.356-0.056-0.681-0.169-0.972c-0.112-0.291-0.301-0.579-0.563-0.86
		c-0.263-0.282-0.61-0.577-1.042-0.888c-0.432-0.31-0.968-0.662-1.606-1.057l-2.733-1.663c-1.296-0.789-2.269-1.582-2.917-2.381
		c-0.648-0.798-0.972-1.761-0.972-2.889c0-1.709,0.587-2.968,1.761-3.775c1.174-0.808,2.842-1.212,5.002-1.212
		c0.413,0,0.85,0.01,1.311,0.028c0.46,0.019,0.911,0.042,1.352,0.07s0.86,0.065,1.254,0.112c0.395,0.048,0.723,0.09,0.986,0.127
		c0.319,0.057,0.479,0.216,0.479,0.479v1.213c0,0.301-0.16,0.45-0.479,0.45h-0.056c-0.62-0.037-1.377-0.075-2.269-0.113
		c-0.893-0.036-1.752-0.056-2.579-0.056c-1.465,0-2.522,0.188-3.17,0.563s-0.972,1.081-0.972,2.113c0,0.339,0.061,0.644,0.183,0.916
		c0.121,0.272,0.304,0.541,0.547,0.804c0.243,0.263,0.562,0.531,0.956,0.802c0.394,0.273,0.852,0.569,1.377,0.889l2.585,1.55
		c0.824,0.489,1.512,0.958,2.065,1.409c0.553,0.451,1.007,0.901,1.363,1.353c0.355,0.451,0.608,0.921,0.758,1.409
		C154.853,487.802,154.929,488.327,154.929,488.891z"/>
	<path fill="#5B5B5F" d="M169.892,490.469c-0.263,0.846-0.658,1.568-1.183,2.17c-0.526,0.602-1.184,1.066-1.973,1.395
		c-0.789,0.328-1.701,0.494-2.733,0.494c-1.034,0-1.94-0.166-2.72-0.494c-0.779-0.328-1.432-0.793-1.958-1.395
		c-0.526-0.602-0.92-1.324-1.183-2.17c-0.263-0.846-0.395-1.785-0.395-2.818v-2.142c0-1.032,0.131-1.973,0.395-2.818
		c0.263-0.845,0.657-1.567,1.183-2.169c0.526-0.602,1.179-1.066,1.958-1.396c0.78-0.329,1.686-0.492,2.72-0.492
		c1.033,0,1.944,0.163,2.733,0.492c0.789,0.329,1.447,0.794,1.973,1.396c0.525,0.602,0.92,1.324,1.183,2.169
		c0.264,0.846,0.395,1.786,0.395,2.818v2.142C170.287,488.684,170.155,489.623,169.892,490.469z M167.807,485.509
		c0-1.446-0.3-2.593-0.902-3.438c-0.602-0.845-1.569-1.268-2.902-1.268c-1.315,0-2.273,0.419-2.875,1.254
		c-0.601,0.837-0.902,1.986-0.902,3.452v2.142c0,1.447,0.296,2.593,0.888,3.438s1.554,1.268,2.889,1.268
		c1.314,0,2.277-0.418,2.888-1.254s0.916-1.986,0.916-3.452V485.509z"/>
	<path fill="#5B5B5F" d="M176.232,494.16c-0.094,0.112-0.216,0.169-0.366,0.169h-1.465c-0.151,0-0.272-0.057-0.366-0.169
		c-0.095-0.113-0.141-0.243-0.141-0.395v-20.093c0-0.149,0.046-0.276,0.141-0.38c0.094-0.103,0.215-0.155,0.366-0.155h1.465
		c0.15,0,0.272,0.053,0.366,0.155c0.094,0.104,0.141,0.23,0.141,0.38v20.093C176.374,493.917,176.326,494.047,176.232,494.16z"/>
	<path fill="#5B5B5F" d="M192.196,494.16c-0.103,0.112-0.23,0.169-0.38,0.169h-1.409c-0.15,0-0.277-0.058-0.38-0.171
		c-0.104-0.115-0.155-0.249-0.155-0.401v-0.544c-0.789,0.438-1.521,0.767-2.198,0.985s-1.438,0.329-2.283,0.329
		c-1.71,0-2.955-0.509-3.734-1.522c-0.78-1.014-1.17-2.461-1.17-4.341v-9.271c0-0.15,0.057-0.281,0.169-0.395
		c0.112-0.112,0.244-0.169,0.395-0.169h1.353c0.149,0,0.282,0.057,0.394,0.169c0.113,0.112,0.169,0.243,0.169,0.394v9.252
		c0,0.713,0.061,1.308,0.183,1.786c0.122,0.478,0.31,0.857,0.564,1.139c0.253,0.281,0.578,0.483,0.972,0.604
		c0.394,0.122,0.854,0.183,1.381,0.183c0.601,0,1.221-0.103,1.86-0.31c0.638-0.206,1.286-0.469,1.944-0.787v-11.867
		c0-0.15,0.056-0.281,0.169-0.394c0.112-0.112,0.244-0.169,0.394-0.169h1.381c0.15,0,0.277,0.057,0.38,0.169
		c0.103,0.113,0.155,0.244,0.155,0.395v14.372C192.351,493.917,192.299,494.047,192.196,494.16z"/>
	<path fill="#5B5B5F" d="M205.652,494.019c-0.076,0.095-0.226,0.161-0.451,0.198c-0.47,0.094-1.01,0.169-1.621,0.226
		s-1.245,0.085-1.902,0.085c-0.958,0-1.809-0.166-2.551-0.494c-0.742-0.328-1.371-0.788-1.888-1.38
		c-0.517-0.593-0.907-1.312-1.169-2.156c-0.263-0.846-0.395-1.785-0.395-2.818v-2.198c0-1.032,0.131-1.973,0.395-2.818
		c0.263-0.845,0.648-1.563,1.155-2.155c0.507-0.592,1.137-1.052,1.888-1.381c0.751-0.329,1.606-0.492,2.564-0.492
		c0.657,0,1.292,0.026,1.902,0.083s1.151,0.133,1.621,0.226c0.226,0.038,0.375,0.1,0.451,0.184c0.075,0.085,0.113,0.23,0.113,0.437
		v1.016c0,0.149-0.047,0.258-0.141,0.323c-0.095,0.066-0.207,0.099-0.338,0.099h-0.113c-0.62-0.075-1.183-0.127-1.691-0.155
		c-0.507-0.028-1.108-0.042-1.803-0.042c-1.127,0-1.997,0.381-2.606,1.142c-0.611,0.76-0.917,1.94-0.917,3.536v2.198
		c0,1.597,0.301,2.776,0.902,3.537c0.601,0.761,1.474,1.141,2.621,1.141c0.695,0,1.296-0.014,1.803-0.042
		c0.508-0.028,1.071-0.079,1.691-0.155h0.113c0.131,0,0.244,0.033,0.338,0.099c0.094,0.066,0.141,0.174,0.141,0.324v1.015
		C205.765,493.784,205.727,493.926,205.652,494.019z"/>
	<path fill="#5B5B5F" d="M211.598,476.181c-0.112,0.113-0.244,0.17-0.395,0.17h-1.437c-0.151,0-0.282-0.057-0.395-0.17
		c-0.113-0.112-0.169-0.243-0.169-0.394v-2.255c0-0.15,0.057-0.281,0.169-0.395c0.113-0.112,0.244-0.169,0.395-0.169h1.437
		c0.15,0,0.282,0.057,0.395,0.169c0.113,0.113,0.169,0.244,0.169,0.395v2.255C211.767,475.938,211.71,476.068,211.598,476.181z
		 M211.541,494.16c-0.112,0.112-0.244,0.169-0.394,0.169h-1.353c-0.151,0-0.282-0.057-0.395-0.169
		c-0.113-0.113-0.169-0.243-0.169-0.395v-14.372c0-0.15,0.056-0.281,0.169-0.395c0.112-0.112,0.244-0.169,0.395-0.169h1.353
		c0.15,0,0.282,0.057,0.394,0.169c0.113,0.113,0.169,0.244,0.169,0.395v14.372C211.71,493.917,211.654,494.047,211.541,494.16z"/>
	<path fill="#5B5B5F" d="M227.52,490.469c-0.264,0.846-0.658,1.568-1.184,2.17c-0.526,0.602-1.184,1.066-1.973,1.395
		c-0.789,0.328-1.701,0.494-2.733,0.494c-1.034,0-1.94-0.166-2.72-0.494c-0.779-0.328-1.432-0.793-1.958-1.395
		c-0.526-0.602-0.92-1.324-1.183-2.17c-0.263-0.846-0.395-1.785-0.395-2.818v-2.142c0-1.032,0.131-1.973,0.395-2.818
		c0.263-0.845,0.657-1.567,1.183-2.169c0.526-0.602,1.179-1.066,1.958-1.396c0.78-0.329,1.686-0.492,2.72-0.492
		c1.033,0,1.944,0.163,2.733,0.492c0.789,0.329,1.447,0.794,1.973,1.396c0.525,0.602,0.92,1.324,1.184,2.169
		c0.263,0.846,0.395,1.786,0.395,2.818v2.142C227.914,488.684,227.783,489.623,227.52,490.469z M225.435,485.509
		c0-1.446-0.301-2.593-0.902-3.438c-0.602-0.845-1.569-1.268-2.902-1.268c-1.315,0-2.273,0.419-2.874,1.254
		c-0.602,0.837-0.902,1.986-0.902,3.452v2.142c0,1.447,0.296,2.593,0.888,3.438c0.591,0.846,1.554,1.268,2.888,1.268
		c1.314,0,2.277-0.418,2.888-1.254s0.917-1.986,0.917-3.452V485.509z"/>
	<path fill="#5B5B5F" d="M242.934,494.16c-0.112,0.112-0.244,0.169-0.395,0.169h-1.353c-0.15,0-0.282-0.057-0.394-0.168
		c-0.113-0.113-0.169-0.244-0.169-0.395v-9.253c0-0.712-0.061-1.307-0.183-1.784c-0.123-0.479-0.31-0.857-0.564-1.14
		c-0.253-0.28-0.573-0.482-0.958-0.604c-0.386-0.122-0.85-0.184-1.395-0.184c-0.602,0-1.222,0.104-1.86,0.309
		c-0.639,0.207-1.287,0.47-1.944,0.789v11.866c0,0.15-0.057,0.281-0.169,0.395c-0.112,0.111-0.244,0.168-0.394,0.168h-1.381
		c-0.151,0-0.277-0.057-0.38-0.169c-0.104-0.113-0.155-0.243-0.155-0.395v-14.372c0-0.15,0.051-0.281,0.155-0.395
		c0.103-0.112,0.229-0.169,0.38-0.169h1.409c0.15,0,0.277,0.058,0.38,0.171c0.103,0.115,0.155,0.249,0.155,0.402v0.543
		c0.789-0.438,1.521-0.766,2.198-0.985c0.676-0.218,1.438-0.327,2.283-0.327c1.709,0,2.955,0.507,3.734,1.521
		c0.779,1.015,1.17,2.462,1.17,4.34v9.271C243.104,493.917,243.047,494.047,242.934,494.16z"/>
	<path fill="#5B5B5F" d="M258.349,487.368h-9.44v0.396c0,1.672,0.329,2.856,0.986,3.551c0.657,0.695,1.634,1.042,2.931,1.042
		c0.826,0,1.705-0.028,2.635-0.084c0.93-0.057,1.724-0.132,2.381-0.227h0.141c0.113,0,0.216,0.028,0.31,0.085
		c0.094,0.057,0.141,0.161,0.141,0.311v0.957c0,0.189-0.038,0.335-0.113,0.438c-0.075,0.104-0.225,0.174-0.451,0.211
		c-0.808,0.151-1.611,0.269-2.409,0.353c-0.799,0.085-1.677,0.128-2.635,0.128c-0.808,0-1.598-0.109-2.367-0.325
		c-0.771-0.216-1.452-0.582-2.043-1.099c-0.592-0.517-1.071-1.207-1.438-2.071c-0.367-0.864-0.549-1.954-0.549-3.269v-2.536
		c0-2.029,0.535-3.636,1.606-4.819c1.071-1.184,2.621-1.774,4.65-1.774c1.033,0,1.935,0.153,2.705,0.464
		c0.771,0.31,1.414,0.752,1.931,1.325c0.517,0.573,0.906,1.268,1.169,2.085c0.263,0.817,0.394,1.725,0.394,2.72v1.521
		C258.884,487.162,258.706,487.368,258.349,487.368z M256.404,485.228c0-1.597-0.307-2.733-0.919-3.41s-1.542-1.015-2.786-1.015
		c-1.226,0-2.164,0.356-2.814,1.071c-0.651,0.714-0.976,1.831-0.976,3.354v0.253h7.496V485.228z"/>
	<path fill="#5B5B5F" d="M272.072,490.44c0,1.428-0.484,2.466-1.452,3.113c-0.968,0.648-2.24,0.974-3.818,0.974
		c-0.264,0-0.578-0.006-0.945-0.015c-0.366-0.01-0.751-0.033-1.155-0.07c-0.405-0.038-0.813-0.085-1.226-0.142
		c-0.414-0.057-0.789-0.121-1.127-0.197c-0.395-0.094-0.591-0.281-0.591-0.563v-0.985c0-0.132,0.046-0.236,0.141-0.311
		c0.094-0.075,0.216-0.113,0.366-0.113h0.113c0.338,0.038,0.709,0.076,1.113,0.113c0.403,0.038,0.812,0.07,1.226,0.099
		c0.413,0.028,0.803,0.052,1.169,0.07s0.671,0.028,0.917,0.028c0.92,0,1.615-0.142,2.084-0.424c0.47-0.281,0.705-0.807,0.705-1.577
		c0-0.432-0.15-0.808-0.45-1.127c-0.301-0.32-0.855-0.723-1.663-1.212l-2.847-1.69c-0.864-0.525-1.56-1.104-2.085-1.734
		c-0.526-0.628-0.789-1.394-0.789-2.296c0-0.732,0.131-1.339,0.395-1.817c0.263-0.479,0.62-0.864,1.07-1.156
		c0.451-0.291,0.986-0.493,1.607-0.605c0.62-0.113,1.296-0.168,2.028-0.168c0.789,0,1.555,0.032,2.297,0.098
		c0.741,0.065,1.441,0.155,2.099,0.268c0.356,0.057,0.536,0.244,0.536,0.563v0.931c0,0.319-0.16,0.479-0.479,0.479h-0.084
		c-0.489-0.037-1.141-0.085-1.958-0.141c-0.817-0.057-1.621-0.085-2.41-0.085c-0.789,0-1.423,0.095-1.902,0.282
		s-0.719,0.639-0.719,1.353c0,0.432,0.16,0.804,0.479,1.113c0.319,0.311,0.808,0.653,1.466,1.028l2.79,1.662
		c1.165,0.696,1.973,1.373,2.423,2.029C271.847,488.872,272.072,489.614,272.072,490.44z"/>
	<path fill="#5B5B5F" d="M295.546,475.561h-5.495v18.204c0,0.151-0.048,0.282-0.141,0.396c-0.095,0.112-0.216,0.169-0.367,0.169
		h-1.549c-0.151,0-0.272-0.057-0.367-0.169c-0.095-0.113-0.142-0.244-0.142-0.396v-18.204h-5.494c-0.151,0-0.282-0.036-0.395-0.11
		c-0.113-0.073-0.168-0.186-0.168-0.334v-1.224c0-0.148,0.056-0.27,0.168-0.361c0.113-0.094,0.244-0.141,0.395-0.141h13.555
		c0.356,0,0.536,0.168,0.536,0.502v1.224C296.082,475.412,295.902,475.561,295.546,475.561z"/>
	<path fill="#5B5B5F" d="M310.396,487.368h-9.44v0.396c0,1.672,0.329,2.856,0.987,3.551c0.656,0.695,1.634,1.042,2.93,1.042
		c0.827,0,1.705-0.028,2.635-0.084c0.931-0.057,1.724-0.132,2.382-0.227h0.142c0.111,0,0.215,0.028,0.309,0.085
		s0.142,0.161,0.142,0.311v0.957c0,0.189-0.038,0.335-0.113,0.438c-0.074,0.104-0.226,0.174-0.45,0.211
		c-0.809,0.151-1.611,0.269-2.41,0.353c-0.798,0.085-1.676,0.128-2.635,0.128c-0.808,0-1.597-0.109-2.366-0.325
		c-0.771-0.216-1.452-0.582-2.044-1.099c-0.591-0.517-1.07-1.207-1.437-2.071s-0.55-1.954-0.55-3.269v-2.536
		c0-2.029,0.535-3.636,1.605-4.819c1.071-1.184,2.622-1.774,4.651-1.774c1.032,0,1.935,0.153,2.704,0.464
		c0.771,0.31,1.413,0.752,1.931,1.325c0.516,0.573,0.906,1.268,1.17,2.085c0.263,0.817,0.394,1.725,0.394,2.72v1.521
		C310.932,487.162,310.754,487.368,310.396,487.368z M308.452,485.228c0-1.597-0.306-2.733-0.919-3.41s-1.542-1.015-2.787-1.015
		c-1.226,0-2.164,0.356-2.813,1.071c-0.652,0.714-0.977,1.831-0.977,3.354v0.253h7.496V485.228z"/>
	<path fill="#5B5B5F" d="M323.782,494.019c-0.074,0.095-0.226,0.161-0.45,0.198c-0.47,0.094-1.011,0.169-1.621,0.226
		c-0.611,0.057-1.245,0.085-1.902,0.085c-0.958,0-1.809-0.166-2.55-0.494c-0.742-0.328-1.372-0.788-1.888-1.38
		c-0.518-0.593-0.907-1.312-1.17-2.156c-0.263-0.846-0.395-1.785-0.395-2.818v-2.198c0-1.032,0.132-1.973,0.395-2.818
		c0.263-0.845,0.647-1.563,1.155-2.155s1.136-1.052,1.889-1.381c0.751-0.329,1.605-0.492,2.563-0.492
		c0.657,0,1.291,0.026,1.902,0.083c0.61,0.057,1.151,0.133,1.621,0.226c0.225,0.038,0.376,0.1,0.45,0.184
		c0.075,0.085,0.113,0.23,0.113,0.437v1.016c0,0.149-0.048,0.258-0.142,0.323c-0.094,0.066-0.207,0.099-0.339,0.099h-0.111
		c-0.62-0.075-1.185-0.127-1.691-0.155s-1.108-0.042-1.804-0.042c-1.126,0-1.996,0.381-2.606,1.142
		c-0.611,0.76-0.916,1.94-0.916,3.536v2.198c0,1.597,0.301,2.776,0.902,3.537c0.601,0.761,1.475,1.141,2.62,1.141
		c0.695,0,1.297-0.014,1.804-0.042s1.071-0.079,1.691-0.155h0.111c0.132,0,0.245,0.033,0.339,0.099
		c0.094,0.066,0.142,0.174,0.142,0.324v1.015C323.896,493.784,323.857,493.926,323.782,494.019z"/>
	<path fill="#5B5B5F" d="M338.745,494.16c-0.112,0.112-0.245,0.169-0.395,0.169h-1.353c-0.151,0-0.281-0.057-0.395-0.168
		c-0.113-0.113-0.169-0.244-0.169-0.395v-9.253c0-0.712-0.062-1.307-0.184-1.784c-0.122-0.479-0.31-0.857-0.563-1.14
		c-0.253-0.28-0.573-0.482-0.958-0.604c-0.385-0.122-0.851-0.184-1.395-0.184c-0.602,0-1.222,0.104-1.861,0.309
		c-0.638,0.207-1.286,0.47-1.944,0.789v11.866c0,0.15-0.056,0.281-0.168,0.395c-0.113,0.111-0.244,0.168-0.396,0.168h-1.381
		c-0.149,0-0.276-0.057-0.38-0.169c-0.103-0.113-0.155-0.243-0.155-0.395v-14.372c0-0.15,0.053-0.281,0.155-0.395
		c0.104-0.112,0.23-0.169,0.38-0.169h1.409c0.151,0,0.277,0.058,0.382,0.171c0.103,0.115,0.153,0.249,0.153,0.402v0.543
		c0.79-0.438,1.522-0.766,2.199-0.985c0.676-0.218,1.437-0.327,2.282-0.327c1.709,0,2.954,0.507,3.733,1.521
		c0.78,1.015,1.17,2.462,1.17,4.34v9.271C338.914,493.917,338.857,494.047,338.745,494.16z"/>
	<path fill="#5B5B5F" d="M354.386,490.469c-0.264,0.846-0.657,1.568-1.184,2.17s-1.184,1.066-1.973,1.395s-1.7,0.494-2.732,0.494
		c-1.034,0-1.941-0.166-2.72-0.494c-0.781-0.328-1.434-0.793-1.959-1.395c-0.526-0.602-0.922-1.324-1.185-2.17
		s-0.394-1.785-0.394-2.818v-2.142c0-1.032,0.131-1.973,0.394-2.818c0.263-0.845,0.658-1.567,1.185-2.169
		c0.525-0.602,1.178-1.066,1.959-1.396c0.778-0.329,1.686-0.492,2.72-0.492c1.032,0,1.943,0.163,2.732,0.492
		s1.446,0.794,1.973,1.396s0.92,1.324,1.184,2.169c0.263,0.846,0.395,1.786,0.395,2.818v2.142
		C354.78,488.684,354.648,489.623,354.386,490.469z M352.301,485.509c0-1.446-0.301-2.593-0.902-3.438
		c-0.602-0.845-1.568-1.268-2.901-1.268c-1.316,0-2.274,0.419-2.875,1.254c-0.602,0.837-0.902,1.986-0.902,3.452v2.142
		c0,1.447,0.296,2.593,0.888,3.438s1.555,1.268,2.89,1.268c1.314,0,2.277-0.418,2.888-1.254c0.609-0.836,0.916-1.986,0.916-3.452
		V485.509z"/>
	<path fill="#5B5B5F" d="M360.727,494.16c-0.095,0.112-0.217,0.169-0.366,0.169h-1.466c-0.15,0-0.272-0.057-0.367-0.169
		c-0.093-0.113-0.14-0.243-0.14-0.395v-20.093c0-0.149,0.047-0.276,0.14-0.38c0.095-0.103,0.217-0.155,0.367-0.155h1.466
		c0.149,0,0.271,0.053,0.366,0.155c0.094,0.104,0.141,0.23,0.141,0.38v20.093C360.867,493.917,360.82,494.047,360.727,494.16z"/>
	<path fill="#5B5B5F" d="M376.619,490.469c-0.264,0.846-0.657,1.568-1.184,2.17c-0.525,0.602-1.184,1.066-1.973,1.395
		c-0.788,0.328-1.7,0.494-2.732,0.494c-1.034,0-1.941-0.166-2.72-0.494c-0.78-0.328-1.434-0.793-1.959-1.395
		c-0.526-0.602-0.921-1.324-1.184-2.17s-0.395-1.785-0.395-2.818v-2.142c0-1.032,0.132-1.973,0.395-2.818
		c0.263-0.845,0.657-1.567,1.184-2.169c0.525-0.602,1.179-1.066,1.959-1.396c0.778-0.329,1.686-0.492,2.72-0.492
		c1.032,0,1.944,0.163,2.732,0.492c0.789,0.329,1.447,0.794,1.973,1.396c0.526,0.602,0.92,1.324,1.184,2.169
		c0.263,0.846,0.395,1.786,0.395,2.818v2.142C377.014,488.684,376.882,489.623,376.619,490.469z M374.534,485.509
		c0-1.446-0.301-2.593-0.902-3.438c-0.602-0.845-1.568-1.268-2.901-1.268c-1.316,0-2.274,0.419-2.875,1.254
		c-0.602,0.837-0.902,1.986-0.902,3.452v2.142c0,1.447,0.297,2.593,0.888,3.438c0.592,0.846,1.555,1.268,2.89,1.268
		c1.314,0,2.277-0.418,2.888-1.254c0.609-0.836,0.916-1.986,0.916-3.452V485.509z M375.069,472.574c0,0.075-0.038,0.15-0.113,0.225
		l-3.184,3.552c-0.132,0.15-0.235,0.258-0.311,0.323c-0.075,0.066-0.188,0.099-0.338,0.099h-1.521c-0.17,0-0.253-0.065-0.253-0.196
		c0-0.113,0.036-0.207,0.111-0.282l2.762-3.495c0.132-0.149,0.234-0.257,0.311-0.323c0.075-0.066,0.197-0.099,0.366-0.099h1.859
		C374.966,472.377,375.069,472.443,375.069,472.574z"/>
	<path fill="#5B5B5F" d="M393.021,480.563c-0.095,0.065-0.217,0.117-0.366,0.154l-1.015,0.197c0.263,0.264,0.488,0.62,0.676,1.071
		s0.282,1.062,0.282,1.832v0.225c0,1.561-0.498,2.753-1.494,3.579c-0.995,0.827-2.583,1.24-4.762,1.24
		c-0.752,0-1.382-0.052-1.889-0.155c-0.507-0.103-0.968-0.239-1.381-0.408c-0.47,0.226-0.704,0.545-0.704,0.958
		c0,0.245,0.066,0.433,0.197,0.563c0.132,0.132,0.356,0.244,0.677,0.338l4.198,1.071c0.694,0.169,1.366,0.357,2.015,0.563
		c0.647,0.207,1.227,0.465,1.733,0.775c0.507,0.31,0.911,0.69,1.212,1.141c0.301,0.451,0.45,1.005,0.45,1.662v0.227
		c0,1.353-0.493,2.418-1.479,3.198c-0.986,0.779-2.635,1.17-4.946,1.17c-2.236,0-3.874-0.399-4.918-1.198
		c-1.042-0.798-1.563-1.893-1.563-3.283v-0.253c0-0.789,0.178-1.494,0.535-2.113c0.355-0.62,0.77-1.108,1.239-1.466l-0.197-0.085
		c-0.451-0.206-0.779-0.517-0.986-0.929c-0.207-0.414-0.311-0.836-0.311-1.27v-0.028c0-0.374,0.095-0.75,0.283-1.127
		c0.188-0.376,0.479-0.677,0.873-0.901c-0.433-0.413-0.756-0.883-0.973-1.409c-0.216-0.526-0.323-1.146-0.323-1.86v-0.225
		c0-0.62,0.098-1.23,0.295-1.832c0.198-0.601,0.536-1.136,1.016-1.606c0.479-0.469,1.121-0.846,1.93-1.127
		c0.807-0.282,1.813-0.423,3.016-0.423h6.171c0.17,0,0.319,0.062,0.451,0.184c0.131,0.122,0.197,0.268,0.197,0.437v0.732
		C393.161,480.37,393.113,480.497,393.021,480.563z M390.371,495.371c0-0.281-0.061-0.521-0.184-0.717
		c-0.121-0.198-0.319-0.382-0.592-0.551c-0.272-0.168-0.624-0.323-1.056-0.465c-0.433-0.141-0.969-0.296-1.607-0.465l-3.184-0.817
		c-0.414,0.357-0.747,0.743-1,1.155c-0.254,0.414-0.381,0.987-0.381,1.72v0.253c0,0.396,0.066,0.751,0.197,1.071
		c0.132,0.319,0.352,0.587,0.662,0.803c0.31,0.216,0.724,0.385,1.24,0.508c0.517,0.122,1.169,0.183,1.958,0.183
		c0.808,0,1.466-0.056,1.973-0.169c0.507-0.112,0.906-0.272,1.197-0.479c0.291-0.206,0.494-0.46,0.606-0.76
		c0.112-0.301,0.169-0.648,0.169-1.043V495.371z M390.117,483.818c0-0.432-0.056-0.832-0.168-1.197
		c-0.112-0.367-0.309-0.681-0.59-0.944c-0.281-0.263-0.664-0.475-1.15-0.635c-0.488-0.159-1.114-0.239-1.882-0.239
		c-0.786,0-1.428,0.084-1.923,0.254c-0.496,0.169-0.88,0.39-1.151,0.662s-0.458,0.592-0.562,0.957
		c-0.104,0.367-0.154,0.747-0.154,1.143v0.225c0,0.301,0.047,0.62,0.141,0.959c0.093,0.337,0.276,0.647,0.547,0.93
		c0.271,0.281,0.655,0.518,1.151,0.705c0.495,0.188,1.146,0.281,1.951,0.281c0.768,0,1.394-0.07,1.882-0.212
		c0.486-0.14,0.869-0.338,1.15-0.592c0.281-0.253,0.478-0.558,0.59-0.915s0.168-0.742,0.168-1.156V483.818z"/>
	<path fill="#5B5B5F" d="M398.769,476.181c-0.113,0.113-0.244,0.17-0.395,0.17h-1.438c-0.15,0-0.282-0.057-0.395-0.17
		c-0.112-0.112-0.168-0.243-0.168-0.394v-2.255c0-0.15,0.056-0.281,0.168-0.395c0.112-0.112,0.244-0.169,0.395-0.169h1.438
		c0.15,0,0.281,0.057,0.395,0.169c0.113,0.113,0.169,0.244,0.169,0.395v2.255C398.938,475.938,398.882,476.068,398.769,476.181z
		 M398.712,494.16c-0.113,0.112-0.244,0.169-0.394,0.169h-1.354c-0.15,0-0.282-0.057-0.395-0.169
		c-0.112-0.113-0.169-0.243-0.169-0.395v-14.372c0-0.15,0.057-0.281,0.169-0.395c0.112-0.112,0.244-0.169,0.395-0.169h1.354
		c0.149,0,0.28,0.057,0.394,0.169c0.113,0.113,0.17,0.244,0.17,0.395v14.372C398.882,493.917,398.825,494.047,398.712,494.16z"/>
	<path fill="#5B5B5F" d="M412.521,494.019c-0.075,0.095-0.227,0.161-0.451,0.198c-0.47,0.094-1.011,0.169-1.621,0.226
		s-1.245,0.085-1.901,0.085c-0.959,0-1.809-0.166-2.551-0.494s-1.372-0.788-1.888-1.38c-0.518-0.593-0.907-1.312-1.17-2.156
		c-0.263-0.846-0.395-1.785-0.395-2.818v-2.198c0-1.032,0.132-1.973,0.395-2.818c0.263-0.845,0.648-1.563,1.156-2.155
		c0.507-0.592,1.136-1.052,1.888-1.381c0.751-0.329,1.605-0.492,2.564-0.492c0.656,0,1.291,0.026,1.901,0.083
		s1.151,0.133,1.621,0.226c0.225,0.038,0.376,0.1,0.451,0.184c0.074,0.085,0.112,0.23,0.112,0.437v1.016
		c0,0.149-0.048,0.258-0.141,0.323c-0.095,0.066-0.208,0.099-0.339,0.099h-0.112c-0.62-0.075-1.185-0.127-1.691-0.155
		s-1.108-0.042-1.803-0.042c-1.127,0-1.997,0.381-2.606,1.142c-0.611,0.76-0.917,1.94-0.917,3.536v2.198
		c0,1.597,0.301,2.776,0.902,3.537c0.601,0.761,1.475,1.141,2.621,1.141c0.694,0,1.296-0.014,1.803-0.042s1.071-0.079,1.691-0.155
		h0.112c0.131,0,0.244,0.033,0.339,0.099c0.093,0.066,0.141,0.174,0.141,0.324v1.015
		C412.633,493.784,412.595,493.926,412.521,494.019z"/>
	<path fill="#5B5B5F" d="M426.413,494.16c-0.113,0.112-0.244,0.169-0.395,0.169h-1.296c-0.151,0-0.282-0.057-0.396-0.169
		c-0.113-0.113-0.168-0.243-0.168-0.395v-0.62c-0.677,0.395-1.372,0.724-2.086,0.986s-1.466,0.396-2.255,0.396
		c-0.602,0-1.179-0.071-1.732-0.212c-0.555-0.142-1.043-0.39-1.466-0.747c-0.422-0.356-0.761-0.826-1.015-1.409
		c-0.253-0.582-0.38-1.314-0.38-2.197v-0.339c0-0.77,0.117-1.438,0.352-2.001c0.235-0.563,0.621-1.038,1.156-1.423
		s1.234-0.671,2.1-0.86c0.863-0.187,1.925-0.281,3.184-0.281h2.086v-1.126c0-1.185-0.226-2.011-0.677-2.481
		c-0.451-0.469-1.23-0.704-2.339-0.704c-0.921,0-1.729,0.023-2.424,0.07c-0.695,0.048-1.324,0.099-1.888,0.155h-0.141
		c-0.132,0-0.25-0.028-0.354-0.085c-0.103-0.056-0.153-0.178-0.153-0.365v-0.987c0-0.3,0.196-0.479,0.591-0.535
		c0.582-0.093,1.217-0.178,1.902-0.254c0.686-0.075,1.508-0.111,2.466-0.111c1.954,0,3.357,0.464,4.213,1.394
		c0.854,0.931,1.282,2.232,1.282,3.904v9.834C426.582,493.917,426.525,494.047,426.413,494.16z M424.103,486.833h-2.086
		c-0.846,0-1.55,0.052-2.113,0.155s-1.005,0.264-1.324,0.479c-0.32,0.217-0.545,0.498-0.677,0.846
		c-0.131,0.348-0.197,0.775-0.197,1.282v0.339c0,1.014,0.226,1.695,0.676,2.043c0.452,0.348,1.091,0.521,1.917,0.521
		c0.657,0,1.286-0.095,1.889-0.282c0.601-0.188,1.239-0.47,1.916-0.846V486.833z"/>
	<path fill="#5B5B5F" d="M440.221,490.44c0,1.428-0.483,2.466-1.45,3.113c-0.969,0.648-2.241,0.974-3.819,0.974
		c-0.263,0-0.577-0.006-0.943-0.015c-0.367-0.01-0.753-0.033-1.156-0.07c-0.404-0.038-0.813-0.085-1.226-0.142
		c-0.414-0.057-0.789-0.121-1.127-0.197c-0.395-0.094-0.592-0.281-0.592-0.563v-0.985c0-0.132,0.047-0.236,0.142-0.311
		c0.093-0.075,0.215-0.113,0.365-0.113h0.113c0.338,0.038,0.709,0.076,1.112,0.113c0.404,0.038,0.813,0.07,1.226,0.099
		c0.414,0.028,0.804,0.052,1.171,0.07c0.365,0.019,0.671,0.028,0.915,0.028c0.921,0,1.615-0.142,2.085-0.424
		c0.471-0.281,0.705-0.807,0.705-1.577c0-0.432-0.151-0.808-0.45-1.127c-0.301-0.32-0.855-0.723-1.663-1.212l-2.846-1.69
		c-0.865-0.525-1.561-1.104-2.086-1.734c-0.526-0.628-0.789-1.394-0.789-2.296c0-0.732,0.132-1.339,0.395-1.817
		c0.263-0.479,0.619-0.864,1.071-1.156c0.45-0.291,0.985-0.493,1.605-0.605c0.62-0.113,1.296-0.168,2.029-0.168
		c0.789,0,1.555,0.032,2.297,0.098c0.741,0.065,1.441,0.155,2.1,0.268c0.356,0.057,0.535,0.244,0.535,0.563v0.931
		c0,0.319-0.159,0.479-0.479,0.479h-0.085c-0.489-0.037-1.142-0.085-1.958-0.141c-0.817-0.057-1.621-0.085-2.41-0.085
		s-1.424,0.095-1.902,0.282s-0.719,0.639-0.719,1.353c0,0.432,0.16,0.804,0.479,1.113c0.32,0.311,0.808,0.653,1.466,1.028
		l2.79,1.662c1.165,0.696,1.973,1.373,2.423,2.029C439.996,488.872,440.221,489.614,440.221,490.44z"/>
</g>
<rect x="654.001" y="0" fill="#04214A" width="596.542" height="847.068"/>
<g>
	<path fill="#FFFFFF" d="M976.172,363.897c-4.884-5.504-12.335-8.26-22.351-8.26c-3.966,0-8.14,0.29-12.53,0.867
		c-4.381,0.581-8.525,1.369-12.412,2.362c-1.41,0.416-2.324,0.854-2.73,1.305c-0.413,0.454-0.619,1.134-0.619,2.049v40.545l0,0
		v2.428c0,0.664,0.24,1.266,0.736,1.804c0.502,0.536,1.082,0.804,1.746,0.804l11.559,0.586c0.658,0,1.219-0.266,1.674-0.803
		c0.453-0.54,0.68-1.133,0.68-1.803v-25.79h-0.013v-9.958c1.157-0.25,2.873-0.45,5.149-0.619c2.28-0.161,4.531-0.248,6.761-0.248
		c2.651,0,4.845,0.451,6.583,1.356c1.738,0.907,3.104,2.142,4.095,3.705c0.998,1.561,1.674,3.416,2.052,5.55
		c0.368,2.149,0.559,4.49,0.559,7.043v9.5c0,2.553-0.19,4.897-0.559,7.037c-0.378,2.143-1.054,3.993-2.052,5.558
		c-0.991,1.565-2.356,2.804-4.095,3.705c-1.738,0.902-3.932,1.361-6.583,1.361c-1.166,0-18.056-0.745-25.174-1.058
		c-3.197-0.1-3.118,3.225-3.118,3.225v32.458c0,0.655,0.24,1.24,0.74,1.732c0.498,0.505,1.078,0.747,1.742,0.747h11.419
		c0.659,0,1.241-0.242,1.733-0.747c0.499-0.492,0.747-1.077,0.747-1.732v-21.969c2.317,0.324,4.507,0.554,6.575,0.684
		c2.066,0.122,3.852,0.183,5.335,0.183c10.016,0,17.467-2.749,22.351-8.25c4.878-5.502,7.319-13.143,7.319-22.903v-9.561
		C983.491,377.03,981.05,369.402,976.172,363.897z"/>
	<path fill="#FFFFFF" d="M1043.26,363.897c-4.888-5.504-12.344-8.26-22.355-8.26c-3.971,0-8.141,0.29-12.528,0.867
		c-4.389,0.581-8.525,1.369-12.416,2.362c-1.407,0.416-2.317,0.854-2.729,1.305c-0.417,0.454-0.625,1.134-0.625,2.049v40.55l0,0
		v2.428c0,0.662,0.252,1.261,0.747,1.8c0.497,0.536,1.074,0.804,1.746,0.804l11.546,0.581c0.673,0,1.231-0.261,1.677-0.798
		c0.45-0.54,0.686-1.133,0.686-1.803v-25.79h-0.014v-9.958c1.156-0.25,2.878-0.45,5.153-0.619c2.271-0.161,4.529-0.248,6.757-0.248
		c2.657,0,4.85,0.451,6.583,1.356c1.737,0.907,3.108,2.142,4.097,3.705c0.997,1.561,1.674,3.416,2.051,5.55
		c0.371,2.149,0.553,4.49,0.553,7.043v9.5c0,2.553-0.182,4.897-0.553,7.037c-0.377,2.143-1.054,3.993-2.051,5.558
		c-0.988,1.565-2.359,2.804-4.097,3.705c-1.733,0.902-3.926,1.361-6.583,1.361c-1.164,0-18.057-0.745-25.173-1.058
		c-3.204-0.1-3.125,3.225-3.125,3.225v32.458c0,0.655,0.252,1.24,0.75,1.732c0.494,0.505,1.075,0.747,1.743,0.747h11.415
		c0.664,0,1.239-0.242,1.734-0.747c0.499-0.492,0.745-1.077,0.745-1.732v-21.969c2.318,0.324,4.513,0.554,6.579,0.684
		c2.068,0.122,3.846,0.183,5.331,0.183c10.012,0,17.468-2.749,22.355-8.25c4.876-5.502,7.318-13.143,7.318-22.903v-9.561
		C1050.578,377.03,1048.136,369.402,1043.26,363.897z"/>
	<path fill="#FFFFFF" d="M1140.951,397.783h-41.077v0.381c0,1.835,0.225,3.7,0.694,5.591c0.46,1.883,1.257,3.597,2.385,5.148
		c1.125,1.556,2.66,2.81,4.584,3.772c1.925,0.962,4.402,1.438,7.412,1.438c4.602,0,8.937-0.139,13.01-0.438
		c4.058-0.289,7.43-0.558,10.116-0.809h0.372c0.676,0,1.216,0.146,1.638,0.438c0.418,0.299,0.626,0.774,0.626,1.442v8.299
		c0,1.001-0.148,1.756-0.442,2.255c-0.294,0.502-1.022,0.842-2.193,1.01c-2.011,0.333-3.893,0.648-5.652,0.939
		c-1.759,0.295-3.545,0.525-5.348,0.69c-1.803,0.174-3.771,0.294-5.902,0.38c-2.134,0.08-4.629,0.122-7.472,0.122
		c-3.104,0-6.434-0.486-9.986-1.439c-3.555-0.962-6.83-2.643-9.83-5.027c-2.991-2.393-5.487-5.617-7.481-9.673
		c-1.994-4.069-2.99-9.197-2.99-15.398v-9.297c0-4.941,0.668-9.379,2.013-13.319c1.334-3.935,3.274-7.29,5.849-10.056
		c2.541-2.768,5.713-4.875,9.476-6.339c3.771-1.466,8.046-2.202,12.821-2.202c4.853,0,9.146,0.771,12.88,2.323
		c3.727,1.55,6.848,3.748,9.362,6.601c2.513,2.846,4.412,6.218,5.713,10.111c1.309,3.893,1.949,8.192,1.949,12.882v7.037
		C1143.476,396.738,1142.636,397.783,1140.951,397.783z M1126.894,385.463c0-4.936-1.23-8.748-3.686-11.432
		c-2.451-2.68-5.659-4.019-9.629-4.019c-3.986,0-7.238,1.323-9.778,3.958c-2.529,2.643-3.797,6.475-3.797,11.493v0.512h26.89
		V385.463z"/>
	<path fill="#FFFFFF" d="M783.846,401.561c0,3.148-0.537,6.269-1.608,9.371c-1.079,3.113-2.878,5.878-5.401,8.323
		c-2.523,2.442-5.877,4.429-10.059,5.954c-4.178,1.534-9.365,2.297-15.576,2.297c-4.717,0-8.807-0.204-12.289-0.614
		c-3.475-0.422-6.695-0.962-9.676-1.622c-0.66-0.164-1.223-0.45-1.68-0.857c-0.45-0.417-0.674-0.959-0.674-1.622v-8.937
		c0-0.662,0.224-1.221,0.674-1.68c0.457-0.452,1.02-0.678,1.68-0.678h0.25c1.236,0.171,2.868,0.314,4.899,0.434
		c2.022,0.122,4.12,0.244,6.271,0.374c2.144,0.12,4.192,0.23,6.138,0.311c1.943,0.078,3.494,0.123,4.656,0.123
		c5.545,0,9.332-0.95,11.352-2.857c2.037-1.902,3.047-4.667,3.047-8.317c0-1.237-0.164-2.33-0.498-3.285
		c-0.333-0.954-0.885-1.88-1.676-2.796c-0.781-0.904-1.861-1.838-3.227-2.787c-1.359-0.953-3.082-2.054-5.153-3.294l-16.384-9.807
		c-2.899-1.738-5.275-3.48-7.129-5.214c-1.862-1.738-3.354-3.527-4.471-5.396c-1.118-1.859-1.908-3.809-2.359-5.828
		c-0.455-2.039-0.684-4.123-0.684-6.272c0-3.394,0.537-6.538,1.615-9.437c1.071-2.899,2.831-5.395,5.271-7.515
		c2.449-2.097,5.629-3.735,9.56-4.897c3.927-1.162,8.789-1.737,14.58-1.737c2.071,0,4.261,0.064,6.579,0.19
		c2.324,0.116,4.595,0.307,6.836,0.559c2.231,0.242,4.259,0.493,6.077,0.744c1.818,0.244,3.265,0.495,4.351,0.737
		c0.654,0.174,1.191,0.443,1.604,0.806c0.416,0.377,0.625,0.898,0.625,1.553v9.188c0,0.664-0.19,1.195-0.561,1.611
		c-0.373,0.416-0.883,0.625-1.551,0.625h-0.248c-4.139-0.416-8.233-0.724-12.291-0.927c-4.057-0.208-8.109-0.312-12.161-0.312
		c-4.634,0-7.966,0.763-9.995,2.296c-2.026,1.531-3.038,3.702-3.038,6.515c0,0.992,0.143,1.919,0.435,2.795
		c0.291,0.867,0.826,1.734,1.615,2.6c0.779,0.877,1.838,1.744,3.164,2.604c1.322,0.873,2.978,1.886,4.968,3.042l14.892,8.319
		c3.389,1.902,6.206,3.827,8.441,5.776c2.232,1.943,4.01,3.949,5.334,6.012c1.33,2.072,2.234,4.222,2.74,6.463
		C783.604,396.719,783.846,399.082,783.846,401.561z"/>
	<path fill="#FFFFFF" d="M1074.468,425.703c-0.46,0.546-1.023,0.806-1.674,0.806h-11.555c-0.657,0-1.238-0.26-1.733-0.806
		c-0.494-0.539-0.745-1.133-0.745-1.794v-89.372c0-0.667,0.251-1.242,0.745-1.737c0.495-0.499,1.076-0.746,1.733-0.746h11.555
		c0.65,0,1.214,0.247,1.674,0.746c0.451,0.495,0.676,1.07,0.676,1.737v89.372C1075.144,424.57,1074.919,425.164,1074.468,425.703z"
		/>
	<path fill="#FFFFFF" d="M848.944,373.212c-0.581-3.384-1.635-6.332-3.163-8.811c-1.537-2.483-3.706-4.43-6.521-5.839
		c-2.711-1.356-12.003-3.099-18.684-2.852c-3.938,0.152-8.091,0.291-12.452,0.863c-4.354,0.575-8.464,1.352-12.331,2.332
		c-1.395,0.416-2.301,0.841-2.708,1.286c-0.415,0.456-0.616,1.123-0.616,2.029v7.629v4.849v50.022c0,0.66,0.248,1.269,0.746,1.805
		c0.494,0.539,1.072,0.806,1.734,0.806h11.424c0.664,0,1.235-0.267,1.734-0.806c0.498-0.536,0.749-1.145,0.749-1.805l0.02-54.762
		c0.161-0.054,0.351-0.096,0.526-0.13c1.111-0.197,2.585-0.356,4.458-0.495c2.136-0.156,4.251-0.23,6.353-0.242
		c0.266,0.003,0.534,0.008,0.795,0.017c2.43,0.043,4.475,0.477,6.106,1.318c0.553,0.289,1.052,0.625,1.531,0.978
		c1.809,1.492,4.224,4.327,4.726,9.684c0.091,0.972,0.059,2.029,0.059,3.172v40.461c0,0.66,0.248,1.269,0.747,1.805
		c0.491,0.539,1.075,0.806,1.734,0.806h11.417c0.663,0,1.248-0.267,1.736-0.806c0.496-0.536,0.75-1.145,0.75-1.805v-40.461
		C849.814,380.29,849.523,376.604,848.944,373.212z"/>
	<path fill="#FFFFFF" d="M1179.239,355.663c-3.944,0.146-8.094,0.289-12.454,0.857c-4.353,0.572-8.462,1.353-12.318,2.333
		c-1.405,0.41-2.305,0.839-2.722,1.29c-0.397,0.451-0.607,1.118-0.607,2.02v7.63v4.857v50.024c0,0.663,0.244,1.254,0.737,1.794
		c0.495,0.538,1.076,0.813,1.743,0.813h11.425c0.65,0,1.231-0.274,1.733-0.813c0.493-0.54,0.746-1.131,0.746-1.794l0.018-54.771
		c0.163-0.051,0.354-0.095,0.528-0.134c1.108-0.187,2.581-0.355,4.455-0.49c2.131-0.155,4.256-0.234,6.354-0.238
		c0.268,0,4.056,0.373,4.62,0.49c3.623,0.719,3.598-3.043,3.598-3.043s-0.034-6.805,0.035-8.369
		c0.077-1.898-1.424-2.207-1.424-2.207C1183.479,355.694,1181.243,355.589,1179.239,355.663z"/>
	<path fill="#FFFFFF" d="M912.695,410.212l-0.025,0.009v-30.676c0-8.127-2.368-14.155-7.105-18.095
		c-4.732-3.936-11.582-5.907-20.543-5.907c-4.353,0-8.309,0.207-11.872,0.623c-3.562,0.413-6.602,0.872-9.106,1.371
		c-1.594,0.337-2.391,1.205-2.391,2.608v7.976c0,0.909,0.206,1.5,0.632,1.75c0.415,0.248,0.958,0.374,1.626,0.374h0.631
		c2.09-0.25,5.029-0.476,8.799-0.688c3.762-0.213,7.663-0.317,11.682-0.317c3.775,0,6.559,0.675,8.355,2.028
		c1.803,1.353,2.701,4.09,2.701,8.234v5.575h-7.91c-10.896,0-18.724,1.819-23.5,5.459c-4.775,3.651-7.16,9.072-7.16,16.272v0.51
		c0,4.273,0.647,7.749,1.941,10.428c1.301,2.678,2.904,4.913,5.033,6.409c6.34,4.46,16.733,4.807,19.914,4.807
		c3.971,0,8.157-0.294,12.535-0.866c3.228-0.425,9.694-2.29,13.055-3.415c1.204-0.408,2.766-1.266,2.734-2.886L912.695,410.212z
		 M874.09,406.807c0-1.752,0.191-3.305,0.572-4.647c0.377-1.34,1.092-2.448,2.148-3.329c1.051-0.876,2.486-1.547,4.293-2.011
		c1.811-0.459,4.15-0.694,7.018-0.694h7.957l-0.076,17.381c-1.848,1.004-10.539,1.604-12.814,1.604c-3.194,0-5.514-0.53-6.947-1.579
		c-1.439-1.045-2.15-3.121-2.15-6.215V406.807z"/>
</g>
<g>
	<path fill="#FFFFFF" d="M819.396,488.891c0,0.676-0.104,1.348-0.31,2.015c-0.208,0.668-0.569,1.268-1.086,1.803
		c-0.516,0.537-1.225,0.974-2.127,1.311c-0.902,0.339-2.048,0.509-3.438,0.509c-0.996,0-1.871-0.043-2.621-0.128
		c-0.752-0.084-1.438-0.173-2.058-0.268c-0.245-0.037-0.395-0.094-0.45-0.168c-0.057-0.075-0.086-0.188-0.086-0.339v-1.127
		c0-0.151,0.047-0.263,0.142-0.339c0.095-0.075,0.206-0.113,0.339-0.113h0.084c0.319,0.02,0.681,0.043,1.084,0.071
		c0.404,0.027,0.818,0.047,1.241,0.056c0.422,0.01,0.835,0.02,1.239,0.028c0.404,0.01,0.766,0.015,1.086,0.015
		c0.845,0,1.545-0.079,2.099-0.239c0.554-0.159,0.991-0.385,1.31-0.676c0.32-0.292,0.545-0.645,0.677-1.058s0.198-0.864,0.198-1.353
		c0-0.356-0.057-0.681-0.17-0.972c-0.112-0.291-0.301-0.579-0.563-0.86c-0.263-0.282-0.61-0.577-1.042-0.888
		c-0.433-0.31-0.969-0.662-1.607-1.057l-2.732-1.663c-1.297-0.789-2.27-1.582-2.917-2.381c-0.647-0.798-0.972-1.761-0.972-2.889
		c0-1.709,0.586-2.968,1.76-3.775c1.175-0.808,2.842-1.212,5.002-1.212c0.414,0,0.851,0.01,1.312,0.028
		c0.46,0.019,0.911,0.042,1.353,0.07s0.859,0.065,1.254,0.112c0.395,0.048,0.723,0.09,0.986,0.127
		c0.319,0.057,0.479,0.216,0.479,0.479v1.213c0,0.301-0.159,0.45-0.479,0.45h-0.057c-0.619-0.037-1.377-0.075-2.268-0.113
		c-0.894-0.036-1.753-0.056-2.58-0.056c-1.465,0-2.521,0.188-3.17,0.563c-0.647,0.376-0.972,1.081-0.972,2.113
		c0,0.339,0.062,0.644,0.183,0.916s0.305,0.541,0.548,0.804s0.562,0.531,0.956,0.802c0.393,0.273,0.852,0.569,1.377,0.889
		l2.585,1.55c0.824,0.489,1.513,0.958,2.065,1.409s1.007,0.901,1.363,1.353c0.355,0.451,0.608,0.921,0.758,1.409
		C819.32,487.802,819.396,488.327,819.396,488.891z"/>
	<path fill="#FFFFFF" d="M834.358,490.469c-0.263,0.846-0.657,1.568-1.183,2.17c-0.526,0.602-1.185,1.066-1.973,1.395
		c-0.789,0.328-1.701,0.494-2.734,0.494s-1.939-0.166-2.719-0.494s-1.433-0.793-1.959-1.395c-0.525-0.602-0.92-1.324-1.184-2.17
		c-0.263-0.846-0.395-1.785-0.395-2.818v-2.142c0-1.032,0.132-1.973,0.395-2.818c0.264-0.845,0.658-1.567,1.184-2.169
		c0.526-0.602,1.18-1.066,1.959-1.396s1.686-0.492,2.719-0.492s1.945,0.163,2.734,0.492c0.788,0.329,1.446,0.794,1.973,1.396
		c0.525,0.602,0.92,1.324,1.183,2.169c0.264,0.846,0.396,1.786,0.396,2.818v2.142C834.754,488.684,834.622,489.623,834.358,490.469z
		 M832.273,485.509c0-1.446-0.301-2.593-0.902-3.438c-0.602-0.845-1.568-1.268-2.902-1.268c-1.314,0-2.273,0.419-2.874,1.254
		c-0.601,0.837-0.901,1.986-0.901,3.452v2.142c0,1.447,0.295,2.593,0.887,3.438s1.555,1.268,2.889,1.268
		c1.314,0,2.277-0.418,2.889-1.254s0.916-1.986,0.916-3.452V485.509z"/>
	<path fill="#FFFFFF" d="M840.699,494.16c-0.094,0.112-0.217,0.169-0.366,0.169h-1.466c-0.15,0-0.271-0.057-0.365-0.169
		c-0.096-0.113-0.142-0.243-0.142-0.395v-20.093c0-0.149,0.046-0.276,0.142-0.38c0.094-0.103,0.215-0.155,0.365-0.155h1.466
		c0.149,0,0.272,0.053,0.366,0.155c0.094,0.104,0.141,0.23,0.141,0.38v20.093C840.84,493.917,840.793,494.047,840.699,494.16z"/>
	<path fill="#FFFFFF" d="M856.662,494.16c-0.103,0.112-0.229,0.169-0.38,0.169h-1.409c-0.15,0-0.277-0.058-0.38-0.171
		c-0.104-0.115-0.155-0.249-0.155-0.401v-0.544c-0.789,0.438-1.521,0.767-2.197,0.985c-0.677,0.219-1.438,0.329-2.283,0.329
		c-1.71,0-2.955-0.509-3.734-1.522s-1.17-2.461-1.17-4.341v-9.271c0-0.15,0.057-0.281,0.17-0.395
		c0.112-0.112,0.244-0.169,0.395-0.169h1.354c0.148,0,0.281,0.057,0.394,0.169s0.169,0.243,0.169,0.394v9.252
		c0,0.713,0.061,1.308,0.184,1.786c0.121,0.478,0.31,0.857,0.563,1.139c0.253,0.281,0.577,0.483,0.972,0.604
		c0.395,0.122,0.855,0.183,1.381,0.183c0.602,0,1.221-0.103,1.86-0.31c0.638-0.206,1.286-0.469,1.944-0.787v-11.867
		c0-0.15,0.057-0.281,0.17-0.394c0.111-0.112,0.243-0.169,0.394-0.169h1.381c0.15,0,0.277,0.057,0.38,0.169
		c0.104,0.113,0.156,0.244,0.156,0.395v14.372C856.818,493.917,856.766,494.047,856.662,494.16z"/>
	<path fill="#FFFFFF" d="M870.119,494.019c-0.076,0.095-0.226,0.161-0.451,0.198c-0.47,0.094-1.01,0.169-1.621,0.226
		c-0.609,0.057-1.244,0.085-1.901,0.085c-0.958,0-1.809-0.166-2.551-0.494c-0.741-0.328-1.371-0.788-1.888-1.38
		c-0.517-0.593-0.906-1.312-1.17-2.156c-0.263-0.846-0.395-1.785-0.395-2.818v-2.198c0-1.032,0.132-1.973,0.395-2.818
		c0.264-0.845,0.648-1.563,1.156-2.155c0.507-0.592,1.137-1.052,1.888-1.381s1.606-0.492,2.564-0.492
		c0.657,0,1.292,0.026,1.901,0.083c0.611,0.057,1.151,0.133,1.621,0.226c0.226,0.038,0.375,0.1,0.451,0.184
		c0.074,0.085,0.113,0.23,0.113,0.437v1.016c0,0.149-0.048,0.258-0.142,0.323c-0.095,0.066-0.207,0.099-0.339,0.099h-0.112
		c-0.62-0.075-1.183-0.127-1.69-0.155s-1.109-0.042-1.804-0.042c-1.128,0-1.997,0.381-2.606,1.142
		c-0.611,0.76-0.916,1.94-0.916,3.536v2.198c0,1.597,0.301,2.776,0.902,3.537c0.601,0.761,1.474,1.141,2.62,1.141
		c0.694,0,1.296-0.014,1.804-0.042s1.07-0.079,1.69-0.155h0.112c0.132,0,0.244,0.033,0.339,0.099
		c0.094,0.066,0.142,0.174,0.142,0.324v1.015C870.232,493.784,870.193,493.926,870.119,494.019z"/>
	<path fill="#FFFFFF" d="M876.064,476.181c-0.112,0.113-0.244,0.17-0.395,0.17h-1.438c-0.15,0-0.281-0.057-0.395-0.17
		c-0.112-0.112-0.169-0.243-0.169-0.394v-2.255c0-0.15,0.057-0.281,0.169-0.395c0.113-0.112,0.244-0.169,0.395-0.169h1.438
		c0.15,0,0.282,0.057,0.395,0.169c0.113,0.113,0.17,0.244,0.17,0.395v2.255C876.234,475.938,876.178,476.068,876.064,476.181z
		 M876.008,494.16c-0.112,0.112-0.244,0.169-0.395,0.169h-1.352c-0.151,0-0.283-0.057-0.395-0.169
		c-0.113-0.113-0.17-0.243-0.17-0.395v-14.372c0-0.15,0.057-0.281,0.17-0.395c0.111-0.112,0.243-0.169,0.395-0.169h1.352
		c0.15,0,0.282,0.057,0.395,0.169c0.113,0.113,0.17,0.244,0.17,0.395v14.372C876.178,493.917,876.121,494.047,876.008,494.16z"/>
	<path fill="#FFFFFF" d="M891.986,490.469c-0.264,0.846-0.658,1.568-1.184,2.17s-1.184,1.066-1.973,1.395s-1.701,0.494-2.733,0.494
		c-1.034,0-1.94-0.166-2.72-0.494s-1.432-0.793-1.959-1.395c-0.525-0.602-0.92-1.324-1.183-2.17s-0.395-1.785-0.395-2.818v-2.142
		c0-1.032,0.132-1.973,0.395-2.818c0.263-0.845,0.657-1.567,1.183-2.169c0.527-0.602,1.18-1.066,1.959-1.396s1.686-0.492,2.72-0.492
		c1.032,0,1.944,0.163,2.733,0.492s1.447,0.794,1.973,1.396s0.92,1.324,1.184,2.169c0.264,0.846,0.395,1.786,0.395,2.818v2.142
		C892.381,488.684,892.25,489.623,891.986,490.469z M889.901,485.509c0-1.446-0.301-2.593-0.902-3.438
		c-0.602-0.845-1.569-1.268-2.902-1.268c-1.315,0-2.273,0.419-2.874,1.254c-0.602,0.837-0.902,1.986-0.902,3.452v2.142
		c0,1.447,0.296,2.593,0.889,3.438c0.591,0.846,1.553,1.268,2.888,1.268c1.314,0,2.277-0.418,2.888-1.254
		c0.611-0.836,0.917-1.986,0.917-3.452V485.509z"/>
	<path fill="#FFFFFF" d="M907.4,494.16c-0.111,0.112-0.244,0.169-0.395,0.169h-1.353c-0.15,0-0.282-0.057-0.394-0.168
		c-0.113-0.113-0.17-0.244-0.17-0.395v-9.253c0-0.712-0.061-1.307-0.183-1.784c-0.122-0.479-0.31-0.857-0.563-1.14
		c-0.254-0.28-0.574-0.482-0.959-0.604c-0.385-0.122-0.85-0.184-1.395-0.184c-0.602,0-1.222,0.104-1.859,0.309
		c-0.639,0.207-1.287,0.47-1.945,0.789v11.866c0,0.15-0.057,0.281-0.169,0.395c-0.112,0.111-0.244,0.168-0.394,0.168h-1.381
		c-0.151,0-0.277-0.057-0.381-0.169c-0.104-0.113-0.155-0.243-0.155-0.395v-14.372c0-0.15,0.052-0.281,0.155-0.395
		c0.104-0.112,0.229-0.169,0.381-0.169h1.408c0.15,0,0.277,0.058,0.381,0.171c0.103,0.115,0.154,0.249,0.154,0.402v0.543
		c0.789-0.438,1.521-0.766,2.198-0.985c0.677-0.218,1.438-0.327,2.282-0.327c1.71,0,2.955,0.507,3.734,1.521
		c0.779,1.015,1.17,2.462,1.17,4.34v9.271C907.57,493.917,907.514,494.047,907.4,494.16z"/>
	<path fill="#FFFFFF" d="M922.815,487.368h-9.44v0.396c0,1.672,0.328,2.856,0.986,3.551c0.657,0.695,1.635,1.042,2.932,1.042
		c0.826,0,1.704-0.028,2.635-0.084c0.93-0.057,1.723-0.132,2.381-0.227h0.141c0.113,0,0.216,0.028,0.311,0.085
		c0.094,0.057,0.141,0.161,0.141,0.311v0.957c0,0.189-0.038,0.335-0.113,0.438c-0.075,0.104-0.225,0.174-0.451,0.211
		c-0.808,0.151-1.611,0.269-2.408,0.353c-0.799,0.085-1.678,0.128-2.635,0.128c-0.809,0-1.598-0.109-2.367-0.325
		c-0.771-0.216-1.452-0.582-2.043-1.099c-0.592-0.517-1.072-1.207-1.438-2.071c-0.367-0.864-0.55-1.954-0.55-3.269v-2.536
		c0-2.029,0.535-3.636,1.606-4.819c1.07-1.184,2.62-1.774,4.649-1.774c1.032,0,1.935,0.153,2.705,0.464
		c0.771,0.31,1.413,0.752,1.931,1.325c0.517,0.573,0.906,1.268,1.17,2.085c0.262,0.817,0.394,1.725,0.394,2.72v1.521
		C923.351,487.162,923.172,487.368,922.815,487.368z M920.871,485.228c0-1.597-0.307-2.733-0.92-3.41
		c-0.612-0.677-1.541-1.015-2.785-1.015c-1.227,0-2.164,0.356-2.814,1.071c-0.651,0.714-0.977,1.831-0.977,3.354v0.253h7.496
		V485.228z"/>
	<path fill="#FFFFFF" d="M936.539,490.44c0,1.428-0.484,2.466-1.451,3.113c-0.969,0.648-2.24,0.974-3.818,0.974
		c-0.264,0-0.578-0.006-0.945-0.015c-0.365-0.01-0.75-0.033-1.154-0.07c-0.404-0.038-0.813-0.085-1.227-0.142
		c-0.413-0.057-0.789-0.121-1.127-0.197c-0.395-0.094-0.592-0.281-0.592-0.563v-0.985c0-0.132,0.047-0.236,0.141-0.311
		c0.094-0.075,0.217-0.113,0.367-0.113h0.112c0.339,0.038,0.709,0.076,1.113,0.113c0.403,0.038,0.812,0.07,1.226,0.099
		c0.413,0.028,0.803,0.052,1.17,0.07c0.365,0.019,0.671,0.028,0.916,0.028c0.92,0,1.615-0.142,2.084-0.424
		c0.471-0.281,0.705-0.807,0.705-1.577c0-0.432-0.15-0.808-0.45-1.127c-0.301-0.32-0.855-0.723-1.663-1.212l-2.846-1.69
		c-0.865-0.525-1.561-1.104-2.086-1.734c-0.525-0.628-0.789-1.394-0.789-2.296c0-0.732,0.132-1.339,0.395-1.817
		c0.264-0.479,0.62-0.864,1.07-1.156c0.451-0.291,0.986-0.493,1.607-0.605c0.619-0.113,1.296-0.168,2.028-0.168
		c0.789,0,1.555,0.032,2.298,0.098c0.74,0.065,1.44,0.155,2.099,0.268c0.356,0.057,0.536,0.244,0.536,0.563v0.931
		c0,0.319-0.16,0.479-0.48,0.479h-0.084c-0.488-0.037-1.141-0.085-1.959-0.141c-0.816-0.057-1.62-0.085-2.409-0.085
		c-0.788,0-1.423,0.095-1.901,0.282c-0.479,0.188-0.719,0.639-0.719,1.353c0,0.432,0.159,0.804,0.479,1.113
		c0.319,0.311,0.809,0.653,1.466,1.028l2.79,1.662c1.164,0.696,1.973,1.373,2.423,2.029
		C936.313,488.872,936.539,489.614,936.539,490.44z"/>
	<path fill="#FFFFFF" d="M960.013,475.561h-5.495v18.204c0,0.151-0.048,0.282-0.141,0.396c-0.095,0.112-0.216,0.169-0.367,0.169
		h-1.549c-0.151,0-0.272-0.057-0.367-0.169c-0.095-0.113-0.142-0.244-0.142-0.396v-18.204h-5.494c-0.151,0-0.282-0.036-0.396-0.11
		c-0.112-0.073-0.168-0.186-0.168-0.334v-1.224c0-0.148,0.056-0.27,0.168-0.361c0.113-0.094,0.244-0.141,0.396-0.141h13.555
		c0.356,0,0.536,0.168,0.536,0.502v1.224C960.549,475.412,960.369,475.561,960.013,475.561z"/>
	<path fill="#FFFFFF" d="M974.863,487.368h-9.44v0.396c0,1.672,0.329,2.856,0.987,3.551c0.656,0.695,1.634,1.042,2.93,1.042
		c0.827,0,1.705-0.028,2.635-0.084c0.931-0.057,1.724-0.132,2.382-0.227h0.142c0.111,0,0.215,0.028,0.309,0.085
		s0.142,0.161,0.142,0.311v0.957c0,0.189-0.038,0.335-0.113,0.438c-0.074,0.104-0.226,0.174-0.45,0.211
		c-0.809,0.151-1.611,0.269-2.41,0.353c-0.798,0.085-1.676,0.128-2.635,0.128c-0.808,0-1.597-0.109-2.366-0.325
		c-0.771-0.216-1.452-0.582-2.044-1.099c-0.591-0.517-1.07-1.207-1.437-2.071s-0.55-1.954-0.55-3.269v-2.536
		c0-2.029,0.535-3.636,1.605-4.819c1.071-1.184,2.622-1.774,4.651-1.774c1.032,0,1.935,0.153,2.704,0.464
		c0.771,0.31,1.413,0.752,1.931,1.325c0.516,0.573,0.906,1.268,1.17,2.085c0.263,0.817,0.394,1.725,0.394,2.72v1.521
		C975.398,487.162,975.221,487.368,974.863,487.368z M972.919,485.228c0-1.597-0.306-2.733-0.919-3.41s-1.542-1.015-2.787-1.015
		c-1.226,0-2.164,0.356-2.813,1.071c-0.652,0.714-0.977,1.831-0.977,3.354v0.253h7.496V485.228z"/>
	<path fill="#FFFFFF" d="M988.249,494.019c-0.074,0.095-0.226,0.161-0.45,0.198c-0.47,0.094-1.011,0.169-1.621,0.226
		c-0.611,0.057-1.245,0.085-1.902,0.085c-0.958,0-1.809-0.166-2.55-0.494c-0.742-0.328-1.372-0.788-1.888-1.38
		c-0.518-0.593-0.907-1.312-1.17-2.156c-0.263-0.846-0.395-1.785-0.395-2.818v-2.198c0-1.032,0.132-1.973,0.395-2.818
		c0.263-0.845,0.647-1.563,1.155-2.155s1.136-1.052,1.889-1.381c0.751-0.329,1.605-0.492,2.563-0.492
		c0.657,0,1.291,0.026,1.902,0.083c0.61,0.057,1.151,0.133,1.621,0.226c0.225,0.038,0.376,0.1,0.45,0.184
		c0.075,0.085,0.113,0.23,0.113,0.437v1.016c0,0.149-0.048,0.258-0.142,0.323c-0.094,0.066-0.207,0.099-0.339,0.099h-0.111
		c-0.62-0.075-1.185-0.127-1.691-0.155s-1.108-0.042-1.804-0.042c-1.126,0-1.996,0.381-2.606,1.142
		c-0.611,0.76-0.916,1.94-0.916,3.536v2.198c0,1.597,0.301,2.776,0.902,3.537c0.601,0.761,1.475,1.141,2.62,1.141
		c0.695,0,1.297-0.014,1.804-0.042s1.071-0.079,1.691-0.155h0.111c0.132,0,0.245,0.033,0.339,0.099
		c0.094,0.066,0.142,0.174,0.142,0.324v1.015C988.362,493.784,988.324,493.926,988.249,494.019z"/>
	<path fill="#FFFFFF" d="M1003.212,494.16c-0.112,0.112-0.245,0.169-0.395,0.169h-1.353c-0.151,0-0.281-0.057-0.395-0.168
		c-0.113-0.113-0.169-0.244-0.169-0.395v-9.253c0-0.712-0.062-1.307-0.184-1.784c-0.122-0.479-0.31-0.857-0.563-1.14
		c-0.253-0.28-0.573-0.482-0.958-0.604c-0.385-0.122-0.851-0.184-1.395-0.184c-0.602,0-1.222,0.104-1.861,0.309
		c-0.638,0.207-1.286,0.47-1.944,0.789v11.866c0,0.15-0.056,0.281-0.168,0.395c-0.113,0.111-0.244,0.168-0.396,0.168h-1.381
		c-0.149,0-0.276-0.057-0.38-0.169c-0.103-0.113-0.155-0.243-0.155-0.395v-14.372c0-0.15,0.053-0.281,0.155-0.395
		c0.104-0.112,0.23-0.169,0.38-0.169h1.409c0.151,0,0.277,0.058,0.382,0.171c0.103,0.115,0.153,0.249,0.153,0.402v0.543
		c0.79-0.438,1.522-0.766,2.199-0.985c0.676-0.218,1.437-0.327,2.282-0.327c1.709,0,2.954,0.507,3.733,1.521
		c0.78,1.015,1.17,2.462,1.17,4.34v9.271C1003.381,493.917,1003.324,494.047,1003.212,494.16z"/>
	<path fill="#FFFFFF" d="M1018.853,490.469c-0.264,0.846-0.657,1.568-1.184,2.17s-1.184,1.066-1.973,1.395s-1.7,0.494-2.732,0.494
		c-1.034,0-1.941-0.166-2.72-0.494c-0.781-0.328-1.434-0.793-1.959-1.395c-0.526-0.602-0.922-1.324-1.185-2.17
		s-0.394-1.785-0.394-2.818v-2.142c0-1.032,0.131-1.973,0.394-2.818c0.263-0.845,0.658-1.567,1.185-2.169
		c0.525-0.602,1.178-1.066,1.959-1.396c0.778-0.329,1.686-0.492,2.72-0.492c1.032,0,1.943,0.163,2.732,0.492
		s1.446,0.794,1.973,1.396s0.92,1.324,1.184,2.169c0.263,0.846,0.395,1.786,0.395,2.818v2.142
		C1019.247,488.684,1019.115,489.623,1018.853,490.469z M1016.768,485.509c0-1.446-0.301-2.593-0.902-3.438
		c-0.602-0.845-1.568-1.268-2.901-1.268c-1.316,0-2.274,0.419-2.875,1.254c-0.602,0.837-0.902,1.986-0.902,3.452v2.142
		c0,1.447,0.296,2.593,0.888,3.438s1.555,1.268,2.89,1.268c1.314,0,2.277-0.418,2.888-1.254c0.609-0.836,0.916-1.986,0.916-3.452
		V485.509z"/>
	<path fill="#FFFFFF" d="M1025.193,494.16c-0.095,0.112-0.217,0.169-0.366,0.169h-1.466c-0.15,0-0.272-0.057-0.367-0.169
		c-0.093-0.113-0.14-0.243-0.14-0.395v-20.093c0-0.149,0.047-0.276,0.14-0.38c0.095-0.103,0.217-0.155,0.367-0.155h1.466
		c0.149,0,0.271,0.053,0.366,0.155c0.094,0.104,0.141,0.23,0.141,0.38v20.093C1025.334,493.917,1025.287,494.047,1025.193,494.16z"
		/>
	<path fill="#FFFFFF" d="M1041.086,490.469c-0.264,0.846-0.657,1.568-1.184,2.17c-0.525,0.602-1.184,1.066-1.973,1.395
		c-0.788,0.328-1.7,0.494-2.732,0.494c-1.034,0-1.941-0.166-2.72-0.494c-0.78-0.328-1.434-0.793-1.959-1.395
		c-0.526-0.602-0.921-1.324-1.184-2.17s-0.395-1.785-0.395-2.818v-2.142c0-1.032,0.132-1.973,0.395-2.818
		c0.263-0.845,0.657-1.567,1.184-2.169c0.525-0.602,1.179-1.066,1.959-1.396c0.778-0.329,1.686-0.492,2.72-0.492
		c1.032,0,1.944,0.163,2.732,0.492c0.789,0.329,1.447,0.794,1.973,1.396c0.526,0.602,0.92,1.324,1.184,2.169
		c0.263,0.846,0.395,1.786,0.395,2.818v2.142C1041.48,488.684,1041.349,489.623,1041.086,490.469z M1039.001,485.509
		c0-1.446-0.301-2.593-0.902-3.438c-0.602-0.845-1.568-1.268-2.901-1.268c-1.316,0-2.274,0.419-2.875,1.254
		c-0.602,0.837-0.902,1.986-0.902,3.452v2.142c0,1.447,0.297,2.593,0.888,3.438c0.592,0.846,1.555,1.268,2.89,1.268
		c1.314,0,2.277-0.418,2.888-1.254c0.609-0.836,0.916-1.986,0.916-3.452V485.509z M1039.536,472.574c0,0.075-0.038,0.15-0.113,0.225
		l-3.184,3.552c-0.132,0.15-0.235,0.258-0.311,0.323c-0.075,0.066-0.188,0.099-0.338,0.099h-1.521c-0.17,0-0.253-0.065-0.253-0.196
		c0-0.113,0.036-0.207,0.111-0.282l2.762-3.495c0.132-0.149,0.234-0.257,0.311-0.323c0.075-0.066,0.197-0.099,0.366-0.099h1.859
		C1039.433,472.377,1039.536,472.443,1039.536,472.574z"/>
	<path fill="#FFFFFF" d="M1057.487,480.563c-0.095,0.065-0.217,0.117-0.366,0.154l-1.015,0.197c0.263,0.264,0.488,0.62,0.676,1.071
		s0.282,1.062,0.282,1.832v0.225c0,1.561-0.498,2.753-1.494,3.579c-0.995,0.827-2.583,1.24-4.762,1.24
		c-0.752,0-1.382-0.052-1.889-0.155c-0.507-0.103-0.968-0.239-1.381-0.408c-0.47,0.226-0.704,0.545-0.704,0.958
		c0,0.245,0.066,0.433,0.197,0.563c0.132,0.132,0.356,0.244,0.677,0.338l4.198,1.071c0.694,0.169,1.366,0.357,2.015,0.563
		c0.647,0.207,1.227,0.465,1.733,0.775c0.507,0.31,0.911,0.69,1.212,1.141c0.301,0.451,0.45,1.005,0.45,1.662v0.227
		c0,1.353-0.493,2.418-1.479,3.198c-0.986,0.779-2.635,1.17-4.946,1.17c-2.236,0-3.874-0.399-4.918-1.198
		c-1.042-0.798-1.563-1.893-1.563-3.283v-0.253c0-0.789,0.178-1.494,0.535-2.113c0.355-0.62,0.77-1.108,1.239-1.466l-0.197-0.085
		c-0.451-0.206-0.779-0.517-0.986-0.929c-0.207-0.414-0.311-0.836-0.311-1.27v-0.028c0-0.374,0.095-0.75,0.283-1.127
		c0.188-0.376,0.479-0.677,0.873-0.901c-0.433-0.413-0.756-0.883-0.973-1.409c-0.216-0.526-0.323-1.146-0.323-1.86v-0.225
		c0-0.62,0.098-1.23,0.295-1.832c0.198-0.601,0.536-1.136,1.016-1.606c0.479-0.469,1.121-0.846,1.93-1.127
		c0.807-0.282,1.813-0.423,3.016-0.423h6.171c0.17,0,0.319,0.062,0.451,0.184c0.131,0.122,0.197,0.268,0.197,0.437v0.732
		C1057.628,480.37,1057.58,480.497,1057.487,480.563z M1054.838,495.371c0-0.281-0.061-0.521-0.184-0.717
		c-0.121-0.198-0.319-0.382-0.592-0.551c-0.272-0.168-0.624-0.323-1.056-0.465c-0.433-0.141-0.969-0.296-1.607-0.465l-3.184-0.817
		c-0.414,0.357-0.747,0.743-1,1.155c-0.254,0.414-0.381,0.987-0.381,1.72v0.253c0,0.396,0.066,0.751,0.197,1.071
		c0.132,0.319,0.352,0.587,0.662,0.803c0.31,0.216,0.724,0.385,1.24,0.508c0.517,0.122,1.169,0.183,1.958,0.183
		c0.808,0,1.466-0.056,1.973-0.169c0.507-0.112,0.906-0.272,1.197-0.479c0.291-0.206,0.494-0.46,0.606-0.76
		c0.112-0.301,0.169-0.648,0.169-1.043V495.371z M1054.584,483.818c0-0.432-0.056-0.832-0.168-1.197
		c-0.112-0.367-0.309-0.681-0.59-0.944c-0.281-0.263-0.664-0.475-1.15-0.635c-0.488-0.159-1.114-0.239-1.882-0.239
		c-0.786,0-1.428,0.084-1.923,0.254c-0.496,0.169-0.88,0.39-1.151,0.662s-0.458,0.592-0.562,0.957
		c-0.104,0.367-0.154,0.747-0.154,1.143v0.225c0,0.301,0.047,0.62,0.141,0.959c0.093,0.337,0.276,0.647,0.547,0.93
		c0.271,0.281,0.655,0.518,1.151,0.705c0.495,0.188,1.146,0.281,1.951,0.281c0.768,0,1.394-0.07,1.882-0.212
		c0.486-0.14,0.869-0.338,1.15-0.592c0.281-0.253,0.478-0.558,0.59-0.915s0.168-0.742,0.168-1.156V483.818z"/>
	<path fill="#FFFFFF" d="M1063.235,476.181c-0.113,0.113-0.244,0.17-0.395,0.17h-1.438c-0.15,0-0.282-0.057-0.395-0.17
		c-0.112-0.112-0.168-0.243-0.168-0.394v-2.255c0-0.15,0.056-0.281,0.168-0.395c0.112-0.112,0.244-0.169,0.395-0.169h1.438
		c0.15,0,0.281,0.057,0.395,0.169c0.113,0.113,0.169,0.244,0.169,0.395v2.255C1063.404,475.938,1063.349,476.068,1063.235,476.181z
		 M1063.179,494.16c-0.113,0.112-0.244,0.169-0.394,0.169h-1.354c-0.15,0-0.282-0.057-0.395-0.169
		c-0.112-0.113-0.169-0.243-0.169-0.395v-14.372c0-0.15,0.057-0.281,0.169-0.395c0.112-0.112,0.244-0.169,0.395-0.169h1.354
		c0.149,0,0.28,0.057,0.394,0.169c0.113,0.113,0.17,0.244,0.17,0.395v14.372C1063.349,493.917,1063.292,494.047,1063.179,494.16z"/>
	<path fill="#FFFFFF" d="M1076.987,494.019c-0.075,0.095-0.227,0.161-0.451,0.198c-0.47,0.094-1.011,0.169-1.621,0.226
		s-1.245,0.085-1.901,0.085c-0.959,0-1.809-0.166-2.551-0.494s-1.372-0.788-1.888-1.38c-0.518-0.593-0.907-1.312-1.17-2.156
		c-0.263-0.846-0.395-1.785-0.395-2.818v-2.198c0-1.032,0.132-1.973,0.395-2.818c0.263-0.845,0.648-1.563,1.156-2.155
		c0.507-0.592,1.136-1.052,1.888-1.381c0.751-0.329,1.605-0.492,2.564-0.492c0.656,0,1.291,0.026,1.901,0.083
		s1.151,0.133,1.621,0.226c0.225,0.038,0.376,0.1,0.451,0.184c0.074,0.085,0.112,0.23,0.112,0.437v1.016
		c0,0.149-0.048,0.258-0.141,0.323c-0.095,0.066-0.208,0.099-0.339,0.099h-0.112c-0.62-0.075-1.185-0.127-1.691-0.155
		s-1.108-0.042-1.803-0.042c-1.127,0-1.997,0.381-2.606,1.142c-0.611,0.76-0.917,1.94-0.917,3.536v2.198
		c0,1.597,0.301,2.776,0.902,3.537c0.601,0.761,1.475,1.141,2.621,1.141c0.694,0,1.296-0.014,1.803-0.042s1.071-0.079,1.691-0.155
		h0.112c0.131,0,0.244,0.033,0.339,0.099c0.093,0.066,0.141,0.174,0.141,0.324v1.015
		C1077.1,493.784,1077.062,493.926,1076.987,494.019z"/>
	<path fill="#FFFFFF" d="M1090.88,494.16c-0.113,0.112-0.244,0.169-0.395,0.169h-1.296c-0.151,0-0.282-0.057-0.396-0.169
		c-0.113-0.113-0.168-0.243-0.168-0.395v-0.62c-0.677,0.395-1.372,0.724-2.086,0.986s-1.466,0.396-2.255,0.396
		c-0.602,0-1.179-0.071-1.732-0.212c-0.555-0.142-1.043-0.39-1.466-0.747c-0.422-0.356-0.761-0.826-1.015-1.409
		c-0.253-0.582-0.38-1.314-0.38-2.197v-0.339c0-0.77,0.117-1.438,0.352-2.001c0.235-0.563,0.621-1.038,1.156-1.423
		s1.234-0.671,2.1-0.86c0.863-0.187,1.925-0.281,3.184-0.281h2.086v-1.126c0-1.185-0.226-2.011-0.677-2.481
		c-0.451-0.469-1.23-0.704-2.339-0.704c-0.921,0-1.729,0.023-2.424,0.07c-0.695,0.048-1.324,0.099-1.888,0.155h-0.141
		c-0.132,0-0.25-0.028-0.354-0.085c-0.103-0.056-0.153-0.178-0.153-0.365v-0.987c0-0.3,0.196-0.479,0.591-0.535
		c0.582-0.093,1.217-0.178,1.902-0.254c0.686-0.075,1.508-0.111,2.466-0.111c1.954,0,3.357,0.464,4.213,1.394
		c0.854,0.931,1.282,2.232,1.282,3.904v9.834C1091.049,493.917,1090.992,494.047,1090.88,494.16z M1088.569,486.833h-2.086
		c-0.846,0-1.55,0.052-2.113,0.155s-1.005,0.264-1.324,0.479c-0.32,0.217-0.545,0.498-0.677,0.846
		c-0.131,0.348-0.197,0.775-0.197,1.282v0.339c0,1.014,0.226,1.695,0.676,2.043c0.452,0.348,1.091,0.521,1.917,0.521
		c0.657,0,1.286-0.095,1.889-0.282c0.601-0.188,1.239-0.47,1.916-0.846V486.833z"/>
	<path fill="#FFFFFF" d="M1104.688,490.44c0,1.428-0.483,2.466-1.45,3.113c-0.969,0.648-2.241,0.974-3.819,0.974
		c-0.263,0-0.577-0.006-0.943-0.015c-0.367-0.01-0.753-0.033-1.156-0.07c-0.404-0.038-0.813-0.085-1.226-0.142
		c-0.414-0.057-0.789-0.121-1.127-0.197c-0.395-0.094-0.592-0.281-0.592-0.563v-0.985c0-0.132,0.047-0.236,0.142-0.311
		c0.093-0.075,0.215-0.113,0.365-0.113h0.113c0.338,0.038,0.709,0.076,1.112,0.113c0.404,0.038,0.813,0.07,1.226,0.099
		c0.414,0.028,0.804,0.052,1.171,0.07c0.365,0.019,0.671,0.028,0.915,0.028c0.921,0,1.615-0.142,2.085-0.424
		c0.471-0.281,0.705-0.807,0.705-1.577c0-0.432-0.151-0.808-0.45-1.127c-0.301-0.32-0.855-0.723-1.663-1.212l-2.846-1.69
		c-0.865-0.525-1.561-1.104-2.086-1.734c-0.526-0.628-0.789-1.394-0.789-2.296c0-0.732,0.132-1.339,0.395-1.817
		c0.263-0.479,0.619-0.864,1.071-1.156c0.45-0.291,0.985-0.493,1.605-0.605c0.62-0.113,1.296-0.168,2.029-0.168
		c0.789,0,1.555,0.032,2.297,0.098c0.741,0.065,1.441,0.155,2.1,0.268c0.356,0.057,0.535,0.244,0.535,0.563v0.931
		c0,0.319-0.159,0.479-0.479,0.479h-0.085c-0.489-0.037-1.142-0.085-1.958-0.141c-0.817-0.057-1.621-0.085-2.41-0.085
		s-1.424,0.095-1.902,0.282s-0.719,0.639-0.719,1.353c0,0.432,0.16,0.804,0.479,1.113c0.32,0.311,0.808,0.653,1.466,1.028
		l2.79,1.662c1.165,0.696,1.973,1.373,2.423,2.029C1104.463,488.872,1104.688,489.614,1104.688,490.44z"/>
</g>
</svg>
