<?xml version="1.0" encoding="UTF-8" standalone="no"?>
<!-- Created with Inkscape (http://www.inkscape.org/) -->

<svg
   xmlns:dc="http://purl.org/dc/elements/1.1/"
   xmlns:cc="http://creativecommons.org/ns#"
   xmlns:rdf="http://www.w3.org/1999/02/22-rdf-syntax-ns#"
   xmlns:svg="http://www.w3.org/2000/svg"
   xmlns="http://www.w3.org/2000/svg"
   xmlns:sodipodi="http://sodipodi.sourceforge.net/DTD/sodipodi-0.dtd"
   xmlns:inkscape="http://www.inkscape.org/namespaces/inkscape"
   version="1.1"
   width="155.54333"
   height="40"
   id="svg3233"
   inkscape:version="0.48.4 r9939"
   sodipodi:docname="snappler-logo-blue.svg"
   inkscape:export-filename="/home/maurolb/Snappler/Proyectos/snappler_web2/img/logos/snappler-logo-blue.png"
   inkscape:export-xdpi="208"
   inkscape:export-ydpi="208">
  <sodipodi:namedview
     pagecolor="#ffffff"
     bordercolor="#666666"
     borderopacity="1"
     objecttolerance="10"
     gridtolerance="10"
     guidetolerance="10"
     inkscape:pageopacity="0"
     inkscape:pageshadow="2"
     inkscape:window-width="1368"
     inkscape:window-height="692"
     id="namedview15"
     showgrid="false"
     fit-margin-top="0"
     fit-margin-left="0"
     fit-margin-right="0"
     fit-margin-bottom="0"
     inkscape:zoom="6.0147013"
     inkscape:cx="64.521813"
     inkscape:cy="5.9022961"
     inkscape:window-x="0"
     inkscape:window-y="24"
     inkscape:window-maximized="1"
     inkscape:current-layer="svg3233" />
  <defs
     id="defs3235" />
  <metadata
     id="metadata3238">
    <rdf:RDF>
      <cc:Work
         rdf:about="">
        <dc:format>image/svg+xml</dc:format>
        <dc:type
           rdf:resource="http://purl.org/dc/dcmitype/StillImage" />
        <dc:title></dc:title>
      </cc:Work>
    </rdf:RDF>
  </metadata>
  <g
     transform="matrix(0.33604409,0,0,0.33604409,-0.71862827,-0.6649002)"
     id="layer1">
    <g
       transform="translate(-57.661506,-330.07539)"
       id="g3">
      <path
         d="m 311.705,363.897 c -4.884,-5.504 -12.335,-8.26 -22.351,-8.26 -3.966,0 -8.139,0.29 -12.53,0.867 -4.381,0.581 -8.525,1.369 -12.412,2.362 -1.41,0.416 -2.324,0.854 -2.731,1.305 -0.413,0.454 -0.619,1.134 -0.619,2.049 v 40.545 l 0,0 v 2.428 c 0,0.664 0.241,1.266 0.736,1.804 0.502,0.536 1.083,0.804 1.747,0.804 l 11.558,0.586 c 0.658,0 1.219,-0.266 1.674,-0.803 0.453,-0.54 0.679,-1.133 0.679,-1.803 v -25.79 h -0.013 v -9.958 c 1.158,-0.25 2.873,-0.45 5.149,-0.619 2.28,-0.161 4.531,-0.248 6.761,-0.248 2.651,0 4.845,0.451 6.583,1.356 1.738,0.907 3.104,2.142 4.095,3.705 0.998,1.561 1.674,3.416 2.052,5.55 0.368,2.149 0.559,4.49 0.559,7.043 v 9.5 c 0,2.553 -0.19,4.897 -0.559,7.037 -0.378,2.143 -1.054,3.993 -2.052,5.558 -0.991,1.565 -2.356,2.804 -4.095,3.705 -1.738,0.902 -3.932,1.361 -6.583,1.361 -1.166,0 -18.056,-0.745 -25.174,-1.058 -3.197,-0.1 -3.118,3.225 -3.118,3.225 v 32.458 c 0,0.655 0.241,1.24 0.74,1.732 0.498,0.505 1.079,0.747 1.743,0.747 h 11.418 c 0.66,0 1.241,-0.242 1.734,-0.747 0.499,-0.492 0.747,-1.077 0.747,-1.732 v -21.969 c 2.318,0.324 4.507,0.554 6.575,0.684 2.066,0.122 3.852,0.183 5.335,0.183 10.016,0 17.467,-2.749 22.351,-8.25 4.878,-5.502 7.319,-13.143 7.319,-22.903 v -9.561 c 10e-4,-9.76 -2.44,-17.388 -7.318,-22.893 z"
         id="path5"
         style="fill:#04214a"
         inkscape:connector-curvature="0" />
      <path
         d="m 378.793,363.897 c -4.888,-5.504 -12.344,-8.26 -22.355,-8.26 -3.971,0 -8.141,0.29 -12.528,0.867 -4.389,0.581 -8.525,1.369 -12.416,2.362 -1.407,0.416 -2.317,0.854 -2.729,1.305 -0.417,0.454 -0.625,1.134 -0.625,2.049 v 40.55 l 0,0 v 2.428 c 0,0.662 0.252,1.261 0.747,1.8 0.497,0.536 1.074,0.804 1.746,0.804 l 11.546,0.581 c 0.673,0 1.231,-0.261 1.677,-0.798 0.45,-0.54 0.686,-1.133 0.686,-1.803 v -25.79 h -0.014 v -9.958 c 1.156,-0.25 2.878,-0.45 5.153,-0.619 2.271,-0.161 4.529,-0.248 6.757,-0.248 2.657,0 4.85,0.451 6.583,1.356 1.737,0.907 3.108,2.142 4.097,3.705 0.997,1.561 1.674,3.416 2.051,5.55 0.371,2.149 0.553,4.49 0.553,7.043 v 9.5 c 0,2.553 -0.182,4.897 -0.553,7.037 -0.377,2.143 -1.054,3.993 -2.051,5.558 -0.988,1.565 -2.359,2.804 -4.097,3.705 -1.733,0.902 -3.926,1.361 -6.583,1.361 -1.164,0 -18.057,-0.745 -25.173,-1.058 -3.204,-0.1 -3.125,3.225 -3.125,3.225 v 32.458 c 0,0.655 0.252,1.24 0.75,1.732 0.494,0.505 1.075,0.747 1.743,0.747 h 11.415 c 0.664,0 1.239,-0.242 1.734,-0.747 0.499,-0.492 0.745,-1.077 0.745,-1.732 v -21.969 c 2.318,0.324 4.513,0.554 6.579,0.684 2.068,0.122 3.846,0.183 5.331,0.183 10.012,0 17.468,-2.749 22.355,-8.25 4.876,-5.502 7.318,-13.143 7.318,-22.903 v -9.561 c 10e-4,-9.761 -2.441,-17.389 -7.317,-22.894 z"
         id="path7"
         style="fill:#04214a"
         inkscape:connector-curvature="0" />
      <path
         d="m 476.484,397.783 h -41.077 v 0.381 c 0,1.835 0.225,3.7 0.694,5.591 0.46,1.883 1.257,3.597 2.385,5.148 1.125,1.556 2.66,2.81 4.584,3.772 1.925,0.962 4.402,1.438 7.412,1.438 4.602,0 8.937,-0.139 13.01,-0.438 4.058,-0.289 7.43,-0.558 10.116,-0.809 h 0.372 c 0.676,0 1.216,0.146 1.638,0.438 0.418,0.299 0.626,0.774 0.626,1.442 v 8.299 c 0,1.001 -0.148,1.756 -0.442,2.255 -0.294,0.502 -1.022,0.842 -2.193,1.01 -2.011,0.333 -3.893,0.648 -5.652,0.939 -1.759,0.295 -3.545,0.525 -5.348,0.69 -1.803,0.174 -3.771,0.294 -5.902,0.38 -2.134,0.08 -4.629,0.122 -7.472,0.122 -3.104,0 -6.434,-0.486 -9.986,-1.439 -3.555,-0.962 -6.83,-2.643 -9.83,-5.027 -2.991,-2.393 -5.487,-5.617 -7.481,-9.673 -1.994,-4.069 -2.99,-9.197 -2.99,-15.398 v -9.297 c 0,-4.941 0.668,-9.379 2.013,-13.319 1.334,-3.935 3.274,-7.29 5.849,-10.056 2.541,-2.768 5.713,-4.875 9.476,-6.339 3.771,-1.466 8.046,-2.202 12.821,-2.202 4.853,0 9.146,0.771 12.88,2.323 3.727,1.55 6.848,3.748 9.362,6.601 2.513,2.846 4.412,6.218 5.713,10.111 1.309,3.893 1.949,8.192 1.949,12.882 v 7.037 c -0.002,2.093 -0.842,3.138 -2.527,3.138 z m -14.057,-12.32 c 0,-4.936 -1.23,-8.748 -3.686,-11.432 -2.451,-2.68 -5.659,-4.019 -9.629,-4.019 -3.986,0 -7.238,1.323 -9.778,3.958 -2.529,2.643 -3.797,6.475 -3.797,11.493 v 0.512 h 26.89 v -0.512 z"
         id="path9"
         style="fill:#04214a"
         inkscape:connector-curvature="0" />
      <path
         d="m 119.378,401.561 c 0,3.148 -0.537,6.269 -1.608,9.371 -1.079,3.113 -2.878,5.878 -5.401,8.323 -2.524,2.442 -5.877,4.429 -10.06,5.954 -4.177,1.534 -9.365,2.297 -15.575,2.297 -4.717,0 -8.807,-0.204 -12.289,-0.614 -3.476,-0.422 -6.695,-0.962 -9.676,-1.622 -0.66,-0.164 -1.223,-0.45 -1.679,-0.857 -0.451,-0.417 -0.674,-0.959 -0.674,-1.622 v -8.937 c 0,-0.662 0.223,-1.221 0.674,-1.68 0.456,-0.452 1.02,-0.678 1.679,-0.678 h 0.25 c 1.236,0.171 2.868,0.314 4.899,0.434 2.022,0.122 4.12,0.244 6.271,0.374 2.144,0.12 4.192,0.23 6.138,0.311 1.943,0.078 3.494,0.123 4.656,0.123 5.545,0 9.331,-0.95 11.351,-2.857 2.038,-1.902 3.047,-4.667 3.047,-8.317 0,-1.237 -0.164,-2.33 -0.498,-3.285 -0.333,-0.954 -0.886,-1.88 -1.677,-2.796 -0.781,-0.904 -1.861,-1.838 -3.227,-2.787 -1.359,-0.953 -3.082,-2.054 -5.153,-3.294 l -16.383,-9.807 c -2.9,-1.738 -5.275,-3.48 -7.129,-5.214 -1.863,-1.738 -3.354,-3.527 -4.472,-5.396 -1.118,-1.859 -1.908,-3.809 -2.358,-5.828 -0.456,-2.039 -0.684,-4.123 -0.684,-6.272 0,-3.394 0.537,-6.538 1.615,-9.437 1.071,-2.899 2.831,-5.395 5.272,-7.515 2.449,-2.097 5.629,-3.735 9.559,-4.897 3.927,-1.162 8.789,-1.737 14.58,-1.737 2.071,0 4.261,0.064 6.579,0.19 2.324,0.116 4.595,0.307 6.836,0.559 2.231,0.242 4.258,0.493 6.077,0.744 1.818,0.244 3.265,0.495 4.351,0.737 0.654,0.174 1.191,0.443 1.604,0.806 0.416,0.377 0.624,0.898 0.624,1.553 v 9.188 c 0,0.664 -0.19,1.195 -0.561,1.611 -0.372,0.416 -0.883,0.625 -1.55,0.625 h -0.248 c -4.14,-0.416 -8.234,-0.724 -12.292,-0.927 -4.057,-0.208 -8.109,-0.312 -12.161,-0.312 -4.633,0 -7.966,0.763 -9.995,2.296 -2.026,1.531 -3.038,3.702 -3.038,6.515 0,0.992 0.143,1.919 0.434,2.795 0.292,0.867 0.826,1.734 1.616,2.6 0.779,0.877 1.837,1.744 3.164,2.604 1.322,0.873 2.977,1.886 4.967,3.042 l 14.892,8.319 c 3.388,1.902 6.206,3.827 8.441,5.776 2.232,1.943 4.01,3.949 5.333,6.012 1.33,2.072 2.235,4.222 2.741,6.463 0.496,2.224 0.738,4.587 0.738,7.066 z"
         id="path11"
         style="fill:#04214a"
         inkscape:connector-curvature="0" />
      <path
         d="m 410.001,425.703 c -0.46,0.546 -1.023,0.806 -1.674,0.806 h -11.555 c -0.657,0 -1.238,-0.26 -1.733,-0.806 -0.494,-0.539 -0.745,-1.133 -0.745,-1.794 v -89.372 c 0,-0.667 0.251,-1.242 0.745,-1.737 0.495,-0.499 1.076,-0.746 1.733,-0.746 h 11.555 c 0.65,0 1.214,0.247 1.674,0.746 0.451,0.495 0.676,1.07 0.676,1.737 v 89.372 c 0,0.661 -0.225,1.255 -0.676,1.794 z"
         id="path13"
         style="fill:#04214a"
         inkscape:connector-curvature="0" />
      <path
         d="m 184.478,373.212 c -0.581,-3.384 -1.635,-6.332 -3.163,-8.811 -1.537,-2.483 -3.706,-4.43 -6.521,-5.839 -2.712,-1.356 -12.003,-3.099 -18.684,-2.852 -3.938,0.152 -8.091,0.291 -12.452,0.863 -4.355,0.575 -8.463,1.352 -12.331,2.332 -1.395,0.416 -2.302,0.841 -2.708,1.286 -0.416,0.456 -0.616,1.123 -0.616,2.029 v 7.629 4.849 50.022 c 0,0.66 0.248,1.269 0.746,1.805 0.494,0.539 1.072,0.806 1.734,0.806 h 11.424 c 0.664,0 1.235,-0.267 1.734,-0.806 0.498,-0.536 0.749,-1.145 0.749,-1.805 l 0.02,-54.762 c 0.161,-0.054 0.351,-0.096 0.527,-0.13 1.111,-0.197 2.584,-0.356 4.458,-0.495 2.136,-0.156 4.251,-0.23 6.352,-0.242 0.266,0.003 0.535,0.008 0.795,0.017 2.429,0.043 4.474,0.477 6.106,1.318 0.553,0.289 1.051,0.625 1.531,0.978 1.809,1.492 4.223,4.327 4.725,9.684 0.091,0.972 0.059,2.029 0.059,3.172 v 40.461 c 0,0.66 0.249,1.269 0.748,1.805 0.491,0.539 1.075,0.806 1.734,0.806 h 11.417 c 0.663,0 1.248,-0.267 1.737,-0.806 0.495,-0.536 0.75,-1.145 0.75,-1.805 V 384.26 c -10e-4,-3.97 -0.292,-7.656 -0.871,-11.048 z"
         id="path15"
         style="fill:#04214a"
         inkscape:connector-curvature="0" />
      <path
         d="m 514.772,355.663 c -3.944,0.146 -8.094,0.289 -12.454,0.857 -4.353,0.572 -8.462,1.353 -12.318,2.333 -1.405,0.41 -2.305,0.839 -2.722,1.29 -0.397,0.451 -0.607,1.118 -0.607,2.02 v 7.63 4.857 50.024 c 0,0.663 0.244,1.254 0.737,1.794 0.495,0.538 1.076,0.813 1.743,0.813 h 11.425 c 0.65,0 1.231,-0.274 1.733,-0.813 0.493,-0.54 0.746,-1.131 0.746,-1.794 l 0.018,-54.771 c 0.163,-0.051 0.354,-0.095 0.528,-0.134 1.108,-0.187 2.581,-0.355 4.455,-0.49 2.131,-0.155 4.256,-0.234 6.354,-0.238 0.268,0 4.056,0.373 4.62,0.49 3.623,0.719 3.598,-3.043 3.598,-3.043 0,0 -0.034,-6.805 0.035,-8.369 0.077,-1.898 -1.424,-2.207 -1.424,-2.207 -2.227,-0.218 -4.463,-0.323 -6.467,-0.249 z"
         id="path17"
         style="fill:#04214a"
         inkscape:connector-curvature="0" />
      <path
         d="m 248.228,410.212 -0.025,0.009 v -30.676 c 0,-8.127 -2.368,-14.155 -7.104,-18.095 -4.733,-3.936 -11.582,-5.907 -20.543,-5.907 -4.353,0 -8.31,0.207 -11.873,0.623 -3.562,0.413 -6.602,0.872 -9.106,1.371 -1.594,0.337 -2.392,1.205 -2.392,2.608 v 7.976 c 0,0.909 0.207,1.5 0.632,1.75 0.416,0.248 0.958,0.374 1.625,0.374 h 0.632 c 2.09,-0.25 5.029,-0.476 8.798,-0.688 3.762,-0.213 7.663,-0.317 11.682,-0.317 3.774,0 6.558,0.675 8.355,2.028 1.803,1.353 2.701,4.09 2.701,8.234 v 5.575 h -7.91 c -10.896,0 -18.724,1.819 -23.5,5.459 -4.775,3.651 -7.16,9.072 -7.16,16.272 v 0.51 c 0,4.273 0.647,7.749 1.942,10.428 1.3,2.678 2.904,4.913 5.032,6.409 6.34,4.46 16.734,4.807 19.915,4.807 3.97,0 8.157,-0.294 12.535,-0.866 3.228,-0.425 9.694,-2.29 13.054,-3.415 1.205,-0.408 2.766,-1.266 2.734,-2.886 l -0.024,-11.583 z m -38.605,-3.405 c 0,-1.752 0.191,-3.305 0.572,-4.647 0.377,-1.34 1.092,-2.448 2.149,-3.329 1.051,-0.876 2.485,-1.547 4.293,-2.011 1.81,-0.459 4.15,-0.694 7.017,-0.694 h 7.957 l -0.075,17.381 c -1.848,1.004 -10.54,1.604 -12.815,1.604 -3.194,0 -5.513,-0.53 -6.947,-1.579 -1.439,-1.045 -2.15,-3.121 -2.15,-6.215 v -0.51 z"
         id="path19"
         style="fill:#04214a"
         inkscape:connector-curvature="0" />
    </g>
  </g>
</svg>
