<?xml version="1.0" encoding="UTF-8" standalone="no"?>
<svg
   xmlns:dc="http://purl.org/dc/elements/1.1/"
   xmlns:cc="http://creativecommons.org/ns#"
   xmlns:rdf="http://www.w3.org/1999/02/22-rdf-syntax-ns#"
   xmlns:svg="http://www.w3.org/2000/svg"
   xmlns="http://www.w3.org/2000/svg"
   xmlns:sodipodi="http://sodipodi.sourceforge.net/DTD/sodipodi-0.dtd"
   xmlns:inkscape="http://www.inkscape.org/namespaces/inkscape"
   width="128"
   height="128"
   id="svg2"
   version="1.1"
   inkscape:version="0.48.4 r9939"
   sodipodi:docname="buzon_6campos_test.svg">
  <metadata
     id="metadata649">
    <rdf:RDF>
      <cc:Work
         rdf:about="">
        <dc:format>image/svg+xml</dc:format>
        <dc:type
           rdf:resource="http://purl.org/dc/dcmitype/StillImage" />
        <dc:title></dc:title>
      </cc:Work>
    </rdf:RDF>
  </metadata>
  <sodipodi:namedview
     pagecolor="#ffffff"
     bordercolor="#666666"
     borderopacity="1"
     objecttolerance="10"
     gridtolerance="10"
     guidetolerance="10"
     inkscape:pageopacity="0"
     inkscape:pageshadow="2"
     inkscape:window-width="1364"
     inkscape:window-height="718"
     id="namedview647"
     showgrid="true"
     fit-margin-top="0"
     fit-margin-left="0"
     fit-margin-right="0"
     fit-margin-bottom="0"
     inkscape:zoom="8"
     inkscape:cx="72.619016"
     inkscape:cy="53.077676"
     inkscape:window-x="0"
     inkscape:window-y="0"
     inkscape:window-maximized="1"
     inkscape:current-layer="layer1"
     showguides="true"
     inkscape:guide-bbox="true">
    <inkscape:grid
       type="xygrid"
       id="grid3626"
       empspacing="5"
       visible="true"
       enabled="true"
       snapvisiblegridlinesonly="true" />
    <sodipodi:guide
       orientation="1,0"
       position="64,117.40625"
       id="guide3101" />
    <sodipodi:guide
       orientation="0,1"
       position="112,64"
       id="guide3103" />
  </sodipodi:namedview>
  <desc
     id="desc4">/home/snappler/Escritorio/Simbolos-C DXF_2000.dxf - scale = 0.536199</desc>
  <defs
     id="defs6">
    <marker
       id="DistanceX"
       orient="auto"
       refX="0"
       refY="0"
       style="overflow:visible">
      <path
         d="M 3,-3 -3,3 M 0,-5 0,5"
         style="stroke:#000000;stroke-width:0.5"
         id="path9"
         inkscape:connector-curvature="0" />
    </marker>
    <pattern
       height="8"
       id="Hatch"
       patternUnits="userSpaceOnUse"
       width="8"
       x="0"
       y="0">
      <path
         d="M8 4 l-4,4"
         linecap="square"
         stroke="#000000"
         stroke-width="0.25"
         id="path12" />
      <path
         d="M6 2 l-4,4"
         linecap="square"
         stroke="#000000"
         stroke-width="0.25"
         id="path14" />
      <path
         d="M4 0 l-4,4"
         linecap="square"
         stroke="#000000"
         stroke-width="0.25"
         id="path16" />
    </pattern>
    <symbol
       id="*MODEL_SPACE" />
    <symbol
       id="*PAPER_SPACE" />
    <symbol
       id="POSTE-RD">
      <path
         d="m -10769658,11642373 7,0"
         style="fill:none;stroke:#000000"
         id="path21"
         inkscape:connector-curvature="0" />
      <path
         d="m -10769666,11642377 6,-8"
         style="fill:none;stroke:#000000"
         id="path23"
         inkscape:connector-curvature="0" />
      <path
         d="m -10769658,11642373 a 5,5 0 1 0 -10,0 5,5 0 1 0 10,0 z"
         style="fill:none;stroke:#000000"
         id="path25"
         inkscape:connector-curvature="0" />
      <path
         d="m -10769659,11642376 -8,-6"
         style="fill:none;stroke:#000000"
         id="path27"
         inkscape:connector-curvature="0" />
      <path
         d="m -10769645,11642373 -6,-2 0,4 z"
         style="fill:#000000"
         id="path29"
         inkscape:connector-curvature="0" />
    </symbol>
    <symbol
       id="POSTE-CP">
      <path
         d="m -10769658,11642373 a 5,5 0 1 0 -10,0 5,5 0 1 0 10,0 z"
         style="fill:none;stroke:#000000"
         id="path32"
         inkscape:connector-curvature="0" />
      <path
         d="m -10769666,11642377 6,-8"
         style="fill:none;stroke:#000000"
         id="path34"
         inkscape:connector-curvature="0" />
      <path
         d="m -10769648,11642370 0,6"
         style="fill:none;stroke:#000000"
         id="path36"
         inkscape:connector-curvature="0" />
      <path
         d="m -10769659,11642375 11,1"
         style="fill:none;stroke:#000000"
         id="path38"
         inkscape:connector-curvature="0" />
      <path
         d="m -10769659,11642371 11,-1"
         style="fill:none;stroke:#000000"
         id="path40"
         inkscape:connector-curvature="0" />
      <path
         d="m -10769659,11642376 -8,-6"
         style="fill:none;stroke:#000000"
         id="path42"
         inkscape:connector-curvature="0" />
    </symbol>
    <symbol
       id="POSTE-MA">
      <path
         d="m -10769658,11642373 a 5,5 0 1 0 -10,0 5,5 0 1 0 10,0 z"
         style="fill:none;stroke:#000000"
         id="path45"
         inkscape:connector-curvature="0" />
      <path
         d="m -10769659,11642376 -8,-6"
         style="fill:none;stroke:#000000"
         id="path47"
         inkscape:connector-curvature="0" />
      <path
         d="m -10769666,11642377 6,-8"
         style="fill:none;stroke:#000000"
         id="path49"
         inkscape:connector-curvature="0" />
    </symbol>
    <symbol
       id="POSTE-HA">
      <path
         d="m -10769656,11642373 a 7.21976,7.21976 0 1 0 -14,0 7.21976,7.21976 0 1 0 14,0 z"
         style="fill:none;stroke:#000000"
         id="path52"
         inkscape:connector-curvature="0" />
      <path
         d="m -10769663,11642366 0,14"
         style="fill:none;stroke:#000000"
         id="path54"
         inkscape:connector-curvature="0" />
      <path
         d="m -10769656,11642373 -7,-7 0,14 z"
         style="fill:#000000"
         id="path56"
         inkscape:connector-curvature="0" />
    </symbol>
    <symbol
       id="PAT">
      <path
         d="m -10769663,11642373 0,8"
         style="fill:none;stroke:#000000"
         id="path59"
         inkscape:connector-curvature="0" />
      <path
         d="m -10769663,11642381 5,0"
         style="fill:none;stroke:#000000"
         id="path61"
         inkscape:connector-curvature="0" />
      <path
         d="m -10769663,11642383 4,0"
         style="fill:none;stroke:#000000"
         id="path63"
         inkscape:connector-curvature="0" />
      <path
         d="m -10769663,11642384 3,0"
         style="fill:none;stroke:#000000"
         id="path65"
         inkscape:connector-curvature="0" />
      <path
         d="m -10769663,11642386 2,0"
         style="fill:none;stroke:#000000"
         id="path67"
         inkscape:connector-curvature="0" />
      <path
         d="m -10769663,11642381 -5,0"
         style="fill:none;stroke:#000000"
         id="path69"
         inkscape:connector-curvature="0" />
      <path
         d="m -10769663,11642386 -2,0"
         style="fill:none;stroke:#000000"
         id="path71"
         inkscape:connector-curvature="0" />
      <path
         d="m -10769663,11642384 -3,0"
         style="fill:none;stroke:#000000"
         id="path73"
         inkscape:connector-curvature="0" />
      <path
         d="m -10769663,11642383 -4,0"
         style="fill:none;stroke:#000000"
         id="path75"
         inkscape:connector-curvature="0" />
    </symbol>
    <symbol
       id="PAT-7">
      <path
         inkscape:connector-curvature="0"
         id="path59-5"
         style="fill:none;stroke:#000000"
         d="m -10769663,11642373 0,8" />
      <path
         inkscape:connector-curvature="0"
         id="path61-1"
         style="fill:none;stroke:#000000"
         d="m -10769663,11642381 5,0" />
      <path
         inkscape:connector-curvature="0"
         id="path63-1"
         style="fill:none;stroke:#000000"
         d="m -10769663,11642383 4,0" />
      <path
         inkscape:connector-curvature="0"
         id="path65-8"
         style="fill:none;stroke:#000000"
         d="m -10769663,11642384 3,0" />
      <path
         inkscape:connector-curvature="0"
         id="path67-9"
         style="fill:none;stroke:#000000"
         d="m -10769663,11642386 2,0" />
      <path
         inkscape:connector-curvature="0"
         id="path69-2"
         style="fill:none;stroke:#000000"
         d="m -10769663,11642381 -5,0" />
      <path
         inkscape:connector-curvature="0"
         id="path71-2"
         style="fill:none;stroke:#000000"
         d="m -10769663,11642386 -2,0" />
      <path
         inkscape:connector-curvature="0"
         id="path73-7"
         style="fill:none;stroke:#000000"
         d="m -10769663,11642384 -3,0" />
      <path
         inkscape:connector-curvature="0"
         id="path75-1"
         style="fill:none;stroke:#000000"
         d="m -10769663,11642383 -4,0" />
    </symbol>
    <symbol
       id="POSTE-HA-1">
      <path
         inkscape:connector-curvature="0"
         id="path52-0"
         style="fill:none;stroke:#000000"
         d="m -10769656,11642373 a 7.21976,7.21976 0 1 0 -14,0 7.21976,7.21976 0 1 0 14,0 z" />
      <path
         inkscape:connector-curvature="0"
         id="path54-7"
         style="fill:none;stroke:#000000"
         d="m -10769663,11642366 0,14" />
      <path
         inkscape:connector-curvature="0"
         id="path56-3"
         style="fill:#000000"
         d="m -10769656,11642373 -7,-7 0,14 z" />
    </symbol>
    <symbol
       id="POSTE-MA-4">
      <path
         inkscape:connector-curvature="0"
         id="path45-5"
         style="fill:none;stroke:#000000"
         d="m -10769658,11642373 a 5,5 0 1 0 -10,0 5,5 0 1 0 10,0 z" />
      <path
         inkscape:connector-curvature="0"
         id="path47-0"
         style="fill:none;stroke:#000000"
         d="m -10769659,11642376 -8,-6" />
      <path
         inkscape:connector-curvature="0"
         id="path49-2"
         style="fill:none;stroke:#000000"
         d="m -10769666,11642377 6,-8" />
    </symbol>
    <symbol
       id="POSTE-CP-6">
      <path
         inkscape:connector-curvature="0"
         id="path32-5"
         style="fill:none;stroke:#000000"
         d="m -10769658,11642373 a 5,5 0 1 0 -10,0 5,5 0 1 0 10,0 z" />
      <path
         inkscape:connector-curvature="0"
         id="path34-5"
         style="fill:none;stroke:#000000"
         d="m -10769666,11642377 6,-8" />
      <path
         inkscape:connector-curvature="0"
         id="path36-8"
         style="fill:none;stroke:#000000"
         d="m -10769648,11642370 0,6" />
      <path
         inkscape:connector-curvature="0"
         id="path38-8"
         style="fill:none;stroke:#000000"
         d="m -10769659,11642375 11,1" />
      <path
         inkscape:connector-curvature="0"
         id="path40-1"
         style="fill:none;stroke:#000000"
         d="m -10769659,11642371 11,-1" />
      <path
         inkscape:connector-curvature="0"
         id="path42-9"
         style="fill:none;stroke:#000000"
         d="m -10769659,11642376 -8,-6" />
    </symbol>
    <symbol
       id="POSTE-RD-3">
      <path
         inkscape:connector-curvature="0"
         id="path21-0"
         style="fill:none;stroke:#000000"
         d="m -10769658,11642373 7,0" />
      <path
         inkscape:connector-curvature="0"
         id="path23-4"
         style="fill:none;stroke:#000000"
         d="m -10769666,11642377 6,-8" />
      <path
         inkscape:connector-curvature="0"
         id="path25-2"
         style="fill:none;stroke:#000000"
         d="m -10769658,11642373 a 5,5 0 1 0 -10,0 5,5 0 1 0 10,0 z" />
      <path
         inkscape:connector-curvature="0"
         id="path27-5"
         style="fill:none;stroke:#000000"
         d="m -10769659,11642376 -8,-6" />
      <path
         inkscape:connector-curvature="0"
         id="path29-9"
         style="fill:#000000"
         d="m -10769645,11642373 -6,-2 0,4 z" />
    </symbol>
    <symbol
       id="*PAPER_SPACE-7" />
    <symbol
       id="*MODEL_SPACE-6" />
    <pattern
       y="0"
       x="0"
       width="8"
       patternUnits="userSpaceOnUse"
       id="Hatch-2"
       height="8">
      <path
         id="path12-6"
         stroke-width="0.25"
         stroke="#000000"
         linecap="square"
         d="M8 4 l-4,4" />
      <path
         id="path14-9"
         stroke-width="0.25"
         stroke="#000000"
         linecap="square"
         d="M6 2 l-4,4" />
      <path
         id="path16-2"
         stroke-width="0.25"
         stroke="#000000"
         linecap="square"
         d="M4 0 l-4,4" />
    </pattern>
    <marker
       style="overflow:visible"
       refY="0"
       refX="0"
       orient="auto"
       id="DistanceX-6">
      <path
         inkscape:connector-curvature="0"
         id="path9-3"
         style="stroke:#000000;stroke-width:0.5"
         d="M 3,-3 -3,3 M 0,-5 0,5" />
    </marker>
  </defs>
  <g
     inkscape:groupmode="layer"
     id="layer1"
     inkscape:label="Capa">
    <rect
       style="fill:#ffffff;fill-opacity:1;stroke:#ffffff"
       id="rect3076"
       width="67.5"
       height="61"
       x="30"
       y="3" />
    <rect
       style="fill:#ffffff;fill-opacity:1;stroke:#ffffff"
       id="rect3078"
       width="71.5"
       height="19.125"
       x="28.5"
       y="70.5" />
  </g>
  <g
     inkscape:groupmode="layer"
     inkscape:label="0"
     id="g77"
     transform="translate(0.5,-924.86237)">
    <g
       id="g3090"
       transform="matrix(1.2725233,0,0,1.2725233,-17.289368,-280.66624)">
      <text
         id="text457"
         sodipodi:linespacing="125%"
         y="980.01648"
         x="45.834747"
         style="font-size:23.78117943px;line-height:125%;fill:#000000;stroke-width:2.5;stroke-linecap:round;stroke-linejoin:round;stroke-miterlimit:4;stroke-dasharray:none;font-family:Arial">
        <tspan
           y="980.01648"
           x="45.834747"
           id="tspan459"
           sodipodi:role="line">Bz</tspan>
      </text>
      <path
         inkscape:connector-curvature="0"
         id="path461"
         style="fill:none;stroke:#000000;stroke-width:2.08606839;stroke-linecap:round;stroke-linejoin:round;stroke-miterlimit:4;stroke-dasharray:none"
         d="m 35.561244,999.02301 55.877512,0 0,-50.70492 -55.877512,0 0,50.70492 z" />
      <path
         inkscape:connector-curvature="0"
         id="path463"
         style="fill:none;stroke:#000000;stroke-width:2.08606839;stroke-linecap:round;stroke-linejoin:round;stroke-miterlimit:4;stroke-dasharray:none"
         d="m 35.561244,1002.6975 55.877512,0 0,15.6237 -55.877512,0 0,-15.6237 z" />
      <path
         inkscape:connector-curvature="0"
         id="path465"
         style="fill:none;stroke:#000000;stroke-width:2.08606839;stroke-linecap:round;stroke-linejoin:round;stroke-miterlimit:4;stroke-dasharray:none"
         d="m 46.491316,1011.6735 0,24.1459 -19.453639,0" />
      <path
         inkscape:connector-curvature="0"
         id="path467"
         style="fill:none;stroke:#000000;stroke-width:2.08606839;stroke-linecap:round;stroke-linejoin:round;stroke-miterlimit:4;stroke-dasharray:none"
         d="m 27.037677,1035.8194 -7.494643,0" />
      <path
         inkscape:connector-curvature="0"
         id="path469"
         style="fill:none;stroke:#000000;stroke-width:2.08606839;stroke-linecap:round;stroke-linejoin:round;stroke-miterlimit:4;stroke-dasharray:none"
         d="m 80.508684,1011.6735 0,24.1459 19.45363,0" />
      <path
         inkscape:connector-curvature="0"
         id="path471"
         style="fill:none;stroke:#000000;stroke-width:2.08606839;stroke-linecap:round;stroke-linejoin:round;stroke-miterlimit:4;stroke-dasharray:none"
         d="m 99.962314,1035.8194 7.494656,0" />
      <rect
         rx="1"
         y="1010.8749"
         x="63.367409"
         height="37.048416"
         width="2.4973981"
         id="rect3303"
         style="fill:#000000;fill-opacity:1;stroke:#000000;stroke-width:0;stroke-linecap:round;stroke-linejoin:round;stroke-miterlimit:4;stroke-dasharray:none" />
    </g>
  </g>
</svg>
