<?xml version="1.0" encoding="UTF-8" standalone="no"?>
<svg
   xmlns:dc="http://purl.org/dc/elements/1.1/"
   xmlns:cc="http://creativecommons.org/ns#"
   xmlns:rdf="http://www.w3.org/1999/02/22-rdf-syntax-ns#"
   xmlns:svg="http://www.w3.org/2000/svg"
   xmlns="http://www.w3.org/2000/svg"
   xmlns:sodipodi="http://sodipodi.sourceforge.net/DTD/sodipodi-0.dtd"
   xmlns:inkscape="http://www.inkscape.org/namespaces/inkscape"
   width="128"
   height="128"
   id="svg2"
   version="1.1"
   inkscape:version="0.48.4 r9939"
   sodipodi:docname="descargadores_sobretension.svg">
  <metadata
     id="metadata649">
    <rdf:RDF>
      <cc:Work
         rdf:about="">
        <dc:format>image/svg+xml</dc:format>
        <dc:type
           rdf:resource="http://purl.org/dc/dcmitype/StillImage" />
        <dc:title />
      </cc:Work>
    </rdf:RDF>
  </metadata>
  <sodipodi:namedview
     pagecolor="#ffffff"
     bordercolor="#666666"
     borderopacity="1"
     objecttolerance="10"
     gridtolerance="10"
     guidetolerance="10"
     inkscape:pageopacity="0"
     inkscape:pageshadow="2"
     inkscape:window-width="1364"
     inkscape:window-height="718"
     id="namedview647"
     showgrid="true"
     fit-margin-top="0"
     fit-margin-left="0"
     fit-margin-right="0"
     fit-margin-bottom="0"
     inkscape:zoom="3.9999998"
     inkscape:cx="46.451544"
     inkscape:cy="51.20149"
     inkscape:window-x="0"
     inkscape:window-y="25"
     inkscape:window-maximized="1"
     inkscape:current-layer="g724"
     showguides="true"
     inkscape:guide-bbox="true">
    <inkscape:grid
       type="xygrid"
       id="grid3626"
       empspacing="5"
       visible="true"
       enabled="true"
       snapvisiblegridlinesonly="true" />
    <sodipodi:guide
       orientation="0,1"
       position="66,64"
       id="guide3080" />
    <sodipodi:guide
       orientation="1,0"
       position="66,64"
       id="guide3163" />
  </sodipodi:namedview>
  <desc
     id="desc4">/home/snappler/Escritorio/Simbolos-C DXF_2000.dxf - scale = 0.536199</desc>
  <defs
     id="defs6">
    <marker
       id="DistanceX"
       orient="auto"
       refX="0"
       refY="0"
       style="overflow:visible">
      <path
         d="M 3,-3 -3,3 M 0,-5 0,5"
         style="stroke:#000000;stroke-width:0.5"
         id="path9"
         inkscape:connector-curvature="0" />
    </marker>
    <pattern
       height="8"
       id="Hatch"
       patternUnits="userSpaceOnUse"
       width="8"
       x="0"
       y="0">
      <path
         d="M8 4 l-4,4"
         linecap="square"
         stroke="#000000"
         stroke-width="0.25"
         id="path12" />
      <path
         d="M6 2 l-4,4"
         linecap="square"
         stroke="#000000"
         stroke-width="0.25"
         id="path14" />
      <path
         d="M4 0 l-4,4"
         linecap="square"
         stroke="#000000"
         stroke-width="0.25"
         id="path16" />
    </pattern>
    <symbol
       id="*MODEL_SPACE" />
    <symbol
       id="*PAPER_SPACE" />
    <symbol
       id="POSTE-RD">
      <path
         d="m -10769658,11642373 7,0"
         style="fill:none;stroke:#000000"
         id="path21"
         inkscape:connector-curvature="0" />
      <path
         d="m -10769666,11642377 6,-8"
         style="fill:none;stroke:#000000"
         id="path23"
         inkscape:connector-curvature="0" />
      <path
         d="m -10769658,11642373 a 5,5 0 1 0 -10,0 5,5 0 1 0 10,0 z"
         style="fill:none;stroke:#000000"
         id="path25"
         inkscape:connector-curvature="0" />
      <path
         d="m -10769659,11642376 -8,-6"
         style="fill:none;stroke:#000000"
         id="path27"
         inkscape:connector-curvature="0" />
      <path
         d="m -10769645,11642373 -6,-2 0,4 z"
         style="fill:#000000"
         id="path29"
         inkscape:connector-curvature="0" />
    </symbol>
    <symbol
       id="POSTE-CP">
      <path
         d="m -10769658,11642373 a 5,5 0 1 0 -10,0 5,5 0 1 0 10,0 z"
         style="fill:none;stroke:#000000"
         id="path32"
         inkscape:connector-curvature="0" />
      <path
         d="m -10769666,11642377 6,-8"
         style="fill:none;stroke:#000000"
         id="path34"
         inkscape:connector-curvature="0" />
      <path
         d="m -10769648,11642370 0,6"
         style="fill:none;stroke:#000000"
         id="path36"
         inkscape:connector-curvature="0" />
      <path
         d="m -10769659,11642375 11,1"
         style="fill:none;stroke:#000000"
         id="path38"
         inkscape:connector-curvature="0" />
      <path
         d="m -10769659,11642371 11,-1"
         style="fill:none;stroke:#000000"
         id="path40"
         inkscape:connector-curvature="0" />
      <path
         d="m -10769659,11642376 -8,-6"
         style="fill:none;stroke:#000000"
         id="path42"
         inkscape:connector-curvature="0" />
    </symbol>
    <symbol
       id="POSTE-MA">
      <path
         d="m -10769658,11642373 a 5,5 0 1 0 -10,0 5,5 0 1 0 10,0 z"
         style="fill:none;stroke:#000000"
         id="path45"
         inkscape:connector-curvature="0" />
      <path
         d="m -10769659,11642376 -8,-6"
         style="fill:none;stroke:#000000"
         id="path47"
         inkscape:connector-curvature="0" />
      <path
         d="m -10769666,11642377 6,-8"
         style="fill:none;stroke:#000000"
         id="path49"
         inkscape:connector-curvature="0" />
    </symbol>
    <symbol
       id="POSTE-HA">
      <path
         d="m -10769656,11642373 a 7.21976,7.21976 0 1 0 -14,0 7.21976,7.21976 0 1 0 14,0 z"
         style="fill:none;stroke:#000000"
         id="path52"
         inkscape:connector-curvature="0" />
      <path
         d="m -10769663,11642366 0,14"
         style="fill:none;stroke:#000000"
         id="path54"
         inkscape:connector-curvature="0" />
      <path
         d="m -10769656,11642373 -7,-7 0,14 z"
         style="fill:#000000"
         id="path56"
         inkscape:connector-curvature="0" />
    </symbol>
    <symbol
       id="PAT">
      <path
         d="m -10769663,11642373 0,8"
         style="fill:none;stroke:#000000"
         id="path59"
         inkscape:connector-curvature="0" />
      <path
         d="m -10769663,11642381 5,0"
         style="fill:none;stroke:#000000"
         id="path61"
         inkscape:connector-curvature="0" />
      <path
         d="m -10769663,11642383 4,0"
         style="fill:none;stroke:#000000"
         id="path63"
         inkscape:connector-curvature="0" />
      <path
         d="m -10769663,11642384 3,0"
         style="fill:none;stroke:#000000"
         id="path65"
         inkscape:connector-curvature="0" />
      <path
         d="m -10769663,11642386 2,0"
         style="fill:none;stroke:#000000"
         id="path67"
         inkscape:connector-curvature="0" />
      <path
         d="m -10769663,11642381 -5,0"
         style="fill:none;stroke:#000000"
         id="path69"
         inkscape:connector-curvature="0" />
      <path
         d="m -10769663,11642386 -2,0"
         style="fill:none;stroke:#000000"
         id="path71"
         inkscape:connector-curvature="0" />
      <path
         d="m -10769663,11642384 -3,0"
         style="fill:none;stroke:#000000"
         id="path73"
         inkscape:connector-curvature="0" />
      <path
         d="m -10769663,11642383 -4,0"
         style="fill:none;stroke:#000000"
         id="path75"
         inkscape:connector-curvature="0" />
    </symbol>
    <symbol
       id="PAT-7">
      <path
         inkscape:connector-curvature="0"
         id="path59-5"
         style="fill:none;stroke:#000000"
         d="m -10769663,11642373 0,8" />
      <path
         inkscape:connector-curvature="0"
         id="path61-1"
         style="fill:none;stroke:#000000"
         d="m -10769663,11642381 5,0" />
      <path
         inkscape:connector-curvature="0"
         id="path63-1"
         style="fill:none;stroke:#000000"
         d="m -10769663,11642383 4,0" />
      <path
         inkscape:connector-curvature="0"
         id="path65-8"
         style="fill:none;stroke:#000000"
         d="m -10769663,11642384 3,0" />
      <path
         inkscape:connector-curvature="0"
         id="path67-9"
         style="fill:none;stroke:#000000"
         d="m -10769663,11642386 2,0" />
      <path
         inkscape:connector-curvature="0"
         id="path69-2"
         style="fill:none;stroke:#000000"
         d="m -10769663,11642381 -5,0" />
      <path
         inkscape:connector-curvature="0"
         id="path71-2"
         style="fill:none;stroke:#000000"
         d="m -10769663,11642386 -2,0" />
      <path
         inkscape:connector-curvature="0"
         id="path73-7"
         style="fill:none;stroke:#000000"
         d="m -10769663,11642384 -3,0" />
      <path
         inkscape:connector-curvature="0"
         id="path75-1"
         style="fill:none;stroke:#000000"
         d="m -10769663,11642383 -4,0" />
    </symbol>
    <symbol
       id="POSTE-HA-1">
      <path
         inkscape:connector-curvature="0"
         id="path52-0"
         style="fill:none;stroke:#000000"
         d="m -10769656,11642373 a 7.21976,7.21976 0 1 0 -14,0 7.21976,7.21976 0 1 0 14,0 z" />
      <path
         inkscape:connector-curvature="0"
         id="path54-7"
         style="fill:none;stroke:#000000"
         d="m -10769663,11642366 0,14" />
      <path
         inkscape:connector-curvature="0"
         id="path56-3"
         style="fill:#000000"
         d="m -10769656,11642373 -7,-7 0,14 z" />
    </symbol>
    <symbol
       id="POSTE-MA-4">
      <path
         inkscape:connector-curvature="0"
         id="path45-5"
         style="fill:none;stroke:#000000"
         d="m -10769658,11642373 a 5,5 0 1 0 -10,0 5,5 0 1 0 10,0 z" />
      <path
         inkscape:connector-curvature="0"
         id="path47-0"
         style="fill:none;stroke:#000000"
         d="m -10769659,11642376 -8,-6" />
      <path
         inkscape:connector-curvature="0"
         id="path49-2"
         style="fill:none;stroke:#000000"
         d="m -10769666,11642377 6,-8" />
    </symbol>
    <symbol
       id="POSTE-CP-6">
      <path
         inkscape:connector-curvature="0"
         id="path32-5"
         style="fill:none;stroke:#000000"
         d="m -10769658,11642373 a 5,5 0 1 0 -10,0 5,5 0 1 0 10,0 z" />
      <path
         inkscape:connector-curvature="0"
         id="path34-5"
         style="fill:none;stroke:#000000"
         d="m -10769666,11642377 6,-8" />
      <path
         inkscape:connector-curvature="0"
         id="path36-8"
         style="fill:none;stroke:#000000"
         d="m -10769648,11642370 0,6" />
      <path
         inkscape:connector-curvature="0"
         id="path38-8"
         style="fill:none;stroke:#000000"
         d="m -10769659,11642375 11,1" />
      <path
         inkscape:connector-curvature="0"
         id="path40-1"
         style="fill:none;stroke:#000000"
         d="m -10769659,11642371 11,-1" />
      <path
         inkscape:connector-curvature="0"
         id="path42-9"
         style="fill:none;stroke:#000000"
         d="m -10769659,11642376 -8,-6" />
    </symbol>
    <symbol
       id="POSTE-RD-3">
      <path
         inkscape:connector-curvature="0"
         id="path21-0"
         style="fill:none;stroke:#000000"
         d="m -10769658,11642373 7,0" />
      <path
         inkscape:connector-curvature="0"
         id="path23-4"
         style="fill:none;stroke:#000000"
         d="m -10769666,11642377 6,-8" />
      <path
         inkscape:connector-curvature="0"
         id="path25-2"
         style="fill:none;stroke:#000000"
         d="m -10769658,11642373 a 5,5 0 1 0 -10,0 5,5 0 1 0 10,0 z" />
      <path
         inkscape:connector-curvature="0"
         id="path27-5"
         style="fill:none;stroke:#000000"
         d="m -10769659,11642376 -8,-6" />
      <path
         inkscape:connector-curvature="0"
         id="path29-9"
         style="fill:#000000"
         d="m -10769645,11642373 -6,-2 0,4 z" />
    </symbol>
    <symbol
       id="*PAPER_SPACE-7" />
    <symbol
       id="*MODEL_SPACE-6" />
    <pattern
       y="0"
       x="0"
       width="8"
       patternUnits="userSpaceOnUse"
       id="Hatch-2"
       height="8">
      <path
         id="path12-6"
         stroke-width="0.25"
         stroke="#000000"
         linecap="square"
         d="M8 4 l-4,4" />
      <path
         id="path14-9"
         stroke-width="0.25"
         stroke="#000000"
         linecap="square"
         d="M6 2 l-4,4" />
      <path
         id="path16-2"
         stroke-width="0.25"
         stroke="#000000"
         linecap="square"
         d="M4 0 l-4,4" />
    </pattern>
    <marker
       style="overflow:visible"
       refY="0"
       refX="0"
       orient="auto"
       id="DistanceX-6">
      <path
         inkscape:connector-curvature="0"
         id="path9-3"
         style="stroke:#000000;stroke-width:0.5"
         d="M 3,-3 -3,3 M 0,-5 0,5" />
    </marker>
    <marker
       id="DistanceX-8"
       orient="auto"
       refX="0"
       refY="0"
       style="overflow:visible">
      <path
         d="M 3,-3 -3,3 M 0,-5 0,5"
         style="stroke:#000000;stroke-width:0.5"
         id="path9-9"
         inkscape:connector-curvature="0" />
    </marker>
    <pattern
       height="8"
       id="Hatch-7"
       patternUnits="userSpaceOnUse"
       width="8"
       x="0"
       y="0">
      <path
         d="M8 4 l-4,4"
         linecap="square"
         stroke="#000000"
         stroke-width="0.25"
         id="path12-3" />
      <path
         d="M6 2 l-4,4"
         linecap="square"
         stroke="#000000"
         stroke-width="0.25"
         id="path14-3" />
      <path
         d="M4 0 l-4,4"
         linecap="square"
         stroke="#000000"
         stroke-width="0.25"
         id="path16-7" />
    </pattern>
    <symbol
       id="*MODEL_SPACE-65" />
    <symbol
       id="*PAPER_SPACE-6" />
    <symbol
       id="POSTE-RD-7">
      <path
         d="m -10769658,11642373 7,0"
         style="fill:none;stroke:#000000"
         id="path21-5"
         inkscape:connector-curvature="0" />
      <path
         d="m -10769666,11642377 6,-8"
         style="fill:none;stroke:#000000"
         id="path23-6"
         inkscape:connector-curvature="0" />
      <path
         d="m -10769658,11642373 a 5,5 0 1 0 -10,0 5,5 0 1 0 10,0 z"
         style="fill:none;stroke:#000000"
         id="path25-5"
         inkscape:connector-curvature="0" />
      <path
         d="m -10769659,11642376 -8,-6"
         style="fill:none;stroke:#000000"
         id="path27-4"
         inkscape:connector-curvature="0" />
      <path
         d="m -10769645,11642373 -6,-2 0,4 z"
         style="fill:#000000"
         id="path29-1"
         inkscape:connector-curvature="0" />
    </symbol>
    <symbol
       id="POSTE-CP-4">
      <path
         d="m -10769658,11642373 a 5,5 0 1 0 -10,0 5,5 0 1 0 10,0 z"
         style="fill:none;stroke:#000000"
         id="path32-9"
         inkscape:connector-curvature="0" />
      <path
         d="m -10769666,11642377 6,-8"
         style="fill:none;stroke:#000000"
         id="path34-2"
         inkscape:connector-curvature="0" />
      <path
         d="m -10769648,11642370 0,6"
         style="fill:none;stroke:#000000"
         id="path36-6"
         inkscape:connector-curvature="0" />
      <path
         d="m -10769659,11642375 11,1"
         style="fill:none;stroke:#000000"
         id="path38-1"
         inkscape:connector-curvature="0" />
      <path
         d="m -10769659,11642371 11,-1"
         style="fill:none;stroke:#000000"
         id="path40-6"
         inkscape:connector-curvature="0" />
      <path
         d="m -10769659,11642376 -8,-6"
         style="fill:none;stroke:#000000"
         id="path42-8"
         inkscape:connector-curvature="0" />
    </symbol>
    <symbol
       id="POSTE-MA-5">
      <path
         d="m -10769658,11642373 a 5,5 0 1 0 -10,0 5,5 0 1 0 10,0 z"
         style="fill:none;stroke:#000000"
         id="path45-0"
         inkscape:connector-curvature="0" />
      <path
         d="m -10769659,11642376 -8,-6"
         style="fill:none;stroke:#000000"
         id="path47-8"
         inkscape:connector-curvature="0" />
      <path
         d="m -10769666,11642377 6,-8"
         style="fill:none;stroke:#000000"
         id="path49-7"
         inkscape:connector-curvature="0" />
    </symbol>
    <symbol
       id="POSTE-HA-4">
      <path
         d="m -10769656,11642373 a 7.21976,7.21976 0 1 0 -14,0 7.21976,7.21976 0 1 0 14,0 z"
         style="fill:none;stroke:#000000"
         id="path52-8"
         inkscape:connector-curvature="0" />
      <path
         d="m -10769663,11642366 0,14"
         style="fill:none;stroke:#000000"
         id="path54-3"
         inkscape:connector-curvature="0" />
      <path
         d="m -10769656,11642373 -7,-7 0,14 z"
         style="fill:#000000"
         id="path56-9"
         inkscape:connector-curvature="0" />
    </symbol>
    <symbol
       id="PAT-1">
      <path
         d="m -10769663,11642373 0,8"
         style="fill:none;stroke:#000000"
         id="path59-3"
         inkscape:connector-curvature="0" />
      <path
         d="m -10769663,11642381 5,0"
         style="fill:none;stroke:#000000"
         id="path61-0"
         inkscape:connector-curvature="0" />
      <path
         d="m -10769663,11642383 4,0"
         style="fill:none;stroke:#000000"
         id="path63-9"
         inkscape:connector-curvature="0" />
      <path
         d="m -10769663,11642384 3,0"
         style="fill:none;stroke:#000000"
         id="path65-6"
         inkscape:connector-curvature="0" />
      <path
         d="m -10769663,11642386 2,0"
         style="fill:none;stroke:#000000"
         id="path67-5"
         inkscape:connector-curvature="0" />
      <path
         d="m -10769663,11642381 -5,0"
         style="fill:none;stroke:#000000"
         id="path69-6"
         inkscape:connector-curvature="0" />
      <path
         d="m -10769663,11642386 -2,0"
         style="fill:none;stroke:#000000"
         id="path71-20"
         inkscape:connector-curvature="0" />
      <path
         d="m -10769663,11642384 -3,0"
         style="fill:none;stroke:#000000"
         id="path73-5"
         inkscape:connector-curvature="0" />
      <path
         d="m -10769663,11642383 -4,0"
         style="fill:none;stroke:#000000"
         id="path75-15"
         inkscape:connector-curvature="0" />
    </symbol>
    <symbol
       id="PAT-7-3">
      <path
         inkscape:connector-curvature="0"
         id="path59-5-6"
         style="fill:none;stroke:#000000"
         d="m -10769663,11642373 0,8" />
      <path
         inkscape:connector-curvature="0"
         id="path61-1-0"
         style="fill:none;stroke:#000000"
         d="m -10769663,11642381 5,0" />
      <path
         inkscape:connector-curvature="0"
         id="path63-1-5"
         style="fill:none;stroke:#000000"
         d="m -10769663,11642383 4,0" />
      <path
         inkscape:connector-curvature="0"
         id="path65-8-0"
         style="fill:none;stroke:#000000"
         d="m -10769663,11642384 3,0" />
      <path
         inkscape:connector-curvature="0"
         id="path67-9-9"
         style="fill:none;stroke:#000000"
         d="m -10769663,11642386 2,0" />
      <path
         inkscape:connector-curvature="0"
         id="path69-2-9"
         style="fill:none;stroke:#000000"
         d="m -10769663,11642381 -5,0" />
      <path
         inkscape:connector-curvature="0"
         id="path71-2-9"
         style="fill:none;stroke:#000000"
         d="m -10769663,11642386 -2,0" />
      <path
         inkscape:connector-curvature="0"
         id="path73-7-0"
         style="fill:none;stroke:#000000"
         d="m -10769663,11642384 -3,0" />
      <path
         inkscape:connector-curvature="0"
         id="path75-1-7"
         style="fill:none;stroke:#000000"
         d="m -10769663,11642383 -4,0" />
    </symbol>
    <symbol
       id="POSTE-HA-1-7">
      <path
         inkscape:connector-curvature="0"
         id="path52-0-7"
         style="fill:none;stroke:#000000"
         d="m -10769656,11642373 a 7.21976,7.21976 0 1 0 -14,0 7.21976,7.21976 0 1 0 14,0 z" />
      <path
         inkscape:connector-curvature="0"
         id="path54-7-8"
         style="fill:none;stroke:#000000"
         d="m -10769663,11642366 0,14" />
      <path
         inkscape:connector-curvature="0"
         id="path56-3-7"
         style="fill:#000000"
         d="m -10769656,11642373 -7,-7 0,14 z" />
    </symbol>
    <symbol
       id="POSTE-MA-4-7">
      <path
         inkscape:connector-curvature="0"
         id="path45-5-4"
         style="fill:none;stroke:#000000"
         d="m -10769658,11642373 a 5,5 0 1 0 -10,0 5,5 0 1 0 10,0 z" />
      <path
         inkscape:connector-curvature="0"
         id="path47-0-7"
         style="fill:none;stroke:#000000"
         d="m -10769659,11642376 -8,-6" />
      <path
         inkscape:connector-curvature="0"
         id="path49-2-0"
         style="fill:none;stroke:#000000"
         d="m -10769666,11642377 6,-8" />
    </symbol>
    <symbol
       id="POSTE-CP-6-3">
      <path
         inkscape:connector-curvature="0"
         id="path32-5-9"
         style="fill:none;stroke:#000000"
         d="m -10769658,11642373 a 5,5 0 1 0 -10,0 5,5 0 1 0 10,0 z" />
      <path
         inkscape:connector-curvature="0"
         id="path34-5-3"
         style="fill:none;stroke:#000000"
         d="m -10769666,11642377 6,-8" />
      <path
         inkscape:connector-curvature="0"
         id="path36-8-4"
         style="fill:none;stroke:#000000"
         d="m -10769648,11642370 0,6" />
      <path
         inkscape:connector-curvature="0"
         id="path38-8-8"
         style="fill:none;stroke:#000000"
         d="m -10769659,11642375 11,1" />
      <path
         inkscape:connector-curvature="0"
         id="path40-1-1"
         style="fill:none;stroke:#000000"
         d="m -10769659,11642371 11,-1" />
      <path
         inkscape:connector-curvature="0"
         id="path42-9-9"
         style="fill:none;stroke:#000000"
         d="m -10769659,11642376 -8,-6" />
    </symbol>
    <symbol
       id="POSTE-RD-3-6">
      <path
         inkscape:connector-curvature="0"
         id="path21-0-5"
         style="fill:none;stroke:#000000"
         d="m -10769658,11642373 7,0" />
      <path
         inkscape:connector-curvature="0"
         id="path23-4-0"
         style="fill:none;stroke:#000000"
         d="m -10769666,11642377 6,-8" />
      <path
         inkscape:connector-curvature="0"
         id="path25-2-3"
         style="fill:none;stroke:#000000"
         d="m -10769658,11642373 a 5,5 0 1 0 -10,0 5,5 0 1 0 10,0 z" />
      <path
         inkscape:connector-curvature="0"
         id="path27-5-6"
         style="fill:none;stroke:#000000"
         d="m -10769659,11642376 -8,-6" />
      <path
         inkscape:connector-curvature="0"
         id="path29-9-7"
         style="fill:#000000"
         d="m -10769645,11642373 -6,-2 0,4 z" />
    </symbol>
    <symbol
       id="*PAPER_SPACE-7-9" />
    <symbol
       id="*MODEL_SPACE-6-2" />
    <pattern
       y="0"
       x="0"
       width="8"
       patternUnits="userSpaceOnUse"
       id="Hatch-2-9"
       height="8">
      <path
         id="path12-6-4"
         stroke-width="0.25"
         stroke="#000000"
         linecap="square"
         d="M8 4 l-4,4" />
      <path
         id="path14-9-5"
         stroke-width="0.25"
         stroke="#000000"
         linecap="square"
         d="M6 2 l-4,4" />
      <path
         id="path16-2-1"
         stroke-width="0.25"
         stroke="#000000"
         linecap="square"
         d="M4 0 l-4,4" />
    </pattern>
    <marker
       style="overflow:visible"
       refY="0"
       refX="0"
       orient="auto"
       id="DistanceX-6-5">
      <path
         inkscape:connector-curvature="0"
         id="path9-3-4"
         style="stroke:#000000;stroke-width:0.5"
         d="M 3,-3 -3,3 M 0,-5 0,5" />
    </marker>
    <marker
       id="DistanceX-6-6"
       orient="auto"
       refX="0"
       refY="0"
       style="overflow:visible">
      <path
         d="M 3,-3 -3,3 M 0,-5 0,5"
         style="stroke:#000000;stroke-width:0.5"
         id="path9-3-1"
         inkscape:connector-curvature="0" />
    </marker>
    <pattern
       height="8"
       id="Hatch-2-2"
       patternUnits="userSpaceOnUse"
       width="8"
       x="0"
       y="0">
      <path
         d="M8 4 l-4,4"
         linecap="square"
         stroke="#000000"
         stroke-width="0.25"
         id="path12-6-8" />
      <path
         d="M6 2 l-4,4"
         linecap="square"
         stroke="#000000"
         stroke-width="0.25"
         id="path14-9-50" />
      <path
         d="M4 0 l-4,4"
         linecap="square"
         stroke="#000000"
         stroke-width="0.25"
         id="path16-2-8" />
    </pattern>
    <symbol
       id="*MODEL_SPACE-6-1" />
    <symbol
       id="*PAPER_SPACE-7-95" />
    <symbol
       id="POSTE-RD-3-2">
      <path
         d="m -10769658,11642373 7,0"
         style="fill:none;stroke:#000000"
         id="path21-0-55"
         inkscape:connector-curvature="0" />
      <path
         d="m -10769666,11642377 6,-8"
         style="fill:none;stroke:#000000"
         id="path23-4-08"
         inkscape:connector-curvature="0" />
      <path
         d="m -10769658,11642373 a 5,5 0 1 0 -10,0 5,5 0 1 0 10,0 z"
         style="fill:none;stroke:#000000"
         id="path25-2-8"
         inkscape:connector-curvature="0" />
      <path
         d="m -10769659,11642376 -8,-6"
         style="fill:none;stroke:#000000"
         id="path27-5-7"
         inkscape:connector-curvature="0" />
      <path
         d="m -10769645,11642373 -6,-2 0,4 z"
         style="fill:#000000"
         id="path29-9-9"
         inkscape:connector-curvature="0" />
    </symbol>
    <symbol
       id="POSTE-CP-6-35">
      <path
         d="m -10769658,11642373 a 5,5 0 1 0 -10,0 5,5 0 1 0 10,0 z"
         style="fill:none;stroke:#000000"
         id="path32-5-6"
         inkscape:connector-curvature="0" />
      <path
         d="m -10769666,11642377 6,-8"
         style="fill:none;stroke:#000000"
         id="path34-5-2"
         inkscape:connector-curvature="0" />
      <path
         d="m -10769648,11642370 0,6"
         style="fill:none;stroke:#000000"
         id="path36-8-3"
         inkscape:connector-curvature="0" />
      <path
         d="m -10769659,11642375 11,1"
         style="fill:none;stroke:#000000"
         id="path38-8-84"
         inkscape:connector-curvature="0" />
      <path
         d="m -10769659,11642371 11,-1"
         style="fill:none;stroke:#000000"
         id="path40-1-0"
         inkscape:connector-curvature="0" />
      <path
         d="m -10769659,11642376 -8,-6"
         style="fill:none;stroke:#000000"
         id="path42-9-4"
         inkscape:connector-curvature="0" />
    </symbol>
    <symbol
       id="POSTE-MA-4-5">
      <path
         d="m -10769658,11642373 a 5,5 0 1 0 -10,0 5,5 0 1 0 10,0 z"
         style="fill:none;stroke:#000000"
         id="path45-5-8"
         inkscape:connector-curvature="0" />
      <path
         d="m -10769659,11642376 -8,-6"
         style="fill:none;stroke:#000000"
         id="path47-0-9"
         inkscape:connector-curvature="0" />
      <path
         d="m -10769666,11642377 6,-8"
         style="fill:none;stroke:#000000"
         id="path49-2-8"
         inkscape:connector-curvature="0" />
    </symbol>
    <symbol
       id="POSTE-HA-1-6">
      <path
         d="m -10769656,11642373 a 7.21976,7.21976 0 1 0 -14,0 7.21976,7.21976 0 1 0 14,0 z"
         style="fill:none;stroke:#000000"
         id="path52-0-9"
         inkscape:connector-curvature="0" />
      <path
         d="m -10769663,11642366 0,14"
         style="fill:none;stroke:#000000"
         id="path54-7-9"
         inkscape:connector-curvature="0" />
      <path
         d="m -10769656,11642373 -7,-7 0,14 z"
         style="fill:#000000"
         id="path56-3-1"
         inkscape:connector-curvature="0" />
    </symbol>
    <symbol
       id="PAT-7-2">
      <path
         d="m -10769663,11642373 0,8"
         style="fill:none;stroke:#000000"
         id="path59-5-3"
         inkscape:connector-curvature="0" />
      <path
         d="m -10769663,11642381 5,0"
         style="fill:none;stroke:#000000"
         id="path61-1-4"
         inkscape:connector-curvature="0" />
      <path
         d="m -10769663,11642383 4,0"
         style="fill:none;stroke:#000000"
         id="path63-1-9"
         inkscape:connector-curvature="0" />
      <path
         d="m -10769663,11642384 3,0"
         style="fill:none;stroke:#000000"
         id="path65-8-1"
         inkscape:connector-curvature="0" />
      <path
         d="m -10769663,11642386 2,0"
         style="fill:none;stroke:#000000"
         id="path67-9-8"
         inkscape:connector-curvature="0" />
      <path
         d="m -10769663,11642381 -5,0"
         style="fill:none;stroke:#000000"
         id="path69-2-2"
         inkscape:connector-curvature="0" />
      <path
         d="m -10769663,11642386 -2,0"
         style="fill:none;stroke:#000000"
         id="path71-2-2"
         inkscape:connector-curvature="0" />
      <path
         d="m -10769663,11642384 -3,0"
         style="fill:none;stroke:#000000"
         id="path73-7-1"
         inkscape:connector-curvature="0" />
      <path
         d="m -10769663,11642383 -4,0"
         style="fill:none;stroke:#000000"
         id="path75-1-3"
         inkscape:connector-curvature="0" />
    </symbol>
    <symbol
       id="PAT-9">
      <path
         inkscape:connector-curvature="0"
         id="path59-8"
         style="fill:none;stroke:#000000"
         d="m -10769663,11642373 0,8" />
      <path
         inkscape:connector-curvature="0"
         id="path61-2"
         style="fill:none;stroke:#000000"
         d="m -10769663,11642381 5,0" />
      <path
         inkscape:connector-curvature="0"
         id="path63-2"
         style="fill:none;stroke:#000000"
         d="m -10769663,11642383 4,0" />
      <path
         inkscape:connector-curvature="0"
         id="path65-4"
         style="fill:none;stroke:#000000"
         d="m -10769663,11642384 3,0" />
      <path
         inkscape:connector-curvature="0"
         id="path67-6"
         style="fill:none;stroke:#000000"
         d="m -10769663,11642386 2,0" />
      <path
         inkscape:connector-curvature="0"
         id="path69-5"
         style="fill:none;stroke:#000000"
         d="m -10769663,11642381 -5,0" />
      <path
         inkscape:connector-curvature="0"
         id="path71-3"
         style="fill:none;stroke:#000000"
         d="m -10769663,11642386 -2,0" />
      <path
         inkscape:connector-curvature="0"
         id="path73-8"
         style="fill:none;stroke:#000000"
         d="m -10769663,11642384 -3,0" />
      <path
         inkscape:connector-curvature="0"
         id="path75-6"
         style="fill:none;stroke:#000000"
         d="m -10769663,11642383 -4,0" />
    </symbol>
    <symbol
       id="POSTE-HA-3">
      <path
         inkscape:connector-curvature="0"
         id="path52-2"
         style="fill:none;stroke:#000000"
         d="m -10769656,11642373 a 7.21976,7.21976 0 1 0 -14,0 7.21976,7.21976 0 1 0 14,0 z" />
      <path
         inkscape:connector-curvature="0"
         id="path54-6"
         style="fill:none;stroke:#000000"
         d="m -10769663,11642366 0,14" />
      <path
         inkscape:connector-curvature="0"
         id="path56-6"
         style="fill:#000000"
         d="m -10769656,11642373 -7,-7 0,14 z" />
    </symbol>
    <symbol
       id="POSTE-MA-8">
      <path
         inkscape:connector-curvature="0"
         id="path45-55"
         style="fill:none;stroke:#000000"
         d="m -10769658,11642373 a 5,5 0 1 0 -10,0 5,5 0 1 0 10,0 z" />
      <path
         inkscape:connector-curvature="0"
         id="path47-5"
         style="fill:none;stroke:#000000"
         d="m -10769659,11642376 -8,-6" />
      <path
         inkscape:connector-curvature="0"
         id="path49-76"
         style="fill:none;stroke:#000000"
         d="m -10769666,11642377 6,-8" />
    </symbol>
    <symbol
       id="POSTE-CP-7">
      <path
         inkscape:connector-curvature="0"
         id="path32-6"
         style="fill:none;stroke:#000000"
         d="m -10769658,11642373 a 5,5 0 1 0 -10,0 5,5 0 1 0 10,0 z" />
      <path
         inkscape:connector-curvature="0"
         id="path34-20"
         style="fill:none;stroke:#000000"
         d="m -10769666,11642377 6,-8" />
      <path
         inkscape:connector-curvature="0"
         id="path36-1"
         style="fill:none;stroke:#000000"
         d="m -10769648,11642370 0,6" />
      <path
         inkscape:connector-curvature="0"
         id="path38-0"
         style="fill:none;stroke:#000000"
         d="m -10769659,11642375 11,1" />
      <path
         inkscape:connector-curvature="0"
         id="path40-9"
         style="fill:none;stroke:#000000"
         d="m -10769659,11642371 11,-1" />
      <path
         inkscape:connector-curvature="0"
         id="path42-3"
         style="fill:none;stroke:#000000"
         d="m -10769659,11642376 -8,-6" />
    </symbol>
    <symbol
       id="POSTE-RD-37">
      <path
         inkscape:connector-curvature="0"
         id="path21-2"
         style="fill:none;stroke:#000000"
         d="m -10769658,11642373 7,0" />
      <path
         inkscape:connector-curvature="0"
         id="path23-9"
         style="fill:none;stroke:#000000"
         d="m -10769666,11642377 6,-8" />
      <path
         inkscape:connector-curvature="0"
         id="path25-7"
         style="fill:none;stroke:#000000"
         d="m -10769658,11642373 a 5,5 0 1 0 -10,0 5,5 0 1 0 10,0 z" />
      <path
         inkscape:connector-curvature="0"
         id="path27-2"
         style="fill:none;stroke:#000000"
         d="m -10769659,11642376 -8,-6" />
      <path
         inkscape:connector-curvature="0"
         id="path29-8"
         style="fill:#000000"
         d="m -10769645,11642373 -6,-2 0,4 z" />
    </symbol>
    <symbol
       id="*PAPER_SPACE-61" />
    <symbol
       id="*MODEL_SPACE-0" />
    <pattern
       y="0"
       x="0"
       width="8"
       patternUnits="userSpaceOnUse"
       id="Hatch-5"
       height="8">
      <path
         id="path12-37"
         stroke-width="0.25"
         stroke="#000000"
         linecap="square"
         d="M8 4 l-4,4" />
      <path
         id="path14-37"
         stroke-width="0.25"
         stroke="#000000"
         linecap="square"
         d="M6 2 l-4,4" />
      <path
         id="path16-26"
         stroke-width="0.25"
         stroke="#000000"
         linecap="square"
         d="M4 0 l-4,4" />
    </pattern>
    <marker
       style="overflow:visible"
       refY="0"
       refX="0"
       orient="auto"
       id="DistanceX-0">
      <path
         inkscape:connector-curvature="0"
         id="path9-1"
         style="stroke:#000000;stroke-width:0.5"
         d="M 3,-3 -3,3 M 0,-5 0,5" />
    </marker>
  </defs>
  <g
     inkscape:groupmode="layer"
     id="layer2"
     inkscape:label="Capa#1"
     style="display:inline" />
  <g
     inkscape:groupmode="layer"
     id="layer1"
     inkscape:label="Capa"
     style="display:inline">
    <g
       id="g3430"
       transform="matrix(0.85378231,0,0,0.85378231,9.639777,9.362178)">
      <rect
         ry="0"
         y="50"
         x="37"
         height="27"
         width="58"
         id="rect3211"
         style="fill:#ffffff;fill-opacity:1;stroke:#ffffff;display:inline" />
      <g
         transform="matrix(3.017258,0,0,-3.017258,36.237755,49.727235)"
         id="g712">
        <path
           id="path714"
           style="fill:#000000;fill-opacity:1;fill-rule:evenodd;stroke:none"
           d="m 0,0 0,-4.74 19.68,0"
           inkscape:connector-curvature="0" />
      </g>
      <g
         transform="matrix(3.017258,0,0,-3.017258,36.237755,64.029038)"
         id="g716">
        <path
           id="path718"
           style="fill:#000000;fill-opacity:1;fill-rule:evenodd;stroke:none"
           d="M 0,0 19.68,0 0,-4.74"
           inkscape:connector-curvature="0" />
      </g>
      <path
         inkscape:connector-curvature="0"
         d="m 95.617392,78.330841 -59.379637,0 0,-28.603606 59.379637,0 0,28.603606 z"
         style="fill:none;stroke:#000000;stroke-width:2.17242575;stroke-linecap:round;stroke-linejoin:round;stroke-miterlimit:10;stroke-opacity:1;stroke-dasharray:none"
         id="path722" />
    </g>
    <g
       id="g724"
       transform="matrix(3.3606646,0,0,-3.017258,39.864129,78.330841)">
      <g
         transform="matrix(1.102437,0,0,1,-11.280354,4.74)"
         id="g728">
        <path
           id="path730"
           style="fill:none;stroke:#000000;stroke-width:0.72000003;stroke-linecap:round;stroke-linejoin:round;stroke-miterlimit:10;stroke-opacity:1;stroke-dasharray:none"
           d="M 0,0 10.2,0"
           inkscape:connector-curvature="0" />
      </g>
    </g>
    <g
       id="g734"
       transform="matrix(3.3360194,0,0,-3.017258,126.45971,64.029038)">
      <path
         inkscape:connector-curvature="0"
         d="M 0,0 -10.26,0"
         style="fill:none;stroke:#000000;stroke-width:0.72000003;stroke-linecap:round;stroke-linejoin:round;stroke-miterlimit:10;stroke-opacity:1;stroke-dasharray:none"
         id="path736" />
    </g>
  </g>
</svg>
