<?xml version="1.0" encoding="UTF-8" standalone="no"?>
<svg
   xmlns:dc="http://purl.org/dc/elements/1.1/"
   xmlns:cc="http://creativecommons.org/ns#"
   xmlns:rdf="http://www.w3.org/1999/02/22-rdf-syntax-ns#"
   xmlns:svg="http://www.w3.org/2000/svg"
   xmlns="http://www.w3.org/2000/svg"
   xmlns:sodipodi="http://sodipodi.sourceforge.net/DTD/sodipodi-0.dtd"
   xmlns:inkscape="http://www.inkscape.org/namespaces/inkscape"
   width="128"
   height="128"
   id="svg2"
   version="1.1"
   inkscape:version="0.48.4 r9939"
   sodipodi:docname="retencion_madera.svg">
  <metadata
     id="metadata649">
    <rdf:RDF>
      <cc:Work
         rdf:about="">
        <dc:format>image/svg+xml</dc:format>
        <dc:type
           rdf:resource="http://purl.org/dc/dcmitype/StillImage" />
        <dc:title />
      </cc:Work>
    </rdf:RDF>
  </metadata>
  <sodipodi:namedview
     pagecolor="#ffffff"
     bordercolor="#666666"
     borderopacity="1"
     objecttolerance="10"
     gridtolerance="10"
     guidetolerance="10"
     inkscape:pageopacity="0"
     inkscape:pageshadow="2"
     inkscape:window-width="1364"
     inkscape:window-height="718"
     id="namedview647"
     showgrid="true"
     fit-margin-top="0"
     fit-margin-left="0"
     fit-margin-right="0"
     fit-margin-bottom="0"
     inkscape:zoom="5.07"
     inkscape:cx="40.678823"
     inkscape:cy="59.7237"
     inkscape:window-x="0"
     inkscape:window-y="0"
     inkscape:window-maximized="1"
     inkscape:current-layer="layer2"
     showguides="true"
     inkscape:guide-bbox="true">
    <inkscape:grid
       type="xygrid"
       id="grid3626"
       empspacing="5"
       visible="true"
       enabled="true"
       snapvisiblegridlinesonly="true" />
    <sodipodi:guide
       orientation="1,0"
       position="64,64"
       id="guide3318" />
    <sodipodi:guide
       orientation="0,1"
       position="65.620067,64"
       id="guide3320" />
    <sodipodi:guide
       orientation="1,0"
       position="46,56"
       id="guide5126" />
    <sodipodi:guide
       orientation="0,1"
       position="64,83"
       id="guide5130" />
    <sodipodi:guide
       orientation="1,0"
       position="83,56"
       id="guide5139" />
    <sodipodi:guide
       orientation="0,1"
       position="73,45"
       id="guide5141" />
  </sodipodi:namedview>
  <desc
     id="desc4">/home/snappler/Escritorio/Simbolos-C DXF_2000.dxf - scale = 0.536199</desc>
  <defs
     id="defs6">
    <marker
       id="DistanceX"
       orient="auto"
       refX="0"
       refY="0"
       style="overflow:visible">
      <path
         d="M 3,-3 -3,3 M 0,-5 0,5"
         style="stroke:#000000;stroke-width:0.5"
         id="path9"
         inkscape:connector-curvature="0" />
    </marker>
    <pattern
       height="8"
       id="Hatch"
       patternUnits="userSpaceOnUse"
       width="8"
       x="0"
       y="0">
      <path
         d="M8 4 l-4,4"
         linecap="square"
         stroke="#000000"
         stroke-width="0.25"
         id="path12" />
      <path
         d="M6 2 l-4,4"
         linecap="square"
         stroke="#000000"
         stroke-width="0.25"
         id="path14" />
      <path
         d="M4 0 l-4,4"
         linecap="square"
         stroke="#000000"
         stroke-width="0.25"
         id="path16" />
    </pattern>
    <symbol
       id="*MODEL_SPACE" />
    <symbol
       id="*PAPER_SPACE" />
    <symbol
       id="POSTE-RD">
      <path
         d="m -10769658,11642373 7,0"
         style="fill:none;stroke:#000000"
         id="path21"
         inkscape:connector-curvature="0" />
      <path
         d="m -10769666,11642377 6,-8"
         style="fill:none;stroke:#000000"
         id="path23"
         inkscape:connector-curvature="0" />
      <path
         d="m -10769658,11642373 a 5,5 0 1 0 -10,0 5,5 0 1 0 10,0 z"
         style="fill:none;stroke:#000000"
         id="path25"
         inkscape:connector-curvature="0" />
      <path
         d="m -10769659,11642376 -8,-6"
         style="fill:none;stroke:#000000"
         id="path27"
         inkscape:connector-curvature="0" />
      <path
         d="m -10769645,11642373 -6,-2 0,4 z"
         style="fill:#000000"
         id="path29"
         inkscape:connector-curvature="0" />
    </symbol>
    <symbol
       id="POSTE-CP">
      <path
         d="m -10769658,11642373 a 5,5 0 1 0 -10,0 5,5 0 1 0 10,0 z"
         style="fill:none;stroke:#000000"
         id="path32"
         inkscape:connector-curvature="0" />
      <path
         d="m -10769666,11642377 6,-8"
         style="fill:none;stroke:#000000"
         id="path34"
         inkscape:connector-curvature="0" />
      <path
         d="m -10769648,11642370 0,6"
         style="fill:none;stroke:#000000"
         id="path36"
         inkscape:connector-curvature="0" />
      <path
         d="m -10769659,11642375 11,1"
         style="fill:none;stroke:#000000"
         id="path38"
         inkscape:connector-curvature="0" />
      <path
         d="m -10769659,11642371 11,-1"
         style="fill:none;stroke:#000000"
         id="path40"
         inkscape:connector-curvature="0" />
      <path
         d="m -10769659,11642376 -8,-6"
         style="fill:none;stroke:#000000"
         id="path42"
         inkscape:connector-curvature="0" />
    </symbol>
    <symbol
       id="POSTE-MA">
      <path
         d="m -10769658,11642373 a 5,5 0 1 0 -10,0 5,5 0 1 0 10,0 z"
         style="fill:none;stroke:#000000"
         id="path45"
         inkscape:connector-curvature="0" />
      <path
         d="m -10769659,11642376 -8,-6"
         style="fill:none;stroke:#000000"
         id="path47"
         inkscape:connector-curvature="0" />
      <path
         d="m -10769666,11642377 6,-8"
         style="fill:none;stroke:#000000"
         id="path49"
         inkscape:connector-curvature="0" />
    </symbol>
    <symbol
       id="POSTE-HA">
      <path
         d="m -10769656,11642373 a 7.21976,7.21976 0 1 0 -14,0 7.21976,7.21976 0 1 0 14,0 z"
         style="fill:none;stroke:#000000"
         id="path52"
         inkscape:connector-curvature="0" />
      <path
         d="m -10769663,11642366 0,14"
         style="fill:none;stroke:#000000"
         id="path54"
         inkscape:connector-curvature="0" />
      <path
         d="m -10769656,11642373 -7,-7 0,14 z"
         style="fill:#000000"
         id="path56"
         inkscape:connector-curvature="0" />
    </symbol>
    <symbol
       id="PAT">
      <path
         d="m -10769663,11642373 0,8"
         style="fill:none;stroke:#000000"
         id="path59"
         inkscape:connector-curvature="0" />
      <path
         d="m -10769663,11642381 5,0"
         style="fill:none;stroke:#000000"
         id="path61"
         inkscape:connector-curvature="0" />
      <path
         d="m -10769663,11642383 4,0"
         style="fill:none;stroke:#000000"
         id="path63"
         inkscape:connector-curvature="0" />
      <path
         d="m -10769663,11642384 3,0"
         style="fill:none;stroke:#000000"
         id="path65"
         inkscape:connector-curvature="0" />
      <path
         d="m -10769663,11642386 2,0"
         style="fill:none;stroke:#000000"
         id="path67"
         inkscape:connector-curvature="0" />
      <path
         d="m -10769663,11642381 -5,0"
         style="fill:none;stroke:#000000"
         id="path69"
         inkscape:connector-curvature="0" />
      <path
         d="m -10769663,11642386 -2,0"
         style="fill:none;stroke:#000000"
         id="path71"
         inkscape:connector-curvature="0" />
      <path
         d="m -10769663,11642384 -3,0"
         style="fill:none;stroke:#000000"
         id="path73"
         inkscape:connector-curvature="0" />
      <path
         d="m -10769663,11642383 -4,0"
         style="fill:none;stroke:#000000"
         id="path75"
         inkscape:connector-curvature="0" />
    </symbol>
  </defs>
  <g
     inkscape:groupmode="layer"
     id="layer2"
     inkscape:label="Capa#1">
    <path
       sodipodi:type="arc"
       style="fill:#ffffff;fill-opacity:1;stroke:#ffffff"
       id="path5145"
       sodipodi:cx="64.5"
       sodipodi:cy="63.5"
       sodipodi:rx="18.5"
       sodipodi:ry="18.5"
       d="m 83,63.5 a 18.5,18.5 0 1 1 -37,0 18.5,18.5 0 1 1 37,0 z"
       transform="matrix(0.97103481,0,0,1.0030194,1.9175613,0.25204837)" />
  </g>
  <g
     inkscape:groupmode="layer"
     id="layer5"
     inkscape:label="a"
     style="opacity:0.95999995;display:inline">
    <g
       style="display:inline;fill:none;fill-opacity:1"
       id="g432"
       transform="matrix(3.5685593,0,0,-3.6108126,81.922629,-140.71463)">
      <g
         id="g436"
         transform="translate(-1.32,-3.36)"
         style="fill:none;fill-opacity:1">
        <g
           id="g440"
           transform="translate(-6.96,-0.24)"
           style="fill:none;fill-opacity:1">
          <g
             id="g444"
             transform="translate(-1.5,-53.1)"
             style="fill:none;fill-opacity:1">
            <path
               inkscape:connector-curvature="0"
               d="M 0,0 -7.26,0"
               style="fill:none;stroke:#000000;stroke-width:0.72000003000000001;stroke-linecap:round;stroke-linejoin:round;stroke-miterlimit:10;stroke-opacity:1;stroke-dasharray:none;fill-opacity:1"
               id="path446" />
            <g
               id="g448"
               transform="translate(8.22,3.6)"
               style="fill:none;fill-opacity:1">
              <path
                 inkscape:connector-curvature="0"
                 d="M 0,0 -6.72,-7.2"
                 style="fill:none;stroke:#000000;stroke-width:0.72000003000000001;stroke-linecap:round;stroke-linejoin:round;stroke-miterlimit:10;stroke-opacity:1;stroke-dasharray:none;fill-opacity:1"
                 id="path450" />
              <g
                 id="g452"
                 transform="translate(-8.22,-3.6)"
                 style="fill:none;fill-opacity:1">
                <path
                   inkscape:connector-curvature="0"
                   d="M 0,0 0.12,-1.08 0.48,-2.16 1.02,-3.06 1.8,-3.84 2.76,-4.44 3.78,-4.8 4.86,-4.92 6,-4.8 l 1.02,0.36 0.96,0.6 0.72,0.78 0.6,0.9 0.36,1.08 L 9.78,0 9.66,1.08 9.3,2.16 8.7,3.06 7.98,3.84 7.02,4.44 6,4.8 4.86,4.92 3.78,4.8 2.76,4.44 1.8,3.84 1.02,3.06 0.48,2.16 0.12,1.08 0,0 z"
                   style="fill:none;stroke:#000000;stroke-width:0.72000003000000001;stroke-linecap:round;stroke-linejoin:round;stroke-miterlimit:10;stroke-opacity:1;stroke-dasharray:none;fill-opacity:1"
                   id="path454" />
                <g
                   id="g456"
                   transform="translate(1.32,3.36)"
                   style="fill:none;fill-opacity:1">
                  <path
                     inkscape:connector-curvature="0"
                     d="M 0,0 7.14,-6.72"
                     style="fill:none;stroke:#000000;stroke-width:0.72000003000000001;stroke-linecap:round;stroke-linejoin:round;stroke-miterlimit:10;stroke-opacity:1;stroke-dasharray:none;fill-opacity:1"
                     id="path458" />
                </g>
              </g>
            </g>
          </g>
        </g>
      </g>
    </g>
    <g
       style="display:inline"
       id="g460"
       transform="matrix(3.5685593,0,0,-3.6108126,21.11438,69.651309)">
      <path
         inkscape:connector-curvature="0"
         d="m 0,0 0,1.56 -5.94,0"
         style="fill:#000000;fill-opacity:1;fill-rule:evenodd;stroke:none"
         id="path462" />
    </g>
    <g
       style="display:inline"
       id="g464"
       transform="matrix(3.5685593,0,0,-3.6108126,21.11438,64.018441)">
      <path
         inkscape:connector-curvature="0"
         d="M 0,0 -5.94,0 0,1.56"
         style="fill:#000000;fill-opacity:1;fill-rule:evenodd;stroke:none"
         id="path466" />
    </g>
    <g
       style="display:inline"
       transform="matrix(3.5685593,0,0,-3.6108126,21.11438,69.651309)"
       id="g9133">
      <path
         inkscape:connector-curvature="0"
         id="path9135"
         style="fill:#000000;fill-opacity:1;fill-rule:evenodd;stroke:none"
         d="m 0,0 0,1.56 -5.94,0" />
    </g>
    <g
       style="display:inline"
       transform="matrix(3.5685593,0,0,-3.6108126,21.11438,64.018441)"
       id="g9137">
      <path
         inkscape:connector-curvature="0"
         id="path9139"
         style="fill:#000000;fill-opacity:1;fill-rule:evenodd;stroke:none"
         d="M 0,0 -5.94,0 0,1.56" />
    </g>
  </g>
</svg>
