<?xml version="1.0" encoding="UTF-8" standalone="no"?>
<svg
   xmlns:dc="http://purl.org/dc/elements/1.1/"
   xmlns:cc="http://creativecommons.org/ns#"
   xmlns:rdf="http://www.w3.org/1999/02/22-rdf-syntax-ns#"
   xmlns:svg="http://www.w3.org/2000/svg"
   xmlns="http://www.w3.org/2000/svg"
   xmlns:xlink="http://www.w3.org/1999/xlink"
   xmlns:sodipodi="http://sodipodi.sourceforge.net/DTD/sodipodi-0.dtd"
   xmlns:inkscape="http://www.inkscape.org/namespaces/inkscape"
   width="64"
   height="128"
   id="svg2"
   version="1.1"
   inkscape:version="0.48.4 r9939"
   sodipodi:docname="retencion_monoposte_hormigon_menu_1.svg">
  <metadata
     id="metadata649">
    <rdf:RDF>
      <cc:Work
         rdf:about="">
        <dc:format>image/svg+xml</dc:format>
        <dc:type
           rdf:resource="http://purl.org/dc/dcmitype/StillImage" />
        <dc:title />
      </cc:Work>
    </rdf:RDF>
  </metadata>
  <sodipodi:namedview
     pagecolor="#ffffff"
     bordercolor="#666666"
     borderopacity="1"
     objecttolerance="10"
     gridtolerance="10"
     guidetolerance="10"
     inkscape:pageopacity="0"
     inkscape:pageshadow="2"
     inkscape:window-width="1364"
     inkscape:window-height="718"
     id="namedview647"
     showgrid="true"
     fit-margin-top="0"
     fit-margin-left="0"
     fit-margin-right="0"
     fit-margin-bottom="0"
     inkscape:zoom="14.340126"
     inkscape:cx="20.200515"
     inkscape:cy="66.226874"
     inkscape:window-x="0"
     inkscape:window-y="25"
     inkscape:window-maximized="1"
     inkscape:current-layer="layer2"
     showguides="true"
     inkscape:guide-bbox="true">
    <inkscape:grid
       type="xygrid"
       id="grid3626"
       empspacing="5"
       visible="true"
       enabled="true"
       snapvisiblegridlinesonly="true" />
    <sodipodi:guide
       orientation="0,1"
       position="64.497042,64"
       id="guide3070" />
    <sodipodi:guide
       orientation="1,0"
       position="64,61.587771"
       id="guide3072" />
    <sodipodi:guide
       orientation="1,0"
       position="32,81"
       id="guide3073" />
  </sodipodi:namedview>
  <desc
     id="desc4">/home/snappler/Escritorio/Simbolos-C DXF_2000.dxf - scale = 0.536199</desc>
  <defs
     id="defs6">
    <marker
       id="DistanceX"
       orient="auto"
       refX="0"
       refY="0"
       style="overflow:visible">
      <path
         d="M 3,-3 -3,3 M 0,-5 0,5"
         style="stroke:#000000;stroke-width:0.5"
         id="path9"
         inkscape:connector-curvature="0" />
    </marker>
    <pattern
       height="8"
       id="Hatch"
       patternUnits="userSpaceOnUse"
       width="8"
       x="0"
       y="0">
      <path
         d="M8 4 l-4,4"
         linecap="square"
         stroke="#000000"
         stroke-width="0.25"
         id="path12" />
      <path
         d="M6 2 l-4,4"
         linecap="square"
         stroke="#000000"
         stroke-width="0.25"
         id="path14" />
      <path
         d="M4 0 l-4,4"
         linecap="square"
         stroke="#000000"
         stroke-width="0.25"
         id="path16" />
    </pattern>
    <symbol
       id="*MODEL_SPACE" />
    <symbol
       id="*PAPER_SPACE" />
    <symbol
       id="POSTE-RD">
      <path
         d="m -10769658,11642373 7,0"
         style="fill:none;stroke:#000000"
         id="path21"
         inkscape:connector-curvature="0" />
      <path
         d="m -10769666,11642377 6,-8"
         style="fill:none;stroke:#000000"
         id="path23"
         inkscape:connector-curvature="0" />
      <path
         d="m -10769658,11642373 a 5,5 0 1 0 -10,0 5,5 0 1 0 10,0 z"
         style="fill:none;stroke:#000000"
         id="path25"
         inkscape:connector-curvature="0" />
      <path
         d="m -10769659,11642376 -8,-6"
         style="fill:none;stroke:#000000"
         id="path27"
         inkscape:connector-curvature="0" />
      <path
         d="m -10769645,11642373 -6,-2 0,4 z"
         style="fill:#000000"
         id="path29"
         inkscape:connector-curvature="0" />
    </symbol>
    <symbol
       id="POSTE-CP">
      <path
         d="m -10769658,11642373 a 5,5 0 1 0 -10,0 5,5 0 1 0 10,0 z"
         style="fill:none;stroke:#000000"
         id="path32"
         inkscape:connector-curvature="0" />
      <path
         d="m -10769666,11642377 6,-8"
         style="fill:none;stroke:#000000"
         id="path34"
         inkscape:connector-curvature="0" />
      <path
         d="m -10769648,11642370 0,6"
         style="fill:none;stroke:#000000"
         id="path36"
         inkscape:connector-curvature="0" />
      <path
         d="m -10769659,11642375 11,1"
         style="fill:none;stroke:#000000"
         id="path38"
         inkscape:connector-curvature="0" />
      <path
         d="m -10769659,11642371 11,-1"
         style="fill:none;stroke:#000000"
         id="path40"
         inkscape:connector-curvature="0" />
      <path
         d="m -10769659,11642376 -8,-6"
         style="fill:none;stroke:#000000"
         id="path42"
         inkscape:connector-curvature="0" />
    </symbol>
    <symbol
       id="POSTE-MA">
      <path
         d="m -10769658,11642373 a 5,5 0 1 0 -10,0 5,5 0 1 0 10,0 z"
         style="fill:none;stroke:#000000"
         id="path45"
         inkscape:connector-curvature="0" />
      <path
         d="m -10769659,11642376 -8,-6"
         style="fill:none;stroke:#000000"
         id="path47"
         inkscape:connector-curvature="0" />
      <path
         d="m -10769666,11642377 6,-8"
         style="fill:none;stroke:#000000"
         id="path49"
         inkscape:connector-curvature="0" />
    </symbol>
    <symbol
       id="POSTE-HA">
      <path
         d="m -10769656,11642373 a 7.21976,7.21976 0 1 0 -14,0 7.21976,7.21976 0 1 0 14,0 z"
         style="fill:none;stroke:#000000"
         id="path52"
         inkscape:connector-curvature="0" />
      <path
         d="m -10769663,11642366 0,14"
         style="fill:none;stroke:#000000"
         id="path54"
         inkscape:connector-curvature="0" />
      <path
         d="m -10769656,11642373 -7,-7 0,14 z"
         style="fill:#000000"
         id="path56"
         inkscape:connector-curvature="0" />
    </symbol>
    <symbol
       id="PAT">
      <path
         d="m -10769663,11642373 0,8"
         style="fill:none;stroke:#000000"
         id="path59"
         inkscape:connector-curvature="0" />
      <path
         d="m -10769663,11642381 5,0"
         style="fill:none;stroke:#000000"
         id="path61"
         inkscape:connector-curvature="0" />
      <path
         d="m -10769663,11642383 4,0"
         style="fill:none;stroke:#000000"
         id="path63"
         inkscape:connector-curvature="0" />
      <path
         d="m -10769663,11642384 3,0"
         style="fill:none;stroke:#000000"
         id="path65"
         inkscape:connector-curvature="0" />
      <path
         d="m -10769663,11642386 2,0"
         style="fill:none;stroke:#000000"
         id="path67"
         inkscape:connector-curvature="0" />
      <path
         d="m -10769663,11642381 -5,0"
         style="fill:none;stroke:#000000"
         id="path69"
         inkscape:connector-curvature="0" />
      <path
         d="m -10769663,11642386 -2,0"
         style="fill:none;stroke:#000000"
         id="path71"
         inkscape:connector-curvature="0" />
      <path
         d="m -10769663,11642384 -3,0"
         style="fill:none;stroke:#000000"
         id="path73"
         inkscape:connector-curvature="0" />
      <path
         d="m -10769663,11642383 -4,0"
         style="fill:none;stroke:#000000"
         id="path75"
         inkscape:connector-curvature="0" />
    </symbol>
    <symbol
       id="PAT-7">
      <path
         inkscape:connector-curvature="0"
         id="path59-5"
         style="fill:none;stroke:#000000"
         d="m -10769663,11642373 0,8" />
      <path
         inkscape:connector-curvature="0"
         id="path61-1"
         style="fill:none;stroke:#000000"
         d="m -10769663,11642381 5,0" />
      <path
         inkscape:connector-curvature="0"
         id="path63-1"
         style="fill:none;stroke:#000000"
         d="m -10769663,11642383 4,0" />
      <path
         inkscape:connector-curvature="0"
         id="path65-8"
         style="fill:none;stroke:#000000"
         d="m -10769663,11642384 3,0" />
      <path
         inkscape:connector-curvature="0"
         id="path67-9"
         style="fill:none;stroke:#000000"
         d="m -10769663,11642386 2,0" />
      <path
         inkscape:connector-curvature="0"
         id="path69-2"
         style="fill:none;stroke:#000000"
         d="m -10769663,11642381 -5,0" />
      <path
         inkscape:connector-curvature="0"
         id="path71-2"
         style="fill:none;stroke:#000000"
         d="m -10769663,11642386 -2,0" />
      <path
         inkscape:connector-curvature="0"
         id="path73-7"
         style="fill:none;stroke:#000000"
         d="m -10769663,11642384 -3,0" />
      <path
         inkscape:connector-curvature="0"
         id="path75-1"
         style="fill:none;stroke:#000000"
         d="m -10769663,11642383 -4,0" />
    </symbol>
    <symbol
       id="POSTE-HA-1">
      <path
         inkscape:connector-curvature="0"
         id="path52-0"
         style="fill:none;stroke:#000000"
         d="m -10769656,11642373 a 7.21976,7.21976 0 1 0 -14,0 7.21976,7.21976 0 1 0 14,0 z" />
      <path
         inkscape:connector-curvature="0"
         id="path54-7"
         style="fill:none;stroke:#000000"
         d="m -10769663,11642366 0,14" />
      <path
         inkscape:connector-curvature="0"
         id="path56-3"
         style="fill:#000000"
         d="m -10769656,11642373 -7,-7 0,14 z" />
    </symbol>
    <symbol
       id="POSTE-MA-4">
      <path
         inkscape:connector-curvature="0"
         id="path45-5"
         style="fill:none;stroke:#000000"
         d="m -10769658,11642373 a 5,5 0 1 0 -10,0 5,5 0 1 0 10,0 z" />
      <path
         inkscape:connector-curvature="0"
         id="path47-0"
         style="fill:none;stroke:#000000"
         d="m -10769659,11642376 -8,-6" />
      <path
         inkscape:connector-curvature="0"
         id="path49-2"
         style="fill:none;stroke:#000000"
         d="m -10769666,11642377 6,-8" />
    </symbol>
    <symbol
       id="POSTE-CP-6">
      <path
         inkscape:connector-curvature="0"
         id="path32-5"
         style="fill:none;stroke:#000000"
         d="m -10769658,11642373 a 5,5 0 1 0 -10,0 5,5 0 1 0 10,0 z" />
      <path
         inkscape:connector-curvature="0"
         id="path34-5"
         style="fill:none;stroke:#000000"
         d="m -10769666,11642377 6,-8" />
      <path
         inkscape:connector-curvature="0"
         id="path36-8"
         style="fill:none;stroke:#000000"
         d="m -10769648,11642370 0,6" />
      <path
         inkscape:connector-curvature="0"
         id="path38-8"
         style="fill:none;stroke:#000000"
         d="m -10769659,11642375 11,1" />
      <path
         inkscape:connector-curvature="0"
         id="path40-1"
         style="fill:none;stroke:#000000"
         d="m -10769659,11642371 11,-1" />
      <path
         inkscape:connector-curvature="0"
         id="path42-9"
         style="fill:none;stroke:#000000"
         d="m -10769659,11642376 -8,-6" />
    </symbol>
    <symbol
       id="POSTE-RD-3">
      <path
         inkscape:connector-curvature="0"
         id="path21-0"
         style="fill:none;stroke:#000000"
         d="m -10769658,11642373 7,0" />
      <path
         inkscape:connector-curvature="0"
         id="path23-4"
         style="fill:none;stroke:#000000"
         d="m -10769666,11642377 6,-8" />
      <path
         inkscape:connector-curvature="0"
         id="path25-2"
         style="fill:none;stroke:#000000"
         d="m -10769658,11642373 a 5,5 0 1 0 -10,0 5,5 0 1 0 10,0 z" />
      <path
         inkscape:connector-curvature="0"
         id="path27-5"
         style="fill:none;stroke:#000000"
         d="m -10769659,11642376 -8,-6" />
      <path
         inkscape:connector-curvature="0"
         id="path29-9"
         style="fill:#000000"
         d="m -10769645,11642373 -6,-2 0,4 z" />
    </symbol>
    <symbol
       id="*PAPER_SPACE-7" />
    <symbol
       id="*MODEL_SPACE-6" />
    <pattern
       y="0"
       x="0"
       width="8"
       patternUnits="userSpaceOnUse"
       id="Hatch-2"
       height="8">
      <path
         id="path12-6"
         stroke-width="0.25"
         stroke="#000000"
         linecap="square"
         d="M8 4 l-4,4" />
      <path
         id="path14-9"
         stroke-width="0.25"
         stroke="#000000"
         linecap="square"
         d="M6 2 l-4,4" />
      <path
         id="path16-2"
         stroke-width="0.25"
         stroke="#000000"
         linecap="square"
         d="M4 0 l-4,4" />
    </pattern>
    <marker
       style="overflow:visible"
       refY="0"
       refX="0"
       orient="auto"
       id="DistanceX-6">
      <path
         inkscape:connector-curvature="0"
         id="path9-3"
         style="stroke:#000000;stroke-width:0.5"
         d="M 3,-3 -3,3 M 0,-5 0,5" />
    </marker>
  </defs>
  <g
     inkscape:groupmode="layer"
     inkscape:label="0"
     id="g77"
     transform="translate(0.5,-924.86237)"
     style="display:none">
    <use
       x="10769780"
       y="-11642461"
       xlink:href="#POSTE-HA"
       id="use391"
       width="744.09448"
       height="1052.3622"
       transform="matrix(1.8890736,0,0,1.8890736,-160.52161,1151.7614)"
       style="stroke-width:2.5;stroke-miterlimit:4;stroke-dasharray:none" />
  </g>
  <g
     inkscape:groupmode="layer"
     id="layer2"
     inkscape:label="a">
    <g
       style="display:inline"
       id="g3074"
       transform="matrix(1.1340066,0,0,1.1340066,-36.368716,-7.0555793)">
      <g
         transform="matrix(1.0422077,0,0,1.0422077,-2.2380763,2.1901664)"
         id="g3120">
        <path
           inkscape:connector-curvature="0"
           style="fill:none;stroke:#000000;stroke-width:2.08599997;stroke-linecap:round;stroke-linejoin:round;stroke-miterlimit:4;stroke-dasharray:none;stroke-dashoffset:0"
           d="m 60,43 c -8.284271,0 -15,6.715729 -15,15 0,8.284271 6.715729,15 15,15 l 0,-30 z"
           id="path5334" />
        <path
           inkscape:connector-curvature="0"
           style="fill:none;stroke:#000000;stroke-width:2.08599997;stroke-linecap:round;stroke-linejoin:round;stroke-miterlimit:4;stroke-dasharray:none;stroke-dashoffset:0"
           d="m 60,43 0,30 C 68.284271,73 75,66.284271 75,58 75,49.715729 68.284271,43 60,43 z"
           id="path5307" />
        <path
           style="fill:#000000;fill-opacity:1;stroke:#000000;stroke-width:0.26075;stroke-linecap:round;stroke-linejoin:round;stroke-miterlimit:4;stroke-dasharray:none;stroke-dashoffset:0"
           d="m 61.102106,58.010413 0,-13.878273 0.59375,0.07684 c 2.139069,0.27684 4.897958,1.39634 6.568562,2.665387 2.606397,1.979907 4.319319,4.535531 5.185238,7.736205 0.29279,1.082233 0.325808,1.425976 0.325808,3.391782 0,1.965806 -0.03302,2.309548 -0.325808,3.391781 -1.049507,3.87927 -3.490083,6.999325 -6.879645,8.795005 -1.672924,0.886261 -2.725238,1.227012 -4.999155,1.618781 l -0.46875,0.08076 0,-13.878273 z"
           id="path5336"
           inkscape:connector-curvature="0" />
        <path
           style="fill:#000000;fill-opacity:1;stroke:#000000;stroke-width:0.26075;stroke-linecap:round;stroke-linejoin:round;stroke-miterlimit:4;stroke-dasharray:none;stroke-dashoffset:0"
           d="m 58.244249,73.859808 c -6.060152,-0.633814 -11.372662,-4.922049 -13.373398,-10.79495 -1.075525,-3.157065 -1.075525,-6.967935 0,-10.125 1.913617,-5.617175 6.766555,-9.725059 12.659183,-10.715665 1.433522,-0.240989 4.17098,-0.171778 5.682037,0.143659 3.160815,0.659826 6.009903,2.242585 8.277517,4.598423 2.157176,2.241103 3.524918,4.86 4.19691,8.036083 0.310746,1.468695 0.310746,4.531305 0,6 -0.278609,1.316805 -0.868989,3.071838 -1.366594,4.0625 -1.65541,3.295686 -4.654973,6.152617 -7.905298,7.529393 -1.798268,0.761712 -3.059223,1.097074 -4.8125,1.279928 -1.355338,0.14135 -1.890849,0.139059 -3.357857,-0.01437 l 0,0 z m 0.732857,-15.861755 0,-14.004306 -0.65625,0.08302 c -7.567159,0.957287 -13.068064,7.848942 -12.237845,15.331842 0.376159,3.39039 1.67565,6.133675 4.01434,8.474461 2.083581,2.085449 4.579699,3.386546 7.531683,3.925879 0.500814,0.0915 1.009009,0.172448 1.129322,0.179886 0.207112,0.0128 0.21875,-0.73153 0.21875,-13.990781 l 0,0 z m 3.28125,13.79652 c -0.08594,-0.03468 -0.226563,-0.03468 -0.3125,0 -0.08594,0.03468 -0.01563,0.06305 0.15625,0.06305 0.171875,0 0.242187,-0.02837 0.15625,-0.06305 z m 0.625,-0.125 c -0.08594,-0.03468 -0.226563,-0.03468 -0.3125,0 -0.08594,0.03468 -0.01563,0.06305 0.15625,0.06305 0.171875,0 0.242187,-0.02837 0.15625,-0.06305 z m 0.559896,-0.117737 c -0.04154,-0.04154 -0.14935,-0.04598 -0.239584,-0.0099 -0.09972,0.0399 -0.0701,0.06952 0.07552,0.07552 0.13177,0.0054 0.205599,-0.02412 0.164063,-0.06565 l 0,-5e-6 z m 0.5,-0.125 c -0.04154,-0.04154 -0.14935,-0.04598 -0.239584,-0.0099 -0.09972,0.0399 -0.0701,0.06952 0.07552,0.07552 0.13177,0.0054 0.205599,-0.02412 0.164063,-0.06565 l 0,-5e-6 z m 2.020709,-0.749533 c 2.691393,-1.251479 5.090811,-3.566025 6.470893,-6.242007 0.282358,-0.547491 0.548455,-1.136063 0.591329,-1.307938 0.04287,-0.171875 -0.11655,0.09641 -0.354275,0.596187 -1.040106,2.186651 -2.653987,4.17133 -4.431817,5.450048 -0.934044,0.671817 -2.520723,1.555476 -3.450485,1.921656 -0.285072,0.112274 -0.30006,0.131406 -0.0625,0.07978 0.171875,-0.03735 0.72846,-0.261327 1.236855,-0.497727 l 0,0 z m 7.497997,-8.799945 c -0.0021,-0.103125 -0.07969,0.0094 -0.172352,0.25 -0.21978,0.570712 -0.216537,0.795257 0.0045,0.3125 0.09444,-0.20625 0.169968,-0.459375 0.167839,-0.5625 l 10e-7,0 z m 0.100536,-0.523438 c -0.0399,-0.09972 -0.06952,-0.0701 -0.07552,0.07552 -0.0054,0.13177 0.02411,0.205599 0.06565,0.164063 0.04154,-0.04154 0.04598,-0.14935 0.0099,-0.239584 l 5e-6,0 z m 0.125,-0.5 c -0.0399,-0.09972 -0.06952,-0.0701 -0.07552,0.07552 -0.0054,0.13177 0.02411,0.205599 0.06565,0.164063 0.04154,-0.04154 0.04598,-0.14935 0.0099,-0.239584 l 5e-6,0 z m 0.122397,-0.757812 c -0.03468,-0.08594 -0.06305,-0.01563 -0.06305,0.15625 0,0.171875 0.02837,0.242187 0.06305,0.15625 0.03468,-0.08594 0.03468,-0.226563 0,-0.3125 z m 0.134908,-2.9375 c -0.02405,-0.464063 -0.04373,-0.08438 -0.04373,0.84375 0,0.928125 0.01968,1.307812 0.04373,0.84375 0.02405,-0.464063 0.02405,-1.223438 0,-1.6875 z m -0.134908,-1.5625 c -0.03468,-0.08594 -0.06305,-0.01563 -0.06305,0.15625 0,0.171875 0.02837,0.242187 0.06305,0.15625 0.03468,-0.08594 0.03468,-0.226563 0,-0.3125 z M 73.687494,54.97892 c -0.0399,-0.09972 -0.06952,-0.0701 -0.07552,0.07552 -0.0054,0.13177 0.02411,0.205599 0.06565,0.164063 0.04154,-0.04154 0.04598,-0.14935 0.0099,-0.239584 l 5e-6,0 z m -0.125,-0.5 c -0.0399,-0.09972 -0.06952,-0.0701 -0.07552,0.07552 -0.0054,0.13177 0.02411,0.205599 0.06565,0.164063 0.04154,-0.04154 0.04598,-0.14935 0.0099,-0.239584 l 5e-6,0 z m -0.210388,-0.789062 c -0.195452,-0.592223 -0.284974,-0.5027 -0.1,0.1 0.07803,0.254257 0.166187,0.437978 0.195897,0.408268 0.02971,-0.02971 -0.01344,-0.258431 -0.0959,-0.508268 z m -0.673819,-1.63839 c -1.591099,-3.350401 -4.615686,-6.102136 -7.955955,-7.238234 -1.236404,-0.420528 -1.410854,-0.38393 -0.245226,0.05145 1.285228,0.48005 2.905836,1.311722 3.741373,1.920017 1.721048,1.252972 3.534279,3.481103 4.401883,5.409113 0.227351,0.505225 0.436004,0.895953 0.463672,0.868285 0.02767,-0.02767 -0.154917,-0.482451 -0.405747,-1.010628 z m -9.235035,-7.624631 c -0.04154,-0.04154 -0.14935,-0.04598 -0.239584,-0.0099 -0.09972,0.0399 -0.0701,0.06952 0.07552,0.07552 0.13177,0.0054 0.205599,-0.02412 0.164063,-0.06565 l 0,1e-6 z m -0.5,-0.125 c -0.04154,-0.04154 -0.14935,-0.04598 -0.239584,-0.0099 -0.09972,0.0399 -0.0701,0.06952 0.07552,0.07552 0.13177,0.0054 0.205599,-0.02412 0.164063,-0.06565 l 0,1e-6 z m -0.625,-0.125 c -0.04154,-0.04154 -0.14935,-0.04598 -0.239584,-0.0099 -0.09972,0.0399 -0.0701,0.06952 0.07552,0.07552 0.13177,0.0054 0.205599,-0.02412 0.164063,-0.06565 l 0,1e-6 z m -0.934896,-0.132265 c -0.08594,-0.03468 -0.226563,-0.03468 -0.3125,0 -0.08594,0.03468 -0.01563,0.06305 0.15625,0.06305 0.171875,0 0.242187,-0.02837 0.15625,-0.06305 z"
           id="path5340"
           inkscape:connector-curvature="0" />
      </g>
      <path
         inkscape:connector-curvature="0"
         id="path3069"
         d="M 56.966299,76.565198 C 51.688496,75.228999 47.35811,70.826843 46.315226,65.737597 c -0.377777,-1.843542 -0.373975,-4.704381 0.0084,-6.348052 0.966405,-4.153777 4.226699,-8.050739 8.248711,-9.859514 1.178987,-0.530212 3.463708,-1.185851 4.132366,-1.185851 0.308662,0 0.332566,0.962065 0.332566,13.3847 0,13.372131 -0.05745,15.227687 -0.470596,15.200385 -0.120857,-0.008 -0.841041,-0.171817 -1.60041,-0.364067 z"
         style="fill:#ffffff;fill-opacity:1;stroke:#ffffff;stroke-width:0.19723865" />
    </g>
  </g>
</svg>
