<?xml version="1.0" encoding="UTF-8" standalone="no"?>
<svg
   xmlns:dc="http://purl.org/dc/elements/1.1/"
   xmlns:cc="http://creativecommons.org/ns#"
   xmlns:rdf="http://www.w3.org/1999/02/22-rdf-syntax-ns#"
   xmlns:svg="http://www.w3.org/2000/svg"
   xmlns="http://www.w3.org/2000/svg"
   xmlns:xlink="http://www.w3.org/1999/xlink"
   xmlns:sodipodi="http://sodipodi.sourceforge.net/DTD/sodipodi-0.dtd"
   xmlns:inkscape="http://www.inkscape.org/namespaces/inkscape"
   width="88"
   height="128"
   id="svg2"
   version="1.1"
   inkscape:version="0.48.4 r9939"
   sodipodi:docname="retencion_doble_hormigon_menu.svg">
  <metadata
     id="metadata649">
    <rdf:RDF>
      <cc:Work
         rdf:about="">
        <dc:format>image/svg+xml</dc:format>
        <dc:type
           rdf:resource="http://purl.org/dc/dcmitype/StillImage" />
        <dc:title />
      </cc:Work>
    </rdf:RDF>
  </metadata>
  <sodipodi:namedview
     pagecolor="#ffffff"
     bordercolor="#666666"
     borderopacity="1"
     objecttolerance="10"
     gridtolerance="10"
     guidetolerance="10"
     inkscape:pageopacity="0"
     inkscape:pageshadow="2"
     inkscape:window-width="1364"
     inkscape:window-height="718"
     id="namedview647"
     showgrid="true"
     fit-margin-top="0"
     fit-margin-left="0"
     fit-margin-right="0"
     fit-margin-bottom="0"
     inkscape:zoom="81.18985"
     inkscape:cx="86.026591"
     inkscape:cy="62.757265"
     inkscape:window-x="0"
     inkscape:window-y="25"
     inkscape:window-maximized="1"
     inkscape:current-layer="layer4"
     showguides="true"
     inkscape:guide-bbox="true">
    <inkscape:grid
       type="xygrid"
       id="grid3626"
       empspacing="5"
       visible="true"
       enabled="true"
       snapvisiblegridlinesonly="true" />
    <sodipodi:guide
       orientation="1,0"
       position="64,69"
       id="guide3036" />
    <sodipodi:guide
       orientation="0,1"
       position="64.518497,64"
       id="guide3038" />
  </sodipodi:namedview>
  <desc
     id="desc4">/home/snappler/Escritorio/Simbolos-C DXF_2000.dxf - scale = 0.536199</desc>
  <defs
     id="defs6">
    <marker
       id="DistanceX"
       orient="auto"
       refX="0"
       refY="0"
       style="overflow:visible">
      <path
         d="M 3,-3 -3,3 M 0,-5 0,5"
         style="stroke:#000000;stroke-width:0.5"
         id="path9"
         inkscape:connector-curvature="0" />
    </marker>
    <pattern
       height="8"
       id="Hatch"
       patternUnits="userSpaceOnUse"
       width="8"
       x="0"
       y="0">
      <path
         d="M8 4 l-4,4"
         linecap="square"
         stroke="#000000"
         stroke-width="0.25"
         id="path12" />
      <path
         d="M6 2 l-4,4"
         linecap="square"
         stroke="#000000"
         stroke-width="0.25"
         id="path14" />
      <path
         d="M4 0 l-4,4"
         linecap="square"
         stroke="#000000"
         stroke-width="0.25"
         id="path16" />
    </pattern>
    <symbol
       id="*MODEL_SPACE" />
    <symbol
       id="*PAPER_SPACE" />
    <symbol
       id="POSTE-RD">
      <path
         d="m -10769658,11642373 7,0"
         style="fill:none;stroke:#000000"
         id="path21"
         inkscape:connector-curvature="0" />
      <path
         d="m -10769666,11642377 6,-8"
         style="fill:none;stroke:#000000"
         id="path23"
         inkscape:connector-curvature="0" />
      <path
         d="m -10769658,11642373 a 5,5 0 1 0 -10,0 5,5 0 1 0 10,0 z"
         style="fill:none;stroke:#000000"
         id="path25"
         inkscape:connector-curvature="0" />
      <path
         d="m -10769659,11642376 -8,-6"
         style="fill:none;stroke:#000000"
         id="path27"
         inkscape:connector-curvature="0" />
      <path
         d="m -10769645,11642373 -6,-2 0,4 z"
         style="fill:#000000"
         id="path29"
         inkscape:connector-curvature="0" />
    </symbol>
    <symbol
       id="POSTE-CP">
      <path
         d="m -10769658,11642373 a 5,5 0 1 0 -10,0 5,5 0 1 0 10,0 z"
         style="fill:none;stroke:#000000"
         id="path32"
         inkscape:connector-curvature="0" />
      <path
         d="m -10769666,11642377 6,-8"
         style="fill:none;stroke:#000000"
         id="path34"
         inkscape:connector-curvature="0" />
      <path
         d="m -10769648,11642370 0,6"
         style="fill:none;stroke:#000000"
         id="path36"
         inkscape:connector-curvature="0" />
      <path
         d="m -10769659,11642375 11,1"
         style="fill:none;stroke:#000000"
         id="path38"
         inkscape:connector-curvature="0" />
      <path
         d="m -10769659,11642371 11,-1"
         style="fill:none;stroke:#000000"
         id="path40"
         inkscape:connector-curvature="0" />
      <path
         d="m -10769659,11642376 -8,-6"
         style="fill:none;stroke:#000000"
         id="path42"
         inkscape:connector-curvature="0" />
    </symbol>
    <symbol
       id="POSTE-MA">
      <path
         d="m -10769658,11642373 a 5,5 0 1 0 -10,0 5,5 0 1 0 10,0 z"
         style="fill:none;stroke:#000000"
         id="path45"
         inkscape:connector-curvature="0" />
      <path
         d="m -10769659,11642376 -8,-6"
         style="fill:none;stroke:#000000"
         id="path47"
         inkscape:connector-curvature="0" />
      <path
         d="m -10769666,11642377 6,-8"
         style="fill:none;stroke:#000000"
         id="path49"
         inkscape:connector-curvature="0" />
    </symbol>
    <symbol
       id="POSTE-HA">
      <path
         d="m -10769656,11642373 a 7.21976,7.21976 0 1 0 -14,0 7.21976,7.21976 0 1 0 14,0 z"
         style="fill:none;stroke:#000000"
         id="path52"
         inkscape:connector-curvature="0" />
      <path
         d="m -10769663,11642366 0,14"
         style="fill:none;stroke:#000000"
         id="path54"
         inkscape:connector-curvature="0" />
      <path
         d="m -10769656,11642373 -7,-7 0,14 z"
         style="fill:#000000"
         id="path56"
         inkscape:connector-curvature="0" />
    </symbol>
    <symbol
       id="PAT">
      <path
         d="m -10769663,11642373 0,8"
         style="fill:none;stroke:#000000"
         id="path59"
         inkscape:connector-curvature="0" />
      <path
         d="m -10769663,11642381 5,0"
         style="fill:none;stroke:#000000"
         id="path61"
         inkscape:connector-curvature="0" />
      <path
         d="m -10769663,11642383 4,0"
         style="fill:none;stroke:#000000"
         id="path63"
         inkscape:connector-curvature="0" />
      <path
         d="m -10769663,11642384 3,0"
         style="fill:none;stroke:#000000"
         id="path65"
         inkscape:connector-curvature="0" />
      <path
         d="m -10769663,11642386 2,0"
         style="fill:none;stroke:#000000"
         id="path67"
         inkscape:connector-curvature="0" />
      <path
         d="m -10769663,11642381 -5,0"
         style="fill:none;stroke:#000000"
         id="path69"
         inkscape:connector-curvature="0" />
      <path
         d="m -10769663,11642386 -2,0"
         style="fill:none;stroke:#000000"
         id="path71"
         inkscape:connector-curvature="0" />
      <path
         d="m -10769663,11642384 -3,0"
         style="fill:none;stroke:#000000"
         id="path73"
         inkscape:connector-curvature="0" />
      <path
         d="m -10769663,11642383 -4,0"
         style="fill:none;stroke:#000000"
         id="path75"
         inkscape:connector-curvature="0" />
    </symbol>
  </defs>
  <g
     inkscape:groupmode="layer"
     inkscape:label="0"
     id="g77"
     transform="translate(0.5,-924.86237)"
     style="display:none">
    <use
       x="10769797"
       y="-11642841"
       xlink:href="#POSTE-HA"
       id="use363"
       width="744.09448"
       height="1052.3622"
       transform="matrix(1.2973405,0,0,1.2973405,-88.93751,1595.1305)"
       style="stroke-width:1.89216876;stroke-miterlimit:4;stroke-dasharray:none" />
    <use
       x="10769764"
       y="-11642841"
       xlink:href="#POSTE-HA"
       id="use365"
       width="744.09448"
       height="1052.3622"
       transform="matrix(1.2973405,0,0,1.2973405,-88.93751,1595.1305)"
       style="stroke-width:1.89216876;stroke-miterlimit:4;stroke-dasharray:none" />
  </g>
  <g
     inkscape:groupmode="layer"
     id="layer4"
     inkscape:label="a">
    <g
       style="display:inline"
       id="g3030"
       transform="matrix(1.0049421,0,0,1.0049421,-20.471308,3.6014314)">
      <path
         inkscape:connector-curvature="0"
         id="path5340-5"
         d="m 43.105397,78.42305 c -7.09998,-0.742551 -13.32403,-5.766564 -15.668062,-12.647164 -1.260069,-3.698764 -1.260069,-8.163521 0,-11.862296 2.241963,-6.581003 7.927589,-11.393732 14.831304,-12.554316 1.679491,-0.282329 4.886656,-0.201243 6.656992,0.16831 3.703157,0.773047 7.041107,2.627384 9.697805,5.38745 2.527319,2.625638 4.129743,5.693902 4.917035,9.414949 0.36407,1.720707 0.36407,5.308814 0,7.029509 -0.326415,1.542754 -1.018095,3.59892 -1.601075,4.759563 -1.939454,3.861181 -5.453693,7.208316 -9.261729,8.821319 -2.106826,0.892432 -3.584136,1.285264 -5.638252,1.499546 -1.587896,0.165546 -2.215292,0.162968 -3.934018,-0.0164 l 0,0 z m 0.858607,-18.58335 0,-16.407236 -0.768853,0.09724 c -8.865564,1.121546 -15.310341,9.195699 -14.337668,17.962551 0.440701,3.972128 1.963166,7.186125 4.70314,9.928548 2.441092,2.443282 5.365497,3.96763 8.824003,4.599501 0.586742,0.1072 1.182141,0.202039 1.323095,0.210757 0.242646,0.015 0.256283,-0.85705 0.256283,-16.391386 l 0,0 z m 3.844263,16.163781 c -0.100645,-0.04066 -0.265434,-0.04066 -0.36612,0 -0.100645,0.04065 -0.01828,0.07393 0.18306,0.07393 0.201372,0 0.283746,-0.03327 0.18306,-0.07393 z m 0.73224,-0.146448 c -0.100634,-0.04066 -0.265434,-0.04066 -0.36612,0 -0.100634,0.04065 -0.01828,0.07393 0.18306,0.07393 0.201372,0 0.283747,-0.03327 0.18306,-0.07393 z m 0.655971,-0.137931 c -0.04862,-0.04862 -0.174977,-0.05389 -0.280701,-0.01172 -0.116806,0.04674 -0.08213,0.08142 0.08846,0.08846 0.154381,0.0058 0.240879,-0.02823 0.192222,-0.07697 l 0,-1.2e-5 z m 0.585792,-0.146448 c -0.04862,-0.04862 -0.174977,-0.05389 -0.280699,-0.01172 -0.116808,0.04674 -0.08213,0.08142 0.08846,0.08846 0.15438,0.0058 0.240878,-0.02823 0.192222,-0.07697 l 0,-1.2e-5 z m 2.367433,-0.878138 c 3.153192,-1.466215 5.964316,-4.177906 7.581196,-7.313044 0.33081,-0.641431 0.642556,-1.33099 0.692794,-1.532362 0.05026,-0.201361 -0.136548,0.112941 -0.415069,0.698487 -1.218565,2.561846 -3.109363,4.887066 -5.192242,6.385195 -1.094318,0.787082 -2.953249,1.822365 -4.042541,2.251376 -0.333984,0.131546 -0.351546,0.153958 -0.07322,0.09349 0.201372,-0.0437 0.853452,-0.30617 1.449086,-0.583133 l 0,0 z m 8.784531,-10.309888 c -0.0024,-0.120813 -0.09338,0.01055 -0.201922,0.292896 -0.257491,0.668636 -0.253696,0.931715 0.0058,0.366122 0.110597,-0.24164 0.199134,-0.538192 0.196638,-0.659018 l 0,0 z m 0.117792,-0.613254 c -0.04675,-0.116807 -0.08142,-0.08213 -0.08846,0.08846 -0.0058,0.15438 0.02823,0.240878 0.07697,0.192222 0.04862,-0.04862 0.05389,-0.174976 0.01172,-0.2807 l 0,0 z m 0.146448,-0.585792 c -0.04674,-0.116807 -0.08142,-0.08213 -0.08846,0.08846 -0.0058,0.154379 0.02823,0.240878 0.07697,0.192222 0.04862,-0.04862 0.05389,-0.174977 0.01172,-0.2807 l 0,0 z m 0.143401,-0.887838 c -0.04065,-0.100645 -0.07393,-0.01828 -0.07393,0.183059 0,0.201372 0.03327,0.283746 0.07393,0.183061 0.04066,-0.100635 0.04066,-0.265435 0,-0.36612 z m 0.158047,-3.441531 c -0.02823,-0.543685 -0.05119,-0.09888 -0.05119,0.988525 0,1.087383 0.02308,1.53221 0.05119,0.988524 0.02823,-0.543685 0.02823,-1.433364 0,-1.977049 z m -0.158047,-1.830601 c -0.04065,-0.100635 -0.07393,-0.01828 -0.07393,0.18306 0,0.201372 0.03327,0.283746 0.07393,0.18306 0.04066,-0.100635 0.04066,-0.265434 0,-0.36612 z m -0.143401,-0.72309 c -0.04674,-0.116808 -0.08142,-0.08213 -0.08846,0.08846 -0.0058,0.15438 0.02823,0.240878 0.07697,0.192222 0.04862,-0.04862 0.05389,-0.174976 0.01172,-0.2807 l 0,0 z m -0.146448,-0.585794 c -0.04675,-0.116806 -0.08142,-0.08213 -0.08846,0.08846 -0.0058,0.154381 0.02823,0.240879 0.07697,0.192222 0.04862,-0.04862 0.05389,-0.174975 0.01172,-0.280699 l 0,0 z m -0.24649,-0.92445 c -0.228986,-0.693836 -0.333867,-0.588955 -0.117159,0.117158 0.09139,0.297888 0.194706,0.513131 0.229514,0.478324 0.03479,-0.03479 -0.01569,-0.302773 -0.112355,-0.595482 z m -0.789437,-1.919513 c -1.86411,-3.925277 -5.407662,-7.149173 -9.32107,-8.480199 -1.44856,-0.492688 -1.652943,-0.449808 -0.287308,0.06034 1.505756,0.562419 3.404438,1.536792 4.383332,2.249455 2.016356,1.46796 4.140709,4.078415 5.157187,6.337243 0.266361,0.591908 0.510811,1.04968 0.543229,1.017263 0.03245,-0.03245 -0.181502,-0.565232 -0.47537,-1.184039 z M 49.196478,43.939864 c -0.04862,-0.04862 -0.174977,-0.05389 -0.280701,-0.01172 -0.116806,0.04674 -0.08213,0.08142 0.08846,0.08846 0.154381,0.0058 0.240879,-0.02823 0.192222,-0.07697 l 0,0 z m -0.585792,-0.146448 c -0.04862,-0.04862 -0.174977,-0.05389 -0.280701,-0.01172 -0.116806,0.04674 -0.08213,0.08142 0.08846,0.08846 0.15438,0.0058 0.240878,-0.02823 0.192222,-0.07697 l 0,0 z m -0.732241,-0.146448 c -0.04862,-0.04862 -0.174976,-0.05389 -0.2807,-0.01172 -0.116808,0.04675 -0.08213,0.08142 0.08846,0.08846 0.154379,0.0058 0.240877,-0.02823 0.192222,-0.07697 l 0,0 z M 46.78313,43.492004 c -0.100635,-0.04066 -0.265433,-0.04066 -0.36612,0 -0.100635,0.04065 -0.01828,0.07381 0.183061,0.07381 0.201372,0 0.283746,-0.03327 0.183059,-0.07381 z"
         style="fill:#000000;fill-opacity:1;stroke:#000000;stroke-width:0.3054907;stroke-linecap:round;stroke-linejoin:round;stroke-miterlimit:4;stroke-dasharray:none;stroke-dashoffset:0" />
      <path
         inkscape:connector-curvature="0"
         id="path5340-8"
         d="M 80.419937,78.866197 C 73.283164,78.119799 67.02686,73.069752 64.670681,66.153495 c -1.266599,-3.717931 -1.266599,-8.205824 0,-11.923767 2.253583,-6.615107 7.96867,-11.452776 14.908162,-12.619373 1.688193,-0.283792 4.91198,-0.202286 6.691489,0.169181 3.722347,0.777053 7.077594,2.641001 9.748059,5.415369 2.540418,2.639245 4.151149,5.723409 4.942529,9.463738 0.36594,1.729623 0.36594,5.336325 0,7.065936 -0.32811,1.550749 -1.023379,3.617571 -1.609383,4.784228 -1.949506,3.881189 -5.481956,7.245669 -9.309727,8.867032 -2.117744,0.897055 -3.602708,1.291923 -5.667469,1.507317 -1.596125,0.166403 -2.226772,0.163812 -3.954404,-0.01648 l 0,0 z m 0.863056,-18.67965 0,-16.492259 -0.772836,0.09775 c -8.911507,1.127357 -15.38968,9.24335 -14.411969,18.055632 0.442987,3.992714 1.97334,7.223365 4.727512,9.979999 2.453742,2.455944 5.393302,3.988191 8.869731,4.623337 0.589782,0.107754 1.188267,0.203086 1.32995,0.211848 0.243905,0.01507 0.257612,-0.861491 0.257612,-16.476326 l 0,0 z m 3.864185,16.247543 c -0.101161,-0.04086 -0.26681,-0.04086 -0.368017,0 -0.101161,0.04086 -0.01837,0.07431 0.184008,0.07431 0.202414,0 0.285216,-0.03345 0.184009,-0.07431 z m 0.736034,-0.147206 c -0.10116,-0.04086 -0.266809,-0.04086 -0.368017,0 -0.10116,0.04086 -0.01837,0.07431 0.184009,0.07431 0.202415,0 0.285217,-0.03345 0.184008,-0.07431 z m 0.659371,-0.138647 c -0.04888,-0.04888 -0.175884,-0.05417 -0.282156,-0.01177 -0.117412,0.04699 -0.08256,0.08185 0.08892,0.08892 0.15518,0.0059 0.242127,-0.02839 0.193219,-0.07738 l 0,-1.2e-5 z m 0.588827,-0.147206 c -0.04888,-0.04888 -0.175883,-0.05417 -0.282155,-0.01178 -0.117411,0.047 -0.08256,0.08185 0.08892,0.08892 0.15518,0.0059 0.242127,-0.02838 0.193219,-0.07738 l 0,-1.1e-5 z m 2.379702,-0.882688 c 3.169531,-1.473813 5.995222,-4.199557 7.620482,-7.350941 0.332522,-0.644755 0.645885,-1.337888 0.696383,-1.540304 0.05053,-0.202404 -0.137256,0.113526 -0.417219,0.702107 -1.224881,2.575122 -3.125476,4.912392 -5.219149,6.418284 -1.09999,0.791162 -2.968552,1.831809 -4.063489,2.263042 -0.335715,0.132228 -0.353369,0.154757 -0.07361,0.09398 0.202416,-0.04393 0.857876,-0.307758 1.456596,-0.586154 l 0,0 z m 8.830054,-10.363315 c -0.0024,-0.121439 -0.09386,0.01059 -0.202968,0.294414 -0.258827,0.672101 -0.255012,0.936543 0.0059,0.368017 0.11117,-0.242891 0.200165,-0.540979 0.197658,-0.662431 l 0,0 z m 0.118403,-0.616431 c -0.047,-0.117413 -0.08185,-0.08256 -0.08892,0.08892 -0.0059,0.15518 0.02839,0.242127 0.07738,0.193218 0.04888,-0.04888 0.05417,-0.175883 0.01178,-0.282155 l 0,0 z m 0.147207,-0.588828 c -0.047,-0.117412 -0.08185,-0.08256 -0.08892,0.08892 -0.0059,0.155179 0.02839,0.242126 0.07738,0.193218 0.04888,-0.04888 0.05417,-0.175882 0.01178,-0.282154 l 0,0 z m 0.144144,-0.892441 c -0.04086,-0.101161 -0.07431,-0.01837 -0.07431,0.184009 0,0.202416 0.03345,0.285217 0.07431,0.184009 0.04087,-0.101161 0.04087,-0.266809 0,-0.368018 z m 0.158866,-3.459363 c -0.02839,-0.546504 -0.05145,-0.0994 -0.05145,0.993646 0,1.093018 0.02319,1.54015 0.05145,0.993648 0.02839,-0.546504 0.02839,-1.440792 0,-1.987294 z M 98.75092,57.357877 c -0.04086,-0.101161 -0.07431,-0.01837 -0.07431,0.184009 0,0.202415 0.03345,0.285216 0.07431,0.184009 0.04087,-0.101161 0.04087,-0.266811 0,-0.368018 z m -0.144144,-0.726838 c -0.047,-0.117412 -0.08185,-0.08256 -0.08892,0.08892 -0.0059,0.155179 0.02839,0.242125 0.07738,0.193217 0.04888,-0.04888 0.05417,-0.175883 0.01178,-0.282155 l 0,0 z M 98.459569,56.04221 c -0.047,-0.117412 -0.08185,-0.08256 -0.08892,0.08892 -0.0059,0.155179 0.02839,0.242125 0.07738,0.193217 0.04888,-0.04888 0.05417,-0.175884 0.01178,-0.282155 l 0,0 z m -0.247767,-0.92924 c -0.230175,-0.697431 -0.3356,-0.592008 -0.117769,0.117766 0.09186,0.299429 0.195718,0.515789 0.230706,0.480801 0.03497,-0.03497 -0.01577,-0.304341 -0.112937,-0.598567 z m -0.79353,-1.92946 c -1.873771,-3.945618 -5.435684,-7.186222 -9.369374,-8.524145 -1.456065,-0.49524 -1.661508,-0.452137 -0.288796,0.06065 1.513558,0.565334 3.42208,1.544755 4.406046,2.261112 2.026805,1.475567 4.162167,4.09955 5.183913,6.370083 0.26774,0.594975 0.513458,1.05512 0.546044,1.022534 0.03262,-0.03262 -0.182443,-0.568159 -0.477833,-1.190174 z M 86.542583,44.204318 c -0.04888,-0.04888 -0.175884,-0.05417 -0.282156,-0.01177 -0.117412,0.047 -0.08256,0.08185 0.08892,0.08892 0.15518,0.0059 0.242127,-0.02839 0.193219,-0.07738 l 0,0 z m -0.588829,-0.147206 c -0.04888,-0.04888 -0.175883,-0.05417 -0.282155,-0.01178 -0.117412,0.047 -0.08256,0.08185 0.08892,0.08892 0.15518,0.0059 0.242127,-0.02839 0.193219,-0.07738 l 0,0 z M 85.21772,43.909905 c -0.04888,-0.04888 -0.175884,-0.05417 -0.282155,-0.01177 -0.117413,0.047 -0.08256,0.08184 0.08892,0.08892 0.15518,0.0059 0.242127,-0.02839 0.193219,-0.07737 l 0,0 z m -1.100991,-0.155769 c -0.101161,-0.04087 -0.26681,-0.04087 -0.368018,0 -0.10116,0.04087 -0.01837,0.07418 0.184009,0.07418 0.202415,0 0.285216,-0.03345 0.184009,-0.07418 z"
         style="fill:#000000;fill-opacity:1;stroke:#000000;stroke-width:0.3070738;stroke-linecap:round;stroke-linejoin:round;stroke-miterlimit:4;stroke-dasharray:none;stroke-dashoffset:0" />
      <path
         inkscape:connector-curvature="0"
         id="path3028"
         d="m 41.640069,75.534623 c -2.922598,-0.714968 -4.836527,-1.689271 -7.049877,-3.588801 -5.612319,-4.81658 -7.151055,-13.03322 -3.663157,-19.560765 2.365349,-4.426713 6.278239,-7.353818 11.220064,-8.393363 0.764991,-0.160921 1.429435,-0.292583 1.476543,-0.292583 0.150366,0 0.08567,31.817386 -0.06517,32.04802 -0.104052,0.159101 -0.643749,0.09932 -1.918404,-0.212508 z"
         style="fill:#ffffff;fill-opacity:1;stroke:#ffffff;stroke-width:0.19706897" />
      <path
         inkscape:connector-curvature="0"
         id="path3030"
         d="M 80.167052,76.27662 C 74.901447,75.397381 70.249661,71.975099 67.95878,67.295093 64.768159,60.777021 66.226537,53.196567 71.62314,48.248247 c 2.309994,-2.118109 5.568271,-3.716852 8.297576,-4.071382 l 1.034612,-0.134393 0,16.185044 c 0,8.901775 -0.06651,16.172967 -0.147802,16.158207 -0.08129,-0.01476 -0.369504,-0.06386 -0.640474,-0.109103 l 0,0 z"
         style="fill:#ffffff;fill-opacity:1;stroke:#ffffff;stroke-width:0.19706897" />
    </g>
  </g>
</svg>
