<?xml version="1.0" encoding="UTF-8" standalone="no"?>
<!-- Generated by IcoMoon.io -->

<svg
   xmlns:dc="http://purl.org/dc/elements/1.1/"
   xmlns:cc="http://creativecommons.org/ns#"
   xmlns:rdf="http://www.w3.org/1999/02/22-rdf-syntax-ns#"
   xmlns:svg="http://www.w3.org/2000/svg"
   xmlns="http://www.w3.org/2000/svg"
   xmlns:sodipodi="http://sodipodi.sourceforge.net/DTD/sodipodi-0.dtd"
   xmlns:inkscape="http://www.inkscape.org/namespaces/inkscape"
   version="1.1"
   width="20"
   height="20"
   viewBox="0 0 20 20"
   id="svg2"
   inkscape:version="0.48.4 r9939"
   sodipodi:docname="arrows.svg">
  <metadata
     id="metadata13">
    <rdf:RDF>
      <cc:Work
         rdf:about="">
        <dc:format>image/svg+xml</dc:format>
        <dc:type
           rdf:resource="http://purl.org/dc/dcmitype/StillImage" />
        <dc:title></dc:title>
      </cc:Work>
    </rdf:RDF>
  </metadata>
  <defs
     id="defs11" />
  <sodipodi:namedview
     pagecolor="#ffffff"
     bordercolor="#666666"
     borderopacity="1"
     objecttolerance="10"
     gridtolerance="10"
     guidetolerance="10"
     inkscape:pageopacity="0"
     inkscape:pageshadow="2"
     inkscape:window-width="1364"
     inkscape:window-height="718"
     id="namedview9"
     showgrid="false"
     inkscape:zoom="4"
     inkscape:cx="22.089358"
     inkscape:cy="34.899495"
     inkscape:window-x="0"
     inkscape:window-y="25"
     inkscape:window-maximized="1"
     inkscape:current-layer="svg2" />
  <g
     id="icomoon-ignore"
     transform="matrix(0.61542249,0,0,0.61542249,-0.19228876,0.306096)">
    <line
       x1="0"
       y1="0"
       x2="0"
       y2="0"
       opacity=""
       id="line5"
       style="stroke:#449fdb;stroke-width:1" />
  </g>
  <path
     d="m 0.05771124,10.152856 q 0,-0.285556 0.20862823,-0.4948 L 3.0794357,6.84496 q 0.2086282,-0.208628 0.4947996,-0.208628 0.2861715,0 0.4947997,0.208628 0.2086282,0.208628 0.2086282,0.494799 v 1.406856 h 4.219952 V 4.526663 H 7.0907594 q -0.285556,0 -0.4947996,-0.208628 Q 6.3867161,4.109407 6.3873315,3.823235 6.387947,3.537064 6.5959598,3.328436 L 9.4090559,0.515339 q 0.2086283,-0.208628 0.4947997,-0.208628 0.2861714,0 0.4947994,0.208628 l 2.813096,2.813097 q 0.208629,0.208628 0.208629,0.494799 0,0.286172 -0.208629,0.4948 -0.208628,0.208628 -0.494799,0.208628 h -1.406856 v 4.219952 h 4.219952 V 7.339759 q 0,-0.285556 0.208628,-0.494799 0.208628,-0.209244 0.4948,-0.208628 0.286171,6.15e-4 0.4948,0.208628 l 2.813096,2.813096 Q 19.75,9.866684 19.75,10.152856 q 0,0.286171 -0.208628,0.494799 l -2.813096,2.813096 q -0.208629,0.208629 -0.4948,0.208629 -0.286172,0 -0.4948,-0.208629 -0.208628,-0.208628 -0.208628,-0.494799 v -1.406856 h -4.219952 v 4.219952 h 1.406856 q 0.285556,0 0.494799,0.208628 0.209244,0.208628 0.208629,0.4948 -6.16e-4,0.286171 -0.208629,0.4948 l -2.813096,2.813096 Q 10.190027,19.999 9.9038556,19.999 q -0.2861714,0 -0.4947997,-0.208628 L 6.5959598,16.977276 q -0.2086283,-0.208629 -0.2086283,-0.4948 0,-0.286172 0.2086283,-0.4948 0.2086282,-0.208628 0.4947996,-0.208628 h 1.4068558 v -4.219952 h -4.219952 v 1.406856 q 0,0.285556 -0.2086282,0.494799 Q 3.8604068,13.669995 3.5742353,13.66938 3.2880639,13.668764 3.0794357,13.460751 L 0.26633947,10.647655 Q 0.05771124,10.439027 0.05771124,10.152856 z"
     id="path7"
     inkscape:connector-curvature="0"
     style="fill:#000000" />
</svg>
