<?xml version="1.0" encoding="UTF-8" standalone="no"?>
<!-- Generated by IcoMoon.io -->

<svg
   xmlns:dc="http://purl.org/dc/elements/1.1/"
   xmlns:cc="http://creativecommons.org/ns#"
   xmlns:rdf="http://www.w3.org/1999/02/22-rdf-syntax-ns#"
   xmlns:svg="http://www.w3.org/2000/svg"
   xmlns="http://www.w3.org/2000/svg"
   xmlns:sodipodi="http://sodipodi.sourceforge.net/DTD/sodipodi-0.dtd"
   xmlns:inkscape="http://www.inkscape.org/namespaces/inkscape"
   version="1.1"
   width="20"
   height="20"
   viewBox="0 0 20 20"
   id="svg2"
   inkscape:version="0.48.4 r9939"
   sodipodi:docname="camera.svg">
  <metadata
     id="metadata14">
    <rdf:RDF>
      <cc:Work
         rdf:about="">
        <dc:format>image/svg+xml</dc:format>
        <dc:type
           rdf:resource="http://purl.org/dc/dcmitype/StillImage" />
        <dc:title></dc:title>
      </cc:Work>
    </rdf:RDF>
  </metadata>
  <defs
     id="defs12" />
  <sodipodi:namedview
     pagecolor="#ffffff"
     bordercolor="#666666"
     borderopacity="1"
     objecttolerance="10"
     gridtolerance="10"
     guidetolerance="10"
     inkscape:pageopacity="0"
     inkscape:pageshadow="2"
     inkscape:window-width="1364"
     inkscape:window-height="718"
     id="namedview10"
     showgrid="false"
     inkscape:zoom="7.375"
     inkscape:cx="16"
     inkscape:cy="16"
     inkscape:window-x="0"
     inkscape:window-y="25"
     inkscape:window-maximized="1"
     inkscape:current-layer="svg2" />
  <g
     id="g4"
     transform="matrix(0.61538462,0,0,0.61538462,-0.19230769,-0.461538)">
    <line
       x1="0"
       y1="0"
       x2="0"
       y2="0"
       opacity=""
       id="line6"
       style="stroke:#449fdb;stroke-width:1" />
  </g>
  <path
     d="m 6.196219,11.230769 c 0,2.209231 1.7907692,4 4,4 2.20923,0 3.999999,-1.790769 3.999999,-4 0,-2.209231 -1.790769,-4 -3.999999,-4 -2.2092308,0 -4,1.790769 -4,4 z M 18.811603,4.461538 H 14.50391 C 14.196218,3.230769 13.888526,2 12.657757,2 H 7.7346805 C 6.5039113,2 6.196219,3.230769 5.8885266,4.461538 H 1.5808343 c -0.67692296,0 -1.23076911,0.553847 -1.23076911,1.23077 V 16.769231 C 0.35006519,17.446154 0.90391134,18 1.5808343,18 H 18.811603 c 0.676923,0 1.230769,-0.553846 1.230769,-1.230769 V 5.692308 c 0,-0.676923 -0.553846,-1.23077 -1.230769,-1.23077 z m -8.615384,12.23077 c -3.0166154,0 -5.4615385,-2.444923 -5.4615385,-5.461539 0,-3.016615 2.4449231,-5.461538 5.4615385,-5.461538 3.016615,0 5.461538,2.444923 5.461538,5.461538 0,3.016616 -2.444923,5.461539 -5.461538,5.461539 z M 18.811603,8.153846 H 16.350064 V 6.923077 h 2.461539 v 1.230769 z"
     id="path8"
     inkscape:connector-curvature="0"
     style="fill:#000000" />
</svg>
