<?xml version="1.0" encoding="UTF-8" standalone="no"?>
<!-- Generated by IcoMoon.io -->

<svg
   xmlns:dc="http://purl.org/dc/elements/1.1/"
   xmlns:cc="http://creativecommons.org/ns#"
   xmlns:rdf="http://www.w3.org/1999/02/22-rdf-syntax-ns#"
   xmlns:svg="http://www.w3.org/2000/svg"
   xmlns="http://www.w3.org/2000/svg"
   xmlns:sodipodi="http://sodipodi.sourceforge.net/DTD/sodipodi-0.dtd"
   xmlns:inkscape="http://www.inkscape.org/namespaces/inkscape"
   version="1.1"
   width="32"
   height="32"
   viewBox="0 0 32 32"
   id="svg2"
   inkscape:version="0.48.4 r9939"
   sodipodi:docname="flow-branch.svg">
  <metadata
     id="metadata12">
    <rdf:RDF>
      <cc:Work
         rdf:about="">
        <dc:format>image/svg+xml</dc:format>
        <dc:type
           rdf:resource="http://purl.org/dc/dcmitype/StillImage" />
      </cc:Work>
    </rdf:RDF>
  </metadata>
  <defs
     id="defs10" />
  <sodipodi:namedview
     pagecolor="#ffffff"
     bordercolor="#666666"
     borderopacity="1"
     objecttolerance="10"
     gridtolerance="10"
     guidetolerance="10"
     inkscape:pageopacity="0"
     inkscape:pageshadow="2"
     inkscape:window-width="1364"
     inkscape:window-height="718"
     id="namedview8"
     showgrid="false"
     inkscape:zoom="20.85965"
     inkscape:cx="24.774687"
     inkscape:cy="15.61255"
     inkscape:window-x="0"
     inkscape:window-y="0"
     inkscape:window-maximized="1"
     inkscape:current-layer="g3001" />
  <g
     id="g4"
     transform="matrix(-1,0,0,1,32,0)" />
  <path
     d="m 5.76,6.4 c 0,-2.12 1.718,-3.84 3.84,-3.84 2.122,0 3.84,1.72 3.84,3.84 0,1.557 -0.928,2.894 -2.259,3.498 0.363,3.117 2.371,3.746 5.272,4.651 1.408,0.44 3.045,0.952 4.427,1.947 0.201244,0.254269 2.294237,0.969353 3.04,5.579 1.365,0.587 2.32,1.944 2.32,3.525 0,2.12 -1.718,3.84 -3.84,3.84 -2.12,0 -3.84,-1.72 -3.84,-3.84 0,-1.557 0.928,-2.894 2.261,-3.498 C 20.456,18.985 18.447,18.355 15.547,17.451 12.598,16.529 8.625,15.286 8.133,9.949 6.741,9.37 5.76,8 5.76,6.4 z M 22.4,27.816 c 1.224,0 2.216,-0.992 2.216,-2.216 0,-1.224 -0.992,-2.216 -2.216,-2.216 -1.224,0 -2.216,0.992 -2.216,2.216 0,1.224 0.992,2.216 2.216,2.216 z M 9.6,8.616 c 1.222,0 2.216,-0.992 2.216,-2.216 0,-1.224 -0.994,-2.216 -2.216,-2.216 -1.222,0 -2.216,0.992 -2.216,2.216 0,1.224 0.994,2.216 2.216,2.216 z"
     id="path6"
     inkscape:connector-curvature="0"
     style="fill:#000000"
     sodipodi:nodetypes="sssccccssscccsssssssssss" />
  <g
     id="g3001"
     transform="translate(24.40702,-4.3392844)">
    <g
       id="g2991" />
    <path
       id="path2993"
       d="m 2.3285083,9.772185 c -2.30699994,-2.309 -4.04,-1.963 -4.04,-1.963 l -17.3219933,17.322004 -1.616,7.621 7.621,-1.616 17.3199933,-17.32 c 0,0 0.347,-1.733 -1.963,-4.043004 z m -15.8119933,20.446004 -2.597,0.56 c -0.251,-0.469 -0.554,-0.938 -1.106,-1.491 -0.552,-0.552 -1.022,-0.853 -1.491,-1.104 l 0.562,-2.598 0.75,-0.75 c 0,0 1.414,0.029 3.01,1.624 1.597,1.597 1.626,3.011 1.626,3.011 l -0.754,0.749 z"
       inkscape:connector-curvature="0"
       style="fill:#000000" />
  </g>
</svg>
