<?xml version="1.0" encoding="UTF-8" standalone="no"?>
<!-- Generated by IcoMoon.io -->

<svg
   xmlns:dc="http://purl.org/dc/elements/1.1/"
   xmlns:cc="http://creativecommons.org/ns#"
   xmlns:rdf="http://www.w3.org/1999/02/22-rdf-syntax-ns#"
   xmlns:svg="http://www.w3.org/2000/svg"
   xmlns="http://www.w3.org/2000/svg"
   xmlns:sodipodi="http://sodipodi.sourceforge.net/DTD/sodipodi-0.dtd"
   xmlns:inkscape="http://www.inkscape.org/namespaces/inkscape"
   version="1.1"
   width="20"
   height="20"
   viewBox="0 0 20 20"
   id="svg2"
   inkscape:version="0.48.4 r9939"
   sodipodi:docname="eye-blocked.svg">
  <metadata
     id="metadata14">
    <rdf:RDF>
      <cc:Work
         rdf:about="">
        <dc:format>image/svg+xml</dc:format>
        <dc:type
           rdf:resource="http://purl.org/dc/dcmitype/StillImage" />
      </cc:Work>
    </rdf:RDF>
  </metadata>
  <defs
     id="defs12" />
  <sodipodi:namedview
     pagecolor="#ffffff"
     bordercolor="#666666"
     borderopacity="1"
     objecttolerance="10"
     gridtolerance="10"
     guidetolerance="10"
     inkscape:pageopacity="0"
     inkscape:pageshadow="2"
     inkscape:window-width="1364"
     inkscape:window-height="718"
     id="namedview10"
     showgrid="false"
     inkscape:zoom="11.313708"
     inkscape:cx="12.553986"
     inkscape:cy="23.850244"
     inkscape:window-x="0"
     inkscape:window-y="25"
     inkscape:window-maximized="1"
     inkscape:current-layer="svg2" />
  <g
     id="g4"
     transform="matrix(0.61538462,0,0,0.61538462,0.03992575,0.0684071)">
    <line
       x1="0"
       y1="0"
       x2="0"
       y2="0"
       opacity=""
       id="line6"
       style="stroke:#449fdb;stroke-width:1" />
  </g>
  <path
     d="m 16.357631,6.5642095 c 1.492923,1.0584612 2.71877,2.4824612 3.551385,4.1458435 -1.829538,3.652921 -5.551385,6.153844 -9.846154,6.153844 -1.2030807,0 -2.361236,-0.196308 -3.4455437,-0.559385 l 1.499077,-1.499077 c 0.635693,0.140308 1.288004,0.212308 1.9464667,0.212308 1.722462,0 3.401231,-0.489846 4.854769,-1.417231 1.156923,-0.737846 2.137231,-1.726154 2.873847,-2.890459 C 17.078862,9.5839017 16.137324,8.6226707 15.029016,7.8928247 l 1.328615,-1.3286152 z m -6.294769,7.7230725 c -0.4369247,0 -0.8609257,-0.05723 -1.2640037,-0.164308 L 14.821631,8.1002097 c 0.107077,0.403077 0.164308,0.827077 0.164308,1.264 0,2.7187643 -2.204308,4.9230723 -4.923077,4.9230723 z M 18.678247,0.86390225 H 17.645016 L 13.421631,5.0872865 c -1.059077,-0.344616 -2.187692,-0.531077 -3.358769,-0.531077 -4.2947745,0 -8.017236,2.5009232 -9.84615955,6.1538435 0.82030805,1.638152 2.02153895,3.044305 3.48430815,4.097229 L 0.21670245,18.291589 V 19.32482 H 1.2499337 L 18.678247,1.8965167 V 0.86328725 z M 8.2167033,6.9026707 c 0.923695,0 1.689235,0.678769 1.8246207,1.564923 L 7.9348568,10.574054 C 7.0487029,10.43867 6.3699337,9.6731327 6.3699337,8.7494397 c 0,-1.019692 0.8264615,-1.846153 1.8461536,-1.846153 z M 2.3342414,10.710053 c 0.7366154,-1.1636903 1.716923,-2.1526133 2.8738461,-2.8904593 0.075077,-0.048 0.1513846,-0.09477 0.2283077,-0.140307 -0.1913846,0.525538 -0.2966154,1.092923 -0.2966154,1.684307 0,1.1255373 0.3778462,2.1624573 1.0135385,2.9913803 L 5.0271644,13.481128 C 3.9490106,12.757435 3.0320875,11.812205 2.3342414,10.710053 z"
     id="path8"
     inkscape:connector-curvature="0"
     style="fill:#000000" />
</svg>
