<?xml version="1.0" encoding="UTF-8" standalone="no"?>
<!-- Generated by IcoMoon.io -->

<svg
   xmlns:dc="http://purl.org/dc/elements/1.1/"
   xmlns:cc="http://creativecommons.org/ns#"
   xmlns:rdf="http://www.w3.org/1999/02/22-rdf-syntax-ns#"
   xmlns:svg="http://www.w3.org/2000/svg"
   xmlns="http://www.w3.org/2000/svg"
   xmlns:sodipodi="http://sodipodi.sourceforge.net/DTD/sodipodi-0.dtd"
   xmlns:inkscape="http://www.inkscape.org/namespaces/inkscape"
   version="1.1"
   width="20"
   height="20"
   viewBox="0 0 20 20"
   id="svg2"
   inkscape:version="0.48.4 r9939"
   sodipodi:docname="eye.svg">
  <metadata
     id="metadata14">
    <rdf:RDF>
      <cc:Work
         rdf:about="">
        <dc:format>image/svg+xml</dc:format>
        <dc:type
           rdf:resource="http://purl.org/dc/dcmitype/StillImage" />
      </cc:Work>
    </rdf:RDF>
  </metadata>
  <defs
     id="defs12" />
  <sodipodi:namedview
     pagecolor="#ffffff"
     bordercolor="#666666"
     borderopacity="1"
     objecttolerance="10"
     gridtolerance="10"
     guidetolerance="10"
     inkscape:pageopacity="0"
     inkscape:pageshadow="2"
     inkscape:window-width="1364"
     inkscape:window-height="718"
     id="namedview10"
     showgrid="false"
     inkscape:zoom="7.375"
     inkscape:cx="16"
     inkscape:cy="16"
     inkscape:window-x="0"
     inkscape:window-y="25"
     inkscape:window-maximized="1"
     inkscape:current-layer="svg2" />
  <g
     id="g4"
     transform="matrix(0.61538462,0,0,0.61538462,-0.19230769,-2)">
    <line
       x1="0"
       y1="0"
       x2="0"
       y2="0"
       opacity=""
       id="line6"
       style="stroke:#449fdb;stroke-width:1" />
  </g>
  <path
     d="m 10.060626,4.4041721 c -4.2947694,0 -8.0172309,2.5009231 -9.84615403,6.1538459 1.82892313,3.652923 5.55138463,6.153846 9.84615403,6.153846 4.294769,0 8.016616,-2.500923 9.846154,-6.153846 C 18.077857,6.9050952 14.355395,4.4041721 10.060626,4.4041721 z m 4.854769,3.2633846 c 1.156923,0.7378462 2.137231,1.7261539 2.873847,2.8904613 -0.736616,1.163693 -1.716924,2.152616 -2.873847,2.890461 -1.453538,0.927385 -3.132307,1.417231 -4.854769,1.417231 -1.7224617,0 -3.4012309,-0.489846 -4.8547694,-1.417231 C 4.0489335,12.710634 3.0686259,11.722326 2.3320105,10.558018 3.0686259,9.3943259 4.0489335,8.4054029 5.2058566,7.6675567 5.2809335,7.6195567 5.3572412,7.5727875 5.4341643,7.527249 5.2427797,8.0527875 5.1375489,8.6201721 5.1375489,9.2115567 c 0,2.7187693 2.2043077,4.9230763 4.9230771,4.9230763 2.718769,0 4.923077,-2.204307 4.923077,-4.9230763 0,-0.592 -0.104615,-1.1587692 -0.296615,-1.6843077 0.07631,0.045539 0.152615,0.092308 0.228307,0.1403077 z m -4.854769,0.9292308 c 0,1.0196923 -0.8264617,1.8461535 -1.846154,1.8461535 -1.0196923,0 -1.8461538,-0.8264612 -1.8461538,-1.8461535 0,-1.0196923 0.8264615,-1.8461539 1.8461538,-1.8461539 1.0196923,0 1.846154,0.8264616 1.846154,1.8461539 z"
     id="path8"
     inkscape:connector-curvature="0"
     style="fill:#000000" />
</svg>
