<?xml version="1.0" encoding="UTF-8" standalone="no"?>
<!-- Generated by IcoMoon.io -->

<svg
   xmlns:dc="http://purl.org/dc/elements/1.1/"
   xmlns:cc="http://creativecommons.org/ns#"
   xmlns:rdf="http://www.w3.org/1999/02/22-rdf-syntax-ns#"
   xmlns:svg="http://www.w3.org/2000/svg"
   xmlns="http://www.w3.org/2000/svg"
   xmlns:sodipodi="http://sodipodi.sourceforge.net/DTD/sodipodi-0.dtd"
   xmlns:inkscape="http://www.inkscape.org/namespaces/inkscape"
   version="1.1"
   width="20"
   height="20"
   viewBox="0 0 20 20"
   id="svg2"
   inkscape:version="0.48.4 r9939"
   sodipodi:docname="images.svg">
  <metadata
     id="metadata14">
    <rdf:RDF>
      <cc:Work
         rdf:about="">
        <dc:format>image/svg+xml</dc:format>
        <dc:type
           rdf:resource="http://purl.org/dc/dcmitype/StillImage" />
      </cc:Work>
    </rdf:RDF>
  </metadata>
  <defs
     id="defs12" />
  <sodipodi:namedview
     pagecolor="#ffffff"
     bordercolor="#666666"
     borderopacity="1"
     objecttolerance="10"
     gridtolerance="10"
     guidetolerance="10"
     inkscape:pageopacity="0"
     inkscape:pageshadow="2"
     inkscape:window-width="1364"
     inkscape:window-height="718"
     id="namedview10"
     showgrid="false"
     inkscape:zoom="7.375"
     inkscape:cx="16"
     inkscape:cy="16"
     inkscape:window-x="0"
     inkscape:window-y="25"
     inkscape:window-maximized="1"
     inkscape:current-layer="svg2" />
  <g
     id="g4"
     transform="matrix(0.61538462,0,0,0.61538462,-0.19230769,-1.230769)">
    <line
       x1="0"
       y1="0"
       x2="0"
       y2="0"
       opacity=""
       id="line6"
       style="stroke:#449fdb;stroke-width:1" />
  </g>
  <path
     d="m 1.4556714,4.0990877 0,12.3076923 17.2307686,0 0,-12.3076923 z M 17.455671,14.355703 14.994132,10.252934 12.204594,12.577857 10.071056,9.0221647 2.6864406,15.176011 l 0,-9.8461543 14.7692304,0 z M 3.9172098,8.4067797 c 0,-1.019692 0.8264616,-1.846154 1.8461539,-1.846154 1.0196923,0 1.8461538,0.826462 1.8461538,1.846154 0,1.019692 -0.8264615,1.8461543 -1.8461538,1.8461543 -1.0196923,0 -1.8461539,-0.8264623 -1.8461539,-1.8461543 z"
     id="path8"
     inkscape:connector-curvature="0"
     style="fill:#000000"
     sodipodi:nodetypes="cccccccccccccsssss" />
</svg>
