<?xml version="1.0" encoding="UTF-8" standalone="no"?>
<!-- Generated by IcoMoon.io -->

<svg
   xmlns:osb="http://www.openswatchbook.org/uri/2009/osb"
   xmlns:dc="http://purl.org/dc/elements/1.1/"
   xmlns:cc="http://creativecommons.org/ns#"
   xmlns:rdf="http://www.w3.org/1999/02/22-rdf-syntax-ns#"
   xmlns:svg="http://www.w3.org/2000/svg"
   xmlns="http://www.w3.org/2000/svg"
   xmlns:sodipodi="http://sodipodi.sourceforge.net/DTD/sodipodi-0.dtd"
   xmlns:inkscape="http://www.inkscape.org/namespaces/inkscape"
   version="1.1"
   width="20"
   height="20"
   viewBox="0 0 20 20"
   id="svg2"
   inkscape:version="0.48.4 r9939"
   sodipodi:docname="plus.svg">
  <metadata
     id="metadata14">
    <rdf:RDF>
      <cc:Work
         rdf:about="">
        <dc:format>image/svg+xml</dc:format>
        <dc:type
           rdf:resource="http://purl.org/dc/dcmitype/StillImage" />
        <dc:title></dc:title>
      </cc:Work>
    </rdf:RDF>
  </metadata>
  <defs
     id="defs12">
    <linearGradient
       id="linearGradient5249"
       osb:paint="solid">
      <stop
         style="stop-color:#000000;stop-opacity:1;"
         offset="0"
         id="stop5251" />
    </linearGradient>
    <linearGradient
       id="linearGradient5243"
       osb:paint="solid">
      <stop
         style="stop-color:#000000;stop-opacity:1;"
         offset="0"
         id="stop5245" />
    </linearGradient>
  </defs>
  <sodipodi:namedview
     pagecolor="#ffffff"
     bordercolor="#666666"
     borderopacity="1"
     objecttolerance="10"
     gridtolerance="10"
     guidetolerance="10"
     inkscape:pageopacity="0"
     inkscape:pageshadow="2"
     inkscape:window-width="1364"
     inkscape:window-height="718"
     id="namedview10"
     showgrid="false"
     inkscape:zoom="22.627416"
     inkscape:cx="9.2053141"
     inkscape:cy="10.700992"
     inkscape:window-x="0"
     inkscape:window-y="25"
     inkscape:window-maximized="1"
     inkscape:current-layer="svg2"
     showguides="true"
     inkscape:guide-bbox="true">
    <sodipodi:guide
       orientation="1,0"
       position="10.076272,13.876971"
       id="guide2991" />
    <sodipodi:guide
       orientation="0,1"
       position="15.998292,9.8994954"
       id="guide2993" />
  </sodipodi:namedview>
  <g
     id="g4"
     transform="matrix(0.61538462,0,0,0.61538462,-0.19230769,0.307692)">
    <line
       x1="0"
       y1="0"
       x2="0"
       y2="0"
       opacity=""
       id="line6"
       style="stroke:#449fdb;stroke-width:1" />
  </g>
  <path
     d="M 9.5624049,3.8584627 H 6.2265097 V 0.52256707 c 0,-0.16740115 -0.1355587,-0.30326342 -0.3032634,-0.30326342 H 4.1036676 c -0.1677046,0 -0.3032633,0.13586227 -0.3032633,0.30326342 V 3.8584627 H 0.46450893 c -0.16770456,0 -0.30326322,0.1358618 -0.30326322,0.3032629 v 1.8195797 c 0,0.1677047 0.13555866,0.3032634 0.30326322,0.3032634 H 3.8004043 v 3.3358951 c 0,0.1677047 0.1355587,0.3032634 0.3032633,0.3032634 h 1.8195787 c 0.1677047,0 0.3032634,-0.1355587 0.3032634,-0.3032634 V 6.2845687 h 3.3358952 c 0.1677047,0 0.3032634,-0.1355587 0.3032634,-0.3032634 V 4.1617256 c 0,-0.1674011 -0.1355587,-0.3032629 -0.3032634,-0.3032629 z"
     id="path8"
     inkscape:connector-curvature="0"
     style="fill:#000000" />
  <path
     d="m 10.418471,14.097902 h 9.30349 c 0.171494,0 0.310116,0.141408 0.310116,0.315641 v 1.893843 c 0,0.174549 -0.138622,0.31564 -0.310116,0.31564 h -9.30349 c -0.171184,0 -0.310116,-0.141091 -0.310116,-0.31564 v -1.893843 c 0,-0.174233 0.138932,-0.315641 0.310116,-0.315641 z"
     id="path8-2"
     inkscape:connector-curvature="0"
     style="fill:#000000" />
  <rect
     style="fill:#000000;fill-opacity:1;stroke:none"
     id="rect5257"
     width="27.515127"
     height="1.949914"
     x="-13.697494"
     y="13.246222"
     transform="matrix(0.70710678,-0.70710678,0.70710678,0.70710678,0,0)"
     ry="0.88120699" />
</svg>
