<?xml version="1.0" encoding="UTF-8" standalone="no"?>
<!-- Generated by IcoMoon.io -->

<svg
   xmlns:dc="http://purl.org/dc/elements/1.1/"
   xmlns:cc="http://creativecommons.org/ns#"
   xmlns:rdf="http://www.w3.org/1999/02/22-rdf-syntax-ns#"
   xmlns:svg="http://www.w3.org/2000/svg"
   xmlns="http://www.w3.org/2000/svg"
   xmlns:sodipodi="http://sodipodi.sourceforge.net/DTD/sodipodi-0.dtd"
   xmlns:inkscape="http://www.inkscape.org/namespaces/inkscape"
   version="1.1"
   width="20"
   height="20"
   viewBox="0 0 20 20"
   id="svg2"
   inkscape:version="0.48.4 r9939"
   sodipodi:docname="plus.svg">
  <metadata
     id="metadata14">
    <rdf:RDF>
      <cc:Work
         rdf:about="">
        <dc:format>image/svg+xml</dc:format>
        <dc:type
           rdf:resource="http://purl.org/dc/dcmitype/StillImage" />
      </cc:Work>
    </rdf:RDF>
  </metadata>
  <defs
     id="defs12" />
  <sodipodi:namedview
     pagecolor="#ffffff"
     bordercolor="#666666"
     borderopacity="1"
     objecttolerance="10"
     gridtolerance="10"
     guidetolerance="10"
     inkscape:pageopacity="0"
     inkscape:pageshadow="2"
     inkscape:window-width="1364"
     inkscape:window-height="718"
     id="namedview10"
     showgrid="false"
     inkscape:zoom="11.313708"
     inkscape:cx="16.885777"
     inkscape:cy="15.810083"
     inkscape:window-x="0"
     inkscape:window-y="25"
     inkscape:window-maximized="1"
     inkscape:current-layer="svg2" />
  <g
     id="g4"
     transform="matrix(0.61538462,0,0,0.61538462,-0.19230769,0.307692)">
    <line
       x1="0"
       y1="0"
       x2="0"
       y2="0"
       opacity=""
       id="line6"
       style="stroke:#449fdb;stroke-width:1" />
  </g>
  <path
     d="m 19.238167,7.6039197 h -6.76923 V 0.83468865 c 0,-0.339692 -0.275077,-0.615385 -0.615385,-0.615385 H 8.1612455 c -0.3403077,0 -0.6153846,0.275693 -0.6153846,0.615385 V 7.6039197 H 0.77663032 c -0.34030769,0 -0.61538461,0.275692 -0.61538461,0.615384 v 3.6923083 c 0,0.340308 0.27507692,0.615385 0.61538461,0.615385 H 7.5458609 v 6.76923 c 0,0.340308 0.2750769,0.615385 0.6153846,0.615385 h 3.6923065 c 0.340308,0 0.615385,-0.275077 0.615385,-0.615385 v -6.76923 h 6.76923 c 0.340308,0 0.615385,-0.275077 0.615385,-0.615385 V 8.2193037 c 0,-0.339692 -0.275077,-0.615384 -0.615385,-0.615384 z"
     id="path8"
     inkscape:connector-curvature="0"
     style="fill:#000000" />
</svg>
