<?xml version="1.0" encoding="UTF-8" standalone="no"?>
<!-- Generated by IcoMoon.io -->

<svg
   xmlns:dc="http://purl.org/dc/elements/1.1/"
   xmlns:cc="http://creativecommons.org/ns#"
   xmlns:rdf="http://www.w3.org/1999/02/22-rdf-syntax-ns#"
   xmlns:svg="http://www.w3.org/2000/svg"
   xmlns="http://www.w3.org/2000/svg"
   xmlns:sodipodi="http://sodipodi.sourceforge.net/DTD/sodipodi-0.dtd"
   xmlns:inkscape="http://www.inkscape.org/namespaces/inkscape"
   version="1.1"
   width="20"
   height="20"
   viewBox="0 0 20 20"
   id="svg2"
   inkscape:version="0.48.4 r9939"
   sodipodi:docname="polygon.svg">
  <metadata
     id="metadata12">
    <rdf:RDF>
      <cc:Work
         rdf:about="">
        <dc:format>image/svg+xml</dc:format>
        <dc:type
           rdf:resource="http://purl.org/dc/dcmitype/StillImage" />
        <dc:title></dc:title>
      </cc:Work>
    </rdf:RDF>
  </metadata>
  <defs
     id="defs10" />
  <sodipodi:namedview
     pagecolor="#ffffff"
     bordercolor="#666666"
     borderopacity="1"
     objecttolerance="10"
     gridtolerance="10"
     guidetolerance="10"
     inkscape:pageopacity="0"
     inkscape:pageshadow="2"
     inkscape:window-width="1364"
     inkscape:window-height="718"
     id="namedview8"
     showgrid="false"
     inkscape:snap-grids="false"
     inkscape:zoom="8"
     inkscape:cx="41.117062"
     inkscape:cy="10.597147"
     inkscape:window-x="0"
     inkscape:window-y="0"
     inkscape:window-maximized="1"
     inkscape:current-layer="svg2" />
  <g
     id="g4"
     transform="translate(0,-12)" />
  <path
     d="m 18.573795,3.69176 -0.918097,6.484172 c 0.325407,0.143329 0.589149,0.367905 0.791226,0.673729 0.202076,0.305824 0.302907,0.647688 0.30249,1.025593 0,0.520817 -0.182286,0.963512 -0.546858,1.328083 -0.364572,0.364572 -0.807266,0.546858 -1.328083,0.546858 -0.377489,0 -0.729144,-0.104163 -1.054967,-0.31249 L 9.8628168,17.44133 c 0.091247,0.221243 0.1368707,0.449153 0.1368707,0.683729 0,0.520816 -0.1822862,0.963511 -0.5468579,1.328083 C 9.0882579,19.817714 8.645563,20 8.1247461,20 7.6039293,20 7.1612343,19.817714 6.7966626,19.453142 6.4320909,19.08857 6.2498047,18.645875 6.2498047,18.125059 c 0,-0.234576 0.045624,-0.462486 0.1368707,-0.683729 L 2.55867,13.613325 c -0.221243,0.09125 -0.4491526,0.13687 -0.6837286,0.13687 -0.520817,0 -0.96351157,-0.182286 -1.32808349,-0.546858 C 0.18228597,12.838766 0,12.396071 0,11.875254 0,11.354437 0.18228597,10.911742 0.54685791,10.54717 0.91142983,10.182599 1.3541244,10.000312 1.8749414,10.000312 c 0.2866577,0 0.566649,0.06521 0.8399738,0.195619 L 6.3479266,6.211681 C 6.3154276,6.107517 6.2910536,6.006583 6.2748036,5.908878 6.2585546,5.811168 6.2504296,5.716696 6.2504296,5.625449 c 0,-0.260408 0.045574,-0.501286 0.1367145,-0.722633 C 6.4782871,4.681468 6.6150013,4.479652 6.7972875,4.297366 6.9795737,4.11508 7.1813899,3.978365 7.4027373,3.887222 7.6240848,3.796082 7.8649622,3.750508 8.125371,3.750508 c 0.2864492,0 0.5484722,0.05698 0.7860692,0.170932 0.2375969,0.113955 0.4507671,0.284887 0.6395112,0.512796 L 16.269492,1.738696 C 16.295742,1.257044 16.487818,0.846849 16.845724,0.508109 17.203629,0.16937 17.630074,0 18.125059,0 18.645875,0 19.08857,0.182286 19.453142,0.546858 19.817714,0.91143 20,1.354124 20,1.874941 c 0,0.42957 -0.133538,0.813725 -0.400612,1.152464 -0.267075,0.33874 -0.60894,0.560191 -1.025593,0.664355 z M 7.1285272,7.207275 3.5736383,11.094028 c 0.1170797,0.260409 0.1756195,0.520817 0.1756195,0.781226 0,0.31249 -0.084581,0.618522 -0.253742,0.918096 l 3.711134,3.711134 c 0.2995738,-0.169161 0.6056061,-0.253742 0.9180963,-0.253742 0.3254067,0 0.6378969,0.08458 0.9374707,0.253742 l 6.0348112,-4.062373 c -0.01625,-0.04885 -0.03047,-0.09729 -0.04265,-0.145308 -0.01219,-0.04802 -0.02234,-0.09562 -0.03047,-0.142808 -0.0081,-0.04719 -0.01422,-0.09396 -0.01828,-0.140308 -0.0041,-0.04635 -0.0061,-0.09229 -0.0061,-0.137808 0,-0.03583 0.01324,-0.09857 0.03544,-0.174735 0.0222,-0.07617 0.05335,-0.165774 0.08918,-0.255352 0.03583,-0.08958 0.133743,-0.395699 0.201359,-0.505375 0.06661,-0.108039 0.09793,-0.193169 0.311701,-0.417759 L 9.7788594,6.503314 C 9.7251484,6.596084 9.6871974,6.653405 9.6871974,6.653405 9.4202788,7.037482 9.1891661,7.164815 9.0915129,7.225829 8.9938599,7.286839 8.8929516,7.337688 8.788788,7.378363 8.6846243,7.419033 8.5772058,7.449543 8.4665324,7.469883 8.355859,7.490223 8.24193,7.500393 8.1247462,7.500393 c -0.087914,0 -0.1746039,-0.0061 -0.26007,-0.01832 C 7.7792102,7.469863 7.6949678,7.451533 7.6119497,7.427113 7.5289317,7.402683 7.4471374,7.372153 7.3665668,7.335513 7.2859958,7.298873 7.2066499,7.256133 7.1285273,7.207275 z m 2.6515965,-0.702791 5.8593193,4.021091 c 0.09719,-0.11847 0.202301,-0.209921 0.255217,-0.243279 0.05292,-0.03336 0.107861,-0.06386 0.164838,-0.09152 0.05698,-0.02765 0.115986,-0.05246 0.177026,-0.07441 0.06104,-0.02195 0.12411,-0.04105 0.189213,-0.0573 L 17.343833,3.574893 C 17.018426,3.418648 16.75156,3.190739 16.543233,2.891165 L 9.9809381,5.508583 c 0,0.0032 2.069e-4,0.0069 6.219e-4,0.01094 4.149e-4,0.0041 0.00106,0.0085 0.00187,0.01344 8.125e-4,0.0049 0.00187,0.01021 0.00312,0.01594 0.00125,0.0057 0.00269,0.01187 0.00437,0.01844 0.00169,0.0066 0.00312,0.01271 0.00437,0.01844 0.00125,0.0057 0.00231,0.01104 0.00312,0.01594 8.125e-4,0.0049 0.00144,0.0094 0.00187,0.01344 4.16e-4,0.0041 6.23e-4,0.0077 6.23e-4,0.01094 0,0.01625 -4.04e-4,0.03454 -0.00119,0.05488 -8.125e-4,0.02034 -0.002,0.04272 -0.00362,0.06715 -0.00163,0.02443 -0.00362,0.0509 -0.00606,0.07941 -0.00244,0.02851 -0.015012,0.09325 -0.018243,0.125855 L 9.943441,6.092397 9.902811,6.211866 9.860994,6.345983 c 0,0 -0.019856,0.04135 -0.080894,0.15853 z"
     id="path6"
     inkscape:connector-curvature="0"
     style="fill:#000000"
     sodipodi:nodetypes="ccscssccsssssccsssssccsssssssccssssscccsccsccssssssscccssssssscccsssccccsssssssssssccccc" />
</svg>
