<?xml version="1.0" encoding="UTF-8" standalone="no"?>
<!-- Generated by IcoMoon.io -->

<svg
   xmlns:dc="http://purl.org/dc/elements/1.1/"
   xmlns:cc="http://creativecommons.org/ns#"
   xmlns:rdf="http://www.w3.org/1999/02/22-rdf-syntax-ns#"
   xmlns:svg="http://www.w3.org/2000/svg"
   xmlns="http://www.w3.org/2000/svg"
   xmlns:sodipodi="http://sodipodi.sourceforge.net/DTD/sodipodi-0.dtd"
   xmlns:inkscape="http://www.inkscape.org/namespaces/inkscape"
   version="1.1"
   width="20"
   height="20"
   viewBox="0 0 20 20"
   id="svg2"
   inkscape:version="0.48.4 r9939"
   sodipodi:docname="print.svg">
  <metadata
     id="metadata13">
    <rdf:RDF>
      <cc:Work
         rdf:about="">
        <dc:format>image/svg+xml</dc:format>
        <dc:type
           rdf:resource="http://purl.org/dc/dcmitype/StillImage" />
      </cc:Work>
    </rdf:RDF>
  </metadata>
  <defs
     id="defs11" />
  <sodipodi:namedview
     pagecolor="#ffffff"
     bordercolor="#666666"
     borderopacity="1"
     objecttolerance="10"
     gridtolerance="10"
     guidetolerance="10"
     inkscape:pageopacity="0"
     inkscape:pageshadow="2"
     inkscape:window-width="1364"
     inkscape:window-height="718"
     id="namedview9"
     showgrid="false"
     inkscape:zoom="10.226991"
     inkscape:cx="-8.0331105"
     inkscape:cy="12.385337"
     inkscape:window-x="0"
     inkscape:window-y="25"
     inkscape:window-maximized="1"
     inkscape:current-layer="svg2" />
  <g
     id="icomoon-ignore"
     transform="translate(0,-12)">
    <line
       x1="0"
       y1="0"
       x2="0"
       y2="0"
       opacity=""
       id="line5"
       style="stroke:#449fdb;stroke-width:1" />
  </g>
  <path
     d="m -3.2693926e-4,16.252122 v -5.000169 q 0,-0.949688 0.67911828926,-1.628807 Q 1.3579096,8.944028 2.3075984,8.944028 H 3.0769068 V 2.405916 q 0,-0.480565 0.3365304,-0.817096 0.3365303,-0.33653 0.8170957,-0.33653 h 8.0767291 q 0.480565,0 1.057378,0.240283 0.576813,0.240282 0.913344,0.576813 l 1.826687,1.826687 q 0.33653,0.33653 0.576813,0.913343 0.240282,0.576813 0.240282,1.057378 v 3.076561 h 0.769309 q 0.949688,0 1.628807,0.679118 Q 19.999,10.301592 19.999,11.25128 v 5.000169 q 0,0.15615 -0.11442,0.27057 -0.114421,0.11442 -0.270571,0.11442 h -2.692243 v 1.922935 q 0,0.480565 -0.33653,0.817096 Q 16.248706,19.713 15.76814,19.713 H 4.2298598 q -0.4805653,0 -0.8170957,-0.33653 Q 3.0762337,19.039939 3.0762337,18.559374 V 16.636439 H 0.38399075 q -0.1561501,0 -0.27057042,-0.11442 Q -0.001,16.407599 -0.001,16.251449 z M 4.6148506,18.175729 H 15.383822 v -3.07656 H 4.6148506 v 3.07656 z m 0,-7.692411 H 15.383822 V 5.868141 h -1.922934 q -0.480565,0 -0.817096,-0.336531 -0.33653,-0.33653 -0.33653,-0.817096 V 2.79158 H 4.6148506 v 7.692411 z m 12.3075884,0.769308 q 0,0.312301 0.228168,0.541141 0.228168,0.228841 0.541141,0.228168 0.312973,-6.73e-4 0.541141,-0.228168 0.228167,-0.227494 0.228167,-0.541141 0,-0.313646 -0.228167,-0.54114 -0.228168,-0.227495 -0.541141,-0.228168 -0.312973,-6.73e-4 -0.541141,0.228168 -0.228168,0.22884 -0.228168,0.54114 z"
     id="path7"
     inkscape:connector-curvature="0"
     style="fill:#000000" />
</svg>
