<?xml version="1.0" encoding="UTF-8" standalone="no"?>
<!-- Generated by IcoMoon.io -->

<svg
   xmlns:dc="http://purl.org/dc/elements/1.1/"
   xmlns:cc="http://creativecommons.org/ns#"
   xmlns:rdf="http://www.w3.org/1999/02/22-rdf-syntax-ns#"
   xmlns:svg="http://www.w3.org/2000/svg"
   xmlns="http://www.w3.org/2000/svg"
   xmlns:sodipodi="http://sodipodi.sourceforge.net/DTD/sodipodi-0.dtd"
   xmlns:inkscape="http://www.inkscape.org/namespaces/inkscape"
   version="1.1"
   width="20"
   height="20"
   viewBox="0 0 20 20"
   id="svg2"
   inkscape:version="0.48.4 r9939"
   sodipodi:docname="cancel-circle.svg">
  <metadata
     id="metadata14">
    <rdf:RDF>
      <cc:Work
         rdf:about="">
        <dc:format>image/svg+xml</dc:format>
        <dc:type
           rdf:resource="http://purl.org/dc/dcmitype/StillImage" />
      </cc:Work>
    </rdf:RDF>
  </metadata>
  <defs
     id="defs12" />
  <sodipodi:namedview
     pagecolor="#ffffff"
     bordercolor="#666666"
     borderopacity="1"
     objecttolerance="10"
     gridtolerance="10"
     guidetolerance="10"
     inkscape:pageopacity="0"
     inkscape:pageshadow="2"
     inkscape:window-width="1364"
     inkscape:window-height="718"
     id="namedview10"
     showgrid="false"
     inkscape:zoom="11.313708"
     inkscape:cx="6.6991703"
     inkscape:cy="11.920549"
     inkscape:window-x="0"
     inkscape:window-y="25"
     inkscape:window-maximized="1"
     inkscape:current-layer="svg2" />
  <g
     id="g4"
     transform="matrix(0.61538462,0,0,0.61538462,-0.19230769,0.307692)">
    <line
       x1="0"
       y1="0"
       x2="0"
       y2="0"
       opacity=""
       id="line6"
       style="stroke:#449fdb;stroke-width:1" />
  </g>
  <path
     d="m 10.007399,0.307692 c -5.4381535,0 -9.84615329,4.408 -9.84615329,9.846154 C 0.16124571,15.592 4.5692455,20 10.007399,20 c 5.438153,0 9.846153,-4.408 9.846153,-9.846154 0,-5.438154 -4.408,-9.846154 -9.846153,-9.846154 z m 4.923076,6.663385 -3.182769,3.182769 3.182769,3.182769 v 1.740308 H 13.190167 L 10.007399,11.894154 6.8246301,15.076923 H 5.0843224 V 13.336615 L 8.2670917,10.153846 5.0843224,6.971077 V 5.230769 h 1.7403077 l 3.1827689,3.182769 3.182768,-3.182769 h 1.740308 v 1.740308 z"
     id="path8"
     inkscape:connector-curvature="0"
     style="fill:#000000" />
</svg>
