<?xml version="1.0" encoding="UTF-8" standalone="no"?>
<!-- Generated by IcoMoon.io -->

<svg
   xmlns:dc="http://purl.org/dc/elements/1.1/"
   xmlns:cc="http://creativecommons.org/ns#"
   xmlns:rdf="http://www.w3.org/1999/02/22-rdf-syntax-ns#"
   xmlns:svg="http://www.w3.org/2000/svg"
   xmlns="http://www.w3.org/2000/svg"
   xmlns:sodipodi="http://sodipodi.sourceforge.net/DTD/sodipodi-0.dtd"
   xmlns:inkscape="http://www.inkscape.org/namespaces/inkscape"
   version="1.1"
   width="28"
   height="32"
   viewBox="0 0 28 32"
   id="svg2"
   inkscape:version="0.48.4 r9939"
   sodipodi:docname="history.svg">
  <metadata
     id="metadata13">
    <rdf:RDF>
      <cc:Work
         rdf:about="">
        <dc:format>image/svg+xml</dc:format>
        <dc:type
           rdf:resource="http://purl.org/dc/dcmitype/StillImage" />
        <dc:title></dc:title>
      </cc:Work>
    </rdf:RDF>
  </metadata>
  <defs
     id="defs11" />
  <sodipodi:namedview
     pagecolor="#ffffff"
     bordercolor="#666666"
     borderopacity="1"
     objecttolerance="10"
     gridtolerance="10"
     guidetolerance="10"
     inkscape:pageopacity="0"
     inkscape:pageshadow="2"
     inkscape:window-width="1364"
     inkscape:window-height="718"
     id="namedview9"
     showgrid="false"
     inkscape:zoom="7.375"
     inkscape:cx="45.288136"
     inkscape:cy="24.101088"
     inkscape:window-x="0"
     inkscape:window-y="25"
     inkscape:window-maximized="1"
     inkscape:current-layer="svg2" />
  <g
     id="g2997"
     transform="matrix(0.8252757,0,0,0.8252757,0.45501072,1.1329768)">
    <g
       id="icomoon-ignore">
      <line
         id="line5"
         opacity=""
         y2="0"
         x2="0"
         y1="0"
         x1="0"
         style="stroke:#449fdb;stroke-width:1" />
    </g>
    <path
       sodipodi:nodetypes="scccccsssscccssss"
       style="fill:#000000"
       inkscape:connector-curvature="0"
       id="path7"
       d="M 14,2 C 11.158,2 8.521,2.86 6.314,4.314 L 4,2 4,10 12,10 9.25,7.25 C 10.67,6.479 12.271,6 14,6 19.523,6 24,10.476 24,16 24,21.524 19.523,26 14,26 8.476,26 4,21.523 4,16 4,14.576 4.306,13.226 4.844,12 L 2,12 2,8.894 C 0.76,10.985 0,13.394 0,16 0,23.732 6.268,30 14,30 21.732,30 28,23.732 28,16 28,8.268 21.732,2 14,2 z" />
    <path
       sodipodi:nodetypes="sccccss"
       id="path7-3"
       d="m 33.235553,31.473591 -7.785,-7.785 c 0,0 -4.040399,4.078871 -4,4.004 l 7.785,7.781 c 0.547,0.547 1.453,0.543 2,0 l 2,-2 c 0.547,-0.547 0.547,-1.453 0,-2 z"
       inkscape:connector-curvature="0"
       style="fill:#000000" />
  </g>
</svg>
