<?xml version="1.0" encoding="UTF-8" standalone="no"?>
<!-- Generated by IcoMoon.io -->

<svg
   xmlns:dc="http://purl.org/dc/elements/1.1/"
   xmlns:cc="http://creativecommons.org/ns#"
   xmlns:rdf="http://www.w3.org/1999/02/22-rdf-syntax-ns#"
   xmlns:svg="http://www.w3.org/2000/svg"
   xmlns="http://www.w3.org/2000/svg"
   xmlns:sodipodi="http://sodipodi.sourceforge.net/DTD/sodipodi-0.dtd"
   xmlns:inkscape="http://www.inkscape.org/namespaces/inkscape"
   version="1.1"
   width="28"
   height="32"
   viewBox="0 0 28 32"
   id="svg2"
   inkscape:version="0.48.4 r9939"
   sodipodi:docname="reset_rotation.svg">
  <metadata
     id="metadata13">
    <rdf:RDF>
      <cc:Work
         rdf:about="">
        <dc:format>image/svg+xml</dc:format>
        <dc:type
           rdf:resource="http://purl.org/dc/dcmitype/StillImage" />
        <dc:title />
      </cc:Work>
    </rdf:RDF>
  </metadata>
  <defs
     id="defs11" />
  <sodipodi:namedview
     pagecolor="#ffffff"
     bordercolor="#666666"
     borderopacity="1"
     objecttolerance="10"
     gridtolerance="10"
     guidetolerance="10"
     inkscape:pageopacity="0"
     inkscape:pageshadow="2"
     inkscape:window-width="1364"
     inkscape:window-height="718"
     id="namedview9"
     showgrid="false"
     inkscape:zoom="7.375"
     inkscape:cx="45.288136"
     inkscape:cy="24.101088"
     inkscape:window-x="0"
     inkscape:window-y="25"
     inkscape:window-maximized="1"
     inkscape:current-layer="svg2" />
  <g
     id="icomoon-ignore"
     transform="matrix(0.8252757,0,0,0.8252757,0.45501072,1.1329768)">
    <line
       style="stroke:#449fdb;stroke-width:1"
       x1="0"
       y1="0"
       x2="0"
       y2="0"
       opacity=""
       id="line5" />
  </g>
  <path
     d="m 14.008871,2.4784434 c -2.813366,0 -5.4237974,0.8513351 -7.6085617,2.2906856 l -2.2906856,-2.2906856 0,7.9193976 7.9193973,0 L 9.3067287,7.6755476 C 10.712421,6.9123157 12.297291,6.4381418 14.008871,6.4381418 c 5.467353,0 9.899246,4.4309022 9.899246,9.8992462 0,5.468344 -4.431893,9.899246 -9.899246,9.899246 -5.4683435,0 -9.8992461,-4.431892 -9.8992461,-9.899246 0,-1.409653 0.3029166,-2.746051 0.8354956,-3.959698 l -2.8153455,0 0,-3.0747062 C 0.90226832,11.372915 0.14992625,13.757645 0.14992625,16.337388 c 0,7.654097 6.20484735,13.858945 13.85894475,13.858945 7.654096,0 13.858944,-6.204848 13.858944,-13.858945 0,-7.6540971 -6.204848,-13.8589446 -13.858944,-13.8589446 z"
     id="path7"
     inkscape:connector-curvature="0"
     style="fill:#000000"
     sodipodi:nodetypes="scccccsssscccssss" />
</svg>
