<?xml version="1.0" encoding="UTF-8" standalone="no"?>
<!-- Generated by IcoMoon.io -->

<svg
   xmlns:dc="http://purl.org/dc/elements/1.1/"
   xmlns:cc="http://creativecommons.org/ns#"
   xmlns:rdf="http://www.w3.org/1999/02/22-rdf-syntax-ns#"
   xmlns:svg="http://www.w3.org/2000/svg"
   xmlns="http://www.w3.org/2000/svg"
   xmlns:sodipodi="http://sodipodi.sourceforge.net/DTD/sodipodi-0.dtd"
   xmlns:inkscape="http://www.inkscape.org/namespaces/inkscape"
   version="1.1"
   width="20"
   height="20"
   viewBox="0 0 20 20"
   id="svg2"
   inkscape:version="0.48.4 r9939"
   sodipodi:docname="loop.svg">
  <metadata
     id="metadata13">
    <rdf:RDF>
      <cc:Work
         rdf:about="">
        <dc:format>image/svg+xml</dc:format>
        <dc:type
           rdf:resource="http://purl.org/dc/dcmitype/StillImage" />
        <dc:title></dc:title>
      </cc:Work>
    </rdf:RDF>
  </metadata>
  <defs
     id="defs11" />
  <sodipodi:namedview
     pagecolor="#ffffff"
     bordercolor="#666666"
     borderopacity="1"
     objecttolerance="10"
     gridtolerance="10"
     guidetolerance="10"
     inkscape:pageopacity="0"
     inkscape:pageshadow="2"
     inkscape:window-width="1364"
     inkscape:window-height="718"
     id="namedview9"
     showgrid="false"
     inkscape:zoom="7.375"
     inkscape:cx="16"
     inkscape:cy="16"
     inkscape:window-x="0"
     inkscape:window-y="25"
     inkscape:window-maximized="1"
     inkscape:current-layer="svg2" />
  <g
     id="icomoon-ignore"
     transform="matrix(-1,0,0,1,28.188,-12)">
    <line
       x1="0"
       y1="0"
       x2="0"
       y2="0"
       opacity=""
       id="line5"
       style="stroke:#449fdb;stroke-width:1" />
  </g>
  <path
     d="m 2.9490564,13.626121 c 0,0.525693 0.2624527,0.739281 0.7881462,0.739281 H 16.347543 v -2.51261 l 3.69483,3.694829 -3.645177,3.645177 -0.04965,-2.462957 H 2.1609101 c -0.8701135,0 -1.57629258,-0.706179 -1.57629258,-1.576293 V 8.3723366 L 2.9490564,10.736777 v 2.889344 z M 17.135689,7.2232193 c 0,-0.5256936 -0.262452,-0.7392812 -0.788146,-0.7392812 H 3.7372026 V 8.9965484 L 0.04237288,5.3017187 3.6875494,1.6565422 3.7372026,4.1194993 H 17.923836 c 0.870113,0 1.576292,0.706179 1.576292,1.5762925 V 12.477004 L 17.135689,10.112565 V 7.2232193 z"
     id="path7"
     inkscape:connector-curvature="0"
     style="fill:#000000" />
</svg>
