<?xml version="1.0" encoding="UTF-8" standalone="no"?>
<!-- Generated by IcoMoon.io -->

<svg
   xmlns:dc="http://purl.org/dc/elements/1.1/"
   xmlns:cc="http://creativecommons.org/ns#"
   xmlns:rdf="http://www.w3.org/1999/02/22-rdf-syntax-ns#"
   xmlns:svg="http://www.w3.org/2000/svg"
   xmlns="http://www.w3.org/2000/svg"
   xmlns:sodipodi="http://sodipodi.sourceforge.net/DTD/sodipodi-0.dtd"
   xmlns:inkscape="http://www.inkscape.org/namespaces/inkscape"
   version="1.1"
   width="20"
   height="20"
   viewBox="0 0 20 20"
   id="svg2"
   inkscape:version="0.48.4 r9939"
   sodipodi:docname="undo.svg">
  <metadata
     id="metadata14">
    <rdf:RDF>
      <cc:Work
         rdf:about="">
        <dc:format>image/svg+xml</dc:format>
        <dc:type
           rdf:resource="http://purl.org/dc/dcmitype/StillImage" />
      </cc:Work>
    </rdf:RDF>
  </metadata>
  <defs
     id="defs12" />
  <sodipodi:namedview
     pagecolor="#ffffff"
     bordercolor="#666666"
     borderopacity="1"
     objecttolerance="10"
     gridtolerance="10"
     guidetolerance="10"
     inkscape:pageopacity="0"
     inkscape:pageshadow="2"
     inkscape:window-width="1364"
     inkscape:window-height="718"
     id="namedview10"
     showgrid="false"
     inkscape:zoom="14.75"
     inkscape:cx="1.9059083"
     inkscape:cy="12.987822"
     inkscape:window-x="0"
     inkscape:window-y="25"
     inkscape:window-maximized="1"
     inkscape:current-layer="svg2" />
  <g
     id="g4"
     transform="matrix(0.61536568,0,0,0.61536568,-0.19231716,-0.46097)">
    <line
       x1="0"
       y1="0"
       x2="0"
       y2="0"
       opacity=""
       id="line6"
       style="stroke:#449fdb;stroke-width:1" />
  </g>
  <g
     id="g2993"
     transform="matrix(0.92729507,0.00221143,-0.00221143,0.92729507,-7.721494,-15.872825)">
    <path
       style="fill:#000000"
       inkscape:connector-curvature="0"
       id="path8"
       d="m 8.4287393,26.061187 c -0.00632,2.391168 0.9573073,4.558661 2.5205777,6.129674 l -2.5434627,2.529515 6.4947967,0.01716 0.01717,-6.494796 -2.433846,2.421015 c -1.172449,-1.178666 -1.895035,-2.804286 -1.890296,-4.597391 0.0095,-3.586751 2.925209,-6.487111 6.511962,-6.477632 1.939777,0.0051 3.678676,0.860547 4.865285,2.211902 l 1.627483,-1.42781 C 22.016266,18.570654 19.697914,17.430635 17.111361,17.4238 12.328484,17.41116 8.4413861,21.277765 8.4287457,26.060643 z" />
    <path
       d="m 29.856252,30.243064 c 0.02403,-2.317988 -0.8939,-4.426406 -2.397597,-5.961075 l 2.484611,-2.433108 -6.296031,-0.06527 -0.06527,6.296031 2.377534,-2.328748 c 1.127769,1.151394 1.816083,2.732706 1.798065,4.470935 -0.03604,3.476983 -2.884312,6.266809 -6.361297,6.230766 -1.880414,-0.01949 -3.559726,-0.861769 -4.699926,-2.18068 l -1.588398,1.371959 c 1.520263,1.758897 3.759176,2.881407 6.266569,2.907399 4.636503,0.04806 8.433667,-3.671186 8.481728,-8.307688 z"
       id="path2991"
       inkscape:connector-curvature="0"
       style="fill:#000000" />
  </g>
</svg>
