<?xml version="1.0" encoding="UTF-8" standalone="no"?>
<!-- Generated by IcoMoon.io -->

<svg
   xmlns:dc="http://purl.org/dc/elements/1.1/"
   xmlns:cc="http://creativecommons.org/ns#"
   xmlns:rdf="http://www.w3.org/1999/02/22-rdf-syntax-ns#"
   xmlns:svg="http://www.w3.org/2000/svg"
   xmlns="http://www.w3.org/2000/svg"
   xmlns:sodipodi="http://sodipodi.sourceforge.net/DTD/sodipodi-0.dtd"
   xmlns:inkscape="http://www.inkscape.org/namespaces/inkscape"
   version="1.1"
   width="20"
   height="20"
   viewBox="0 0 20 20"
   id="svg2"
   inkscape:version="0.48.4 r9939"
   sodipodi:docname="selection.svg">
  <metadata
     id="metadata13">
    <rdf:RDF>
      <cc:Work
         rdf:about="">
        <dc:format>image/svg+xml</dc:format>
        <dc:type
           rdf:resource="http://purl.org/dc/dcmitype/StillImage" />
      </cc:Work>
    </rdf:RDF>
  </metadata>
  <defs
     id="defs11" />
  <sodipodi:namedview
     pagecolor="#ffffff"
     bordercolor="#666666"
     borderopacity="1"
     objecttolerance="10"
     gridtolerance="10"
     guidetolerance="10"
     inkscape:pageopacity="0"
     inkscape:pageshadow="2"
     inkscape:window-width="1364"
     inkscape:window-height="718"
     id="namedview9"
     showgrid="false"
     inkscape:zoom="10.429825"
     inkscape:cx="11.141057"
     inkscape:cy="10.143747"
     inkscape:window-x="0"
     inkscape:window-y="25"
     inkscape:window-maximized="1"
     inkscape:current-layer="svg2"
     showguides="true"
     inkscape:guide-bbox="true">
    <sodipodi:guide
       orientation="1,0"
       position="10.033898,11.525424"
       id="guide2984" />
    <sodipodi:guide
       orientation="0,1"
       position="18.847458,10.033898"
       id="guide2986" />
  </sodipodi:namedview>
  <g
     id="icomoon-ignore"
     transform="translate(0,-12)">
    <line
       x1="0"
       y1="0"
       x2="0"
       y2="0"
       opacity=""
       id="line5"
       style="stroke:#449fdb;stroke-width:1" />
  </g>
  <path
     d="m 1.6584617,4.1180719 v 1.658462 H 4.4390089e-8 V 4.1180719 H 1.6584617 z M 4.4390089e-8,1.6303789 C 4.4390089e-8,0.71490889 0.74299083,-0.02808211 1.6584617,-0.02808211 H 2.4876925 V 1.6303789 c -0.4585646,0 -0.8292308,0.370667 -0.8292308,0.829231 H 4.4390089e-8 V 1.6303789 z M 4.1461543,1.6303789 V -0.02808211 H 5.8046159 V 1.6303789 H 4.1461543 z M 1.6584617,10.751919 c 0,0.458564 0.3706662,0.82923 0.8292308,0.82923 v 1.658463 H 1.6584617 C 0.74299083,13.239612 4.4390089e-8,12.496621 4.4390089e-8,11.581149 v -0.82923 H 1.6584617 z m 0,-3.3169231 v 1.658461 H 4.4390089e-8 V 7.4349949 H 1.6584617 z m 2.4876926,5.8046161 v -1.658463 h 1.6584616 v 1.658463 H 4.1461543 z M 11.609232,5.7765339 v -1.658462 h 1.658462 v 1.658462 H 11.609232 z M 7.4630774,13.239612 v -1.658463 h 1.6584625 v 1.658463 H 7.4630774 z M 11.609232,-0.02808211 c 0.915471,0 1.658462,0.742991 1.658462,1.65846101 v 0.829231 h -1.658462 c 0,-0.458564 -0.370666,-0.829231 -0.829231,-0.829231 v -1.65846101 h 0.829231 z m 0,9.12153901 v -1.658462 h 1.658462 v 1.658462 h -1.658462 z m -0.829231,2.4876921 c 0.458565,0 0.829231,-0.370666 0.829231,-0.82923 h 1.658462 v 0.82923 c 0,0.915472 -0.742991,1.658463 -1.658462,1.658463 H 10.780001 V 11.581149 z M 7.4630774,1.6303789 V -0.02808211 H 9.1215399 V 1.6303789 H 7.4630774 z"
     visibility="false"
     id="path7"
     inkscape:connector-curvature="0"
     style="fill:#000000" />
  <g
     id="g3001"
     transform="matrix(0.31414566,0,0,0.30211868,9.4585856,10.271354)"
     style="stroke:#ffffff;stroke-width:0.99886417;stroke-linecap:round;stroke-linejoin:round;stroke-miterlimit:4;stroke-dasharray:none;stroke-dashoffset:0">
    <g
       id="icomoon-ignore-1"
       style="stroke:#ffffff;stroke-width:0.99886417;stroke-linecap:round;stroke-linejoin:round;stroke-miterlimit:4;stroke-dasharray:none;stroke-dashoffset:0">
      <line
         id="line2991"
         opacity=""
         y2="0"
         x2="0"
         y1="0"
         x1="0"
         style="stroke:#ffffff;stroke-width:0.99886417;stroke-linecap:round;stroke-linejoin:round;stroke-miterlimit:4;stroke-dasharray:none;stroke-dashoffset:0" />
    </g>
    <path
       id="path2993"
       d="M 16.689,17.655 22,30 18,32 13.354,19.322 6,26 V 0 l 20,16 -9.311,1.655 z"
       inkscape:connector-curvature="0"
       style="fill:#000000;stroke:#ffffff;stroke-width:0.99886417;stroke-linecap:round;stroke-linejoin:round;stroke-miterlimit:4;stroke-dasharray:none;stroke-dashoffset:0" />
  </g>
</svg>
