<?xml version="1.0" encoding="UTF-8" standalone="no"?>
<!-- Generated by IcoMoon.io -->

<svg
   xmlns:dc="http://purl.org/dc/elements/1.1/"
   xmlns:cc="http://creativecommons.org/ns#"
   xmlns:rdf="http://www.w3.org/1999/02/22-rdf-syntax-ns#"
   xmlns:svg="http://www.w3.org/2000/svg"
   xmlns="http://www.w3.org/2000/svg"
   xmlns:sodipodi="http://sodipodi.sourceforge.net/DTD/sodipodi-0.dtd"
   xmlns:inkscape="http://www.inkscape.org/namespaces/inkscape"
   version="1.1"
   width="20"
   height="20"
   viewBox="0 0 20 20"
   id="svg2"
   inkscape:version="0.48.4 r9939"
   sodipodi:docname="sidebar_show.svg">
  <metadata
     id="metadata12">
    <rdf:RDF>
      <cc:Work
         rdf:about="">
        <dc:format>image/svg+xml</dc:format>
        <dc:type
           rdf:resource="http://purl.org/dc/dcmitype/StillImage" />
        <dc:title />
      </cc:Work>
    </rdf:RDF>
  </metadata>
  <defs
     id="defs10" />
  <sodipodi:namedview
     pagecolor="#ffffff"
     bordercolor="#666666"
     borderopacity="1"
     objecttolerance="10"
     gridtolerance="10"
     guidetolerance="10"
     inkscape:pageopacity="0"
     inkscape:pageshadow="2"
     inkscape:window-width="1364"
     inkscape:window-height="718"
     id="namedview8"
     showgrid="false"
     inkscape:zoom="29.5"
     inkscape:cx="12.078255"
     inkscape:cy="11.97188"
     inkscape:window-x="0"
     inkscape:window-y="0"
     inkscape:window-maximized="1"
     inkscape:current-layer="svg2" />
  <g
     id="g4"
     transform="matrix(0,0.625,-0.625,0,19.976918,19.999812)" />
  <path
     d="m 19.993546,17.9995 0,-16 c 0,-1.1 -0.9,-2 -2,-2 l -11.9999906,0 c -1.1,0 -1.98,0.9 -1.98,2 l 0,3.98 1.959999,0 0,-4 9.2199916,0 0,16.04 -9.2199916,0 0,-4 -1.96125,0 0,3.98 c 0,1.10125 0.881251,2 1.980001,2 l 12.0012406,0 c 1.1,0 2,-0.89875 2,-2 z M 0.95539868,9.947625 7.9979294,5.09575 l 0,3 c 0,0 3.3013266,0.08475 4.5894626,0.08475 l 0.0678,3.635953 -4.6572586,-0.01694 0,3 z"
     id="path6"
     inkscape:connector-curvature="0"
     style="fill:#000000"
     sodipodi:nodetypes="sssssccccccccsssscccccccc" />
</svg>
