<?xml version="1.0" encoding="UTF-8" standalone="no"?>
<!-- Generated by IcoMoon.io -->

<svg
   xmlns:dc="http://purl.org/dc/elements/1.1/"
   xmlns:cc="http://creativecommons.org/ns#"
   xmlns:rdf="http://www.w3.org/1999/02/22-rdf-syntax-ns#"
   xmlns:svg="http://www.w3.org/2000/svg"
   xmlns="http://www.w3.org/2000/svg"
   xmlns:sodipodi="http://sodipodi.sourceforge.net/DTD/sodipodi-0.dtd"
   xmlns:inkscape="http://www.inkscape.org/namespaces/inkscape"
   version="1.1"
   width="20"
   height="20"
   viewBox="0 0 20 20"
   id="svg2"
   inkscape:version="0.48.4 r9939"
   sodipodi:docname="topbar_show.svg">
  <metadata
     id="metadata12">
    <rdf:RDF>
      <cc:Work
         rdf:about="">
        <dc:format>image/svg+xml</dc:format>
        <dc:type
           rdf:resource="http://purl.org/dc/dcmitype/StillImage" />
        <dc:title />
      </cc:Work>
    </rdf:RDF>
  </metadata>
  <defs
     id="defs10" />
  <sodipodi:namedview
     pagecolor="#ffffff"
     bordercolor="#666666"
     borderopacity="1"
     objecttolerance="10"
     gridtolerance="10"
     guidetolerance="10"
     inkscape:pageopacity="0"
     inkscape:pageshadow="2"
     inkscape:window-width="1364"
     inkscape:window-height="718"
     id="namedview8"
     showgrid="false"
     inkscape:zoom="7.375"
     inkscape:cx="-8.3570136"
     inkscape:cy="12.962002"
     inkscape:window-x="0"
     inkscape:window-y="0"
     inkscape:window-maximized="1"
     inkscape:current-layer="svg2" />
  <g
     id="g4"
     transform="translate(0,-12)" />
  <path
     d="m 18.219823,1.3783104 -16.0000005,0 c -1.1,0 -2.00000002,0.9 -2.00000002,2.0000002 l 0,12.0000004 c 0,1.1 0.90000002,1.98 2.00000002,1.98 l 3.9800004,0 0,-1.96 -4.0000004,0 0,-9.2200006 16.0400005,0 0,9.2200006 -4,0 0,1.96125 3.98,0 c 1.10125,0 1.999999,-0.88125 1.999999,-1.98 l 0,-12.0012504 c 0,-1.1000002 -0.898749,-2.0000002 -1.999999,-2.0000002 z m -8.051875,19.0381566 -4.8518757,-7.042531 3.0000007,0 0.084746,-6.4538775 3.534258,0 0.08475,6.4538775 3,0 z"
     id="path6"
     inkscape:connector-curvature="0"
     style="fill:#000000"
     sodipodi:nodetypes="sssssccccccccsssscccccccc" />
</svg>
