<?xml version="1.0" encoding="UTF-8" standalone="no"?>
<!-- Generated by IcoMoon.io -->

<svg
   xmlns:dc="http://purl.org/dc/elements/1.1/"
   xmlns:cc="http://creativecommons.org/ns#"
   xmlns:rdf="http://www.w3.org/1999/02/22-rdf-syntax-ns#"
   xmlns:svg="http://www.w3.org/2000/svg"
   xmlns="http://www.w3.org/2000/svg"
   xmlns:sodipodi="http://sodipodi.sourceforge.net/DTD/sodipodi-0.dtd"
   xmlns:inkscape="http://www.inkscape.org/namespaces/inkscape"
   version="1.1"
   width="32"
   height="32"
   viewBox="0 0 32 32"
   id="svg2"
   inkscape:version="0.48.4 r9939"
   sodipodi:docname="vertex_indicator.svg">
  <metadata
     id="metadata136">
    <rdf:RDF>
      <cc:Work
         rdf:about="">
        <dc:format>image/svg+xml</dc:format>
        <dc:type
           rdf:resource="http://purl.org/dc/dcmitype/StillImage" />
        <dc:title />
      </cc:Work>
    </rdf:RDF>
  </metadata>
  <defs
     id="defs134" />
  <sodipodi:namedview
     pagecolor="#ffffff"
     bordercolor="#666666"
     borderopacity="1"
     objecttolerance="10"
     gridtolerance="10"
     guidetolerance="10"
     inkscape:pageopacity="0"
     inkscape:pageshadow="2"
     inkscape:window-width="1364"
     inkscape:window-height="718"
     id="namedview132"
     showgrid="false"
     inkscape:zoom="29.5"
     inkscape:cx="9.5387507"
     inkscape:cy="6.6298261"
     inkscape:window-x="0"
     inkscape:window-y="0"
     inkscape:window-maximized="1"
     inkscape:current-layer="layer1" />
  <g
     inkscape:groupmode="layer"
     id="layer1"
     inkscape:label="Capa"
     transform="translate(0,16)">
    <path
       d="M 31.999996,-2.173913e-7 C 31.999996,-8.8365619 24.836555,-16.000003 16.000003,-16.000003 7.1634384,-16.000003 6.5192062e-8,-8.8365619 6.5192062e-8,-2.173913e-7 6.5192062e-8,8.8365545 7.1634384,15.999997 16.000003,15.999997 c 8.836552,0 15.999993,-7.1634425 15.999993,-15.9999972173913 z m -28.9999957,0 C 3.0000003,-7.1796915 8.8203138,-13.000002 16.000003,-13.000002 c 7.17968,0 12.999993,5.8203105 12.999993,13.0000017826087 C 28.999996,7.1796859 23.179683,12.999997 16.000003,12.999997 8.8203138,12.999997 3.0000003,7.1796859 3.0000003,-2.173913e-7 z"
       id="path130"
       inkscape:connector-curvature="0"
       style="fill:#000000"
       sodipodi:nodetypes="ssssssssss" />
  </g>
</svg>
