<?xml version="1.0" encoding="UTF-8" standalone="no"?>
<svg
   xmlns:dc="http://purl.org/dc/elements/1.1/"
   xmlns:cc="http://creativecommons.org/ns#"
   xmlns:rdf="http://www.w3.org/1999/02/22-rdf-syntax-ns#"
   xmlns:svg="http://www.w3.org/2000/svg"
   xmlns="http://www.w3.org/2000/svg"
   xmlns:sodipodi="http://sodipodi.sourceforge.net/DTD/sodipodi-0.dtd"
   xmlns:inkscape="http://www.inkscape.org/namespaces/inkscape"
   width="128"
   height="128"
   id="svg2"
   version="1.1"
   inkscape:version="0.48.4 r9939"
   sodipodi:docname="reconectador_menu.svg">
  <metadata
     id="metadata649">
    <rdf:RDF>
      <cc:Work
         rdf:about="">
        <dc:format>image/svg+xml</dc:format>
        <dc:type
           rdf:resource="http://purl.org/dc/dcmitype/StillImage" />
        <dc:title />
      </cc:Work>
    </rdf:RDF>
  </metadata>
  <sodipodi:namedview
     pagecolor="#ffffff"
     bordercolor="#666666"
     borderopacity="1"
     objecttolerance="10"
     gridtolerance="10"
     guidetolerance="10"
     inkscape:pageopacity="0"
     inkscape:pageshadow="2"
     inkscape:window-width="1364"
     inkscape:window-height="718"
     id="namedview647"
     showgrid="true"
     fit-margin-top="0"
     fit-margin-left="0"
     fit-margin-right="0"
     fit-margin-bottom="0"
     inkscape:zoom="11.313708"
     inkscape:cx="52.775666"
     inkscape:cy="66.159413"
     inkscape:window-x="0"
     inkscape:window-y="0"
     inkscape:window-maximized="1"
     inkscape:current-layer="layer2"
     showguides="true"
     inkscape:guide-bbox="true">
    <inkscape:grid
       type="xygrid"
       id="grid3626"
       empspacing="5"
       visible="true"
       enabled="true"
       snapvisiblegridlinesonly="true" />
    <sodipodi:guide
       orientation="1,0"
       position="64,63"
       id="guide3069" />
    <sodipodi:guide
       orientation="0,1"
       position="64.65625,64"
       id="guide3071" />
  </sodipodi:namedview>
  <desc
     id="desc4">/home/snappler/Escritorio/Simbolos-C DXF_2000.dxf - scale = 0.536199</desc>
  <defs
     id="defs6">
    <marker
       id="DistanceX"
       orient="auto"
       refX="0"
       refY="0"
       style="overflow:visible">
      <path
         d="M 3,-3 -3,3 M 0,-5 0,5"
         style="stroke:#000000;stroke-width:0.5"
         id="path9"
         inkscape:connector-curvature="0" />
    </marker>
    <pattern
       height="8"
       id="Hatch"
       patternUnits="userSpaceOnUse"
       width="8"
       x="0"
       y="0">
      <path
         d="M8 4 l-4,4"
         linecap="square"
         stroke="#000000"
         stroke-width="0.25"
         id="path12" />
      <path
         d="M6 2 l-4,4"
         linecap="square"
         stroke="#000000"
         stroke-width="0.25"
         id="path14" />
      <path
         d="M4 0 l-4,4"
         linecap="square"
         stroke="#000000"
         stroke-width="0.25"
         id="path16" />
    </pattern>
    <symbol
       id="*MODEL_SPACE" />
    <symbol
       id="*PAPER_SPACE" />
    <symbol
       id="POSTE-RD">
      <path
         d="m -10769658,11642373 7,0"
         style="fill:none;stroke:#000000"
         id="path21"
         inkscape:connector-curvature="0" />
      <path
         d="m -10769666,11642377 6,-8"
         style="fill:none;stroke:#000000"
         id="path23"
         inkscape:connector-curvature="0" />
      <path
         d="m -10769658,11642373 a 5,5 0 1 0 -10,0 5,5 0 1 0 10,0 z"
         style="fill:none;stroke:#000000"
         id="path25"
         inkscape:connector-curvature="0" />
      <path
         d="m -10769659,11642376 -8,-6"
         style="fill:none;stroke:#000000"
         id="path27"
         inkscape:connector-curvature="0" />
      <path
         d="m -10769645,11642373 -6,-2 0,4 z"
         style="fill:#000000"
         id="path29"
         inkscape:connector-curvature="0" />
    </symbol>
    <symbol
       id="POSTE-CP">
      <path
         d="m -10769658,11642373 a 5,5 0 1 0 -10,0 5,5 0 1 0 10,0 z"
         style="fill:none;stroke:#000000"
         id="path32"
         inkscape:connector-curvature="0" />
      <path
         d="m -10769666,11642377 6,-8"
         style="fill:none;stroke:#000000"
         id="path34"
         inkscape:connector-curvature="0" />
      <path
         d="m -10769648,11642370 0,6"
         style="fill:none;stroke:#000000"
         id="path36"
         inkscape:connector-curvature="0" />
      <path
         d="m -10769659,11642375 11,1"
         style="fill:none;stroke:#000000"
         id="path38"
         inkscape:connector-curvature="0" />
      <path
         d="m -10769659,11642371 11,-1"
         style="fill:none;stroke:#000000"
         id="path40"
         inkscape:connector-curvature="0" />
      <path
         d="m -10769659,11642376 -8,-6"
         style="fill:none;stroke:#000000"
         id="path42"
         inkscape:connector-curvature="0" />
    </symbol>
    <symbol
       id="POSTE-MA">
      <path
         d="m -10769658,11642373 a 5,5 0 1 0 -10,0 5,5 0 1 0 10,0 z"
         style="fill:none;stroke:#000000"
         id="path45"
         inkscape:connector-curvature="0" />
      <path
         d="m -10769659,11642376 -8,-6"
         style="fill:none;stroke:#000000"
         id="path47"
         inkscape:connector-curvature="0" />
      <path
         d="m -10769666,11642377 6,-8"
         style="fill:none;stroke:#000000"
         id="path49"
         inkscape:connector-curvature="0" />
    </symbol>
    <symbol
       id="POSTE-HA">
      <path
         d="m -10769656,11642373 a 7.21976,7.21976 0 1 0 -14,0 7.21976,7.21976 0 1 0 14,0 z"
         style="fill:none;stroke:#000000"
         id="path52"
         inkscape:connector-curvature="0" />
      <path
         d="m -10769663,11642366 0,14"
         style="fill:none;stroke:#000000"
         id="path54"
         inkscape:connector-curvature="0" />
      <path
         d="m -10769656,11642373 -7,-7 0,14 z"
         style="fill:#000000"
         id="path56"
         inkscape:connector-curvature="0" />
    </symbol>
    <symbol
       id="PAT">
      <path
         d="m -10769663,11642373 0,8"
         style="fill:none;stroke:#000000"
         id="path59"
         inkscape:connector-curvature="0" />
      <path
         d="m -10769663,11642381 5,0"
         style="fill:none;stroke:#000000"
         id="path61"
         inkscape:connector-curvature="0" />
      <path
         d="m -10769663,11642383 4,0"
         style="fill:none;stroke:#000000"
         id="path63"
         inkscape:connector-curvature="0" />
      <path
         d="m -10769663,11642384 3,0"
         style="fill:none;stroke:#000000"
         id="path65"
         inkscape:connector-curvature="0" />
      <path
         d="m -10769663,11642386 2,0"
         style="fill:none;stroke:#000000"
         id="path67"
         inkscape:connector-curvature="0" />
      <path
         d="m -10769663,11642381 -5,0"
         style="fill:none;stroke:#000000"
         id="path69"
         inkscape:connector-curvature="0" />
      <path
         d="m -10769663,11642386 -2,0"
         style="fill:none;stroke:#000000"
         id="path71"
         inkscape:connector-curvature="0" />
      <path
         d="m -10769663,11642384 -3,0"
         style="fill:none;stroke:#000000"
         id="path73"
         inkscape:connector-curvature="0" />
      <path
         d="m -10769663,11642383 -4,0"
         style="fill:none;stroke:#000000"
         id="path75"
         inkscape:connector-curvature="0" />
    </symbol>
    <symbol
       id="PAT-7">
      <path
         inkscape:connector-curvature="0"
         id="path59-5"
         style="fill:none;stroke:#000000"
         d="m -10769663,11642373 0,8" />
      <path
         inkscape:connector-curvature="0"
         id="path61-1"
         style="fill:none;stroke:#000000"
         d="m -10769663,11642381 5,0" />
      <path
         inkscape:connector-curvature="0"
         id="path63-1"
         style="fill:none;stroke:#000000"
         d="m -10769663,11642383 4,0" />
      <path
         inkscape:connector-curvature="0"
         id="path65-8"
         style="fill:none;stroke:#000000"
         d="m -10769663,11642384 3,0" />
      <path
         inkscape:connector-curvature="0"
         id="path67-9"
         style="fill:none;stroke:#000000"
         d="m -10769663,11642386 2,0" />
      <path
         inkscape:connector-curvature="0"
         id="path69-2"
         style="fill:none;stroke:#000000"
         d="m -10769663,11642381 -5,0" />
      <path
         inkscape:connector-curvature="0"
         id="path71-2"
         style="fill:none;stroke:#000000"
         d="m -10769663,11642386 -2,0" />
      <path
         inkscape:connector-curvature="0"
         id="path73-7"
         style="fill:none;stroke:#000000"
         d="m -10769663,11642384 -3,0" />
      <path
         inkscape:connector-curvature="0"
         id="path75-1"
         style="fill:none;stroke:#000000"
         d="m -10769663,11642383 -4,0" />
    </symbol>
    <symbol
       id="POSTE-HA-1">
      <path
         inkscape:connector-curvature="0"
         id="path52-0"
         style="fill:none;stroke:#000000"
         d="m -10769656,11642373 a 7.21976,7.21976 0 1 0 -14,0 7.21976,7.21976 0 1 0 14,0 z" />
      <path
         inkscape:connector-curvature="0"
         id="path54-7"
         style="fill:none;stroke:#000000"
         d="m -10769663,11642366 0,14" />
      <path
         inkscape:connector-curvature="0"
         id="path56-3"
         style="fill:#000000"
         d="m -10769656,11642373 -7,-7 0,14 z" />
    </symbol>
    <symbol
       id="POSTE-MA-4">
      <path
         inkscape:connector-curvature="0"
         id="path45-5"
         style="fill:none;stroke:#000000"
         d="m -10769658,11642373 a 5,5 0 1 0 -10,0 5,5 0 1 0 10,0 z" />
      <path
         inkscape:connector-curvature="0"
         id="path47-0"
         style="fill:none;stroke:#000000"
         d="m -10769659,11642376 -8,-6" />
      <path
         inkscape:connector-curvature="0"
         id="path49-2"
         style="fill:none;stroke:#000000"
         d="m -10769666,11642377 6,-8" />
    </symbol>
    <symbol
       id="POSTE-CP-6">
      <path
         inkscape:connector-curvature="0"
         id="path32-5"
         style="fill:none;stroke:#000000"
         d="m -10769658,11642373 a 5,5 0 1 0 -10,0 5,5 0 1 0 10,0 z" />
      <path
         inkscape:connector-curvature="0"
         id="path34-5"
         style="fill:none;stroke:#000000"
         d="m -10769666,11642377 6,-8" />
      <path
         inkscape:connector-curvature="0"
         id="path36-8"
         style="fill:none;stroke:#000000"
         d="m -10769648,11642370 0,6" />
      <path
         inkscape:connector-curvature="0"
         id="path38-8"
         style="fill:none;stroke:#000000"
         d="m -10769659,11642375 11,1" />
      <path
         inkscape:connector-curvature="0"
         id="path40-1"
         style="fill:none;stroke:#000000"
         d="m -10769659,11642371 11,-1" />
      <path
         inkscape:connector-curvature="0"
         id="path42-9"
         style="fill:none;stroke:#000000"
         d="m -10769659,11642376 -8,-6" />
    </symbol>
    <symbol
       id="POSTE-RD-3">
      <path
         inkscape:connector-curvature="0"
         id="path21-0"
         style="fill:none;stroke:#000000"
         d="m -10769658,11642373 7,0" />
      <path
         inkscape:connector-curvature="0"
         id="path23-4"
         style="fill:none;stroke:#000000"
         d="m -10769666,11642377 6,-8" />
      <path
         inkscape:connector-curvature="0"
         id="path25-2"
         style="fill:none;stroke:#000000"
         d="m -10769658,11642373 a 5,5 0 1 0 -10,0 5,5 0 1 0 10,0 z" />
      <path
         inkscape:connector-curvature="0"
         id="path27-5"
         style="fill:none;stroke:#000000"
         d="m -10769659,11642376 -8,-6" />
      <path
         inkscape:connector-curvature="0"
         id="path29-9"
         style="fill:#000000"
         d="m -10769645,11642373 -6,-2 0,4 z" />
    </symbol>
    <symbol
       id="*PAPER_SPACE-7" />
    <symbol
       id="*MODEL_SPACE-6" />
    <pattern
       y="0"
       x="0"
       width="8"
       patternUnits="userSpaceOnUse"
       id="Hatch-2"
       height="8">
      <path
         id="path12-6"
         stroke-width="0.25"
         stroke="#000000"
         linecap="square"
         d="M8 4 l-4,4" />
      <path
         id="path14-9"
         stroke-width="0.25"
         stroke="#000000"
         linecap="square"
         d="M6 2 l-4,4" />
      <path
         id="path16-2"
         stroke-width="0.25"
         stroke="#000000"
         linecap="square"
         d="M4 0 l-4,4" />
    </pattern>
    <marker
       style="overflow:visible"
       refY="0"
       refX="0"
       orient="auto"
       id="DistanceX-6">
      <path
         inkscape:connector-curvature="0"
         id="path9-3"
         style="stroke:#000000;stroke-width:0.5"
         d="M 3,-3 -3,3 M 0,-5 0,5" />
    </marker>
  </defs>
  <g
     inkscape:groupmode="layer"
     id="layer2"
     inkscape:label="Capa#1">
    <rect
       style="fill:#ffffff;fill-opacity:1;stroke:#ffffff"
       id="rect3398"
       width="52"
       height="38"
       x="38"
       y="45" />
  </g>
  <g
     inkscape:groupmode="layer"
     id="layer1"
     inkscape:label="Capa">
    <g
       id="g952"
       transform="matrix(2.6588044,0,0,-2.6588044,37.440577,63.970065)">
      <path
         inkscape:connector-curvature="0"
         d="M 0,0 -13.08,0"
         style="fill:none;stroke:#000000;stroke-width:0.72000003;stroke-linecap:round;stroke-linejoin:round;stroke-miterlimit:10;stroke-opacity:1;stroke-dasharray:none"
         id="path954" />
      <g
         id="g956"
         transform="translate(33.06,0)">
        <path
           inkscape:connector-curvature="0"
           d="M 0,0 -13.08,0"
           style="fill:none;stroke:#000000;stroke-width:0.72000003;stroke-linecap:round;stroke-linejoin:round;stroke-miterlimit:10;stroke-opacity:1;stroke-dasharray:none"
           id="path958" />
        <g
           id="g960"
           transform="translate(-28.2,-4.02)">
          <path
             inkscape:connector-curvature="0"
             d="m 0,0 0,8.46 2.64,0 0.9,-0.36 0.3,-0.42 0.3,-0.84 0,-0.78 L 3.84,5.22 3.54,4.86 2.64,4.44 0,4.44"
             style="fill:none;stroke:#000000;stroke-width:0.72000003;stroke-linecap:round;stroke-linejoin:round;stroke-miterlimit:10;stroke-opacity:1;stroke-dasharray:none"
             id="path962" />
          <g
             id="g964"
             transform="translate(2.04,4.44)">
            <path
               inkscape:connector-curvature="0"
               d="M 0,0 2.1,-4.44"
               style="fill:none;stroke:#000000;stroke-width:0.72000003;stroke-linecap:round;stroke-linejoin:round;stroke-miterlimit:10;stroke-opacity:1;stroke-dasharray:none"
               id="path966" />
            <g
               id="g968"
               transform="translate(8.28,2.04)">
              <path
                 inkscape:connector-curvature="0"
                 d="m 0,0 -0.3,0.78 -0.6,0.84 -0.6,0.36 -1.14,0 -0.6,-0.36 -0.6,-0.84 -0.3,-0.78 -0.3,-1.26 0,-1.98 0.3,-1.26 0.3,-0.78 0.6,-0.84 0.6,-0.36 1.14,0 0.6,0.36 0.6,0.84 0.3,0.78"
                 style="fill:none;stroke:#000000;stroke-width:0.72000003;stroke-linecap:round;stroke-linejoin:round;stroke-miterlimit:10;stroke-opacity:1;stroke-dasharray:none"
                 id="path970" />
              <g
                 id="g972"
                 transform="translate(-15.18,-9.78)">
                <path
                   inkscape:connector-curvature="0"
                   d="m 0,0 19.98,0 0,14.64 L 0,14.64 0,0 z"
                   style="fill:none;stroke:#000000;stroke-width:0.72000003;stroke-linecap:round;stroke-linejoin:round;stroke-miterlimit:10;stroke-opacity:1;stroke-dasharray:none"
                   id="path974" />
                <g
                   id="g976"
                   transform="translate(0,-49.38)">
                  <g
                     id="g980"
                     transform="translate(33.06,0)">
                    <g
                       id="g984"
                       transform="translate(-23.94,3.24)">
                      <g
                         id="g988"
                         transform="translate(1.8,-7.26)">
                        <g
                           id="g992">
                          <g
                             id="g996"
                             transform="translate(-10.92,-3.3)" />
                        </g>
                      </g>
                    </g>
                  </g>
                </g>
              </g>
            </g>
          </g>
        </g>
      </g>
    </g>
  </g>
</svg>
