<?xml version="1.0" encoding="UTF-8" standalone="no"?>
<svg
   xmlns:dc="http://purl.org/dc/elements/1.1/"
   xmlns:cc="http://creativecommons.org/ns#"
   xmlns:rdf="http://www.w3.org/1999/02/22-rdf-syntax-ns#"
   xmlns:svg="http://www.w3.org/2000/svg"
   xmlns="http://www.w3.org/2000/svg"
   xmlns:sodipodi="http://sodipodi.sourceforge.net/DTD/sodipodi-0.dtd"
   xmlns:inkscape="http://www.inkscape.org/namespaces/inkscape"
   width="128"
   height="128"
   id="svg2"
   version="1.1"
   inkscape:version="0.48.4 r9939"
   sodipodi:docname="seccionador_bajo_carga.svg">
  <metadata
     id="metadata649">
    <rdf:RDF>
      <cc:Work
         rdf:about="">
        <dc:format>image/svg+xml</dc:format>
        <dc:type
           rdf:resource="http://purl.org/dc/dcmitype/StillImage" />
        <dc:title />
      </cc:Work>
    </rdf:RDF>
  </metadata>
  <sodipodi:namedview
     pagecolor="#ffffff"
     bordercolor="#666666"
     borderopacity="1"
     objecttolerance="10"
     gridtolerance="10"
     guidetolerance="10"
     inkscape:pageopacity="0"
     inkscape:pageshadow="2"
     inkscape:window-width="1364"
     inkscape:window-height="718"
     id="namedview647"
     showgrid="true"
     fit-margin-top="0"
     fit-margin-left="0"
     fit-margin-right="0"
     fit-margin-bottom="0"
     inkscape:zoom="8.0000002"
     inkscape:cx="66.945334"
     inkscape:cy="64.472452"
     inkscape:window-x="0"
     inkscape:window-y="0"
     inkscape:window-maximized="1"
     inkscape:current-layer="g77"
     showguides="true"
     inkscape:guide-bbox="true">
    <inkscape:grid
       type="xygrid"
       id="grid3626"
       empspacing="5"
       visible="true"
       enabled="true"
       snapvisiblegridlinesonly="true" />
    <sodipodi:guide
       orientation="1,0"
       position="64,63.437498"
       id="guide3080" />
    <sodipodi:guide
       orientation="0,1"
       position="61.578124,64"
       id="guide3082" />
  </sodipodi:namedview>
  <desc
     id="desc4">/home/snappler/Escritorio/Simbolos-C DXF_2000.dxf - scale = 0.536199</desc>
  <defs
     id="defs6">
    <marker
       id="DistanceX"
       orient="auto"
       refX="0"
       refY="0"
       style="overflow:visible">
      <path
         d="M 3,-3 -3,3 M 0,-5 0,5"
         style="stroke:#000000;stroke-width:0.5"
         id="path9"
         inkscape:connector-curvature="0" />
    </marker>
    <pattern
       height="8"
       id="Hatch"
       patternUnits="userSpaceOnUse"
       width="8"
       x="0"
       y="0">
      <path
         d="M8 4 l-4,4"
         linecap="square"
         stroke="#000000"
         stroke-width="0.25"
         id="path12" />
      <path
         d="M6 2 l-4,4"
         linecap="square"
         stroke="#000000"
         stroke-width="0.25"
         id="path14" />
      <path
         d="M4 0 l-4,4"
         linecap="square"
         stroke="#000000"
         stroke-width="0.25"
         id="path16" />
    </pattern>
    <symbol
       id="*MODEL_SPACE" />
    <symbol
       id="*PAPER_SPACE" />
    <symbol
       id="POSTE-RD">
      <path
         d="m -10769658,11642373 7,0"
         style="fill:none;stroke:#000000"
         id="path21"
         inkscape:connector-curvature="0" />
      <path
         d="m -10769666,11642377 6,-8"
         style="fill:none;stroke:#000000"
         id="path23"
         inkscape:connector-curvature="0" />
      <path
         d="m -10769658,11642373 a 5,5 0 1 0 -10,0 5,5 0 1 0 10,0 z"
         style="fill:none;stroke:#000000"
         id="path25"
         inkscape:connector-curvature="0" />
      <path
         d="m -10769659,11642376 -8,-6"
         style="fill:none;stroke:#000000"
         id="path27"
         inkscape:connector-curvature="0" />
      <path
         d="m -10769645,11642373 -6,-2 0,4 z"
         style="fill:#000000"
         id="path29"
         inkscape:connector-curvature="0" />
    </symbol>
    <symbol
       id="POSTE-CP">
      <path
         d="m -10769658,11642373 a 5,5 0 1 0 -10,0 5,5 0 1 0 10,0 z"
         style="fill:none;stroke:#000000"
         id="path32"
         inkscape:connector-curvature="0" />
      <path
         d="m -10769666,11642377 6,-8"
         style="fill:none;stroke:#000000"
         id="path34"
         inkscape:connector-curvature="0" />
      <path
         d="m -10769648,11642370 0,6"
         style="fill:none;stroke:#000000"
         id="path36"
         inkscape:connector-curvature="0" />
      <path
         d="m -10769659,11642375 11,1"
         style="fill:none;stroke:#000000"
         id="path38"
         inkscape:connector-curvature="0" />
      <path
         d="m -10769659,11642371 11,-1"
         style="fill:none;stroke:#000000"
         id="path40"
         inkscape:connector-curvature="0" />
      <path
         d="m -10769659,11642376 -8,-6"
         style="fill:none;stroke:#000000"
         id="path42"
         inkscape:connector-curvature="0" />
    </symbol>
    <symbol
       id="POSTE-MA">
      <path
         d="m -10769658,11642373 a 5,5 0 1 0 -10,0 5,5 0 1 0 10,0 z"
         style="fill:none;stroke:#000000"
         id="path45"
         inkscape:connector-curvature="0" />
      <path
         d="m -10769659,11642376 -8,-6"
         style="fill:none;stroke:#000000"
         id="path47"
         inkscape:connector-curvature="0" />
      <path
         d="m -10769666,11642377 6,-8"
         style="fill:none;stroke:#000000"
         id="path49"
         inkscape:connector-curvature="0" />
    </symbol>
    <symbol
       id="POSTE-HA">
      <path
         d="m -10769656,11642373 a 7.21976,7.21976 0 1 0 -14,0 7.21976,7.21976 0 1 0 14,0 z"
         style="fill:none;stroke:#000000"
         id="path52"
         inkscape:connector-curvature="0" />
      <path
         d="m -10769663,11642366 0,14"
         style="fill:none;stroke:#000000"
         id="path54"
         inkscape:connector-curvature="0" />
      <path
         d="m -10769656,11642373 -7,-7 0,14 z"
         style="fill:#000000"
         id="path56"
         inkscape:connector-curvature="0" />
    </symbol>
    <symbol
       id="PAT">
      <path
         d="m -10769663,11642373 0,8"
         style="fill:none;stroke:#000000"
         id="path59"
         inkscape:connector-curvature="0" />
      <path
         d="m -10769663,11642381 5,0"
         style="fill:none;stroke:#000000"
         id="path61"
         inkscape:connector-curvature="0" />
      <path
         d="m -10769663,11642383 4,0"
         style="fill:none;stroke:#000000"
         id="path63"
         inkscape:connector-curvature="0" />
      <path
         d="m -10769663,11642384 3,0"
         style="fill:none;stroke:#000000"
         id="path65"
         inkscape:connector-curvature="0" />
      <path
         d="m -10769663,11642386 2,0"
         style="fill:none;stroke:#000000"
         id="path67"
         inkscape:connector-curvature="0" />
      <path
         d="m -10769663,11642381 -5,0"
         style="fill:none;stroke:#000000"
         id="path69"
         inkscape:connector-curvature="0" />
      <path
         d="m -10769663,11642386 -2,0"
         style="fill:none;stroke:#000000"
         id="path71"
         inkscape:connector-curvature="0" />
      <path
         d="m -10769663,11642384 -3,0"
         style="fill:none;stroke:#000000"
         id="path73"
         inkscape:connector-curvature="0" />
      <path
         d="m -10769663,11642383 -4,0"
         style="fill:none;stroke:#000000"
         id="path75"
         inkscape:connector-curvature="0" />
    </symbol>
    <symbol
       id="PAT-7">
      <path
         inkscape:connector-curvature="0"
         id="path59-5"
         style="fill:none;stroke:#000000"
         d="m -10769663,11642373 0,8" />
      <path
         inkscape:connector-curvature="0"
         id="path61-1"
         style="fill:none;stroke:#000000"
         d="m -10769663,11642381 5,0" />
      <path
         inkscape:connector-curvature="0"
         id="path63-1"
         style="fill:none;stroke:#000000"
         d="m -10769663,11642383 4,0" />
      <path
         inkscape:connector-curvature="0"
         id="path65-8"
         style="fill:none;stroke:#000000"
         d="m -10769663,11642384 3,0" />
      <path
         inkscape:connector-curvature="0"
         id="path67-9"
         style="fill:none;stroke:#000000"
         d="m -10769663,11642386 2,0" />
      <path
         inkscape:connector-curvature="0"
         id="path69-2"
         style="fill:none;stroke:#000000"
         d="m -10769663,11642381 -5,0" />
      <path
         inkscape:connector-curvature="0"
         id="path71-2"
         style="fill:none;stroke:#000000"
         d="m -10769663,11642386 -2,0" />
      <path
         inkscape:connector-curvature="0"
         id="path73-7"
         style="fill:none;stroke:#000000"
         d="m -10769663,11642384 -3,0" />
      <path
         inkscape:connector-curvature="0"
         id="path75-1"
         style="fill:none;stroke:#000000"
         d="m -10769663,11642383 -4,0" />
    </symbol>
    <symbol
       id="POSTE-HA-1">
      <path
         inkscape:connector-curvature="0"
         id="path52-0"
         style="fill:none;stroke:#000000"
         d="m -10769656,11642373 a 7.21976,7.21976 0 1 0 -14,0 7.21976,7.21976 0 1 0 14,0 z" />
      <path
         inkscape:connector-curvature="0"
         id="path54-7"
         style="fill:none;stroke:#000000"
         d="m -10769663,11642366 0,14" />
      <path
         inkscape:connector-curvature="0"
         id="path56-3"
         style="fill:#000000"
         d="m -10769656,11642373 -7,-7 0,14 z" />
    </symbol>
    <symbol
       id="POSTE-MA-4">
      <path
         inkscape:connector-curvature="0"
         id="path45-5"
         style="fill:none;stroke:#000000"
         d="m -10769658,11642373 a 5,5 0 1 0 -10,0 5,5 0 1 0 10,0 z" />
      <path
         inkscape:connector-curvature="0"
         id="path47-0"
         style="fill:none;stroke:#000000"
         d="m -10769659,11642376 -8,-6" />
      <path
         inkscape:connector-curvature="0"
         id="path49-2"
         style="fill:none;stroke:#000000"
         d="m -10769666,11642377 6,-8" />
    </symbol>
    <symbol
       id="POSTE-CP-6">
      <path
         inkscape:connector-curvature="0"
         id="path32-5"
         style="fill:none;stroke:#000000"
         d="m -10769658,11642373 a 5,5 0 1 0 -10,0 5,5 0 1 0 10,0 z" />
      <path
         inkscape:connector-curvature="0"
         id="path34-5"
         style="fill:none;stroke:#000000"
         d="m -10769666,11642377 6,-8" />
      <path
         inkscape:connector-curvature="0"
         id="path36-8"
         style="fill:none;stroke:#000000"
         d="m -10769648,11642370 0,6" />
      <path
         inkscape:connector-curvature="0"
         id="path38-8"
         style="fill:none;stroke:#000000"
         d="m -10769659,11642375 11,1" />
      <path
         inkscape:connector-curvature="0"
         id="path40-1"
         style="fill:none;stroke:#000000"
         d="m -10769659,11642371 11,-1" />
      <path
         inkscape:connector-curvature="0"
         id="path42-9"
         style="fill:none;stroke:#000000"
         d="m -10769659,11642376 -8,-6" />
    </symbol>
    <symbol
       id="POSTE-RD-3">
      <path
         inkscape:connector-curvature="0"
         id="path21-0"
         style="fill:none;stroke:#000000"
         d="m -10769658,11642373 7,0" />
      <path
         inkscape:connector-curvature="0"
         id="path23-4"
         style="fill:none;stroke:#000000"
         d="m -10769666,11642377 6,-8" />
      <path
         inkscape:connector-curvature="0"
         id="path25-2"
         style="fill:none;stroke:#000000"
         d="m -10769658,11642373 a 5,5 0 1 0 -10,0 5,5 0 1 0 10,0 z" />
      <path
         inkscape:connector-curvature="0"
         id="path27-5"
         style="fill:none;stroke:#000000"
         d="m -10769659,11642376 -8,-6" />
      <path
         inkscape:connector-curvature="0"
         id="path29-9"
         style="fill:#000000"
         d="m -10769645,11642373 -6,-2 0,4 z" />
    </symbol>
    <symbol
       id="*PAPER_SPACE-7" />
    <symbol
       id="*MODEL_SPACE-6" />
    <pattern
       y="0"
       x="0"
       width="8"
       patternUnits="userSpaceOnUse"
       id="Hatch-2"
       height="8">
      <path
         id="path12-6"
         stroke-width="0.25"
         stroke="#000000"
         linecap="square"
         d="M8 4 l-4,4" />
      <path
         id="path14-9"
         stroke-width="0.25"
         stroke="#000000"
         linecap="square"
         d="M6 2 l-4,4" />
      <path
         id="path16-2"
         stroke-width="0.25"
         stroke="#000000"
         linecap="square"
         d="M4 0 l-4,4" />
    </pattern>
    <marker
       style="overflow:visible"
       refY="0"
       refX="0"
       orient="auto"
       id="DistanceX-6">
      <path
         inkscape:connector-curvature="0"
         id="path9-3"
         style="stroke:#000000;stroke-width:0.5"
         d="M 3,-3 -3,3 M 0,-5 0,5" />
    </marker>
  </defs>
  <g
     inkscape:groupmode="layer"
     inkscape:label="0"
     id="g77"
     transform="translate(0.5,-924.86237)">
    <g
       id="g3070"
       transform="translate(0.875,4.25)">
      <path
         inkscape:connector-curvature="0"
         id="path407"
         style="fill:none;stroke:#000000;stroke-width:2.46765614;stroke-linecap:round;stroke-linejoin:round;stroke-miterlimit:4;stroke-dasharray:none"
         d="m 35.485001,984.59703 -35.59002825,0" />
      <path
         inkscape:connector-curvature="0"
         id="path409"
         style="fill:none;stroke:#000000;stroke-width:2.46765614;stroke-linecap:round;stroke-linejoin:round;stroke-miterlimit:4;stroke-dasharray:none"
         d="m 125.42732,984.59703 -35.590028,0" />
      <path
         inkscape:connector-curvature="0"
         id="path415"
         style="fill:none;stroke:#000000;stroke-width:2.46765614;stroke-linecap:round;stroke-linejoin:round;stroke-miterlimit:4;stroke-dasharray:none"
         d="m 35.485001,1004.4675 54.352291,0 0,-39.74091 -54.352291,0 0,39.74091 z" />
      <path
         transform="translate(-0.5,924.86237)"
         inkscape:connector-curvature="0"
         id="path3274"
         d="m 37.244048,59.665337 0,-18.561552 25.897785,0 25.897785,0 0,18.561552 0,18.561553 -25.897785,0 -25.897785,0 0,-18.561553 z m 11.585926,11.042496 c 1.387902,-0.357262 2.510974,-1.065189 3.164112,-1.99449 0.438949,-0.624549 0.542526,-0.968478 0.600464,-1.993834 0.09005,-1.59372 -0.273788,-2.589273 -1.25244,-3.426963 -0.885101,-0.757614 -1.951014,-1.167605 -4.815118,-1.852079 -3.164345,-0.756228 -4.079641,-1.294237 -4.260824,-2.504505 -0.217315,-1.451625 1.01668,-2.450802 3.199798,-2.590906 2.265937,-0.145419 3.809761,0.47519 4.334711,1.742531 0.226711,0.54733 0.234215,0.549985 1.216171,0.430445 0.543429,-0.06615 1.062051,-0.191473 1.152492,-0.278485 0.220834,-0.212458 -0.529492,-1.793216 -1.119231,-2.357952 -0.930153,-0.890717 -2.0464,-1.225932 -4.354292,-1.307618 -3.399534,-0.120324 -5.321285,0.575379 -6.269248,2.269564 -0.584147,1.04398 -0.59877,2.733256 -0.03314,3.828022 0.721429,1.3963 1.897922,2.010267 5.487164,2.863536 3.505261,0.833306 4.444926,1.445296 4.444926,2.89492 0,1.748725 -1.459422,2.669418 -4.242641,2.676521 -1.439529,0.0037 -1.820524,-0.06104 -2.667653,-0.45313 -0.973182,-0.450434 -1.581649,-1.076874 -1.833627,-1.887791 -0.09722,-0.312882 -0.220439,-0.389768 -0.509329,-0.317813 -0.209594,0.0522 -0.719165,0.148662 -1.132381,0.214351 -0.841245,0.133733 -0.860615,0.177531 -0.480666,1.086876 0.632728,1.514333 1.787246,2.453381 3.622738,2.946624 1.304263,0.350486 4.408195,0.357062 5.74801,0.01218 l 0,-3e-6 z m 32.623214,-0.375587 c 0.632954,-0.296195 1.4405,-0.792872 1.794543,-1.103726 0.676894,-0.594322 1.726023,-2.055434 1.726023,-2.403817 0,-0.112552 -0.40947,-0.396425 -0.909931,-0.630829 -0.873171,-0.408971 -0.917807,-0.413009 -1.104855,-0.09996 -1.191072,1.993419 -2.762199,2.937469 -4.892208,2.9396 -3.436825,0.0034 -5.678974,-2.886213 -5.423005,-6.989098 0.147294,-2.360927 1.169583,-4.172032 2.872446,-5.088873 0.588751,-0.31699 1.003629,-0.380972 2.478662,-0.382256 1.554426,-0.0014 1.879223,0.05381 2.650019,0.450051 0.760944,0.391181 1.862171,1.517467 2.057937,2.104767 0.0411,0.123307 0.450098,0.05902 1.168937,-0.183737 l 1.105716,-0.373405 -0.482037,-0.88566 c -0.624032,-1.146552 -1.778096,-2.151549 -3.031213,-2.639678 -1.216791,-0.473979 -4.348195,-0.662292 -5.633077,-0.338755 -3.597123,0.905766 -5.529856,3.668186 -5.529856,7.903721 0,2.738862 0.576739,4.562881 1.928209,6.098232 1.416659,1.609409 3.279316,2.28211 6.121724,2.210865 1.748452,-0.04382 2.070688,-0.10485 3.101966,-0.587443 z m -16.395992,0.0072 c 1.983461,-0.827674 2.844307,-2.048764 2.851673,-4.045038 0.0037,-0.990957 -0.08073,-1.386601 -0.423682,-1.986309 -0.367632,-0.642861 -1.47455,-1.637606 -1.82228,-1.637606 -0.06136,0 -0.327304,-0.08202 -0.590973,-0.182267 l -0.479401,-0.182268 0.813199,-0.515716 c 2.271054,-1.44026 2.15269,-5.151543 -0.202623,-6.353133 -1.08082,-0.551393 -2.55434,-0.721567 -6.247995,-0.721567 l -3.503067,0 0,8.059168 0,8.05917 4.375223,-0.06889 c 3.891601,-0.06127 4.469699,-0.108309 5.229926,-0.42554 l 0,-7e-6 z"
         style="fill:#ffffff;fill-opacity:1;stroke:#ffffff;stroke-width:0.17677669" />
      <path
         transform="translate(-0.5,924.86237)"
         inkscape:connector-curvature="0"
         id="path3068"
         d="m 57.750144,59.046618 0,-2.386485 2.342291,9.86e-4 c 1.28826,5.43e-4 2.635489,0.08242 2.993841,0.181949 1.969305,0.546958 2.146722,3.392073 0.264804,4.246492 -0.609951,0.276927 -1.165604,0.336459 -3.170257,0.339661 l -2.430679,0.0039 0,-2.386486 z"
         style="fill:#ffffff;fill-opacity:1;stroke:#ffffff;stroke-width:0.17677669" />
      <path
         transform="translate(-0.5,924.86237)"
         inkscape:connector-curvature="0"
         id="path3070"
         d="m 57.750144,66.105789 0,-2.751935 2.872621,0.05609 c 2.448427,0.04781 2.976312,0.108299 3.574807,0.409644 0.880276,0.443222 1.360209,1.254078 1.360209,2.298097 0,1.074308 -0.480589,1.855497 -1.440984,2.342291 -0.71527,0.362549 -1.031703,0.397748 -3.575683,0.397748 l -2.79097,0 0,-2.751936 z"
         style="fill:#ffffff;fill-opacity:1;stroke:#ffffff;stroke-width:0.17677669" />
    </g>
    <path
       inkscape:connector-curvature="0"
       d="m 52.677344,980.8733 -1.570312,-2.04141 -2.198438,-1.09921 -3.140625,0 -2.355469,1.09921 -1.570312,2.04141 0,2.19844 0.785156,2.0414 0.785156,1.09923 1.570313,1.09921 4.710938,2.0414 1.413281,1.09922 0.785155,1.09922 0.785157,2.04141 0,3.14062 -1.570312,2.19855 -2.198438,0.9421 -3.140625,0 -2.355469,-0.9421 -1.570312,-2.19855"
       style="fill:none;stroke:#000000;stroke-width:1.8843751;stroke-linecap:round;stroke-linejoin:round;stroke-miterlimit:10;stroke-opacity:1;stroke-dasharray:none"
       id="path904" />
    <path
       inkscape:connector-curvature="0"
       d="m 58.173438,999.8741 0,-22.14142 6.909375,0 2.355468,1.09921 0.785156,0.94219 0.785157,2.19844 0,2.04141 -0.785157,2.19844 -0.785156,1.09921 -2.355468,0.94218 -6.909375,0"
       style="fill:none;stroke:#000000;stroke-width:1.8843751;stroke-linecap:round;stroke-linejoin:round;stroke-miterlimit:10;stroke-opacity:1;stroke-dasharray:none"
       id="path908" />
    <path
       inkscape:connector-curvature="0"
       d="m 65.082813,988.25376 2.355468,1.09922 0.785156,1.09922 0.785157,2.04141 0,3.14063 -0.785157,2.19855 -0.785156,1.09921 -2.355468,0.9421 -6.909375,0"
       style="fill:none;stroke:#000000;stroke-width:1.8843751;stroke-linecap:round;stroke-linejoin:round;stroke-miterlimit:10;stroke-opacity:1;stroke-dasharray:none"
       id="path912" />
    <path
       inkscape:connector-curvature="0"
       d="m 85.182813,983.07174 -0.785157,-2.19844 -1.570312,-2.04141 -1.413281,-1.09921 -3.140626,0 -1.570312,1.09921 -1.570312,2.04141 -0.785156,2.19844 -0.785157,3.14063 0,5.33905 0.785157,3.14064 0.785156,2.04139 1.570312,2.19855 1.570312,0.9421 3.140626,0 1.413281,-0.9421 1.570312,-2.19855 0.785157,-2.04139"
       style="fill:none;stroke:#000000;stroke-width:1.8843751;stroke-linecap:round;stroke-linejoin:round;stroke-miterlimit:10;stroke-opacity:1;stroke-dasharray:none"
       id="path916" />
  </g>
</svg>
