<?xml version="1.0" encoding="UTF-8" standalone="no"?>
<!-- Created with Inkscape (http://www.inkscape.org/) -->

<svg
   xmlns:osb="http://www.openswatchbook.org/uri/2009/osb"
   xmlns:dc="http://purl.org/dc/elements/1.1/"
   xmlns:cc="http://creativecommons.org/ns#"
   xmlns:rdf="http://www.w3.org/1999/02/22-rdf-syntax-ns#"
   xmlns:svg="http://www.w3.org/2000/svg"
   xmlns="http://www.w3.org/2000/svg"
   xmlns:sodipodi="http://sodipodi.sourceforge.net/DTD/sodipodi-0.dtd"
   xmlns:inkscape="http://www.inkscape.org/namespaces/inkscape"
   width="330"
   height="106.03125"
   id="svg6472"
   version="1.1"
   inkscape:version="0.48.4 r9939"
   sodipodi:docname="slider-btn-background-.svg">
  <defs
     id="defs6474">
    <linearGradient
       id="linearGradient7610"
       osb:paint="solid">
      <stop
         style="stop-color:#d5d5d5;stop-opacity:1;"
         offset="0"
         id="stop7612" />
    </linearGradient>
  </defs>
  <sodipodi:namedview
     id="base"
     pagecolor="#ffffff"
     bordercolor="#666666"
     borderopacity="1.0"
     inkscape:pageopacity="0.0"
     inkscape:pageshadow="2"
     inkscape:zoom="1.4"
     inkscape:cx="27.026705"
     inkscape:cy="72.903797"
     inkscape:document-units="px"
     inkscape:current-layer="layer1"
     showgrid="false"
     showguides="true"
     inkscape:guide-bbox="true"
     fit-margin-top="0"
     fit-margin-left="0"
     fit-margin-right="0"
     fit-margin-bottom="0"
     inkscape:window-width="1375"
     inkscape:window-height="876"
     inkscape:window-x="65"
     inkscape:window-y="24"
     inkscape:window-maximized="1" />
  <metadata
     id="metadata6477">
    <rdf:RDF>
      <cc:Work
         rdf:about="">
        <dc:format>image/svg+xml</dc:format>
        <dc:type
           rdf:resource="http://purl.org/dc/dcmitype/StillImage" />
        <dc:title />
      </cc:Work>
    </rdf:RDF>
  </metadata>
  <g
     inkscape:label="Layer 1"
     inkscape:groupmode="layer"
     id="layer1"
     transform="translate(-326.40625,-460.0625)">
    <path
       style="fill:#c5c5c5;fill-opacity:1;stroke:#c9c9c9;stroke-opacity:1"
       d="M 23.34375,0.5 0.5625,54.28125 l 23.21875,51.25 305.71875,0 L 329.5,0.5 z"
       transform="translate(326.40625,460.0625)"
       id="rect5950"
       inkscape:connector-curvature="0"
       sodipodi:nodetypes="cccccc" />
    <g
       id="g7600"
       style="fill:#d5d5d5;fill-opacity:1;fill-rule:nonzero"
       transform="matrix(3.158337,0,0,3.6132582,-124.49531,-1266.6539)">
      <g
         transform="matrix(1.1707903,0,0,0.91062705,317.62187,429.95132)"
         id="g2999"
         style="fill:#d5d5d5;fill-opacity:1;fill-rule:nonzero">
        <path
           inkscape:connector-curvature="0"
           id="path3013"
           d="M 104.5,301.03018 C 53.692306,295.21702 6.5450554,253.22202 3.1406358,200.75215 -0.63801017,172.85917 -0.31045768,143.39532 11.582129,117.38706 17.919584,87.204575 28.261672,55.982447 52.289145,35.115277 83.297393,6.6231802 127.36895,-2.6168633 168.3749,1.2193371 c 30.43642,3.1092751 62.33222,8.9924069 87.74963,27.0507459 18.82361,13.657029 31.72158,34.622309 35.95401,57.422558 6.30906,18.155269 15.47075,35.894279 14.72517,55.657799 1.42776,76.9295 -63.08055,147.02586 -138.63803,156.51529 -20.85121,4.91744 -42.43643,3.76563 -63.66568,3.16445 z m 19.21607,-5.64744 C 98.331916,283.6 69.084515,279.20228 47.555132,260.01442 37.68724,253.13383 23.803203,234.88119 19.056879,232.33492 36.327838,272.4738 81.249245,295.33481 123.71607,295.38274 z m 33.68299,-2.89364 c 8.01407,-1.99466 28.95889,-7.56918 28.77645,-10.86195 -17.53536,6.17544 -36.16822,8.28022 -54.6317,9.35077 7.87168,3.59424 17.50715,3.25344 25.85525,1.51118 z m 5.71664,-10.44324 c 35.53959,-7.16763 69.05217,-27.99464 86.98232,-60.11874 9.38151,-14.60082 16.70983,-30.49988 21.90198,-47.05413 -19.31129,17.05245 -37.97001,34.93158 -59.45347,49.31443 -17.97548,13.38224 -34.31189,28.94944 -48.22361,46.50868 -13.87397,10.01332 -32.28256,3.99101 -48.13143,4.46849 -7.93398,-1.21271 -35.956114,-8.96185 -17.23319,2.18919 18.10245,10.41091 40.05162,7.43888 59.89971,5.4562 l 2.13203,-0.36202 2.12566,-0.4021 0,0 z M 219,276.27563 c 52.54109,-28.78842 90.29231,-89.13434 82.15746,-150.02115 -0.14597,-6.29718 -8.36314,-25.44074 -7.50574,-8.30788 -2.92636,20.26139 -10.69483,39.43586 -14.67555,59.4742 -12.92588,42.69332 -41.36695,79.76241 -76.97617,106.19749 6.06079,-1.41809 11.47209,-4.61389 17,-7.34266 z M 82.5,270.48514 C 65.566869,257.27898 44.311336,249.12679 31.837409,230.72662 18.478325,213.34011 11.923291,191.29493 11.780869,169.5 8.6114874,187.32619 8.2711747,207.46499 20.39542,222.24393 36.238964,246.50464 59.733909,265.91714 87,275.9416 c -0.398044,-2.56665 -3.152081,-3.516 -4.5,-5.45646 z m 73.5,-4.96951 c 13.17076,-14.59939 25.82054,-29.92874 41.54415,-41.91358 -0.99464,-6.43864 -21.11996,2.63499 -29.49048,-0.42205 -15.81483,0.14947 -31.64715,0.0377 -47.43067,-1.06037 -19.13931,-10.20168 -41.830973,-16.15008 -63.333873,-10.74209 3.120548,15.1169 6.936322,33.95063 20.51502,42.78438 C 101.86552,266.02526 129.64339,268.4217 156,265.51563 z M 58.942687,236.75 c -6.351176,-9.96977 -2.331717,-25.83669 -13.957617,-31.37411 -8.703285,-4.34773 -19.65349,-22.8193 -22.508711,-22.47064 2.786932,25.59449 18.148049,49.14839 39.65611,63.06089 -0.589605,-3.22031 -2.015933,-6.1872 -3.189782,-9.21614 z M 190.28995,214.50867 c 33.99369,-4.31793 64.3586,-29.25264 73.8189,-62.41377 4.87696,-16.69898 9.52799,-38.37725 -5.24655,-51.61049 -14.23879,-8.368223 -32.41914,-7.069855 -47.69159,-14.071342 -15.80755,-6.279537 7.43586,11.0457 8.42725,18.644212 13.84333,23.20054 10.54412,55.1545 -9.59208,73.74476 -15.03107,15.42775 -35.25428,23.7876 -54.66264,32.12017 -11.84728,8.39326 13.98401,4.03872 19.08158,4.88697 5.30443,-0.18553 10.60623,-0.57033 15.86513,-1.30051 z m -47.10261,-4.44237 c 21.62527,-13.8091 49.13665,-19.29147 65.45579,-40.61656 17.94954,-20.87214 14.8751,-54.11552 -4.12146,-73.210378 C 184.43722,74.880017 148.38802,68.583958 124.11471,86.568296 96.302175,103.43462 76.293094,138.09612 86.603583,170.78242 c 4.584454,17.64578 15.646407,37.53416 35.434007,39.94295 6.6773,2.03178 15.42106,5.20734 21.14975,-0.65907 z M 91.485053,199.11208 C 71.963825,171.87948 71.351093,131.88993 93.02998,105.63251 99.593234,93.516243 121.0543,81.116453 124.64077,75.737052 108.40443,72.444585 99.890878,88.804255 90.830349,99.056962 68.825294,128.17822 56.249227,164.42094 56.055876,200.96097 c 10.562489,2.18301 32.63448,1.99581 36.847915,0.17557 -0.472913,-0.67482 -0.945825,-1.34964 -1.418738,-2.02446 z M 51.442477,190.25 C 53.826697,150.07057 71.823423,111.81729 98.220557,81.815925 84.672582,80.169001 72.328748,89.680741 60.457404,95.277685 44.158119,104.33101 29.507051,118.63381 26.22211,137.67219 c -6.596352,17.54763 -1.320218,37.7418 11.771937,50.80567 3.991336,6.36469 15.657426,19.19337 13.44843,1.77214 z M 273.97968,152.03984 c 5.93679,-15.68665 -4.98468,-2.74202 -1.97186,3.23645 l 0.81152,-1.15331 1.16034,-2.08314 z M 11.924487,136.5 c -5.0636725,4.80168 -1.392446,11.91907 0,0 z m 13.495926,-24.43238 c 8.333633,-18.889749 -12.435662,11.67838 -2.634572,6.79912 0.835161,-2.28842 1.603157,-4.58615 2.634572,-6.79912 z M 284.16252,97.864707 c 2.6717,-11.688511 -15.91442,-31.209449 -18.77024,-28.805963 4.86273,14.28337 14.00957,26.677198 18.59607,41.073006 1.79198,-3.93291 0.12354,-8.19418 0.17417,-12.267043 z m -17.7239,-3.439043 c -6.48569,-19.52318 -34.17768,-24.203142 -49.66607,-13.028611 11.2735,6.853345 27.93699,7.135993 41.39029,10.896421 3.71193,0.193327 11.93201,13.499626 8.27578,2.13219 z M 45.725309,75.601913 C 69.933813,42.493747 106.19147,18.950747 145.64027,8.3103425 130.447,6.0189863 114.92944,11.044624 100.35788,15.184915 64.124431,27.327254 33.268484,57.81849 24.851064,95.467295 31.919905,94.665514 39.886872,81.304383 45.725309,75.601913 z m 6.649049,15.954543 C 69.574378,79.860378 89.85705,74.012721 109.89205,69.305059 124.55212,58.27291 91.053635,65.764444 84.818741,67.649671 68.607578,71.253273 50.173836,78.829316 44.894423,96.123791 c 2.732009,0.314227 4.844735,-3.470829 7.479935,-4.567335 z M 219.70232,71.46245 c 10.83908,-10.042803 34.11451,3.068428 38.21834,-0.989293 -8.79907,-23.536691 -34.92149,-31.921186 -57.40785,-36.095083 -19.82417,-2.828329 -42.59409,-1.515119 -58.85225,11.131075 -9.30778,6.2348 -10.72071,18.183062 3.6792,15.124697 20.0943,3.595145 39.46009,11.011411 59.2927,15.059046 5.25602,-0.426561 10.10212,-2.658784 15.06986,-4.230442 z m 53.83125,-9.266603 c -6.00494,-14.45702 -29.43716,-34.185229 -37.11706,-33.20628 11.71336,14.524145 24.26627,29.076787 39.80394,39.397551 0.43118,-2.119038 -1.9642,-4.338019 -2.68688,-6.191271 z M 75.5,64.34829 c 16.667293,-10.1481 41.59426,0.848925 54.43324,-12.674322 9.85108,-15.786841 28.08985,-22.585236 46.00502,-23.145728 18.20595,-1.110039 36.54077,1.649122 53.35394,8.716661 10.79175,1.451644 -9.42333,-10.388436 -12.84535,-13.615222 C 198.5508,10.94691 175.26503,14.021729 154.82113,16.776766 120.4657,23.004666 88.460596,41.235973 65.39795,67.424758 69.073539,67.646974 71.996035,64.943323 75.5,64.34829 z m 62.88957,2.588324 c 12.00557,-5.397201 -31.89385,0.707156 -7.60781,0.278695 2.53276,-0.16273 5.07008,-0.250392 7.60781,-0.278695 z"
           style="fill:#d5d5d5;fill-opacity:1;fill-rule:nonzero" />
        <path
           inkscape:connector-curvature="0"
           id="path3011"
           d="M 107.45582,301.0578 C 58.72953,295.56051 11.714947,258.4576 4.8779783,208.22232 -0.69207766,178.56733 -0.87035027,146.89548 11.76395,118.94511 17.664478,95.643573 22.786289,71.243146 38.208035,51.999985 64.155792,17.141565 108.66187,-0.65519966 151.49833,1.4954089 c 27.95208,-0.88671727 55.81447,4.91661 81.81293,14.8861181 28.94,11.266478 51.79699,36.808191 57.74477,67.534625 3.8419,16.947218 14.76272,31.765158 14.99826,49.648218 5.35087,73.53231 -51.30671,143.44678 -121.76626,160.52162 -25.21805,5.92828 -50.90543,9.07216 -76.83221,6.97181 z m 18.26887,-4.86649 C 106.22974,284.25196 82.233535,282.65923 63.06865,269.85166 45.386883,259.42391 30.685632,244.61855 18.253747,228.42155 c -0.379412,10.63021 10.253801,21.61719 17.187718,30.34362 22.892722,24.32652 57.211865,38.02895 90.283225,37.42614 z m 38.28234,-4.55069 c 11.43212,-2.8429 31.77423,-11.23028 35.45596,-15.87479 -21.46018,8.67869 -44.25655,14.42389 -67.5238,14.19326 -12.33327,2.42086 13.27694,4.87889 17.42097,3.91553 4.94043,-0.25292 9.85707,-0.99521 14.64687,-2.234 z m -4.49358,-8.19464 c 37.77497,-6.85274 74.11957,-28.58477 92.25744,-63.29616 9.2751,-15.27326 17.22348,-31.51759 21.88828,-48.82399 -19.95366,19.6633 -40.93659,38.28736 -64.0603,54.16458 -17.2231,12.93421 -32.46167,28.31275 -46.11614,44.88855 -14.78752,10.01496 -33.78836,3.28148 -50.37386,3.78462 -7.06439,-1.58332 -33.410413,-9.15057 -17.520032,1.99765 18.694002,12.71596 42.759782,9.74808 63.924612,7.28475 z M 215.5,278.50955 c 54.28535,-27.1697 93.79775,-88.01372 86.38255,-149.68581 0.45859,-7.71335 -8.45856,-32.401313 -8.72089,-12.73597 -2.71565,20.20022 -10.2224,39.26903 -14.26151,59.18208 -12.8066,45.21966 -43.55911,83.99501 -81.81768,110.64742 6.65648,-0.96795 12.34034,-4.82085 18.41753,-7.40772 z M 83.49592,270.41801 C 66.70528,256.76888 44.949518,248.9704 32.468633,230.35958 16.763985,210.7157 11.924097,185.01116 12.516031,160.43312 c -3.3471769,10.4158 -3.3317569,28.24159 -2.7743827,41.47119 3.4689677,12.93491 12.4547267,24.1566 20.6594397,34.68647 15.682989,18.61325 36.291964,33.37505 59.594832,40.74145 -1.730839,-2.68535 -4.225377,-4.72074 -6.5,-6.91422 z m 72.7527,-4.55333 c 13.87867,-15.11863 27.07744,-31.21544 43.91618,-43.20731 1.63745,-7.76668 -17.79161,2.66907 -24.04704,-0.0131 -19.19639,-1.3274 -39.13803,1.70151 -57.71375,-2.77972 -17.54007,-7.45156 -36.554079,-14.49066 -55.858413,-10.18914 -12.791195,2.4385 0.833347,24.5383 4.343343,33.29672 7.454715,16.16472 27.7664,18.12032 43.16277,22.22901 15.17778,2.52253 31.00665,3.25615 46.19691,0.6635 z M 64,246.63832 c -9.63939,-13.64061 -5.348159,-35.8276 -22.205014,-44.18258 -7.290968,-4.52042 -16.325958,-22.79531 -20.212809,-20.21834 2.970914,26.45834 18.623202,51.54294 41.897426,64.76462 L 64,246.63832 z m 121.67764,-30.70408 c 37.16401,-2.9432 71.0927,-30.51164 79.96044,-67.01369 6.04405,-16.603 7.42553,-38.94006 -8.27621,-50.557901 -14.51288,-6.410677 -31.19348,-5.836926 -45.67064,-12.838803 -18.96082,-6.241536 5.76169,12.123077 7.07414,18.940394 14.55411,25.03292 9.93518,60.23054 -13.69871,78.15549 -16.5548,14.31574 -37.53628,21.55923 -56.74279,31.42694 11.42472,5.83481 25.16164,1.70207 37.35377,1.88757 z m -41.84545,-5.4016 c 22.29385,-13.71539 49.98788,-20.03441 66.54106,-41.82663 21.38622,-26.42502 9.28295,-68.732708 -19.6277,-84.323288 C 168.1733,70.513974 137.47257,72.772397 117.52099,90.353378 97.60187,105.79562 81.706951,129.05526 83.296635,155.23643 c 0.824756,18.80363 8.716507,38.50054 23.641045,50.37083 10.14656,5.5644 26.39904,12.47062 36.89451,4.92538 z M 95.832428,204.25 C 75.949704,179.10203 70.269204,141.62796 88.333566,113.92334 97.733271,97.92898 112.04942,85.189312 128.19645,76.254592 114.79105,69.965184 101.18534,83.200038 94.026414,93.798741 69.272823,123.82557 55.113196,162.72498 56.090076,201.7316 c 12.905356,3.99361 26.761728,-1.10683 39.742352,2.5184 z m -43.543188,-14 C 54.493751,149.03299 73.354408,109.82146 101,79.603071 81.410156,81.002784 63.861852,92.02117 47.966746,102.74626 c -16.93907,10.71961 -22.12223,31.15488 -25.3534,49.61993 -1.064888,19.72102 12.493248,37.39213 27.665414,48.63381 2.740532,-2.96714 1.22122,-7.20888 2.01048,-10.75 z m 221.45893,-36.49702 c 6.04736,-4.30072 -0.23036,-22.04939 -1.14055,-7.41176 -1.8209,5.72603 -7.81023,24.2654 1.14055,7.41176 z M 9.9525487,145.79416 c 5.1043573,-7.46654 1.1001903,-17.39361 -1.6060811,-4.11626 -2.1954965,6.45906 -2.8537312,19.43607 1.6060811,4.11626 z M 278.43686,121.25 c -2.07837,-15.029 -3.39826,8.81419 0.17299,2.56791 -0.0577,-0.85597 -0.11533,-1.71194 -0.17299,-2.56791 z m -256.109781,-0.5 c 3.712726,-5.87023 13.272289,-29.707939 1.840176,-13.34863 -3.614248,1.27135 -7.713564,21.90079 -1.840176,13.34863 z M 284.09425,91.177484 C 283.01253,80.982581 268.66659,66.661932 263.59124,66.562947 269.298,83.735422 280.95535,98.545472 284.5,116.5 c 0.24926,-8.43576 0.73244,-16.926352 -0.40575,-25.322516 z m -16.62283,4.33923 c -5.40804,-21.392216 -36.22277,-27.271261 -51.85194,-13.952297 11.46913,7.456927 28.62609,7.581811 42.43624,11.431081 4.5164,1.286531 13.85946,17.404822 9.4157,2.521216 z M 32.766283,91.136156 C 53.419367,67.959829 72.643949,42.270255 100.70347,27.432614 c 16.6593,-9.3749 34.82577,-15.793581 53.31161,-20.4835312 -18.1197,-2.5360046 -36.47556,2.6182589 -53.75927,7.7438792 -33.250043,11.187755 -62.323042,36.84605 -73.207027,70.762134 -3.981394,6.518615 -6.030982,21.140284 3.080201,8.303856 0.883246,-0.870086 1.757902,-1.748831 2.637299,-2.622796 z m 18.942743,1.722795 C 68.842553,81.204918 88.891523,74.698893 109.04628,70.588273 c 13.11371,-4.489582 7.65119,-10.54554 -3.10997,-7.270598 -19.483378,1.690362 -40.706399,6.425656 -55.026413,20.459554 -2.794383,4.204048 -15.109194,21.695141 0.799129,9.081722 z M 218.78475,72.5 c 10.58913,-11.813411 34.08193,5.095153 39.2831,-2.912291 -8.937,-23.71502 -35.7072,-31.847607 -58.32977,-36.033699 -19.29034,-2.579054 -40.89339,-1.172231 -57.23382,10.255903 -13.35069,8.299267 -9.81045,21.582972 6.44013,18.313345 18.21664,3.806345 36.07831,9.09539 53.84942,14.575597 5.62666,0.0528 10.7218,-2.625312 15.99094,-4.198855 z m 56.92711,-7.768503 C 266.67219,46.001495 249.9082,31.194078 230.26501,24.401652 c 14.61581,15.67033 28.59982,31.963305 45.2987,45.459014 5.29896,2.775573 0.43619,-3.614387 0.14815,-5.129169 z M 72.756307,66.029591 c 17.676516,-10.932366 44.073723,-0.136916 57.792503,-13.976703 9.52234,-14.501675 25.93326,-21.537043 42.74156,-22.764359 20.72798,-2.319641 41.6694,2.46153 60.67784,10.593588 C 231.8604,30.368712 214.13722,21.296163 203.8058,16.434731 154.98973,6.5452033 103.37324,26.857842 69.286138,62.110152 c -7.751599,7.825589 -7.49915,8.232736 3.470169,3.919439 z M 138.625,68 c 14.51544,1.239717 7.21341,-4.305389 -2.3663,-4.425015 -7.06851,-2.802158 -21.07568,5.745322 -6.70881,4.604192 C 132.57282,68.037223 135.59966,68.036269 138.625,68 z"
           style="fill:#d5d5d5;fill-opacity:1;fill-rule:nonzero" />
        <path
           inkscape:connector-curvature="0"
           id="path3009"
           d="M 109,301.04324 C 63.422405,295.6235 17.887565,264.41567 7.3606107,217.91692 0.05529973,187.28032 -2.4560628,154.0075 10.438198,124.43777 17.15824,104.73231 18.863886,83.237683 30.169976,65.233188 c 16.91403,-31.3614 48.70324,-52.562685 83.103854,-60.1551737 25.1782,-5.48077549 51.547,-4.69610383 76.83358,-0.3649128 28.39858,6.4171915 59.43373,13.3256085 79.06143,36.7562855 13.07844,13.666142 19.02803,31.832795 23.72538,49.673562 7.37118,19.132451 16.43013,38.873541 13.21689,59.951871 -5.07991,69.73842 -61.17343,131.66499 -129.8652,144.32772 -22.06753,4.7741 -44.66711,7.53486 -67.24591,5.6207 z M 128.99515,296.25 C 100.02841,282.71916 66.110337,277.79977 42.537249,254.44999 32.573398,245.38479 24.277924,234.72205 15.240128,224.77962 28.297586,267.6556 73.21033,293.159 115.96766,296.43718 c 4.26321,0.007 8.87626,1.01777 13.02749,-0.18718 z m 29.03744,-2.66965 c 15.30541,-2.92723 39.74136,-13.451 45.91598,-20.36262 -22.58913,9.73193 -46.70222,17.18393 -71.57949,15.75632 -18.25613,1.41144 10.57467,7.18672 15.96926,5.70866 3.25507,-0.0829 6.50579,-0.43655 9.69425,-1.10236 z m 49.00757,-10.52141 c 58.9444,-25.04785 102.35946,-88.8161 95.55528,-153.7366 -0.82082,-6.5039 -4.34545,-24.41504 -9.31565,-21.34851 -0.61789,23.78471 -10.92187,45.83732 -15.253,68.98286 -13.34268,45.1826 -44.6112,83.98178 -83.42401,109.92139 3.32106,1.23337 8.66958,-2.76146 12.43738,-3.81914 z m -45.06026,0.4568 c 38.0184,-7.22958 73.2479,-30.57081 91.48431,-65.17195 8.85724,-14.68492 16.08606,-30.44077 20.53579,-47.0326 -18.35935,16.13629 -35.61409,33.57909 -55.86775,47.44654 -20.05424,14.87286 -39.24424,31.24672 -54.5117,51.10312 -15.65174,10.31975 -35.71191,3.22641 -53.17929,3.48525 -7.1993,-2.18878 -31.924842,-8.59643 -15.680074,2.61389 19.477124,13.82485 44.957464,9.75061 67.218714,7.55575 z M 84.613703,270.84858 C 68.664161,257.08742 47.250089,250.14691 34.653148,232.43811 18.3188,213.11826 11.444618,187.14702 13.570904,162.16816 c -2.73565,-11.76481 -3.7155154,14.42536 -4.0155976,18.39885 -3.0675669,19.96459 4.8955966,38.82671 18.1862796,53.4661 16.036078,19.95105 37.559619,35.67747 61.889069,43.85608 3.098301,-1.80975 -4.398199,-5.28071 -5.016952,-7.04061 z m 71.584307,-4.31456 c 14.54623,-16.1154 28.86581,-32.66156 46.37705,-45.65223 -6.70721,-4.08466 -23.904,3.60517 -34.93333,1.21206 -15.66675,0.24314 -31.35041,0.0706 -46.98836,-0.97165 -19.24267,-10.10364 -42.137538,-16.77143 -63.658743,-10.42793 0.358697,15.95095 7.0097,33.30234 19.146467,43.78538 16.442199,9.12508 35.904276,12.14966 54.494866,13.21467 8.53533,0.1305 17.06172,-0.44926 25.56205,-1.1603 z M 65,247.46676 C 54.993952,234.03192 58.947858,212.02313 43.503059,203.08915 34.65837,199.04347 24.377794,177.0962 21.559166,180.31886 c 1.303379,26.47625 17.100968,52.20116 39.78198,65.77635 l 1.818391,0.76552 1.840463,0.60603 0,0 z m 126.16515,-31.93633 c 38.38873,-4.73637 70.51035,-36.90073 77.16039,-74.70647 4.89213,-16.9132 0.49407,-44.054444 -20.57908,-46.22789 -14.69534,0.05246 -38.33094,-13.456464 -46.78692,-10.085688 28.4187,20.517388 35.85468,67.264018 9.29644,92.319018 -15.77985,17.88123 -39.17073,25.24739 -59.79455,35.78882 3.68264,9.97477 24.33599,1.66932 34.39575,3.63937 2.10989,-0.17193 4.21587,-0.40182 6.30797,-0.72716 z m -48.20731,-3.9713 c 22.3946,-14.35917 50.80912,-20.29069 67.58481,-42.4957 21.59389,-26.14722 9.82502,-68.52012 -18.73286,-84.491338 -23.37707,-14.602108 -55.85564,-12.259543 -76.23136,6.613034 -25.700403,19.173784 -40.858507,54.755604 -28.262888,85.725944 5.996412,16.89587 17.316298,33.73646 36.419208,35.66001 6.17382,1.85464 13.69795,3.3454 19.22309,-1.01195 z M 97,205.50972 C 77.01835,180.5252 70.558497,143.44491 87.796636,115.27296 97.513786,98.504168 112.75579,85.666848 129.17216,75.745992 114.91902,69.976683 100.87233,81.911349 93.856861,93.459699 69.549609,123.54172 54.93983,161.84724 55.178893,200.68389 c 12.1112,7.88912 28.136081,-2.45832 40.698286,5.30776 L 97,205.50972 l 0,0 z M 52.454769,191.75 C 54.993123,151.87758 71.434721,113.09029 98.38713,83.585759 98.666017,72.307053 73.789059,88.199674 65.933374,91.05691 c -17.803157,9.44696 -36.063572,23.11254 -39.94601,44.22463 -7.815661,18.3205 -2.16162,38.40215 9.861549,53.34547 3.245697,5.94031 18.309602,18.29064 16.605856,3.12299 z M 273.58434,154.83252 c 7.05541,-5.25824 0.3063,-26.02732 -1.39673,-8.23474 -1.84063,5.66386 -8.39148,25.83083 0.32063,10.11316 l 1.0761,-1.87842 z M 9.4467404,148.59271 c 3.9573376,-5.65354 3.8468396,-24.92743 -0.8061534,-9.02885 -2.950402,6.22009 -4.6261487,27.81284 0.4046609,10.25 l 0.2681095,-0.81546 0.133383,-0.40569 z M 277.81369,116.21058 c -4.1352,-14.03827 0.98186,26.00083 0.84997,6.04191 l -0.22227,-2.74865 -0.6277,-3.29326 z M 27.465225,110.16714 c 3.315533,-4.5278 7.67003,-18.905597 -0.09867,-7.47782 -9.041775,4.76828 -10.40643,31.67961 -2.358691,12.77242 0.824748,-1.76227 1.621873,-3.53734 2.457361,-5.2946 z M 285.20773,97.286303 C 287.07276,84.028226 268.10316,65.046725 262.8632,65.58249 c 5.08688,17.46081 17.59621,31.899805 20.80944,50.09696 3.82698,1.35218 1.59628,-14.96042 1.53509,-18.393147 z M 267.99625,96.043921 C 264.90219,78.678302 242.976,71.490035 227.59672,75.165334 c -8.37545,0.0929 -19.16183,10.271024 -4.1186,10.552527 15.28555,5.307011 36.17337,3.147815 45.45072,17.829369 0.40447,-2.56843 -0.6088,-4.999236 -0.93259,-7.503309 z M 24.877791,100.25 C 48.631399,75.52764 68.332979,45.842912 99.069012,28.905137 116.11846,18.07485 135.68224,12.576288 154.85073,7.1692513 141.3204,4.7460748 126.3158,7.6092407 112.67113,10.59813 76.246957,19.345071 42.321535,44.102078 28.853555,79.890557 26.51998,85.110909 19.767926,98.872829 24.877791,100.25 z M 65.5,85.231913 C 81.302438,74.595541 104.06954,76.754497 117.75185,64.044279 105.65703,58.672615 89.119822,66.253707 76.126914,68.878708 61.784396,73.23561 46.760718,82.304341 43.221955,97.796813 50.582644,95.875461 57.762499,88.187728 65.5,85.231913 z M 219.97153,72.509548 c 11.60778,-9.215599 32.64531,1.561043 39.06548,0.757621 -3.59603,-16.545777 -17.65501,-28.047574 -33.24313,-32.923391 -25.72446,-10.09945 -57.25977,-12.909685 -81.65549,1.979994 -9.11561,4.346582 -19.46939,22.404305 -1.05515,19.074433 20.79665,3.177391 40.45428,11.083031 60.9584,15.534484 5.46516,-0.85246 10.67221,-2.779429 15.92989,-4.423141 z M 280,73.528513 c -8.2862,-22.920625 -27.13184,-42.051016 -50.35867,-49.766124 14.99211,16.943637 30.05478,33.902925 47.62232,48.193015 L 280,73.528513 z m -204.5,-7.9343 c 16.773301,-10.259985 41.73785,0.164346 54.81529,-12.497018 8.67057,-14.4555 24.44564,-21.682133 40.73233,-23.244249 C 194.08754,26.81732 217.26957,32.948442 238.31712,42 225.19819,24.794765 204.79092,12.512253 182.66258,13.324454 136.87051,12.433894 91.513977,34.790527 62.210431,69.585364 66.969444,69.517605 70.992431,66.681075 75.5,65.594213 z M 145,67.975585 C 160.76189,67.104788 121.59217,56.826884 119.98269,68.611666 127.6345,69.610959 136.83502,67.330427 145,67.975585 z"
           style="fill:#d5d5d5;fill-opacity:1;fill-rule:nonzero" />
        <path
           inkscape:connector-curvature="0"
           id="path3007"
           d="M 113,300.80729 C 66.698691,296.89965 19.877549,266.25066 8.3484087,219.42441 4.0140476,200.12556 0.47758438,180.15614 1.6825572,160.34529 4.3110727,138.01611 14.787266,117.64699 18.49896,95.56567 27.862874,59.516776 53.624976,27.608104 88.625697,13.805958 126.69289,-2.8366664 170.22133,-1.5399114 209.56647,9.7326763 c 33.06079,7.2593027 66.49909,27.7958637 76.68745,61.8587047 4.40082,16.628975 11.17385,32.414169 16.58214,48.654139 9.54818,41.03812 -6.84686,83.93061 -31.68104,116.36771 -25.97892,33.19456 -65.26517,54.90884 -106.93582,60.50032 -16.80123,3.36405 -34.08954,6.17197 -51.2192,3.69374 z m 18.56799,-4.69728 C 104.14572,283.80895 72.91051,279.23681 49.35135,259.22308 35.899344,248.81978 24.268637,236.09319 14.991615,221.84765 c 0.620663,15.44824 11.886596,28.01344 21.507068,39.19064 24.301238,24.62077 60.561429,38.69362 95.069307,35.07172 z m 39.31954,-5.55161 c 11.23104,-3.90398 33.18682,-12.86728 35.05929,-18.88204 -18.15135,6.8028 -35.97817,15.74463 -55.84866,16.10175 -7.28319,1.5636 -27.99186,-0.88895 -26.71942,2.87219 14.63247,7.21645 32.47676,4.27639 47.50879,-0.0919 z m 34.29761,-5.94208 c 58.59868,-24.16973 102.32867,-85.70021 98.81627,-149.97193 -2.44132,-9.84813 -1.50655,-23.85173 -10.85177,-29.70904 -0.39505,19.44353 -7.21823,37.71847 -11.65577,56.3277 -9.77835,47.7339 -39.23088,90.46678 -78.3786,119.00338 -5.12914,3.61834 -20.4639,11.3806 -5.94417,7.36254 2.70702,-0.90944 5.30664,-2.10471 8.01404,-3.01265 z M 159,284.46197 c 39.04269,-6.37161 75.9967,-29.68949 94.41401,-65.33386 9.10439,-15.22569 16.95437,-31.37405 21.48878,-48.58538 -15.61586,9.62789 -25.50605,26.23053 -41.33663,35.81361 -24.15765,18.67448 -50.15799,36.11436 -68.2353,61.2339 -14.40845,12.87182 -35.59408,5.58771 -52.95599,5.49502 -6.87617,-0.77668 -24.899542,-8.4714 -24.59454,-2.20422 11.746046,11.8684 28.49514,16.15907 44.75444,15.48281 8.85565,0.2057 17.72844,-0.44694 26.46523,-1.90188 z M 93.833333,279.08733 C 77.342478,259.19902 49.676902,252.7405 34.534559,231.27896 17.727189,211.13506 11.669593,183.86098 14.424772,158.13854 c -2.155734,-11.41519 -6.2683235,14.57672 -5.4199158,18.64872 -2.6463173,18.30483 0.7253674,37.16057 13.4097768,51.23894 17.370891,24.33822 42.684487,43.1746 71.418325,51.74819 l 3.75e-4,-0.68706 0,0 z m 59.726177,-11.65239 c 16.25101,-10.06997 24.52175,-28.85136 40.92363,-38.86764 6.20287,-3.1829 16.00348,-15.28595 1.76514,-9.28164 -18.44196,3.68668 -37.34362,2.31195 -55.99,1.56043 -20.22506,4.69569 -36.99897,-12.19912 -56.882188,-12.56586 -13.911281,-5.11802 -35.800292,1.7385 -24.034973,19.61018 3.339424,17.73601 16.986572,31.50317 34.811079,34.45648 19.185492,5.70948 39.532462,7.30936 59.407312,5.08805 z M 66,248.05716 C 55.394163,234.82843 60.081324,212.4851 45.376757,203.75348 35.38885,197.88258 25.822294,180.0812 20.720829,176.79205 c -0.02674,28.21579 17.146132,54.57892 40.031189,69.95888 1.643791,0.75891 3.426714,1.27473 5.247982,1.30623 z m 122.3412,-31.5523 c 24.23874,-3.31863 47.5331,-14.97492 62.28793,-34.89993 14.01737,-18.57464 21.73502,-42.68991 19.5004,-65.90083 -4.00249,-20.33249 -25.88657,-23.693132 -42.8109,-25.954755 -8.03038,-1.713744 -28.11149,-11.093164 -28.51429,-7.008478 19.10096,15.661474 32.11454,40.970683 26.18276,65.924243 -6.01474,28.51623 -33.23556,45.07563 -58.1839,55.57171 -7.04549,2.0121 -28.46331,12.35807 -9.74494,13.72702 10.43656,-0.37274 20.92484,0.13561 31.28294,-1.45898 z m -44.42531,-4.91808 c 20.40229,-13.48155 46.31847,-18.43792 62.82427,-37.68958 16.12493,-15.91905 19.89205,-41.48167 10.20345,-61.79554 C 202.69045,80.011027 159.36213,63.363989 128.54105,82.182581 97.42082,98.203227 74.649772,135.31239 84.675664,170.56578 c 4.002654,14.86162 12.003998,30.48036 25.681326,38.24455 10.46106,3.23567 23.27762,10.00706 33.5589,2.77645 z M 94.079867,199.87258 C 72.211781,171.70773 73.115747,128.23544 98.01706,102.14904 105.83804,90.541866 123.45125,81.561496 130.45248,74.363269 114.88071,69.858282 100.26493,81.565676 92.414581,94.065654 68.317487,124.28519 54.277353,162.65662 54.369464,201.39611 c 12.906847,6.85239 30.758031,-0.70701 42.986311,3.97669 -0.538468,-2.10489 -2.179811,-3.68876 -3.275908,-5.50022 z M 53.387125,190.75 C 55.91714,150.58414 73.059227,111.66763 100.39842,82.211414 97.493471,71.150748 77.997916,86.913336 69.522552,88.521671 50.858648,97.897966 30.809447,111.091 26.335001,132.98259 c -7.742251,17.24894 -5.495206,37.5407 6.664078,52.19599 5.542775,6.45128 23.091583,29.20113 20.388046,5.57142 z M 6.397882,161.91325 c 0.8016111,-8.93728 11.378483,-27.72704 4.716212,-30.45639 -3.74539,7.5644 -9.7559798,31.61683 -4.8655843,31.06024 l 0.1493723,-0.60385 0,0 z m 267.103348,-5.48184 c 7.50533,-4.3895 1.59827,-31.02059 -1.37316,-12.1917 -1.72969,5.86552 -9.84939,29.99578 0.51789,13.64758 l 0.4348,-0.74015 0.42045,-0.71573 2e-5,0 z M 279.58127,124.25 c 1.24468,-7.48004 -5.96175,-23.57531 -4.68733,-6.92048 -0.55452,5.42357 6.10732,21.36157 4.68733,6.92048 z M 21.618333,123.45975 C 23.791579,116.2879 36.753213,99.866742 30.952229,97.591076 25.165383,101.1044 11.446868,125.58089 21.618333,123.45975 z M 285.98469,107.43366 c 2.72403,-18.426858 -9.04004,-37.008872 -24.71707,-45.414251 3.16967,16.79946 17.05758,32.251462 20.94304,49.832131 2.17694,13.30256 3.78278,10.26008 3.77403,-4.41788 z M 270,104.44741 c 0.98324,-23.840911 -29.20261,-37.977682 -48.98839,-27.556662 -19.37342,8.738546 15.06216,11.580487 22.11635,14.078673 11.6116,0.395541 20.01931,4.879357 25.82155,14.257489 L 270,104.44741 z M 27.5,97.893202 C 45.139417,81.676343 56.979986,60.165865 76.161802,45.525287 100.34865,25.704055 129.80052,12.546333 160.54617,7.0589953 147.57952,2.2887636 133.03691,7.096099 119.6328,8.4184982 78.050421,16.210753 38.949025,44.813483 25.795575,86.068052 22.912162,90.980498 17.991341,111.35995 27.5,97.893202 z M 50.199768,94.917528 C 68.533373,82.012732 90.298507,75.265896 111.94369,70.346529 127.48551,62.536496 110.18045,59.920373 101.99283,62.679011 83.750235,64.9245 63.962935,69.622276 50.579283,82.907043 46.574164,87.947127 32.781096,109.16641 50.199768,94.917528 z M 218.66438,73.5 c 11.87932,-10.371582 35.52064,2.478772 41.2134,-0.683197 -5.23412,-18.169635 -21.34748,-30.226504 -38.92407,-35.195512 -24.8799,-8.536625 -54.81755,-9.910622 -77.77724,4.363303 -9.10206,4.631474 -18.87081,22.971175 -0.60841,19.863901 21.01146,3.421665 41.09261,10.716675 61.63426,16.071846 4.9573,-0.988481 9.67907,-2.833773 14.46206,-4.420341 z m 60.37848,-3.629315 c -9.01349,-22.648387 -28.82885,-40.519335 -52.0626,-47.697438 15.65254,16.701484 30.58997,34.030711 47.92734,48.995666 4.21662,2.826699 6.46752,3.878444 4.13526,-1.298228 z M 76,66.135812 c 16.736052,-10.609419 41.86066,0.841674 54.70278,-12.832641 9.75131,-14.385245 26.07727,-22.119533 43.18021,-22.775283 21.37196,-2.060123 43.089,2.616861 62.36701,11.856018 5.20232,-5.87676 -15.18087,-15.877957 -20.8327,-21.176082 C 201.67626,10.813323 184.09689,13.349016 168.05427,13.583008 127.23785,16.299079 89.007956,38.104467 62.126486,68.34143 59.186175,75.492776 73.430179,65.163617 76,66.135812 z m 66.45,2.875194 c 6.93302,1.695426 20.39469,-1.94559 6.34482,-3.74412 -8.98539,-1.269241 -25.35898,-7.752271 -28.96391,4.502308 7.5253,-0.562083 15.07372,-0.781983 22.61909,-0.758188 z"
           style="fill:#d5d5d5;fill-opacity:1;fill-rule:nonzero" />
        <path
           inkscape:connector-curvature="0"
           id="path3005"
           d="M 114.5,300.49004 C 68.105462,296.83019 20.89997,266.58276 8.960207,219.74825 4.2851634,203.11257 3.4090569,185.45617 1.4706258,168.61882 c 6.1884876,8.83521 5.3459697,-14.36213 9.2364732,-19.71548 5.719357,-14.98911 -2.0377711,-29.94468 6.808029,-44.49939 6.825177,-44.378091 41.188616,-83.124961 84.654962,-94.9033719 29.54552,-9.99598232 61.62955,-10.40322885 91.74526,-2.6983468 32.20907,5.7385417 66.73554,18.5010447 84.1849,48.1006237 8.79437,15.974534 15.12425,34.271277 14.63143,52.645495 -3.13727,26.66963 -11.72552,52.26979 -18.86988,78.06659 -10.42957,32.70196 -32.58449,60.55611 -57.47161,83.60472 -13.78502,10.75389 -28.3443,22.44615 -45.7148,26.28192 -18.5806,2.65271 -37.27515,7.87667 -56.17539,4.98846 z m 19.54492,-4.04416 c 16.40076,-1.12785 33.40098,-1.45088 48.1513,-9.71847 12.71567,-3.95792 27.68556,-14.03522 28.2156,-21.0182 22.73711,-12.89559 38.014,-35.40417 50.24022,-57.92677 6.37735,-12.37901 11.46045,-25.41061 15.34796,-38.77762 -15.29703,7.17566 -23.3836,24.72212 -38.41532,33.2107 -26.00489,20.94023 -54.95883,39.48738 -74.36104,67.26067 -10.83741,8.04358 -26.15795,3.73442 -38.898,3.99871 -21.85299,-2.31729 -44.508045,-5.83264 -62.68901,-19.19239 -31.476849,-18.09969 -51.102934,-55.03816 -46.574056,-91.29533 2.311989,-8.99673 -3.239342,-16.09007 -4.547299,-3.43353 -1.3642788,18.02427 -6.2414857,38.65198 2.623611,55.11162 11.67416,20.92094 28.907654,38.36451 48.457967,52.03053 -19.688121,-11.19548 -34.136338,-29.18084 -47.639028,-46.93166 1.340767,21.02789 17.234975,37.58244 32.244099,50.81606 24.236244,19.13079 56.021696,29.33141 86.814946,26.61209 l 0.69463,-0.50433 0.33342,-0.24208 0,0 z M 111.5,287.47468 c -12.150585,-7.38568 17.60473,4.32093 1.69387,0.75087 L 111.5,287.47468 z m 16.25,-0.13696 c 6.85489,-2.40012 0.39261,2.33019 0,0 z m -29.541933,-4.14881 c -14.00628,-9.0988 20.606863,5.10898 0,0 z m 74.062763,-0.79308 c 3.03003,-1.43141 2.42551,2.11393 0,0 z M 191,276 c 8.19128,-4.52802 -2.48716,3.47249 0,0 z M 71.75,272.93587 c -14.907197,-8.18033 15.310283,5.85855 1.861621,0.93609 -0.622135,-0.30876 -1.240678,-0.62489 -1.861621,-0.93609 z m 127.33333,-0.30042 c 6.53316,-5.15404 6.5521,-1.47556 0,0 z M 157,267.60152 c 14.52784,-17.03211 29.78773,-33.6508 47.78236,-47.0732 -0.39765,-8.02037 -20.39795,3.33481 -28.48543,0.18351 -17.66957,-0.26083 -35.67152,1.28152 -53.12456,-1.09993 -19.16061,-5.93066 -38.736045,-17.29727 -59.341035,-11.22254 -16.05928,3.70917 -26.689817,-12.23232 -35.158907,-23.24112 -4.233465,-6.96897 -10.272761,-17.13874 -8.255727,-2.35541 2.671814,26.65004 19.061234,52.30437 42.498553,65.36647 17.434293,10.83001 37.179366,18.68635 58.054806,19.98268 11.99967,0.51037 24.08689,1.10516 36.02994,-0.54046 z m 34.874,-51.20775 c 37.30311,-4.8312 69.13244,-34.84801 76.45071,-71.68707 5.45783,-12.8564 2.72026,-30.9862 -1.053,-39.60337 7.5811,2.24841 0.0769,-20.433529 -7.19047,-24.007959 -14.11125,-10.740991 -34.32806,-11.211239 -48.06589,0.604452 -3.97179,1.803981 -22.16322,-4.592068 -11.11221,4.059627 27.14545,20.21783 34.2492,64.65884 9.57883,89.61776 -16.54245,18.74204 -41.19535,26.16599 -62.72737,37.34488 3.82141,12.56134 24.99699,2.6861 35.5023,4.82164 2.88441,-0.28354 5.76159,-0.65122 8.6171,-1.14996 z M 260.81291,98 c -5.24712,-9.030688 7.66811,8.9228 0,0 z M 143.99113,212.10449 c 23.61646,-14.50455 53.56349,-21.31263 69.66468,-45.8034 C 231.17446,141.30676 222.172,104.77522 197.9305,87.57206 175.51561,70.067726 141.37589,68.753444 119.16603,87.367249 93.284609,105.12772 75.42162,137.85928 83.886401,169.47629 c 3.661816,15.80591 12.373503,30.86449 25.792929,40.30122 11.10524,1.49885 23.89748,10.53832 34.3118,2.32698 z M 99,206.22309 C 77.576016,180.52588 71.388334,141.013 90.703561,112.37119 101.3476,95.813844 117.48542,83.674027 134.39895,74.067978 c -15.38846,-4.038585 -30.70087,4.613311 -45.908606,6.345891 -22.073443,6.82781 -42.99791,19.147195 -57.426531,37.467521 -6.934038,18.38388 -16.038651,40.1683 -4.103098,58.58938 8.270401,15.93951 24.114119,33.17565 43.974241,28.00144 9.744546,-3.2304 18.91479,3.0525 28.065044,1.75088 z m 169.87658,-41.88953 c 8.16994,-5.67016 12.69942,-28.87976 4.91028,-28.69066 -0.90626,9.35486 -10.56106,26.5402 -6.7992,30.76286 0.62964,-0.69073 1.25928,-1.38147 1.88892,-2.0722 z m 10.14322,-49.11138 c -0.41719,-12.9769 -7.99757,-9.43092 -4.6676,1.13493 -0.44488,6.10128 5.82084,26.58463 5.49782,9.14232 -0.0548,-3.43803 -0.26543,-6.88186 -0.83022,-10.27725 z M 22.25,123.64335 C 24.523346,115.9499 38.238428,98.3762 31.713176,95.763271 24.266901,100.41753 10.880443,125.11949 21.602512,124.61857 l 0.474809,-0.71514 0.172679,-0.26008 0,0 z M 286.70483,111.12549 C 288.62459,95.453568 281.68733,80.082099 277.6853,65.317492 267.57332,44.081527 247.99781,27.60777 225.35035,21.262327 c 10.40272,13.334285 24.90366,23.323194 33.46447,38.088473 4.5928,16.574337 16.04298,29.820528 20.24073,46.40306 0.68008,6.11491 7.31976,22.75806 7.45124,7.87048 l 0.19804,-2.49885 0,0 z M 29.343525,96.966444 C 49.6444,76.349645 65.621072,51.032146 90.65423,35.444622 111.62784,21.241625 135.78244,11.706608 160.85548,8.0158757 154.38785,2.5211639 135.38799,6.710554 124.33706,7.1192071 80.399976,13.356821 38.276281,43.298468 25.249358,86.866125 20.619926,92.46572 17.692836,111.75245 27.939086,98.595386 l 1.404439,-1.628942 z M 50.460517,95.450411 C 70.618344,81.269164 94.961266,74.050214 118.9742,69.830644 c 16.24442,-0.293171 32.49397,-0.973049 48.632,-1.201312 16.59951,1.569096 32.52789,14.577799 49.2103,6.087818 14.32363,-9.773041 29.98401,-1.220461 44.17244,-0.05622 C 257.98978,60.937795 246.19264,50.642963 237.82452,39.649813 224.52632,24.088578 205.00987,11.131663 183.69741,12.263885 137.00258,11.000501 91.376189,33.699204 61.20042,68.810411 59.162388,80.350259 39.196675,86.703965 41.35774,101.31633 c 3.184795,-1.713017 6.118638,-3.836143 9.102777,-5.865919 z M 121.63148,63.29815 c 1.03504,-8.33062 16.27539,0.237397 2.3456,-0.290283 l -1.15033,0.421928 -1.19527,-0.131645 z m -7.36065,-2.902317 c 3.02997,-1.431428 2.42562,2.113825 0,0 z"
           style="fill:#d5d5d5;fill-opacity:1;fill-rule:nonzero" />
        <path
           inkscape:connector-curvature="0"
           id="path3003"
           d="M 126,301.12244 C 99.95782,299.19799 73.492079,293.2744 51.814695,278.01639 26.630454,261.16507 8.8286382,233.28358 6.3224571,202.86318 c -6.10361207,-16.844 -0.852669,-33.80246 3.7991209,-50.14443 7.9573,-14.43639 0.174488,-30.42374 6.627446,-45.02801 C 21.346735,86.9883 28.560149,66.411184 42.29868,49.819872 69.532022,15.272904 115.64342,0.84159677 158.3413,2.0637446 c 36.6348,4.9080957 77.05764,9.4071294 105.35822,35.6895654 24.91875,24.393423 34.27541,62.62283 24.06166,95.88416 -7.80049,25.95291 -11.57529,53.3801 -25.42313,77.15552 -16.48686,28.97888 -38.57657,56.21518 -67.57408,73.40807 -11.85976,8.63661 -26.01788,11.59632 -40.33246,13.47928 -9.29786,2.17733 -19.02272,1.83906 -28.43151,3.4421 z m 8.36431,-3.6286 c 20.1585,-1.81775 40.79872,-4.2555 58.44363,-15.02254 16.40583,-6.68387 24.87917,-22.6142 38.89461,-32.59758 19.12856,-19.96063 32.75835,-45.01871 41.81234,-71.03063 3.41012,-8.10799 4.16497,-16.41162 -4.64927,-6.63736 -13.05583,14.94308 -28.06124,27.83143 -44.0577,39.55452 -22.2719,16.68819 -44.84742,33.74138 -61.57132,56.29109 -15.48695,10.59865 -36.01134,3.51481 -53.43909,3.16489 -44.996593,-4.868 -89.013246,-39.78998 -94.035,-86.50483 -1.812758,-11.45007 2.714756,-23.85479 -2.556767,-34.67162 -8.093138,22.19898 -7.4283456,46.67513 -0.872923,69.10036 3.05347,21.1556 17.820724,38.49788 33.579536,51.96444 24.208059,19.19974 55.914214,28.90808 86.642334,27.02501 0.60321,-0.21192 1.20641,-0.42383 1.80962,-0.63575 z M 112.75,287.78172 c -11.16395,-4.69009 12.36379,1.41209 0,0 z m -13.5,-4.81288 c -7.386947,-6.51669 9.48237,3.0254 0,0 z m 57.25348,-14.97016 c 15.26414,-15.34364 28.44596,-32.99376 46.67395,-45.10056 11.71058,-13.6536 -16.90787,-0.21034 -23.93896,-2.52306 -16.35482,1.26271 -32.79646,-1.67188 -49.02039,0.25769 -18.92755,-2.98658 -35.732376,-15.53437 -55.504025,-14.48401 -16.20104,5.86811 -31.610095,-1.19424 -41.1752,-15.04124 -4.874398,-3.81686 -13.654988,-27.39598 -14.035823,-9.70479 2.825233,31.45202 23.913366,59.85298 52.58691,72.69628 23.504068,13.53012 51.855548,16.71362 78.521498,14.72811 1.97256,-0.20968 3.93881,-0.48147 5.89204,-0.82842 z M 189,217.45741 c 34.96976,-3.90388 66.52647,-29.10802 76.96864,-62.8893 6.44787,-16.37974 6.48273,-34.19713 4.07861,-51.35537 2.32312,-20.188382 -19.20877,-32.461 -37.02544,-30.436644 -13.48868,1.295157 -24.64284,11.668906 -38.29501,7.349567 14.29584,12.277131 27.91634,27.833277 29.7061,47.732267 4.32646,23.53124 -8.85488,46.42336 -28.00379,59.33306 -14.74699,10.45982 -32.07212,16.22323 -47.88417,24.7588 -2.62889,13.11246 22.19577,4.62082 30.76283,6.54161 3.24272,-0.21259 6.48138,-0.52572 9.69223,-1.03399 z m -44.7167,-4.9105 c 23.27517,-14.78382 53.50219,-20.84035 69.41181,-45.38017 C 230.43007,143.39173 224.13823,108.81398 202.4281,90.379398 180.63216,70.766826 144.9414,66.892674 121.18929,85.290533 91.696026,103.82891 71.594646,142.5719 85.562476,176.69965 c 5.803161,16.27074 16.407134,34.70797 35.251174,36.56478 7.40149,2.25764 17.15696,5.9125 23.46965,-0.71752 z m -44.783554,-5.5465 C 86.844846,188.24745 76.038994,166.30225 79.890113,143.00933 83.928021,112.99299 106.97972,89.447892 132.64558,75.62982 130.85086,67.064438 109.06612,76.35081 100.33092,76.723834 76.1443,82.290524 52.129726,93.595473 35.226497,112.15206 24.975983,125.1169 21.031369,142.4177 20.916284,158.66264 c 1.984165,18.88934 14.9893,36.51553 31.662831,45.31791 14.880157,2.52775 31.44692,-0.46339 46.920631,3.01986 z M 268.96703,165.25 c 9.98198,-12.23017 12.02613,-29.37778 11.31199,-44.59167 1.3699,-5.68894 -7.13385,-25.847717 -6.27779,-9.80516 2.65783,16.49453 -0.86343,32.93874 -7.50191,47.99586 -3.02724,4.315 -4.40309,15.08151 2.46771,6.40097 z M 23.103578,122.96308 C 32.242803,108.28676 34.35946,89.802559 47.491596,77.482586 73.940422,43.421402 111.57957,16.802589 154.70333,9.7491238 163.17663,8.4754261 172.46962,5.1897278 158.94091,4.2665806 114.63534,2.069342 67.384649,18.675766 40.469284,55.299756 27.214337,73.117013 20.629496,94.803587 18.164958,116.66402 c -2.945104,6.08074 -0.672898,19.23874 4.93862,6.29906 z M 286.82503,109.58459 C 287.78133,90.845285 282.15402,71.673002 272.65278,55.624962 261.44755,38.602338 244.04924,25.806731 224.53013,20 c 6.64089,13.7676 22.3263,20.814254 30.16413,34.081733 7.90156,15.754944 15.37719,31.822798 22.88509,47.683527 1.24624,7.08345 8.68781,32.52976 9.04347,13.31144 0.0545,-1.83106 0.0683,-3.66424 0.20221,-5.49211 z M 45.397008,99.640282 C 68.090875,82.399833 96.422175,72.935938 124.60364,70.443453 c 18.48916,1.014955 37.68165,-4.17642 55.54893,1.741579 15.09077,6.4368 30.76792,8.430778 45.52349,-0.01932 12.68518,-6.720605 25.48687,5.16124 36.98212,3.738032 C 256.29542,58.974967 244.01319,44.212733 230.80533,31.979841 218.65873,21.181565 204.2062,10.560712 187.00806,12.413808 156.57954,10.712771 126.01197,18.546911 100.35604,35.045516 80.961017,46.387043 64.487334,62.203443 51.74853,80.617764 49.490565,79.83687 31.090714,111.04317 45.397008,99.640282 z m 77.113072,-37.62397 c 1.20313,-3.262068 3.35073,2.094986 0,0 z"
           style="fill:#d5d5d5;fill-opacity:1;fill-rule:nonzero" />
        <path
           inkscape:connector-curvature="0"
           id="path3001"
           d="m 136.5,298 c 6.56469,-2.69908 21.11509,0.43408 6.35828,0.7882 -2.0669,0.0607 -4.65507,0.96221 -6.35828,-0.7882 z m 32.5,-4.63633 c 5.9461,-5.33561 19.1702,-3.36431 5.448,-0.18956 -1.78272,0.12936 -3.68555,0.9392 -5.448,0.18956 z M 113.86709,271.45745 C 98.306458,268.11 82.083406,266.01637 68.561234,256.95327 35.684372,240.35479 11.752833,203.70204 16.498998,166.23407 c -1.625435,-14.51121 -1.870106,-27.90232 -2.410933,-42.38722 1.104201,-7.50576 4.072359,12.94554 9.161137,0.3857 C 32.631164,107.77767 37.002838,88.381279 50.643315,74.447874 76.558,42.339832 113.26515,17.05408 154.52524,10.783724 c 14.37501,-4.7891228 26.71494,-8.4371808 42.28743,-2.1509845 30.05678,5.3454725 61.26637,17.8266465 78.58606,44.3970955 15.72849,24.418407 19.87098,55.378115 11.07387,83.070365 -4.46889,15.07907 -5.64971,29.22548 -20.02828,36.99769 -14.53179,19.30588 -35.51263,32.20136 -54.0963,47.2531 -18.01957,13.88081 -35.82193,28.60956 -49.28371,47.13367 -13.56406,10.46581 -31.73547,3.04446 -47.34042,4.209 l -1.8568,-0.23621 0,0 z m 40.45056,-2.11028 c 17.0054,-11.44391 26.58383,-31.04061 44.4021,-41.57079 8.57732,-11.19022 18.81429,-18.7132 31.51647,-24.73016 12.50267,-8.47559 22.89271,-19.92105 30.57238,-32.89819 16.97785,-3.71267 18.0575,-25.84331 21.61989,-39.77372 7.05754,-13.40675 6.90244,-28.43747 3.4538,-42.909737 C 281.25564,59.525921 261.9798,35.279288 236.33144,23.601998 225.33256,17.110104 215.1254,24.604431 204.7569,13.707993 190.60648,9.1718409 174.69633,11.195381 159.89952,12.52419 116.48055,18.957831 75.879288,44.037059 51.120629,80.274888 38.805731,91.19108 39.459338,107.84324 29.393403,120.16325 c -6.806236,13.68578 -11.488293,29.29669 -8.561961,44.68267 -3.678503,14.42903 -1.371501,30.82402 6.011597,45.50712 9.649749,21.46315 28.286979,37.59986 49.606886,46.89351 23.946495,11.99189 51.552865,13.97221 77.867725,12.10062 z m -31.18499,-50.34723 c -5.39282,-5.83114 -24.497565,-3.24775 -21.59508,-13.54292 11.28391,10.8377 30.76779,10.04468 42.80277,11.09799 -6.2645,2.30344 -14.84455,5.40135 -21.20769,2.44493 z M 52.5,206 c -5.899494,-6.71409 8.803784,6.11227 0,0 z m 219.85528,-76 c -1.42251,-11.1764 5.83986,-1.75867 -0.26844,1.88784 0.0895,-0.62928 0.17896,-1.25856 0.26844,-1.88784 z m -1.16718,-15.89027 c -1.10157,-11.58112 3.54996,-5.54357 1.20387,2.25765 l -1.20387,-2.25765 z m 0.40254,-13.19251 c 1.70921,-6.637598 -16.58751,-30.200835 -3.12203,-16.942107 1.1697,5.440787 14.08239,21.234287 3.12203,16.942107 z M 185.65033,79.051746 c -13.50464,-9.905243 -38.22322,-4.167875 -47.86963,-5.478432 12.38497,-6.91622 28.91797,-2.499331 42.32823,-0.739208 7.52568,-1.646792 24.26658,14.027285 5.5414,6.21764 z m 19.77588,1.067656 c 5.7863,-5.022447 4.71815,2.966601 0,0 z M 104.5,75 c 2.37633,-3.727912 3.69563,3.413788 0,0 z m 8.5,-3 c 6.06341,-3.895676 2.57289,3.255007 0,0 z M 254.21436,57.638736 c -5.22856,-9.141642 8.28981,7.564768 0,0 z m -8.55223,-10.095031 c -8.5321,-12.504705 9.40572,5.98927 0,0 z M 214.83995,266.59156 c 3.36225,-7.07278 22.05121,-17.41677 7.80261,-4.88062 -1.59062,0.82783 -6.537,9.09682 -7.80261,4.88062 z m 40.60073,-46.69262 c 4.50984,-6.47422 11.17183,-23.89384 13.51356,-23.86468 -2.59621,7.39222 -12.85723,26.10182 -13.88316,24.52971 l 0.3696,-0.66503 0,0 z M 8.1380525,212.33322 c -4.0999528,-16.42803 6.9818505,9.35217 0.5460569,2.35365 -0.2041268,-0.77859 -0.3585545,-1.57067 -0.5460569,-2.35365 z M 5.2035494,191.98144 c -4.25901098,-7.18439 3.1917759,-22.78177 1.7979636,-6.32254 0.3903172,4.71573 -0.2581381,18.98541 -1.7979636,6.32254 z M 17.070285,110.97251 c 4.007036,-19.769505 1.717966,7.94762 0,0 z M 151.27083,1.3958333 c 3.02996,-1.43143318 2.42563,2.1138377 0,0 z"
           style="fill:#d5d5d5;fill-opacity:1;fill-rule:nonzero" />
      </g>
    </g>
  </g>
</svg>
