<?xml version="1.0" encoding="UTF-8" standalone="no"?>
<svg
   xmlns:dc="http://purl.org/dc/elements/1.1/"
   xmlns:cc="http://creativecommons.org/ns#"
   xmlns:rdf="http://www.w3.org/1999/02/22-rdf-syntax-ns#"
   xmlns:svg="http://www.w3.org/2000/svg"
   xmlns="http://www.w3.org/2000/svg"
   xmlns:xlink="http://www.w3.org/1999/xlink"
   xmlns:sodipodi="http://sodipodi.sourceforge.net/DTD/sodipodi-0.dtd"
   xmlns:inkscape="http://www.inkscape.org/namespaces/inkscape"
   width="128"
   height="128"
   id="svg2"
   version="1.1"
   inkscape:version="0.48.4 r9939"
   sodipodi:docname="retencion_madera_tratado.svg">
  <metadata
     id="metadata649">
    <rdf:RDF>
      <cc:Work
         rdf:about="">
        <dc:format>image/svg+xml</dc:format>
        <dc:type
           rdf:resource="http://purl.org/dc/dcmitype/StillImage" />
        <dc:title />
      </cc:Work>
    </rdf:RDF>
  </metadata>
  <sodipodi:namedview
     pagecolor="#ffffff"
     bordercolor="#666666"
     borderopacity="1"
     objecttolerance="10"
     gridtolerance="10"
     guidetolerance="10"
     inkscape:pageopacity="0"
     inkscape:pageshadow="2"
     inkscape:window-width="1364"
     inkscape:window-height="718"
     id="namedview647"
     showgrid="true"
     inkscape:zoom="7.1700628"
     inkscape:cx="53.145658"
     inkscape:cy="67.135292"
     inkscape:window-x="0"
     inkscape:window-y="0"
     inkscape:window-maximized="1"
     inkscape:current-layer="layer3"
     showguides="true"
     inkscape:guide-bbox="true">
    <inkscape:grid
       type="xygrid"
       id="grid5470"
       empspacing="5"
       visible="true"
       enabled="true"
       snapvisiblegridlinesonly="true" />
    <sodipodi:guide
       orientation="1,0"
       position="64,64"
       id="guide3216" />
    <sodipodi:guide
       orientation="0,1"
       position="62.412285,64"
       id="guide3218" />
  </sodipodi:namedview>
  <desc
     id="desc4">/home/snappler/Escritorio/Simbolos-C DXF_2000.dxf - scale = 0.536199</desc>
  <defs
     id="defs6">
    <marker
       id="DistanceX"
       orient="auto"
       refX="0"
       refY="0"
       style="overflow:visible">
      <path
         d="M 3,-3 -3,3 M 0,-5 0,5"
         style="stroke:#000000;stroke-width:0.5"
         id="path9"
         inkscape:connector-curvature="0" />
    </marker>
    <pattern
       height="8"
       id="Hatch"
       patternUnits="userSpaceOnUse"
       width="8"
       x="0"
       y="0">
      <path
         d="M8 4 l-4,4"
         linecap="square"
         stroke="#000000"
         stroke-width="0.25"
         id="path12" />
      <path
         d="M6 2 l-4,4"
         linecap="square"
         stroke="#000000"
         stroke-width="0.25"
         id="path14" />
      <path
         d="M4 0 l-4,4"
         linecap="square"
         stroke="#000000"
         stroke-width="0.25"
         id="path16" />
    </pattern>
    <symbol
       id="*MODEL_SPACE" />
    <symbol
       id="*PAPER_SPACE" />
    <symbol
       id="POSTE-RD">
      <path
         d="m -10769658,11642373 7,0"
         style="fill:none;stroke:#000000"
         id="path21"
         inkscape:connector-curvature="0" />
      <path
         d="m -10769666,11642377 6,-8"
         style="fill:none;stroke:#000000"
         id="path23"
         inkscape:connector-curvature="0" />
      <path
         d="m -10769658,11642373 a 5,5 0 1 0 -10,0 5,5 0 1 0 10,0 z"
         style="fill:none;stroke:#000000"
         id="path25"
         inkscape:connector-curvature="0" />
      <path
         d="m -10769659,11642376 -8,-6"
         style="fill:none;stroke:#000000"
         id="path27"
         inkscape:connector-curvature="0" />
      <path
         d="m -10769645,11642373 -6,-2 0,4 z"
         style="fill:#000000"
         id="path29"
         inkscape:connector-curvature="0" />
    </symbol>
    <symbol
       id="POSTE-CP">
      <path
         d="m -10769658,11642373 a 5,5 0 1 0 -10,0 5,5 0 1 0 10,0 z"
         style="fill:none;stroke:#000000"
         id="path32"
         inkscape:connector-curvature="0" />
      <path
         d="m -10769666,11642377 6,-8"
         style="fill:none;stroke:#000000"
         id="path34"
         inkscape:connector-curvature="0" />
      <path
         d="m -10769648,11642370 0,6"
         style="fill:none;stroke:#000000"
         id="path36"
         inkscape:connector-curvature="0" />
      <path
         d="m -10769659,11642375 11,1"
         style="fill:none;stroke:#000000"
         id="path38"
         inkscape:connector-curvature="0" />
      <path
         d="m -10769659,11642371 11,-1"
         style="fill:none;stroke:#000000"
         id="path40"
         inkscape:connector-curvature="0" />
      <path
         d="m -10769659,11642376 -8,-6"
         style="fill:none;stroke:#000000"
         id="path42"
         inkscape:connector-curvature="0" />
    </symbol>
    <symbol
       id="POSTE-MA">
      <path
         d="m -10769658,11642373 a 5,5 0 1 0 -10,0 5,5 0 1 0 10,0 z"
         style="fill:none;stroke:#000000"
         id="path45"
         inkscape:connector-curvature="0" />
      <path
         d="m -10769659,11642376 -8,-6"
         style="fill:none;stroke:#000000"
         id="path47"
         inkscape:connector-curvature="0" />
      <path
         d="m -10769666,11642377 6,-8"
         style="fill:none;stroke:#000000"
         id="path49"
         inkscape:connector-curvature="0" />
    </symbol>
    <symbol
       id="POSTE-HA">
      <path
         d="m -10769656,11642373 a 7.21976,7.21976 0 1 0 -14,0 7.21976,7.21976 0 1 0 14,0 z"
         style="fill:none;stroke:#000000"
         id="path52"
         inkscape:connector-curvature="0" />
      <path
         d="m -10769663,11642366 0,14"
         style="fill:none;stroke:#000000"
         id="path54"
         inkscape:connector-curvature="0" />
      <path
         d="m -10769656,11642373 -7,-7 0,14 z"
         style="fill:#000000"
         id="path56"
         inkscape:connector-curvature="0" />
    </symbol>
    <symbol
       id="PAT">
      <path
         d="m -10769663,11642373 0,8"
         style="fill:none;stroke:#000000"
         id="path59"
         inkscape:connector-curvature="0" />
      <path
         d="m -10769663,11642381 5,0"
         style="fill:none;stroke:#000000"
         id="path61"
         inkscape:connector-curvature="0" />
      <path
         d="m -10769663,11642383 4,0"
         style="fill:none;stroke:#000000"
         id="path63"
         inkscape:connector-curvature="0" />
      <path
         d="m -10769663,11642384 3,0"
         style="fill:none;stroke:#000000"
         id="path65"
         inkscape:connector-curvature="0" />
      <path
         d="m -10769663,11642386 2,0"
         style="fill:none;stroke:#000000"
         id="path67"
         inkscape:connector-curvature="0" />
      <path
         d="m -10769663,11642381 -5,0"
         style="fill:none;stroke:#000000"
         id="path69"
         inkscape:connector-curvature="0" />
      <path
         d="m -10769663,11642386 -2,0"
         style="fill:none;stroke:#000000"
         id="path71"
         inkscape:connector-curvature="0" />
      <path
         d="m -10769663,11642384 -3,0"
         style="fill:none;stroke:#000000"
         id="path73"
         inkscape:connector-curvature="0" />
      <path
         d="m -10769663,11642383 -4,0"
         style="fill:none;stroke:#000000"
         id="path75"
         inkscape:connector-curvature="0" />
    </symbol>
  </defs>
  <g
     inkscape:groupmode="layer"
     inkscape:label="0"
     id="g77"
     transform="translate(0,-924.36218)"
     style="display:none">
    <path
       d="m 117.12221,-1472.4508 -47.510734,82.291 95.021464,0 -47.51073,-82.291 z"
       style="fill:none;stroke:#000000"
       id="path323"
       inkscape:connector-curvature="0" />
    <use
       x="10769755"
       y="-11643747"
       xlink:href="#POSTE-HA"
       id="use325"
       width="744.09448"
       height="1052.3622" />
    <path
       d="m 112.59209,-277.76433 a 16.469804,16.469804 0 1 0 -32.939605,0 16.469804,16.469804 0 1 0 32.939605,0 z"
       style="fill:none;stroke:#000000"
       id="path327"
       inkscape:connector-curvature="0" />
    <path
       d="m 154.59193,-277.76433 a 16.469804,16.469804 0 1 0 -32.9396,0 16.469804,16.469804 0 1 0 32.9396,0 z"
       style="fill:none;stroke:#000000"
       id="path329"
       inkscape:connector-curvature="0" />
    <use
       x="10769780"
       y="-11643367"
       xlink:href="#POSTE-MA"
       id="use331"
       width="744.09448"
       height="1052.3622" />
    <use
       x="10770046"
       y="-11642118"
       xlink:href="#PAT"
       id="use333"
       width="744.09448"
       height="1052.3622" />
    <use
       x="10769805"
       y="-11643747"
       xlink:href="#POSTE-HA"
       id="use335"
       width="744.09448"
       height="1052.3622" />
    <path
       d="m 212.11801,-1488.9608 -189.991601,0 0,142.4937 189.991601,0 0,-142.4937 z"
       style="fill:none;stroke:#414141"
       id="path337"
       inkscape:connector-curvature="0" />
    <use
       x="10769780"
       y="-11643599"
       xlink:href="#POSTE-HA"
       id="use339"
       width="744.09448"
       height="1052.3622" />
    <path
       d="m 91.786507,-1236.9304 -22.175031,38.4082 44.350064,0 -22.175033,-38.4082 z"
       style="fill:none;stroke:#000000"
       id="path341"
       inkscape:connector-curvature="0" />
    <path
       d="m 120.26554,-1198.5322 44.35006,0 -22.17503,-38.4083 -22.17503,38.4083 z"
       style="fill:none;stroke:#000000"
       id="path343"
       inkscape:connector-curvature="0" />
    <path
       d="m 139.2799,-1242.3949 -22.17503,-38.4083 -22.175032,38.4083 44.350062,0 z"
       style="fill:none;stroke:#000000"
       id="path345"
       inkscape:connector-curvature="0" />
    <path
       d="m 212.11801,-1298.9692 -189.991601,0 0,142.4937 189.991601,0 0,-142.4937 z"
       style="fill:none;stroke:#414141"
       id="path347"
       inkscape:connector-curvature="0" />
    <path
       d="m 117.12221,-1092.4676 -47.510734,82.291 95.021464,0 -47.51073,-82.291 z"
       style="fill:none;stroke:#000000"
       id="path349"
       inkscape:connector-curvature="0" />
    <path
       d="m 212.11801,-1108.9776 -189.991601,0 0,142.49372 189.991601,0 0,-142.49372 z"
       style="fill:none;stroke:#414141"
       id="path351"
       inkscape:connector-curvature="0" />
    <path
       d="m 212.11801,-918.98598 -189.991601,0 0,142.4937 189.991601,0 0,-142.4937 z"
       style="fill:none;stroke:#414141"
       id="path353"
       inkscape:connector-curvature="0" />
    <use
       x="10769780"
       y="-11643221"
       xlink:href="#POSTE-MA"
       id="use355"
       width="744.09448"
       height="1052.3622" />
    <use
       x="10769780"
       y="-11643031"
       xlink:href="#POSTE-RD"
       id="use357"
       width="744.09448"
       height="1052.3622" />
    <path
       d="m 212.11801,-728.99438 -189.991601,0 0,142.4937 189.991601,0 0,-142.4937 z"
       style="fill:none;stroke:#414141"
       id="path359"
       inkscape:connector-curvature="0" />
    <path
       d="m 212.11801,-539.00278 -189.991601,0 0,142.4937 189.991601,0 0,-142.4937 z"
       style="fill:none;stroke:#414141"
       id="path361"
       inkscape:connector-curvature="0" />
    <use
       x="10769797"
       y="-11642841"
       xlink:href="#POSTE-HA"
       id="use363"
       width="744.09448"
       height="1052.3622" />
    <use
       x="10769764"
       y="-11642841"
       xlink:href="#POSTE-HA"
       id="use365"
       width="744.09448"
       height="1052.3622" />
    <path
       d="m 112.59209,-277.76433 9.06024,0"
       style="fill:none;stroke:#000000"
       id="path367"
       inkscape:connector-curvature="0" />
    <path
       d="m 212.11801,-349.01118 -189.991601,0 0,142.4937 189.991601,0 0,-142.4937 z"
       style="fill:none;stroke:#414141"
       id="path369"
       inkscape:connector-curvature="0" />
    <path
       d="m 478.10625,220.96362 -189.9916,0 0,142.4937 189.9916,0 0,-142.4937 z"
       style="fill:none;stroke:#414141"
       id="path371"
       inkscape:connector-curvature="0" />
    <path
       d="m 350.09783,73.196349 0,31.716561 33.01262,-15.858281 -33.01262,-15.85828 z"
       style="fill:#000000"
       id="path373"
       inkscape:connector-curvature="0" />
    <path
       d="m 350.09783,104.91291 0,-31.716561"
       style="fill:none;stroke:#000000"
       id="path375"
       inkscape:connector-curvature="0" />
    <path
       d="m 350.09783,73.196349 66.02524,0"
       style="fill:none;stroke:#000000"
       id="path377"
       inkscape:connector-curvature="0" />
    <path
       d="m 416.12307,73.196349 0,31.716561"
       style="fill:none;stroke:#000000"
       id="path379"
       inkscape:connector-curvature="0" />
    <path
       d="m 416.12307,104.91291 -66.02524,0"
       style="fill:none;stroke:#000000"
       id="path381"
       inkscape:connector-curvature="0" />
    <path
       d="m 315.81549,89.054629 34.28234,0"
       style="fill:none;stroke:#000000"
       id="path383"
       inkscape:connector-curvature="0" />
    <path
       d="m 478.10625,30.972021 -189.9916,0 0,142.493699 189.9916,0 0,-142.493699 z"
       style="fill:none;stroke:#414141"
       id="path385"
       inkscape:connector-curvature="0" />
    <path
       d="m 450.40541,89.054629 -34.28234,0"
       style="fill:none;stroke:#000000"
       id="path387"
       inkscape:connector-curvature="0" />
    <path
       d="m 212.11801,-159.01958 -189.991601,0 0,142.493702 189.991601,0 0,-142.493702 z"
       style="fill:none;stroke:#414141"
       id="path389"
       inkscape:connector-curvature="0" />
    <use
       x="10769780"
       y="-11642461"
       xlink:href="#POSTE-HA"
       id="use391"
       width="744.09448"
       height="1052.3622" />
    <path
       d="m 212.11801,30.972021 -189.991601,0 0,142.493699 189.991601,0 0,-142.493699 z"
       style="fill:none;stroke:#414141"
       id="path395"
       inkscape:connector-curvature="0" />
    <path
       d="m 478.10625,-1488.9608 -189.9916,0 0,142.4937 189.9916,0 0,-142.4937 z"
       style="fill:none;stroke:#414141"
       id="path397"
       inkscape:connector-curvature="0" />
    <path
       d="m 358.9465,-1417.7139 -36.54077,0"
       style="fill:none;stroke:#000000"
       id="path399"
       inkscape:connector-curvature="0" />
    <path
       d="m 451.29152,-1417.7139 -36.54077,0"
       style="fill:none;stroke:#000000"
       id="path401"
       inkscape:connector-curvature="0" />
    <path
       d="m 358.9465,-1417.7139 48.3279,-27.9022"
       style="fill:none;stroke:#000000"
       id="path403"
       inkscape:connector-curvature="0" />
    <path
       d="m 478.10625,-1108.9776 -189.9916,0 0,142.49372 189.9916,0 0,-142.49372 z"
       style="fill:none;stroke:#414141"
       id="path405"
       inkscape:connector-curvature="0" />
    <path
       d="m 349.6279,-1037.7307 -43.84893,0"
       style="fill:none;stroke:#000000"
       id="path407"
       inkscape:connector-curvature="0" />
    <path
       d="m 460.44192,-1037.7307 -43.84892,0"
       style="fill:none;stroke:#000000"
       id="path409"
       inkscape:connector-curvature="0" />
    <text
       style="font-size:28.5px;line-height:125%;fill:#000000;font-family:Arial"
       x="352.39966"
       y="-1024.2239"
       sodipodi:linespacing="125%"
       id="text411">
      <tspan
         sodipodi:role="line"
         id="tspan413"
         x="352.39966"
         y="-1024.2239">SBC</tspan>
    </text>
    <path
       d="m 349.6279,-1013.2493 66.9651,0 0,-48.9629 -66.9651,0 0,48.9629 z"
       style="fill:none;stroke:#000000"
       id="path415"
       inkscape:connector-curvature="0" />
    <path
       d="m 478.10625,-1298.9692 -189.9916,0 0,142.4937 189.9916,0 0,-142.4937 z"
       style="fill:none;stroke:#414141"
       id="path417"
       inkscape:connector-curvature="0" />
    <path
       d="m 358.9465,-1227.7223 -36.54077,0"
       style="fill:none;stroke:#000000"
       id="path419"
       inkscape:connector-curvature="0" />
    <path
       d="m 451.29152,-1227.7223 -36.54077,0"
       style="fill:none;stroke:#000000"
       id="path421"
       inkscape:connector-curvature="0" />
    <path
       d="m 358.9465,-1227.7223 48.3279,-27.9022"
       style="fill:none;stroke:#000000"
       id="path423"
       inkscape:connector-curvature="0" />
    <path
       d="m 397.48509,-1240.6844 a 8.683437,8.683437 150.01814 1 0 -14.37464,-0.989"
       style="fill:none;stroke:#000000"
       id="path425"
       inkscape:connector-curvature="0" />
    <path
       d="m 368.7358,-1242.6624 a 8.683437,8.683437 150.01814 1 0 14.37465,0.989"
       style="fill:none;stroke:#000000"
       id="path427"
       inkscape:connector-curvature="0" />
    <path
       d="m 478.10625,-918.98598 -189.9916,0 0,142.4937 189.9916,0 0,-142.4937 z"
       style="fill:none;stroke:#414141"
       id="path429"
       inkscape:connector-curvature="0" />
    <path
       d="m 478.10625,-728.99438 -189.9916,0 0,142.4937 189.9916,0 0,-142.4937 z"
       style="fill:none;stroke:#414141"
       id="path431"
       inkscape:connector-curvature="0" />
    <path
       d="m 353.36608,-847.73913 -43.84893,0"
       style="fill:none;stroke:#000000"
       id="path433"
       inkscape:connector-curvature="0" />
    <path
       d="m 464.1801,-847.73913 -43.84893,0"
       style="fill:none;stroke:#000000"
       id="path435"
       inkscape:connector-curvature="0" />
    <text
       style="font-size:28.5px;line-height:125%;fill:#000000;font-family:Arial"
       x="365.54919"
       y="-834.2323"
       sodipodi:linespacing="125%"
       id="text437">
      <tspan
         sodipodi:role="line"
         id="tspan439"
         x="365.54919"
         y="-834.2323">RC</tspan>
    </text>
    <path
       d="m 353.36608,-823.2577 66.96509,0 0,-48.96286 -66.96509,0 0,48.96286 z"
       style="fill:none;stroke:#000000"
       id="path441"
       inkscape:connector-curvature="0" />
    <path
       d="m 353.36608,-657.74753 -43.84893,0"
       style="fill:none;stroke:#000000"
       id="path443"
       inkscape:connector-curvature="0" />
    <path
       d="m 464.1801,-657.74753 -43.84893,0"
       style="fill:none;stroke:#000000"
       id="path445"
       inkscape:connector-curvature="0" />
    <text
       style="font-size:28.5px;line-height:125%;fill:#000000;font-family:Arial"
       x="367.03522"
       y="-644.24072"
       sodipodi:linespacing="125%"
       id="text447">
      <tspan
         sodipodi:role="line"
         id="tspan449"
         x="367.03522"
         y="-644.24072">SZ</tspan>
    </text>
    <path
       d="m 353.36608,-633.2661 66.96509,0 0,-48.96286 -66.96509,0 0,48.96286 z"
       style="fill:none;stroke:#000000"
       id="path451"
       inkscape:connector-curvature="0" />
    <path
       d="m 478.10625,-539.00278 -189.9916,0 0,142.4937 189.9916,0 0,-142.4937 z"
       style="fill:none;stroke:#414141"
       id="path453"
       inkscape:connector-curvature="0" />
    <path
       d="m 478.10625,-349.01118 -189.9916,0 0,142.4937 189.9916,0 0,-142.4937 z"
       style="fill:none;stroke:#414141"
       id="path455"
       inkscape:connector-curvature="0" />
    <text
       style="font-size:28.5px;line-height:125%;fill:#000000;font-family:Arial"
       x="361.93994"
       y="-481.94971"
       sodipodi:linespacing="125%"
       id="text457">
      <tspan
         sodipodi:role="line"
         id="tspan459"
         x="361.93994"
         y="-481.94971">Bz</tspan>
    </text>
    <path
       d="m 349.6279,-459.17181 66.9651,0 0,-60.76612 -66.9651,0 0,60.76612 z"
       style="fill:none;stroke:#000000"
       id="path461"
       inkscape:connector-curvature="0" />
    <path
       d="m 349.6279,-454.76817 66.9651,0 0,18.72375 -66.9651,0 0,-18.72375 z"
       style="fill:none;stroke:#000000"
       id="path463"
       inkscape:connector-curvature="0" />
    <path
       d="m 362.72679,-444.01122 0,28.93715 -23.31376,0"
       style="fill:none;stroke:#000000;stroke-width:0.5"
       id="path465"
       inkscape:connector-curvature="0" />
    <path
       d="m 339.41303,-415.07407 -8.98178,0"
       style="fill:none;stroke:#000000;stroke-width:0.5"
       id="path467"
       inkscape:connector-curvature="0" />
    <path
       d="m 403.49411,-444.01122 0,28.93715 23.31375,0"
       style="fill:none;stroke:#000000;stroke-width:0.5"
       id="path469"
       inkscape:connector-curvature="0" />
    <path
       d="m 426.80786,-415.07407 8.98179,0"
       style="fill:none;stroke:#000000;stroke-width:0.5"
       id="path471"
       inkscape:connector-curvature="0" />
    <text
       style="font-size:28.5px;line-height:125%;fill:#000000;font-family:Arial"
       x="360.31146"
       y="-277.75439"
       sodipodi:linespacing="125%"
       id="text473">
      <tspan
         sodipodi:role="line"
         id="tspan475"
         x="360.31146"
         y="-277.75439">CC</tspan>
    </text>
    <path
       d="m 349.6279,-318.92822 66.9651,0 0,72.8754 -66.9651,0 0,-72.8754 z"
       style="fill:none;stroke:#000000"
       id="path477"
       inkscape:connector-curvature="0" />
    <path
       d="m 362.72679,-254.01962 0,28.93715 -23.31376,0"
       style="fill:none;stroke:#000000;stroke-width:0.5"
       id="path479"
       inkscape:connector-curvature="0" />
    <path
       d="m 403.49411,-254.01962 0,28.93715 23.31375,0"
       style="fill:none;stroke:#000000;stroke-width:0.5"
       id="path481"
       inkscape:connector-curvature="0" />
    <path
       d="m 478.10625,-159.01958 -189.9916,0 0,142.493702 189.9916,0 0,-142.493702 z"
       style="fill:none;stroke:#414141"
       id="path483"
       inkscape:connector-curvature="0" />
    <text
       style="font-size:28.5px;line-height:125%;fill:#000000;font-family:Arial"
       x="361.93994"
       y="-87.762787"
       sodipodi:linespacing="125%"
       id="text485">
      <tspan
         sodipodi:role="line"
         id="tspan487"
         x="361.93994"
         y="-87.762787">CT</tspan>
    </text>
    <path
       d="m 349.6279,-128.93662 66.9651,0 0,72.875398 -66.9651,0 0,-72.875398 z"
       style="fill:none;stroke:#000000"
       id="path489"
       inkscape:connector-curvature="0" />
    <path
       d="m 362.72679,-64.028025 0,28.937152 -23.31376,0"
       style="fill:none;stroke:#000000;stroke-width:0.5"
       id="path491"
       inkscape:connector-curvature="0" />
    <path
       d="m 403.49411,-64.028025 0,28.937152 23.31375,0"
       style="fill:none;stroke:#000000;stroke-width:0.5"
       id="path493"
       inkscape:connector-curvature="0" />
    <path
       d="m 212.11801,410.95522 -189.991601,0 0,142.4937 189.991601,0 0,-142.4937 z"
       style="fill:none;stroke:#414141"
       id="path495"
       inkscape:connector-curvature="0" />
    <path
       d="m 478.10625,410.95522 -189.9916,0 0,142.4937 189.9916,0 0,-142.4937 z"
       style="fill:none;stroke:#414141"
       id="path497"
       inkscape:connector-curvature="0" />
    <path
       d="m 744.09449,410.95522 -189.9916,0 0,142.4937 189.9916,0 0,-142.4937 z"
       style="fill:none;stroke:#414141"
       id="path499"
       inkscape:connector-curvature="0" />
    <path
       d="m 212.11801,600.94682 -189.991601,0 0,142.4937 189.991601,0 0,-142.4937 z"
       style="fill:none;stroke:#414141"
       id="path501"
       inkscape:connector-curvature="0" />
    <path
       d="m 478.10625,600.94682 -189.9916,0 0,142.4937 189.9916,0 0,-142.4937 z"
       style="fill:none;stroke:#414141"
       id="path503"
       inkscape:connector-curvature="0" />
    <path
       d="m 744.09449,600.94682 -189.9916,0 0,142.4937 189.9916,0 0,-142.4937 z"
       style="fill:none;stroke:#414141"
       id="path505"
       inkscape:connector-curvature="0" />
    <path
       d="m 76.94315,536.73516 80.35812,0 0,-109.06617 -80.35812,0 0,109.06617 z"
       style="fill:none;stroke:#000000"
       id="path507"
       inkscape:connector-curvature="0" />
    <path
       d="m 130.31537,437.48463 0,15.68976"
       style="fill:none;stroke:#000000;stroke-width:1.20000005"
       id="path509"
       inkscape:connector-curvature="0" />
    <path
       d="m 130.31537,475.97339 0,54.40929"
       style="fill:none;stroke:#000000;stroke-width:1.20000005"
       id="path511"
       inkscape:connector-curvature="0" />
    <path
       d="m 130.31537,475.97339 -11.3995,-19.74451"
       style="fill:none;stroke:#000000;stroke-width:1.20000005"
       id="path513"
       inkscape:connector-curvature="0" />
    <path
       d="m 128.61126,453.17439 3.40875,0"
       style="fill:none;stroke:#000000;stroke-width:1.20000005"
       id="path515"
       inkscape:connector-curvature="0" />
    <path
       d="m 342.93139,536.73516 80.35812,0 0,-109.06617 -80.35812,0 0,109.06617 z"
       style="fill:none;stroke:#000000"
       id="path517"
       inkscape:connector-curvature="0" />
    <path
       d="m 396.30361,437.48463 0,15.68976"
       style="fill:none;stroke:#000000;stroke-width:1.20000005"
       id="path519"
       inkscape:connector-curvature="0" />
    <path
       d="m 396.30361,475.97339 0,54.40929"
       style="fill:none;stroke:#000000;stroke-width:1.20000005"
       id="path521"
       inkscape:connector-curvature="0" />
    <path
       d="m 396.30361,475.97339 -11.3995,-19.74451"
       style="fill:none;stroke:#000000;stroke-width:1.20000005"
       id="path523"
       inkscape:connector-curvature="0" />
    <path
       d="m 394.5995,453.17439 3.40875,0"
       style="fill:none;stroke:#000000;stroke-width:1.20000005"
       id="path525"
       inkscape:connector-curvature="0" />
    <path
       d="m 412.35878,490.71895 -11.18961,0"
       style="fill:none;stroke:#000000;stroke-width:0.5;stroke-dasharray:22.799, 34.1985"
       id="path527"
       inkscape:connector-curvature="0" />
    <path
       d="m 391.43804,480.5204 0,20.39711"
       style="fill:none;stroke:#000000"
       id="path529"
       inkscape:connector-curvature="0" />
    <path
       d="m 401.16917,500.91751 -9.73113,0"
       style="fill:none;stroke:#000000"
       id="path531"
       inkscape:connector-curvature="0" />
    <path
       d="m 401.16917,480.5204 -9.73113,0"
       style="fill:none;stroke:#000000"
       id="path533"
       inkscape:connector-curvature="0" />
    <path
       d="m 401.16917,480.5204 0,20.39711"
       style="fill:none;stroke:#000000"
       id="path535"
       inkscape:connector-curvature="0" />
    <path
       d="m 412.35878,466.10113 0,24.61782"
       style="fill:none;stroke:#000000;stroke-width:0.5;stroke-dasharray:22.799, 34.1985"
       id="path537"
       inkscape:connector-curvature="0" />
    <path
       d="m 412.35878,466.10113 -21.75492,0"
       style="fill:none;stroke:#000000;stroke-width:0.5;stroke-dasharray:22.799, 34.1985"
       id="path539"
       inkscape:connector-curvature="0" />
    <path
       d="m 608.91963,536.73516 80.35812,0 0,-109.06617 -80.35812,0 0,109.06617 z"
       style="fill:none;stroke:#000000"
       id="path541"
       inkscape:connector-curvature="0" />
    <path
       d="m 662.29185,437.48463 0,15.68976"
       style="fill:none;stroke:#000000;stroke-width:1.20000005"
       id="path543"
       inkscape:connector-curvature="0" />
    <path
       d="m 662.29185,475.97339 0,54.40929"
       style="fill:none;stroke:#000000;stroke-width:1.20000005"
       id="path545"
       inkscape:connector-curvature="0" />
    <path
       d="m 662.29185,475.97339 -11.3995,-19.74451"
       style="fill:none;stroke:#000000;stroke-width:1.20000005"
       id="path547"
       inkscape:connector-curvature="0" />
    <path
       d="m 659.46679,455.99945 5.65011,-5.65012"
       style="fill:none;stroke:#000000;stroke-width:1.20000005"
       id="path549"
       inkscape:connector-curvature="0" />
    <path
       d="m 665.1169,455.99945 -5.65011,-5.65012"
       style="fill:none;stroke:#000000;stroke-width:1.20000005"
       id="path551"
       inkscape:connector-curvature="0" />
    <path
       d="m 76.94315,726.72676 80.35812,0 0,-109.06618 -80.35812,0 0,109.06618 z"
       style="fill:none;stroke:#000000"
       id="path553"
       inkscape:connector-curvature="0" />
    <path
       d="m 130.31537,627.47623 0,92.89805"
       style="fill:none;stroke:#000000;stroke-width:1.20000005"
       id="path555"
       inkscape:connector-curvature="0" />
    <path
       d="m 342.93139,726.72676 80.35812,0 0,-109.06618 -80.35812,0 0,109.06618 z"
       style="fill:none;stroke:#000000"
       id="path557"
       inkscape:connector-curvature="0" />
    <path
       d="m 383.11045,627.47623 0,92.89805"
       style="fill:none;stroke:#000000;stroke-width:1.20000005"
       id="path559"
       inkscape:connector-curvature="0" />
    <path
       d="m 608.91963,726.72676 80.35812,0 0,-109.06618 -80.35812,0 0,109.06618 z"
       style="fill:none;stroke:#000000"
       id="path561"
       inkscape:connector-curvature="0" />
    <path
       d="m 130.31537,685.44004 -9.73114,0"
       style="fill:none;stroke:#000000"
       id="path563"
       inkscape:connector-curvature="0" />
    <path
       d="m 120.58423,685.44004 a 7.590219,7.590219 0 1 0 -15.18043,0 7.590219,7.590219 0 1 0 15.18043,0 z"
       style="fill:none;stroke:#000000"
       id="path565"
       inkscape:connector-curvature="0" />
    <path
       d="m 109.33922,685.44004 a 7.590219,7.590219 0 1 0 -15.180434,0 7.590219,7.590219 0 1 0 15.180434,0 z"
       style="fill:none;stroke:#000000"
       id="path567"
       inkscape:connector-curvature="0" />
    <path
       d="m 137.90558,659.6956 a 7.590219,7.590219 0 1 0 -15.18043,0 7.590219,7.590219 0 1 0 15.18043,0 z"
       style="fill:none;stroke:#000000"
       id="path569"
       inkscape:connector-curvature="0" />
    <path
       d="m 126.66058,659.6956 a 7.59022,7.59022 0 1 0 -15.18044,0 7.59022,7.59022 0 1 0 15.18044,0 z"
       style="fill:none;stroke:#000000"
       id="path571"
       inkscape:connector-curvature="0" />
    <path
       d="m 89.917754,685.44004 4.241032,0"
       style="fill:none;stroke:#000000"
       id="path573"
       inkscape:connector-curvature="0" />
    <path
       d="m 89.917754,659.6956 21.562386,0"
       style="fill:none;stroke:#000000"
       id="path575"
       inkscape:connector-curvature="0" />
    <path
       d="m 360.75199,720.37428 -14.34797,0"
       style="fill:none;stroke:#000000"
       id="path577"
       inkscape:connector-curvature="0" />
    <path
       d="m 419.81688,627.47623 -14.34798,0"
       style="fill:none;stroke:#000000"
       id="path579"
       inkscape:connector-curvature="0" />
    <path
       d="m 351.95257,720.37428 31.15788,0"
       style="fill:none;stroke:#000000;stroke-width:1.20000005"
       id="path581"
       inkscape:connector-curvature="0" />
    <path
       d="m 383.11045,627.47623 24.22993,0"
       style="fill:none;stroke:#000000;stroke-width:1.20000005"
       id="path583"
       inkscape:connector-curvature="0" />
    <path
       d="m 649.09869,627.47623 0,83.01114"
       style="fill:none;stroke:#000000;stroke-width:1.20000005"
       id="path585"
       inkscape:connector-curvature="0" />
    <path
       d="m 649.09869,710.48737 6.32587,10.95674"
       style="fill:none;stroke:#000000;stroke-width:1.20000005"
       id="path587"
       inkscape:connector-curvature="0" />
    <path
       d="m 649.09869,710.48737 -6.32587,10.95674"
       style="fill:none;stroke:#000000;stroke-width:1.20000005"
       id="path589"
       inkscape:connector-curvature="0" />
    <path
       d="m 655.42456,721.44411 -12.65174,0"
       style="fill:none;stroke:#000000;stroke-width:1.20000005"
       id="path591"
       inkscape:connector-curvature="0" />
    <path
       d="m 365.81992,511.12791 13.82116,-7.97965"
       style="fill:none;stroke:#000000"
       id="path593"
       inkscape:connector-curvature="0" />
    <path
       d="m 381.77922,509.42354 0,3.40874"
       style="fill:none;stroke:#000000"
       id="path595"
       inkscape:connector-curvature="0" />
    <path
       d="m 396.30361,511.12817 -14.52439,0"
       style="fill:none;stroke:#000000"
       id="path597"
       inkscape:connector-curvature="0" />
    <path
       d="m 365.81946,511.12817 -12.40941,0 0,7.72774"
       style="fill:none;stroke:#000000"
       id="path599"
       inkscape:connector-curvature="0" />
    <path
       d="m 346.56764,518.85591 13.68482,0"
       style="fill:none;stroke:#000000"
       id="path601"
       inkscape:connector-curvature="0" />
    <path
       d="m 349.3046,521.51579 8.21089,0"
       style="fill:none;stroke:#000000"
       id="path603"
       inkscape:connector-curvature="0" />
    <path
       d="m 351.35732,524.17567 4.10545,0"
       style="fill:none;stroke:#000000"
       id="path605"
       inkscape:connector-curvature="0" />
    <path
       d="m 99.831682,501.62833 13.821158,-7.97965"
       style="fill:none;stroke:#000000"
       id="path607"
       inkscape:connector-curvature="0" />
    <path
       d="m 115.79098,499.92395 0,3.40875"
       style="fill:none;stroke:#000000"
       id="path609"
       inkscape:connector-curvature="0" />
    <path
       d="m 130.31537,501.6286 -14.52439,0"
       style="fill:none;stroke:#000000"
       id="path611"
       inkscape:connector-curvature="0" />
    <path
       d="m 99.831222,501.6286 -12.409415,0 0,7.72773"
       style="fill:none;stroke:#000000"
       id="path613"
       inkscape:connector-curvature="0" />
    <path
       d="m 80.579397,509.35633 13.68482,0"
       style="fill:none;stroke:#000000"
       id="path615"
       inkscape:connector-curvature="0" />
    <path
       d="m 83.316361,512.01621 8.210892,0"
       style="fill:none;stroke:#000000"
       id="path617"
       inkscape:connector-curvature="0" />
    <path
       d="m 85.369084,514.6761 4.105446,0"
       style="fill:none;stroke:#000000"
       id="path619"
       inkscape:connector-curvature="0" />
    <path
       d="m 631.80816,501.62833 13.82116,-7.97965"
       style="fill:none;stroke:#000000"
       id="path621"
       inkscape:connector-curvature="0" />
    <path
       d="m 647.76746,499.92395 0,3.40875"
       style="fill:none;stroke:#000000"
       id="path623"
       inkscape:connector-curvature="0" />
    <path
       d="m 662.29185,501.6286 -14.52439,0"
       style="fill:none;stroke:#000000"
       id="path625"
       inkscape:connector-curvature="0" />
    <path
       d="m 631.8077,501.6286 -12.40941,0 0,7.72773"
       style="fill:none;stroke:#000000"
       id="path627"
       inkscape:connector-curvature="0" />
    <path
       d="m 612.55588,509.35633 13.68482,0"
       style="fill:none;stroke:#000000"
       id="path629"
       inkscape:connector-curvature="0" />
    <path
       d="m 615.29284,512.01621 8.21089,0"
       style="fill:none;stroke:#000000"
       id="path631"
       inkscape:connector-curvature="0" />
    <path
       d="m 617.34556,514.6761 4.10545,0"
       style="fill:none;stroke:#000000"
       id="path633"
       inkscape:connector-curvature="0" />
    <path
       d="m 80.415781,437.48463 73.412859,0"
       style="fill:none;stroke:#000000;stroke-width:1.39999998"
       id="path635"
       inkscape:connector-curvature="0" />
    <path
       d="m 346.40402,437.48463 73.41286,0"
       style="fill:none;stroke:#000000;stroke-width:1.39999998"
       id="path637"
       inkscape:connector-curvature="0" />
    <path
       d="m 612.39226,437.48463 73.41286,0"
       style="fill:none;stroke:#000000;stroke-width:1.39999998"
       id="path639"
       inkscape:connector-curvature="0" />
    <path
       d="m 80.415781,627.47623 73.412859,0"
       style="fill:none;stroke:#000000;stroke-width:1.39999998"
       id="path641"
       inkscape:connector-curvature="0" />
    <path
       d="m 685.80512,627.47623 -14.34798,0"
       style="fill:none;stroke:#000000"
       id="path643"
       inkscape:connector-curvature="0" />
    <path
       d="m 649.09869,627.47623 24.22993,0"
       style="fill:none;stroke:#000000;stroke-width:1.20000005"
       id="path645"
       inkscape:connector-curvature="0" />
    <use
       x="10769780"
       y="-11642271"
       xlink:href="#POSTE-CP"
       id="use393"
       width="744.09448"
       height="1052.3622"
       transform="matrix(1.4222222,0,0,1.42224,-109.51111,843.40471)"
       style="stroke-width:2.5;stroke-miterlimit:4;stroke-dasharray:none" />
  </g>
  <g
     inkscape:groupmode="layer"
     id="layer3"
     inkscape:label="a"
     style="display:inline">
    <g
       id="g3200"
       transform="matrix(2.0930691,0,0,2.1209453,-52.191962,-69.25948)">
      <g
         transform="matrix(-0.60968702,0,0,-0.60968702,96.611121,103.18436)"
         style="stroke-width:4.4000001;stroke-miterlimit:4;stroke-dasharray:none"
         id="g4291">
        <g
           id="g5299"
           transform="matrix(1.7614124,0,0,1.7614124,-132.21708,-44.905736)"
           style="stroke-width:2.49799538;stroke-miterlimit:4;stroke-dasharray:none">
          <path
             transform="matrix(0.93051237,0,0,0.93051235,39.680605,4.3777223)"
             d="m 80,63 c 0,8.284271 -6.715729,15 -15,15 -8.284271,0 -15,-6.715729 -15,-15 0,-8.284271 6.715729,-15 15,-15 8.284271,0 15,6.715729 15,15 z"
             sodipodi:ry="15"
             sodipodi:rx="15"
             sodipodi:cy="63"
             sodipodi:cx="65"
             id="path4483"
             style="fill:none;stroke:#000000;stroke-width:2.68453765;stroke-linecap:round;stroke-linejoin:round;stroke-miterlimit:4;stroke-dasharray:none;stroke-dashoffset:0"
             sodipodi:type="arc" />
          <rect
             transform="matrix(0.64079202,-0.76771452,-0.76771452,-0.64079202,0,0)"
             y="-118.74342"
             x="4.088397"
             height="1.9366164"
             width="24.33135"
             id="rect5261"
             style="fill:#000000;fill-opacity:1;stroke:#000000;stroke-width:2.49799538;stroke-linecap:round;stroke-linejoin:round;stroke-miterlimit:4;stroke-dasharray:none;stroke-dashoffset:0" />
          <rect
             transform="matrix(0.65259432,0.7577075,0.7577075,-0.65259432,0,0)"
             y="33.856586"
             x="100.89651"
             height="1.9492072"
             width="24.48954"
             id="rect5261-3"
             style="fill:#000000;fill-opacity:1;stroke:#000000;stroke-width:2.49799538;stroke-linecap:round;stroke-linejoin:round;stroke-miterlimit:4;stroke-dasharray:none;stroke-dashoffset:0" />
        </g>
        <g
           style="stroke-width:1.59007239;stroke-miterlimit:4;stroke-dasharray:none"
           id="g5479"
           transform="matrix(2.4866374,0,0,3.0793504,-145.43933,-142.53934)">
          <rect
             transform="matrix(0.99242502,-0.12285183,0.12285183,0.99242502,0,0)"
             y="75.268486"
             x="77.430969"
             height="0.98085076"
             width="18.887173"
             id="rect5450"
             style="fill:#000000;fill-opacity:1;stroke:#000000;stroke-width:1.59007239;stroke-linecap:round;stroke-linejoin:round;stroke-miterlimit:4;stroke-dasharray:none;stroke-dashoffset:0" />
          <rect
             transform="matrix(0.9887754,0.14940956,-0.14940956,0.9887754,0,0)"
             y="55.978161"
             x="95.597488"
             height="0.92738485"
             width="19.007893"
             id="rect5450-1"
             style="fill:#000000;fill-opacity:1;stroke:#000000;stroke-width:1.59007239;stroke-linecap:round;stroke-linejoin:round;stroke-miterlimit:4;stroke-dasharray:none;stroke-dashoffset:0" />
          <rect
             y="63.060902"
             x="104.08754"
             height="9.087698"
             width="0.77568799"
             id="rect5477"
             style="fill:#000000;fill-opacity:1;stroke:#000000;stroke-width:1.59007239;stroke-linecap:round;stroke-linejoin:round;stroke-miterlimit:4;stroke-dasharray:none;stroke-dashoffset:0" />
        </g>
      </g>
      <path
         inkscape:connector-curvature="0"
         id="path3195"
         d="m 66.032808,54.942067 -3.193809,-3.711546 1.000132,-0.506804 c 3.165971,-1.604319 7.675006,-1.698689 11.09461,-0.2322 0.764045,0.32766 0.903443,0.455396 0.680974,0.624008 -0.153852,0.116607 -1.654113,1.860379 -3.333915,3.875049 l -3.054183,3.663038 -3.193809,-3.711545 z"
         style="fill:#ffffff;fill-opacity:1;stroke:#ffffff;stroke-width:0.19723865" />
      <path
         inkscape:connector-curvature="0"
         id="path3197"
         d="m 76.438518,67.060284 c -2.006903,-2.342266 -3.675366,-4.36565 -3.707694,-4.496407 -0.03233,-0.130758 1.421532,-2.002367 3.230802,-4.159132 1.809269,-2.156764 3.332758,-4.076715 3.38553,-4.266557 0.151295,-0.544264 0.333196,-0.422579 1.179375,0.788954 2.895352,4.145479 3.428691,9.098281 1.459193,13.550657 -0.418819,0.94681 -1.633847,2.877929 -1.796511,2.855307 -0.05598,-0.0078 -1.743792,-1.930555 -3.750695,-4.272822 z"
         style="fill:#ffffff;fill-opacity:1;stroke:#ffffff;stroke-width:0.19723865" />
      <path
         inkscape:connector-curvature="0"
         id="path3199"
         d="M 66.875565,76.148161 C 66.117913,75.985831 64.8418,75.549825 64.039758,75.179258 62.71076,74.565223 62.605584,74.47484 62.853204,74.159593 c 0.259054,-0.329803 6.00271,-7.276188 6.28815,-7.604896 0.0752,-0.0866 1.741431,1.701713 3.702732,3.974031 l 3.566002,4.131487 -1.336512,0.597602 c -2.594863,1.160257 -5.477188,1.473291 -8.198011,0.890344 z"
         style="fill:#ffffff;fill-opacity:1;stroke:#ffffff;stroke-width:0.19723865" />
      <path
         inkscape:connector-curvature="0"
         id="path3201"
         d="m 58.441491,70.508789 c -0.785958,-1.199523 -1.579113,-3.084934 -1.951164,-4.638116 -0.780977,-3.260303 -0.195457,-6.900426 1.594613,-9.91356 0.449324,-0.756326 0.879558,-1.369361 0.956075,-1.362299 0.185116,0.01708 6.771438,7.73002 6.786738,7.947634 0.01447,0.205756 -6.779915,8.410335 -6.964772,8.410335 -0.07182,0 -0.261486,-0.199797 -0.42149,-0.443994 z"
         style="fill:#ffffff;fill-opacity:1;stroke:#ffffff;stroke-width:0.19723865" />
      <path
         inkscape:connector-curvature="0"
         id="path3203"
         d="m 28.904001,62.205905 0,-6.190292 0.739645,0.137774 c 0.406805,0.07578 5.899274,1.100577 12.205488,2.277336 l 11.465842,2.139562 -0.026,2.03541 c -0.0143,1.119476 -0.05785,2.03542 -0.09678,2.035431 -0.181205,5.2e-5 -23.454218,3.567952 -23.84441,3.655498 l -0.443787,0.09957 0,-6.190291 z"
         style="fill:#ffffff;fill-opacity:1;stroke:#ffffff;stroke-width:0.19723865" />
    </g>
  </g>
</svg>
