<?xml version="1.0" encoding="UTF-8" standalone="no"?>
<svg
   xmlns:dc="http://purl.org/dc/elements/1.1/"
   xmlns:cc="http://creativecommons.org/ns#"
   xmlns:rdf="http://www.w3.org/1999/02/22-rdf-syntax-ns#"
   xmlns:svg="http://www.w3.org/2000/svg"
   xmlns="http://www.w3.org/2000/svg"
   xmlns:xlink="http://www.w3.org/1999/xlink"
   xmlns:sodipodi="http://sodipodi.sourceforge.net/DTD/sodipodi-0.dtd"
   xmlns:inkscape="http://www.inkscape.org/namespaces/inkscape"
   width="128"
   height="128"
   id="svg2"
   version="1.1"
   inkscape:version="0.48.4 r9939"
   sodipodi:docname="suspension.svg">
  <metadata
     id="metadata649">
    <rdf:RDF>
      <cc:Work
         rdf:about="">
        <dc:format>image/svg+xml</dc:format>
        <dc:type
           rdf:resource="http://purl.org/dc/dcmitype/StillImage" />
        <dc:title />
      </cc:Work>
    </rdf:RDF>
  </metadata>
  <sodipodi:namedview
     pagecolor="#ffffff"
     bordercolor="#666666"
     borderopacity="1"
     objecttolerance="10"
     gridtolerance="10"
     guidetolerance="10"
     inkscape:pageopacity="0"
     inkscape:pageshadow="2"
     inkscape:window-width="1364"
     inkscape:window-height="718"
     id="namedview647"
     showgrid="true"
     fit-margin-top="0"
     fit-margin-left="0"
     fit-margin-right="0"
     fit-margin-bottom="0"
     inkscape:zoom="10.14"
     inkscape:cx="60.977484"
     inkscape:cy="71.324772"
     inkscape:window-x="0"
     inkscape:window-y="0"
     inkscape:window-maximized="1"
     inkscape:current-layer="layer1"
     showguides="true"
     inkscape:guide-bbox="true">
    <inkscape:grid
       type="xygrid"
       id="grid3626"
       empspacing="5"
       visible="true"
       enabled="true"
       snapvisiblegridlinesonly="true" />
    <sodipodi:guide
       orientation="1,0"
       position="64,69"
       id="guide3045" />
    <sodipodi:guide
       orientation="0,1"
       position="64.382282,64"
       id="guide3047" />
  </sodipodi:namedview>
  <desc
     id="desc4">/home/snappler/Escritorio/Simbolos-C DXF_2000.dxf - scale = 0.536199</desc>
  <defs
     id="defs6">
    <marker
       id="DistanceX"
       orient="auto"
       refX="0"
       refY="0"
       style="overflow:visible">
      <path
         d="M 3,-3 -3,3 M 0,-5 0,5"
         style="stroke:#000000;stroke-width:0.5"
         id="path9"
         inkscape:connector-curvature="0" />
    </marker>
    <pattern
       height="8"
       id="Hatch"
       patternUnits="userSpaceOnUse"
       width="8"
       x="0"
       y="0">
      <path
         d="M8 4 l-4,4"
         linecap="square"
         stroke="#000000"
         stroke-width="0.25"
         id="path12" />
      <path
         d="M6 2 l-4,4"
         linecap="square"
         stroke="#000000"
         stroke-width="0.25"
         id="path14" />
      <path
         d="M4 0 l-4,4"
         linecap="square"
         stroke="#000000"
         stroke-width="0.25"
         id="path16" />
    </pattern>
    <symbol
       id="*MODEL_SPACE" />
    <symbol
       id="*PAPER_SPACE" />
    <symbol
       id="POSTE-RD">
      <path
         d="m -10769658,11642373 7,0"
         style="fill:none;stroke:#000000"
         id="path21"
         inkscape:connector-curvature="0" />
      <path
         d="m -10769666,11642377 6,-8"
         style="fill:none;stroke:#000000"
         id="path23"
         inkscape:connector-curvature="0" />
      <path
         d="m -10769658,11642373 a 5,5 0 1 0 -10,0 5,5 0 1 0 10,0 z"
         style="fill:none;stroke:#000000"
         id="path25"
         inkscape:connector-curvature="0" />
      <path
         d="m -10769659,11642376 -8,-6"
         style="fill:none;stroke:#000000"
         id="path27"
         inkscape:connector-curvature="0" />
      <path
         d="m -10769645,11642373 -6,-2 0,4 z"
         style="fill:#000000"
         id="path29"
         inkscape:connector-curvature="0" />
    </symbol>
    <symbol
       id="POSTE-CP">
      <path
         d="m -10769658,11642373 a 5,5 0 1 0 -10,0 5,5 0 1 0 10,0 z"
         style="fill:none;stroke:#000000"
         id="path32"
         inkscape:connector-curvature="0" />
      <path
         d="m -10769666,11642377 6,-8"
         style="fill:none;stroke:#000000"
         id="path34"
         inkscape:connector-curvature="0" />
      <path
         d="m -10769648,11642370 0,6"
         style="fill:none;stroke:#000000"
         id="path36"
         inkscape:connector-curvature="0" />
      <path
         d="m -10769659,11642375 11,1"
         style="fill:none;stroke:#000000"
         id="path38"
         inkscape:connector-curvature="0" />
      <path
         d="m -10769659,11642371 11,-1"
         style="fill:none;stroke:#000000"
         id="path40"
         inkscape:connector-curvature="0" />
      <path
         d="m -10769659,11642376 -8,-6"
         style="fill:none;stroke:#000000"
         id="path42"
         inkscape:connector-curvature="0" />
    </symbol>
    <symbol
       id="POSTE-MA">
      <path
         d="m -10769658,11642373 a 5,5 0 1 0 -10,0 5,5 0 1 0 10,0 z"
         style="fill:none;stroke:#000000"
         id="path45"
         inkscape:connector-curvature="0" />
      <path
         d="m -10769659,11642376 -8,-6"
         style="fill:none;stroke:#000000"
         id="path47"
         inkscape:connector-curvature="0" />
      <path
         d="m -10769666,11642377 6,-8"
         style="fill:none;stroke:#000000"
         id="path49"
         inkscape:connector-curvature="0" />
    </symbol>
    <symbol
       id="POSTE-HA">
      <path
         d="m -10769656,11642373 a 7.21976,7.21976 0 1 0 -14,0 7.21976,7.21976 0 1 0 14,0 z"
         style="fill:none;stroke:#000000"
         id="path52"
         inkscape:connector-curvature="0" />
      <path
         d="m -10769663,11642366 0,14"
         style="fill:none;stroke:#000000"
         id="path54"
         inkscape:connector-curvature="0" />
      <path
         d="m -10769656,11642373 -7,-7 0,14 z"
         style="fill:#000000"
         id="path56"
         inkscape:connector-curvature="0" />
    </symbol>
    <symbol
       id="PAT">
      <path
         d="m -10769663,11642373 0,8"
         style="fill:none;stroke:#000000"
         id="path59"
         inkscape:connector-curvature="0" />
      <path
         d="m -10769663,11642381 5,0"
         style="fill:none;stroke:#000000"
         id="path61"
         inkscape:connector-curvature="0" />
      <path
         d="m -10769663,11642383 4,0"
         style="fill:none;stroke:#000000"
         id="path63"
         inkscape:connector-curvature="0" />
      <path
         d="m -10769663,11642384 3,0"
         style="fill:none;stroke:#000000"
         id="path65"
         inkscape:connector-curvature="0" />
      <path
         d="m -10769663,11642386 2,0"
         style="fill:none;stroke:#000000"
         id="path67"
         inkscape:connector-curvature="0" />
      <path
         d="m -10769663,11642381 -5,0"
         style="fill:none;stroke:#000000"
         id="path69"
         inkscape:connector-curvature="0" />
      <path
         d="m -10769663,11642386 -2,0"
         style="fill:none;stroke:#000000"
         id="path71"
         inkscape:connector-curvature="0" />
      <path
         d="m -10769663,11642384 -3,0"
         style="fill:none;stroke:#000000"
         id="path73"
         inkscape:connector-curvature="0" />
      <path
         d="m -10769663,11642383 -4,0"
         style="fill:none;stroke:#000000"
         id="path75"
         inkscape:connector-curvature="0" />
    </symbol>
  </defs>
  <g
     inkscape:groupmode="layer"
     inkscape:label="0"
     id="g77"
     transform="translate(0.5,-924.86237)"
     style="display:none">
    <use
       x="10769780"
       y="-11643221"
       xlink:href="#POSTE-MA"
       id="use355-7"
       width="744.09448"
       height="1052.3622"
       transform="matrix(2.8728639,0.45767137,-0.45767137,2.8728639,-660.73038,3371.5033)" />
  </g>
  <g
     inkscape:groupmode="layer"
     id="layer1"
     inkscape:label="nuevo">
    <g
       id="g3034"
       transform="matrix(2.1062878,0,0,2.1062878,-69.66641,-68.492452)">
      <g
         transform="matrix(0.96801393,0,0,0.96801393,-33.486151,1.9168421)"
         id="g5299">
        <path
           sodipodi:type="arc"
           style="fill:none;stroke:#000000;stroke-width:3.59049511;stroke-linecap:round;stroke-linejoin:round;stroke-miterlimit:4;stroke-dasharray:none;stroke-dashoffset:0"
           id="path4483"
           sodipodi:cx="65"
           sodipodi:cy="63"
           sodipodi:rx="15"
           sodipodi:ry="15"
           d="m 80,63 c 0,8.284271 -6.715729,15 -15,15 -8.284271,0 -15,-6.715729 -15,-15 0,-8.284271 6.715729,-15 15,-15 8.284271,0 15,6.715729 15,15 z"
           transform="matrix(0.93051237,0,0,0.93051235,39.680605,4.3777223)" />
        <rect
           style="fill:#000000;fill-opacity:1;stroke:#000000;stroke-width:1.73365366;stroke-linecap:round;stroke-linejoin:round;stroke-miterlimit:4;stroke-dasharray:none;stroke-dashoffset:0"
           id="rect5261"
           width="24.33135"
           height="1.9366164"
           x="4.088397"
           y="-118.74342"
           transform="matrix(0.64079202,-0.76771452,-0.76771452,-0.64079202,0,0)" />
        <rect
           style="fill:#000000;fill-opacity:1;stroke:#000000;stroke-width:1.7449249;stroke-linecap:round;stroke-linejoin:round;stroke-miterlimit:4;stroke-dasharray:none;stroke-dashoffset:0"
           id="rect5261-3"
           width="24.48954"
           height="1.9492072"
           x="100.89651"
           y="33.856586"
           transform="matrix(0.65259432,0.7577075,0.7577075,-0.65259432,0,0)" />
      </g>
      <path
         inkscape:connector-curvature="0"
         id="path3029"
         d="m 69.432219,66.819861 c -3.019115,-3.514071 -3.083673,-3.608123 -2.75602,-4.015105 0.184532,-0.22921 1.612172,-1.943151 3.172533,-3.808757 3.240375,-3.874274 2.892217,-3.766007 4.140462,-1.287569 1.614247,3.205149 1.616522,7.116741 0.0061,10.407082 -0.318772,0.651283 -0.780266,1.435826 -1.02554,1.743429 l -0.445953,0.55928 -3.091533,-3.59836 z"
         style="fill:#ffffff;fill-opacity:1;stroke:#ffffff;stroke-width:0.19723865" />
      <path
         inkscape:connector-curvature="0"
         id="path3031"
         d="m 60.632165,56.611538 c -3.68046,-4.263847 -3.633743,-3.960312 -0.751902,-4.885343 1.888173,-0.606077 4.282259,-0.724838 6.168362,-0.305986 1.393454,0.309447 3.759272,1.41401 3.650688,1.704447 -0.04056,0.108482 -1.381746,1.766336 -2.980419,3.68412 l -2.906677,3.486882 -3.180052,-3.68412 z"
         style="fill:#ffffff;fill-opacity:1;stroke:#ffffff;stroke-width:0.19723865" />
      <path
         inkscape:connector-curvature="0"
         id="path3033"
         d="m 69.417416,66.827783 c -2.634957,-3.074483 -3.056215,-3.654485 -2.848474,-3.921874 0.134087,-0.172589 1.564499,-1.891383 3.178693,-3.819543 l 2.934898,-3.505746 0.476945,0.645785 c 1.782384,2.413357 2.5206,6.462098 1.737516,9.529396 -0.343373,1.344975 -1.248266,3.277054 -1.925509,4.111242 l -0.461799,0.568817 -3.09227,-3.608077 z"
         style="fill:#ffffff;fill-opacity:1;stroke:#ffffff;stroke-width:0.19723865" />
      <path
         inkscape:connector-curvature="0"
         id="path3035"
         d="m 61.075767,74.429365 c -0.66122,-0.14386 -1.651222,-0.45472 -2.200005,-0.6908 l -0.997788,-0.429237 2.971867,-3.54676 2.971868,-3.54676 0.428005,0.456397 c 0.235403,0.251018 1.558838,1.767156 2.940965,3.369196 l 2.51296,2.912799 -1.264614,0.591785 c -2.35153,1.100414 -4.938953,1.41083 -7.363258,0.88338 l 0,0 z"
         style="fill:#ffffff;fill-opacity:1;stroke:#ffffff;stroke-width:0.19723865" />
      <path
         inkscape:connector-curvature="0"
         id="path3037"
         d="m 54.206836,70.119144 c -0.856907,-1.045742 -1.964084,-3.407656 -2.261642,-4.824709 -0.471271,-2.244315 -0.203486,-4.883274 0.704461,-6.942315 0.582211,-1.320339 1.637576,-2.996075 1.837609,-2.917804 0.238261,0.09323 6.705908,7.653068 6.705908,7.838334 0,0.09341 -1.413663,1.865226 -3.141473,3.937365 l -3.141472,3.767526 -0.703391,-0.858397 z"
         style="fill:#ffffff;fill-opacity:1;stroke:#ffffff;stroke-width:0.19723865" />
    </g>
  </g>
</svg>
